G04 #@! TF.GenerationSoftware,KiCad,Pcbnew,(6.0.0)*
G04 #@! TF.CreationDate,2022-07-16T19:13:52+12:00*
G04 #@! TF.ProjectId,bldc_driver_fpga,626c6463-5f64-4726-9976-65725f667067,rev?*
G04 #@! TF.SameCoordinates,Original*
G04 #@! TF.FileFunction,Legend,Bot*
G04 #@! TF.FilePolarity,Positive*
%FSLAX46Y46*%
G04 Gerber Fmt 4.6, Leading zero omitted, Abs format (unit mm)*
G04 Created by KiCad (PCBNEW (6.0.0)) date 2022-07-16 19:13:52*
%MOMM*%
%LPD*%
G01*
G04 APERTURE LIST*
G04 Aperture macros list*
%AMRoundRect*
0 Rectangle with rounded corners*
0 $1 Rounding radius*
0 $2 $3 $4 $5 $6 $7 $8 $9 X,Y pos of 4 corners*
0 Add a 4 corners polygon primitive as box body*
4,1,4,$2,$3,$4,$5,$6,$7,$8,$9,$2,$3,0*
0 Add four circle primitives for the rounded corners*
1,1,$1+$1,$2,$3*
1,1,$1+$1,$4,$5*
1,1,$1+$1,$6,$7*
1,1,$1+$1,$8,$9*
0 Add four rect primitives between the rounded corners*
20,1,$1+$1,$2,$3,$4,$5,0*
20,1,$1+$1,$4,$5,$6,$7,0*
20,1,$1+$1,$6,$7,$8,$9,0*
20,1,$1+$1,$8,$9,$2,$3,0*%
G04 Aperture macros list end*
%ADD10C,0.150000*%
%ADD11C,0.120000*%
%ADD12R,1.100000X1.100000*%
%ADD13R,1.700000X1.700000*%
%ADD14O,1.700000X1.700000*%
%ADD15C,3.200000*%
%ADD16C,0.650000*%
%ADD17RoundRect,0.250000X-0.625000X0.350000X-0.625000X-0.350000X0.625000X-0.350000X0.625000X0.350000X0*%
%ADD18O,1.750000X1.200000*%
%ADD19RoundRect,0.237500X0.250000X0.237500X-0.250000X0.237500X-0.250000X-0.237500X0.250000X-0.237500X0*%
%ADD20RoundRect,0.250000X-1.500000X-0.550000X1.500000X-0.550000X1.500000X0.550000X-1.500000X0.550000X0*%
%ADD21RoundRect,0.250000X-0.400000X-0.625000X0.400000X-0.625000X0.400000X0.625000X-0.400000X0.625000X0*%
%ADD22RoundRect,0.237500X0.237500X-0.300000X0.237500X0.300000X-0.237500X0.300000X-0.237500X-0.300000X0*%
%ADD23RoundRect,0.237500X-0.237500X0.250000X-0.237500X-0.250000X0.237500X-0.250000X0.237500X0.250000X0*%
%ADD24RoundRect,0.237500X0.300000X0.237500X-0.300000X0.237500X-0.300000X-0.237500X0.300000X-0.237500X0*%
G04 APERTURE END LIST*
D10*
X127752380Y-54561904D02*
X126752380Y-54561904D01*
X126752380Y-54800000D01*
X126800000Y-54942857D01*
X126895238Y-55038095D01*
X126990476Y-55085714D01*
X127180952Y-55133333D01*
X127323809Y-55133333D01*
X127514285Y-55085714D01*
X127609523Y-55038095D01*
X127704761Y-54942857D01*
X127752380Y-54800000D01*
X127752380Y-54561904D01*
X127752380Y-55609523D02*
X127752380Y-55800000D01*
X127704761Y-55895238D01*
X127657142Y-55942857D01*
X127514285Y-56038095D01*
X127323809Y-56085714D01*
X126942857Y-56085714D01*
X126847619Y-56038095D01*
X126800000Y-55990476D01*
X126752380Y-55895238D01*
X126752380Y-55704761D01*
X126800000Y-55609523D01*
X126847619Y-55561904D01*
X126942857Y-55514285D01*
X127180952Y-55514285D01*
X127276190Y-55561904D01*
X127323809Y-55609523D01*
X127371428Y-55704761D01*
X127371428Y-55895238D01*
X127323809Y-55990476D01*
X127276190Y-56038095D01*
X127180952Y-56085714D01*
X125352380Y-54561904D02*
X124352380Y-54561904D01*
X124352380Y-54800000D01*
X124400000Y-54942857D01*
X124495238Y-55038095D01*
X124590476Y-55085714D01*
X124780952Y-55133333D01*
X124923809Y-55133333D01*
X125114285Y-55085714D01*
X125209523Y-55038095D01*
X125304761Y-54942857D01*
X125352380Y-54800000D01*
X125352380Y-54561904D01*
X124780952Y-55704761D02*
X124733333Y-55609523D01*
X124685714Y-55561904D01*
X124590476Y-55514285D01*
X124542857Y-55514285D01*
X124447619Y-55561904D01*
X124400000Y-55609523D01*
X124352380Y-55704761D01*
X124352380Y-55895238D01*
X124400000Y-55990476D01*
X124447619Y-56038095D01*
X124542857Y-56085714D01*
X124590476Y-56085714D01*
X124685714Y-56038095D01*
X124733333Y-55990476D01*
X124780952Y-55895238D01*
X124780952Y-55704761D01*
X124828571Y-55609523D01*
X124876190Y-55561904D01*
X124971428Y-55514285D01*
X125161904Y-55514285D01*
X125257142Y-55561904D01*
X125304761Y-55609523D01*
X125352380Y-55704761D01*
X125352380Y-55895238D01*
X125304761Y-55990476D01*
X125257142Y-56038095D01*
X125161904Y-56085714D01*
X124971428Y-56085714D01*
X124876190Y-56038095D01*
X124828571Y-55990476D01*
X124780952Y-55895238D01*
X93642857Y-51982380D02*
X93976190Y-51506190D01*
X94214285Y-51982380D02*
X94214285Y-50982380D01*
X93833333Y-50982380D01*
X93738095Y-51030000D01*
X93690476Y-51077619D01*
X93642857Y-51172857D01*
X93642857Y-51315714D01*
X93690476Y-51410952D01*
X93738095Y-51458571D01*
X93833333Y-51506190D01*
X94214285Y-51506190D01*
X93309523Y-50982380D02*
X92690476Y-50982380D01*
X93023809Y-51363333D01*
X92880952Y-51363333D01*
X92785714Y-51410952D01*
X92738095Y-51458571D01*
X92690476Y-51553809D01*
X92690476Y-51791904D01*
X92738095Y-51887142D01*
X92785714Y-51934761D01*
X92880952Y-51982380D01*
X93166666Y-51982380D01*
X93261904Y-51934761D01*
X93309523Y-51887142D01*
X91785714Y-50982380D02*
X92261904Y-50982380D01*
X92309523Y-51458571D01*
X92261904Y-51410952D01*
X92166666Y-51363333D01*
X91928571Y-51363333D01*
X91833333Y-51410952D01*
X91785714Y-51458571D01*
X91738095Y-51553809D01*
X91738095Y-51791904D01*
X91785714Y-51887142D01*
X91833333Y-51934761D01*
X91928571Y-51982380D01*
X92166666Y-51982380D01*
X92261904Y-51934761D01*
X92309523Y-51887142D01*
X104757142Y-42057142D02*
X104804761Y-42009523D01*
X104852380Y-41866666D01*
X104852380Y-41771428D01*
X104804761Y-41628571D01*
X104709523Y-41533333D01*
X104614285Y-41485714D01*
X104423809Y-41438095D01*
X104280952Y-41438095D01*
X104090476Y-41485714D01*
X103995238Y-41533333D01*
X103900000Y-41628571D01*
X103852380Y-41771428D01*
X103852380Y-41866666D01*
X103900000Y-42009523D01*
X103947619Y-42057142D01*
X104852380Y-43009523D02*
X104852380Y-42438095D01*
X104852380Y-42723809D02*
X103852380Y-42723809D01*
X103995238Y-42628571D01*
X104090476Y-42533333D01*
X104138095Y-42438095D01*
X103852380Y-43342857D02*
X103852380Y-43961904D01*
X104233333Y-43628571D01*
X104233333Y-43771428D01*
X104280952Y-43866666D01*
X104328571Y-43914285D01*
X104423809Y-43961904D01*
X104661904Y-43961904D01*
X104757142Y-43914285D01*
X104804761Y-43866666D01*
X104852380Y-43771428D01*
X104852380Y-43485714D01*
X104804761Y-43390476D01*
X104757142Y-43342857D01*
X93642857Y-50452380D02*
X93976190Y-49976190D01*
X94214285Y-50452380D02*
X94214285Y-49452380D01*
X93833333Y-49452380D01*
X93738095Y-49500000D01*
X93690476Y-49547619D01*
X93642857Y-49642857D01*
X93642857Y-49785714D01*
X93690476Y-49880952D01*
X93738095Y-49928571D01*
X93833333Y-49976190D01*
X94214285Y-49976190D01*
X93309523Y-49452380D02*
X92690476Y-49452380D01*
X93023809Y-49833333D01*
X92880952Y-49833333D01*
X92785714Y-49880952D01*
X92738095Y-49928571D01*
X92690476Y-50023809D01*
X92690476Y-50261904D01*
X92738095Y-50357142D01*
X92785714Y-50404761D01*
X92880952Y-50452380D01*
X93166666Y-50452380D01*
X93261904Y-50404761D01*
X93309523Y-50357142D01*
X92357142Y-49452380D02*
X91690476Y-49452380D01*
X92119047Y-50452380D01*
X120942857Y-37052380D02*
X121276190Y-36576190D01*
X121514285Y-37052380D02*
X121514285Y-36052380D01*
X121133333Y-36052380D01*
X121038095Y-36100000D01*
X120990476Y-36147619D01*
X120942857Y-36242857D01*
X120942857Y-36385714D01*
X120990476Y-36480952D01*
X121038095Y-36528571D01*
X121133333Y-36576190D01*
X121514285Y-36576190D01*
X120561904Y-36147619D02*
X120514285Y-36100000D01*
X120419047Y-36052380D01*
X120180952Y-36052380D01*
X120085714Y-36100000D01*
X120038095Y-36147619D01*
X119990476Y-36242857D01*
X119990476Y-36338095D01*
X120038095Y-36480952D01*
X120609523Y-37052380D01*
X119990476Y-37052380D01*
X119514285Y-37052380D02*
X119323809Y-37052380D01*
X119228571Y-37004761D01*
X119180952Y-36957142D01*
X119085714Y-36814285D01*
X119038095Y-36623809D01*
X119038095Y-36242857D01*
X119085714Y-36147619D01*
X119133333Y-36100000D01*
X119228571Y-36052380D01*
X119419047Y-36052380D01*
X119514285Y-36100000D01*
X119561904Y-36147619D01*
X119609523Y-36242857D01*
X119609523Y-36480952D01*
X119561904Y-36576190D01*
X119514285Y-36623809D01*
X119419047Y-36671428D01*
X119228571Y-36671428D01*
X119133333Y-36623809D01*
X119085714Y-36576190D01*
X119038095Y-36480952D01*
X109657142Y-58833333D02*
X109704761Y-58785714D01*
X109752380Y-58642857D01*
X109752380Y-58547619D01*
X109704761Y-58404761D01*
X109609523Y-58309523D01*
X109514285Y-58261904D01*
X109323809Y-58214285D01*
X109180952Y-58214285D01*
X108990476Y-58261904D01*
X108895238Y-58309523D01*
X108800000Y-58404761D01*
X108752380Y-58547619D01*
X108752380Y-58642857D01*
X108800000Y-58785714D01*
X108847619Y-58833333D01*
X109752380Y-59785714D02*
X109752380Y-59214285D01*
X109752380Y-59500000D02*
X108752380Y-59500000D01*
X108895238Y-59404761D01*
X108990476Y-59309523D01*
X109038095Y-59214285D01*
X109822380Y-62433333D02*
X109346190Y-62100000D01*
X109822380Y-61861904D02*
X108822380Y-61861904D01*
X108822380Y-62242857D01*
X108870000Y-62338095D01*
X108917619Y-62385714D01*
X109012857Y-62433333D01*
X109155714Y-62433333D01*
X109250952Y-62385714D01*
X109298571Y-62338095D01*
X109346190Y-62242857D01*
X109346190Y-61861904D01*
X109822380Y-63385714D02*
X109822380Y-62814285D01*
X109822380Y-63100000D02*
X108822380Y-63100000D01*
X108965238Y-63004761D01*
X109060476Y-62909523D01*
X109108095Y-62814285D01*
X104757142Y-31857142D02*
X104804761Y-31809523D01*
X104852380Y-31666666D01*
X104852380Y-31571428D01*
X104804761Y-31428571D01*
X104709523Y-31333333D01*
X104614285Y-31285714D01*
X104423809Y-31238095D01*
X104280952Y-31238095D01*
X104090476Y-31285714D01*
X103995238Y-31333333D01*
X103900000Y-31428571D01*
X103852380Y-31571428D01*
X103852380Y-31666666D01*
X103900000Y-31809523D01*
X103947619Y-31857142D01*
X104852380Y-32809523D02*
X104852380Y-32238095D01*
X104852380Y-32523809D02*
X103852380Y-32523809D01*
X103995238Y-32428571D01*
X104090476Y-32333333D01*
X104138095Y-32238095D01*
X103947619Y-33190476D02*
X103900000Y-33238095D01*
X103852380Y-33333333D01*
X103852380Y-33571428D01*
X103900000Y-33666666D01*
X103947619Y-33714285D01*
X104042857Y-33761904D01*
X104138095Y-33761904D01*
X104280952Y-33714285D01*
X104852380Y-33142857D01*
X104852380Y-33761904D01*
X81042857Y-50357142D02*
X81090476Y-50404761D01*
X81233333Y-50452380D01*
X81328571Y-50452380D01*
X81471428Y-50404761D01*
X81566666Y-50309523D01*
X81614285Y-50214285D01*
X81661904Y-50023809D01*
X81661904Y-49880952D01*
X81614285Y-49690476D01*
X81566666Y-49595238D01*
X81471428Y-49500000D01*
X81328571Y-49452380D01*
X81233333Y-49452380D01*
X81090476Y-49500000D01*
X81042857Y-49547619D01*
X80661904Y-49547619D02*
X80614285Y-49500000D01*
X80519047Y-49452380D01*
X80280952Y-49452380D01*
X80185714Y-49500000D01*
X80138095Y-49547619D01*
X80090476Y-49642857D01*
X80090476Y-49738095D01*
X80138095Y-49880952D01*
X80709523Y-50452380D01*
X80090476Y-50452380D01*
X79709523Y-49547619D02*
X79661904Y-49500000D01*
X79566666Y-49452380D01*
X79328571Y-49452380D01*
X79233333Y-49500000D01*
X79185714Y-49547619D01*
X79138095Y-49642857D01*
X79138095Y-49738095D01*
X79185714Y-49880952D01*
X79757142Y-50452380D01*
X79138095Y-50452380D01*
X104857142Y-50357142D02*
X104904761Y-50309523D01*
X104952380Y-50166666D01*
X104952380Y-50071428D01*
X104904761Y-49928571D01*
X104809523Y-49833333D01*
X104714285Y-49785714D01*
X104523809Y-49738095D01*
X104380952Y-49738095D01*
X104190476Y-49785714D01*
X104095238Y-49833333D01*
X104000000Y-49928571D01*
X103952380Y-50071428D01*
X103952380Y-50166666D01*
X104000000Y-50309523D01*
X104047619Y-50357142D01*
X104952380Y-51309523D02*
X104952380Y-50738095D01*
X104952380Y-51023809D02*
X103952380Y-51023809D01*
X104095238Y-50928571D01*
X104190476Y-50833333D01*
X104238095Y-50738095D01*
X104285714Y-52166666D02*
X104952380Y-52166666D01*
X103904761Y-51928571D02*
X104619047Y-51690476D01*
X104619047Y-52309523D01*
X120842857Y-28052380D02*
X121176190Y-27576190D01*
X121414285Y-28052380D02*
X121414285Y-27052380D01*
X121033333Y-27052380D01*
X120938095Y-27100000D01*
X120890476Y-27147619D01*
X120842857Y-27242857D01*
X120842857Y-27385714D01*
X120890476Y-27480952D01*
X120938095Y-27528571D01*
X121033333Y-27576190D01*
X121414285Y-27576190D01*
X119890476Y-28052380D02*
X120461904Y-28052380D01*
X120176190Y-28052380D02*
X120176190Y-27052380D01*
X120271428Y-27195238D01*
X120366666Y-27290476D01*
X120461904Y-27338095D01*
X119033333Y-27052380D02*
X119223809Y-27052380D01*
X119319047Y-27100000D01*
X119366666Y-27147619D01*
X119461904Y-27290476D01*
X119509523Y-27480952D01*
X119509523Y-27861904D01*
X119461904Y-27957142D01*
X119414285Y-28004761D01*
X119319047Y-28052380D01*
X119128571Y-28052380D01*
X119033333Y-28004761D01*
X118985714Y-27957142D01*
X118938095Y-27861904D01*
X118938095Y-27623809D01*
X118985714Y-27528571D01*
X119033333Y-27480952D01*
X119128571Y-27433333D01*
X119319047Y-27433333D01*
X119414285Y-27480952D01*
X119461904Y-27528571D01*
X119509523Y-27623809D01*
X85702379Y-63107153D02*
X84702379Y-63107153D01*
X85702379Y-63678582D01*
X84702379Y-63678582D01*
X84702379Y-64011915D02*
X84702379Y-64583344D01*
X85702379Y-64297630D02*
X84702379Y-64297630D01*
X85702379Y-65440487D02*
X85702379Y-64869058D01*
X85702379Y-65154772D02*
X84702379Y-65154772D01*
X84845237Y-65059534D01*
X84940475Y-64964296D01*
X84988094Y-64869058D01*
X81042857Y-51857142D02*
X81090476Y-51904761D01*
X81233333Y-51952380D01*
X81328571Y-51952380D01*
X81471428Y-51904761D01*
X81566666Y-51809523D01*
X81614285Y-51714285D01*
X81661904Y-51523809D01*
X81661904Y-51380952D01*
X81614285Y-51190476D01*
X81566666Y-51095238D01*
X81471428Y-51000000D01*
X81328571Y-50952380D01*
X81233333Y-50952380D01*
X81090476Y-51000000D01*
X81042857Y-51047619D01*
X80661904Y-51047619D02*
X80614285Y-51000000D01*
X80519047Y-50952380D01*
X80280952Y-50952380D01*
X80185714Y-51000000D01*
X80138095Y-51047619D01*
X80090476Y-51142857D01*
X80090476Y-51238095D01*
X80138095Y-51380952D01*
X80709523Y-51952380D01*
X80090476Y-51952380D01*
X79471428Y-50952380D02*
X79376190Y-50952380D01*
X79280952Y-51000000D01*
X79233333Y-51047619D01*
X79185714Y-51142857D01*
X79138095Y-51333333D01*
X79138095Y-51571428D01*
X79185714Y-51761904D01*
X79233333Y-51857142D01*
X79280952Y-51904761D01*
X79376190Y-51952380D01*
X79471428Y-51952380D01*
X79566666Y-51904761D01*
X79614285Y-51857142D01*
X79661904Y-51761904D01*
X79709523Y-51571428D01*
X79709523Y-51333333D01*
X79661904Y-51142857D01*
X79614285Y-51047619D01*
X79566666Y-51000000D01*
X79471428Y-50952380D01*
X81042857Y-48857142D02*
X81090476Y-48904761D01*
X81233333Y-48952380D01*
X81328571Y-48952380D01*
X81471428Y-48904761D01*
X81566666Y-48809523D01*
X81614285Y-48714285D01*
X81661904Y-48523809D01*
X81661904Y-48380952D01*
X81614285Y-48190476D01*
X81566666Y-48095238D01*
X81471428Y-48000000D01*
X81328571Y-47952380D01*
X81233333Y-47952380D01*
X81090476Y-48000000D01*
X81042857Y-48047619D01*
X80661904Y-48047619D02*
X80614285Y-48000000D01*
X80519047Y-47952380D01*
X80280952Y-47952380D01*
X80185714Y-48000000D01*
X80138095Y-48047619D01*
X80090476Y-48142857D01*
X80090476Y-48238095D01*
X80138095Y-48380952D01*
X80709523Y-48952380D01*
X80090476Y-48952380D01*
X79138095Y-48952380D02*
X79709523Y-48952380D01*
X79423809Y-48952380D02*
X79423809Y-47952380D01*
X79519047Y-48095238D01*
X79614285Y-48190476D01*
X79709523Y-48238095D01*
X93642857Y-48952380D02*
X93976190Y-48476190D01*
X94214285Y-48952380D02*
X94214285Y-47952380D01*
X93833333Y-47952380D01*
X93738095Y-48000000D01*
X93690476Y-48047619D01*
X93642857Y-48142857D01*
X93642857Y-48285714D01*
X93690476Y-48380952D01*
X93738095Y-48428571D01*
X93833333Y-48476190D01*
X94214285Y-48476190D01*
X93309523Y-47952380D02*
X92690476Y-47952380D01*
X93023809Y-48333333D01*
X92880952Y-48333333D01*
X92785714Y-48380952D01*
X92738095Y-48428571D01*
X92690476Y-48523809D01*
X92690476Y-48761904D01*
X92738095Y-48857142D01*
X92785714Y-48904761D01*
X92880952Y-48952380D01*
X93166666Y-48952380D01*
X93261904Y-48904761D01*
X93309523Y-48857142D01*
X91833333Y-47952380D02*
X92023809Y-47952380D01*
X92119047Y-48000000D01*
X92166666Y-48047619D01*
X92261904Y-48190476D01*
X92309523Y-48380952D01*
X92309523Y-48761904D01*
X92261904Y-48857142D01*
X92214285Y-48904761D01*
X92119047Y-48952380D01*
X91928571Y-48952380D01*
X91833333Y-48904761D01*
X91785714Y-48857142D01*
X91738095Y-48761904D01*
X91738095Y-48523809D01*
X91785714Y-48428571D01*
X91833333Y-48380952D01*
X91928571Y-48333333D01*
X92119047Y-48333333D01*
X92214285Y-48380952D01*
X92261904Y-48428571D01*
X92309523Y-48523809D01*
D11*
X126300000Y-49800000D02*
X128300000Y-49800000D01*
X128300000Y-49800000D02*
X128300000Y-53650000D01*
X126300000Y-49800000D02*
X126300000Y-53650000D01*
X123900000Y-49800000D02*
X125900000Y-49800000D01*
X125900000Y-49800000D02*
X125900000Y-53650000D01*
X123900000Y-49800000D02*
X123900000Y-53650000D01*
X88854724Y-52022500D02*
X88345276Y-52022500D01*
X88854724Y-50977500D02*
X88345276Y-50977500D01*
X113660000Y-45910000D02*
X113660000Y-43560000D01*
X113660000Y-39090000D02*
X113660000Y-41440000D01*
X107904437Y-45910000D02*
X113660000Y-45910000D01*
X106840000Y-44845563D02*
X107904437Y-45910000D01*
X106840000Y-40154437D02*
X106840000Y-41440000D01*
X106840000Y-44845563D02*
X106840000Y-43560000D01*
X105812500Y-44347500D02*
X106600000Y-44347500D01*
X107904437Y-39090000D02*
X113660000Y-39090000D01*
X106840000Y-40154437D02*
X107904437Y-39090000D01*
X106206250Y-44741250D02*
X106206250Y-43953750D01*
X88854724Y-49477500D02*
X88345276Y-49477500D01*
X88854724Y-50522500D02*
X88345276Y-50522500D01*
X118772936Y-39410000D02*
X120227064Y-39410000D01*
X118772936Y-37590000D02*
X120227064Y-37590000D01*
X110290000Y-59146267D02*
X110290000Y-58853733D01*
X111310000Y-59146267D02*
X111310000Y-58853733D01*
X111322500Y-62345276D02*
X111322500Y-62854724D01*
X110277500Y-62345276D02*
X110277500Y-62854724D01*
X107654437Y-35910000D02*
X113410000Y-35910000D01*
X113410000Y-29090000D02*
X113410000Y-31440000D01*
X107654437Y-29090000D02*
X113410000Y-29090000D01*
X113410000Y-35910000D02*
X113410000Y-33560000D01*
X105956250Y-34741250D02*
X105956250Y-33953750D01*
X106590000Y-30154437D02*
X107654437Y-29090000D01*
X106590000Y-34845563D02*
X107654437Y-35910000D01*
X106590000Y-34845563D02*
X106590000Y-33560000D01*
X106590000Y-30154437D02*
X106590000Y-31440000D01*
X105562500Y-34347500D02*
X106350000Y-34347500D01*
X84746267Y-50510000D02*
X84453733Y-50510000D01*
X84746267Y-49490000D02*
X84453733Y-49490000D01*
X113410000Y-54410000D02*
X113410000Y-52060000D01*
X113410000Y-47590000D02*
X113410000Y-49940000D01*
X106590000Y-53345563D02*
X106590000Y-52060000D01*
X105956250Y-53241250D02*
X105956250Y-52453750D01*
X107654437Y-54410000D02*
X113410000Y-54410000D01*
X106590000Y-48654437D02*
X106590000Y-49940000D01*
X106590000Y-48654437D02*
X107654437Y-47590000D01*
X105562500Y-52847500D02*
X106350000Y-52847500D01*
X106590000Y-53345563D02*
X107654437Y-54410000D01*
X107654437Y-47590000D02*
X113410000Y-47590000D01*
X118822936Y-30410000D02*
X120277064Y-30410000D01*
X118822936Y-28590000D02*
X120277064Y-28590000D01*
X84746267Y-52010000D02*
X84453733Y-52010000D01*
X84746267Y-50990000D02*
X84453733Y-50990000D01*
X84746267Y-49010000D02*
X84453733Y-49010000D01*
X84746267Y-47990000D02*
X84453733Y-47990000D01*
X88854724Y-47977500D02*
X88345276Y-47977500D01*
X88854724Y-49022500D02*
X88345276Y-49022500D01*
%LPC*%
D12*
X127300000Y-50600000D03*
X127300000Y-53400000D03*
X124900000Y-50600000D03*
X124900000Y-53400000D03*
D13*
X87947500Y-66357500D03*
D14*
X90487500Y-66357500D03*
X93027500Y-66357500D03*
X95567500Y-66357500D03*
X98107500Y-66357500D03*
X100647500Y-66357500D03*
X103187500Y-66357500D03*
X105727500Y-66357500D03*
D13*
X78796000Y-18100000D03*
D14*
X81336000Y-18100000D03*
X83876000Y-18100000D03*
X86416000Y-18100000D03*
X88956000Y-18100000D03*
X91496000Y-18100000D03*
X94036000Y-18100000D03*
X96576000Y-18100000D03*
X99116000Y-18100000D03*
X101656000Y-18100000D03*
D13*
X105720000Y-18100000D03*
D14*
X108260000Y-18100000D03*
X110800000Y-18100000D03*
X113340000Y-18100000D03*
X115880000Y-18100000D03*
X118420000Y-18100000D03*
X120960000Y-18100000D03*
X123500000Y-18100000D03*
D13*
X110807500Y-66357500D03*
D14*
X113347500Y-66357500D03*
X115887500Y-66357500D03*
X118427500Y-66357500D03*
X120967500Y-66357500D03*
X123507500Y-66357500D03*
D15*
X75240000Y-18100000D03*
X126040000Y-61280000D03*
X126040000Y-33340000D03*
X73970000Y-66360000D03*
D16*
X105699988Y-27299994D03*
X109299988Y-27299994D03*
X108099988Y-30799994D03*
X106899988Y-27299994D03*
X108099988Y-28499994D03*
X108099988Y-29699994D03*
X108099988Y-27299994D03*
X106899988Y-28499994D03*
X106899988Y-29699994D03*
X109299988Y-29699994D03*
X109299988Y-30799994D03*
X105699988Y-29699994D03*
X106899988Y-30799994D03*
X109299988Y-28499994D03*
X105699988Y-28499994D03*
X105699988Y-30799994D03*
D17*
X125550000Y-44000000D03*
D18*
X125550000Y-46000000D03*
X125550000Y-48000000D03*
D17*
X88000000Y-59500000D03*
D18*
X88000000Y-61500000D03*
D16*
X106900000Y-50800000D03*
X108100000Y-49700000D03*
X105700000Y-48500000D03*
X108100000Y-50800000D03*
X108100000Y-47300000D03*
X108100000Y-48500000D03*
X109300000Y-47300000D03*
X106900000Y-48500000D03*
X109300000Y-49700000D03*
X106900000Y-47300000D03*
X105700000Y-47300000D03*
X105700000Y-49700000D03*
X109300000Y-48500000D03*
X109300000Y-50800000D03*
X105700000Y-50800000D03*
X106900000Y-49700000D03*
X108100000Y-38500000D03*
X108100000Y-39700000D03*
X105700000Y-40800000D03*
X105700000Y-37300000D03*
X109300000Y-39700000D03*
X106900000Y-39700000D03*
X105700000Y-38500000D03*
X109300000Y-38500000D03*
X105700000Y-39700000D03*
X109300000Y-37300000D03*
X106900000Y-38500000D03*
X108100000Y-40800000D03*
X106900000Y-37300000D03*
X109300000Y-40800000D03*
X108100000Y-37300000D03*
X106900000Y-40800000D03*
D17*
X63600000Y-40200000D03*
D18*
X63600000Y-42200000D03*
X63600000Y-44200000D03*
X63600000Y-46200000D03*
X63600000Y-48200000D03*
D19*
X89512500Y-51500000D03*
X87687500Y-51500000D03*
D20*
X107550000Y-42500000D03*
X112950000Y-42500000D03*
D19*
X89512500Y-50000000D03*
X87687500Y-50000000D03*
D21*
X117950000Y-38500000D03*
X121050000Y-38500000D03*
D22*
X110800000Y-59862500D03*
X110800000Y-58137500D03*
D23*
X110800000Y-61687500D03*
X110800000Y-63512500D03*
D20*
X107300000Y-32500000D03*
X112700000Y-32500000D03*
D24*
X85462500Y-50000000D03*
X83737500Y-50000000D03*
D20*
X107300000Y-51000000D03*
X112700000Y-51000000D03*
D21*
X118000000Y-29500000D03*
X121100000Y-29500000D03*
D24*
X85462500Y-51500000D03*
X83737500Y-51500000D03*
X85462500Y-48500000D03*
X83737500Y-48500000D03*
D19*
X89512500Y-48500000D03*
X87687500Y-48500000D03*
M02*
