G04 #@! TF.GenerationSoftware,KiCad,Pcbnew,(5.1.10)-1*
G04 #@! TF.CreationDate,2021-10-08T21:42:51+13:00*
G04 #@! TF.ProjectId,bldc_driver_fpga,626c6463-5f64-4726-9976-65725f667067,rev?*
G04 #@! TF.SameCoordinates,Original*
G04 #@! TF.FileFunction,Soldermask,Bot*
G04 #@! TF.FilePolarity,Negative*
%FSLAX46Y46*%
G04 Gerber Fmt 4.6, Leading zero omitted, Abs format (unit mm)*
G04 Created by KiCad (PCBNEW (5.1.10)-1) date 2021-10-08 21:42:51*
%MOMM*%
%LPD*%
G01*
G04 APERTURE LIST*
%ADD10C,3.200000*%
%ADD11O,1.750000X1.200000*%
%ADD12O,1.700000X1.700000*%
%ADD13R,1.700000X1.700000*%
%ADD14O,2.700000X3.300000*%
G04 APERTURE END LIST*
D10*
X73970000Y-66360000D03*
X126040000Y-33340000D03*
X126040000Y-61280000D03*
X75240000Y-18100000D03*
G36*
G01*
X119868500Y-43036500D02*
X119868500Y-42561500D01*
G75*
G02*
X120106000Y-42324000I237500J0D01*
G01*
X120606000Y-42324000D01*
G75*
G02*
X120843500Y-42561500I0J-237500D01*
G01*
X120843500Y-43036500D01*
G75*
G02*
X120606000Y-43274000I-237500J0D01*
G01*
X120106000Y-43274000D01*
G75*
G02*
X119868500Y-43036500I0J237500D01*
G01*
G37*
G36*
G01*
X118043500Y-43036500D02*
X118043500Y-42561500D01*
G75*
G02*
X118281000Y-42324000I237500J0D01*
G01*
X118781000Y-42324000D01*
G75*
G02*
X119018500Y-42561500I0J-237500D01*
G01*
X119018500Y-43036500D01*
G75*
G02*
X118781000Y-43274000I-237500J0D01*
G01*
X118281000Y-43274000D01*
G75*
G02*
X118043500Y-43036500I0J237500D01*
G01*
G37*
G36*
G01*
X119868500Y-45005000D02*
X119868500Y-44530000D01*
G75*
G02*
X120106000Y-44292500I237500J0D01*
G01*
X120606000Y-44292500D01*
G75*
G02*
X120843500Y-44530000I0J-237500D01*
G01*
X120843500Y-45005000D01*
G75*
G02*
X120606000Y-45242500I-237500J0D01*
G01*
X120106000Y-45242500D01*
G75*
G02*
X119868500Y-45005000I0J237500D01*
G01*
G37*
G36*
G01*
X118043500Y-45005000D02*
X118043500Y-44530000D01*
G75*
G02*
X118281000Y-44292500I237500J0D01*
G01*
X118781000Y-44292500D01*
G75*
G02*
X119018500Y-44530000I0J-237500D01*
G01*
X119018500Y-45005000D01*
G75*
G02*
X118781000Y-45242500I-237500J0D01*
G01*
X118281000Y-45242500D01*
G75*
G02*
X118043500Y-45005000I0J237500D01*
G01*
G37*
G36*
G01*
X119845000Y-47037000D02*
X119845000Y-46562000D01*
G75*
G02*
X120082500Y-46324500I237500J0D01*
G01*
X120582500Y-46324500D01*
G75*
G02*
X120820000Y-46562000I0J-237500D01*
G01*
X120820000Y-47037000D01*
G75*
G02*
X120582500Y-47274500I-237500J0D01*
G01*
X120082500Y-47274500D01*
G75*
G02*
X119845000Y-47037000I0J237500D01*
G01*
G37*
G36*
G01*
X118020000Y-47037000D02*
X118020000Y-46562000D01*
G75*
G02*
X118257500Y-46324500I237500J0D01*
G01*
X118757500Y-46324500D01*
G75*
G02*
X118995000Y-46562000I0J-237500D01*
G01*
X118995000Y-47037000D01*
G75*
G02*
X118757500Y-47274500I-237500J0D01*
G01*
X118257500Y-47274500D01*
G75*
G02*
X118020000Y-47037000I0J237500D01*
G01*
G37*
D11*
X123634500Y-40768000D03*
X123634500Y-42768000D03*
X123634500Y-44768000D03*
X123634500Y-46768000D03*
G36*
G01*
X124259501Y-49368000D02*
X123009499Y-49368000D01*
G75*
G02*
X122759500Y-49118001I0J249999D01*
G01*
X122759500Y-48417999D01*
G75*
G02*
X123009499Y-48168000I249999J0D01*
G01*
X124259501Y-48168000D01*
G75*
G02*
X124509500Y-48417999I0J-249999D01*
G01*
X124509500Y-49118001D01*
G75*
G02*
X124259501Y-49368000I-249999J0D01*
G01*
G37*
D12*
X123507500Y-66357500D03*
X120967500Y-66357500D03*
X118427500Y-66357500D03*
X115887500Y-66357500D03*
X113347500Y-66357500D03*
D13*
X110807500Y-66357500D03*
D12*
X123500000Y-18100000D03*
X120960000Y-18100000D03*
X118420000Y-18100000D03*
X115880000Y-18100000D03*
X113340000Y-18100000D03*
X110800000Y-18100000D03*
X108260000Y-18100000D03*
D13*
X105720000Y-18100000D03*
D12*
X101656000Y-18100000D03*
X99116000Y-18100000D03*
X96576000Y-18100000D03*
X94036000Y-18100000D03*
X91496000Y-18100000D03*
X88956000Y-18100000D03*
X86416000Y-18100000D03*
X83876000Y-18100000D03*
X81336000Y-18100000D03*
D13*
X78796000Y-18100000D03*
D12*
X105727500Y-66357500D03*
X103187500Y-66357500D03*
X100647500Y-66357500D03*
X98107500Y-66357500D03*
X95567500Y-66357500D03*
X93027500Y-66357500D03*
X90487500Y-66357500D03*
D13*
X87947500Y-66357500D03*
D14*
X95195500Y-60808500D03*
X90995500Y-60808500D03*
X95195500Y-55308500D03*
G36*
G01*
X89645500Y-56708499D02*
X89645500Y-53908501D01*
G75*
G02*
X89895501Y-53658500I250001J0D01*
G01*
X92095499Y-53658500D01*
G75*
G02*
X92345500Y-53908501I0J-250001D01*
G01*
X92345500Y-56708499D01*
G75*
G02*
X92095499Y-56958500I-250001J0D01*
G01*
X89895501Y-56958500D01*
G75*
G02*
X89645500Y-56708499I0J250001D01*
G01*
G37*
G36*
G01*
X81692000Y-65104000D02*
X81692000Y-65579000D01*
G75*
G02*
X81454500Y-65816500I-237500J0D01*
G01*
X80879500Y-65816500D01*
G75*
G02*
X80642000Y-65579000I0J237500D01*
G01*
X80642000Y-65104000D01*
G75*
G02*
X80879500Y-64866500I237500J0D01*
G01*
X81454500Y-64866500D01*
G75*
G02*
X81692000Y-65104000I0J-237500D01*
G01*
G37*
G36*
G01*
X83442000Y-65104000D02*
X83442000Y-65579000D01*
G75*
G02*
X83204500Y-65816500I-237500J0D01*
G01*
X82629500Y-65816500D01*
G75*
G02*
X82392000Y-65579000I0J237500D01*
G01*
X82392000Y-65104000D01*
G75*
G02*
X82629500Y-64866500I237500J0D01*
G01*
X83204500Y-64866500D01*
G75*
G02*
X83442000Y-65104000I0J-237500D01*
G01*
G37*
G36*
G01*
X83246000Y-28109000D02*
X83246000Y-27009000D01*
G75*
G02*
X83496000Y-26759000I250000J0D01*
G01*
X86496000Y-26759000D01*
G75*
G02*
X86746000Y-27009000I0J-250000D01*
G01*
X86746000Y-28109000D01*
G75*
G02*
X86496000Y-28359000I-250000J0D01*
G01*
X83496000Y-28359000D01*
G75*
G02*
X83246000Y-28109000I0J250000D01*
G01*
G37*
G36*
G01*
X77846000Y-28109000D02*
X77846000Y-27009000D01*
G75*
G02*
X78096000Y-26759000I250000J0D01*
G01*
X81096000Y-26759000D01*
G75*
G02*
X81346000Y-27009000I0J-250000D01*
G01*
X81346000Y-28109000D01*
G75*
G02*
X81096000Y-28359000I-250000J0D01*
G01*
X78096000Y-28359000D01*
G75*
G02*
X77846000Y-28109000I0J250000D01*
G01*
G37*
G36*
G01*
X83119000Y-40491500D02*
X83119000Y-39391500D01*
G75*
G02*
X83369000Y-39141500I250000J0D01*
G01*
X86369000Y-39141500D01*
G75*
G02*
X86619000Y-39391500I0J-250000D01*
G01*
X86619000Y-40491500D01*
G75*
G02*
X86369000Y-40741500I-250000J0D01*
G01*
X83369000Y-40741500D01*
G75*
G02*
X83119000Y-40491500I0J250000D01*
G01*
G37*
G36*
G01*
X77719000Y-40491500D02*
X77719000Y-39391500D01*
G75*
G02*
X77969000Y-39141500I250000J0D01*
G01*
X80969000Y-39141500D01*
G75*
G02*
X81219000Y-39391500I0J-250000D01*
G01*
X81219000Y-40491500D01*
G75*
G02*
X80969000Y-40741500I-250000J0D01*
G01*
X77969000Y-40741500D01*
G75*
G02*
X77719000Y-40491500I0J250000D01*
G01*
G37*
G36*
G01*
X83246000Y-52747000D02*
X83246000Y-51647000D01*
G75*
G02*
X83496000Y-51397000I250000J0D01*
G01*
X86496000Y-51397000D01*
G75*
G02*
X86746000Y-51647000I0J-250000D01*
G01*
X86746000Y-52747000D01*
G75*
G02*
X86496000Y-52997000I-250000J0D01*
G01*
X83496000Y-52997000D01*
G75*
G02*
X83246000Y-52747000I0J250000D01*
G01*
G37*
G36*
G01*
X77846000Y-52747000D02*
X77846000Y-51647000D01*
G75*
G02*
X78096000Y-51397000I250000J0D01*
G01*
X81096000Y-51397000D01*
G75*
G02*
X81346000Y-51647000I0J-250000D01*
G01*
X81346000Y-52747000D01*
G75*
G02*
X81096000Y-52997000I-250000J0D01*
G01*
X78096000Y-52997000D01*
G75*
G02*
X77846000Y-52747000I0J250000D01*
G01*
G37*
G36*
G01*
X96057000Y-63897500D02*
X96057000Y-64372500D01*
G75*
G02*
X95819500Y-64610000I-237500J0D01*
G01*
X95244500Y-64610000D01*
G75*
G02*
X95007000Y-64372500I0J237500D01*
G01*
X95007000Y-63897500D01*
G75*
G02*
X95244500Y-63660000I237500J0D01*
G01*
X95819500Y-63660000D01*
G75*
G02*
X96057000Y-63897500I0J-237500D01*
G01*
G37*
G36*
G01*
X97807000Y-63897500D02*
X97807000Y-64372500D01*
G75*
G02*
X97569500Y-64610000I-237500J0D01*
G01*
X96994500Y-64610000D01*
G75*
G02*
X96757000Y-64372500I0J237500D01*
G01*
X96757000Y-63897500D01*
G75*
G02*
X96994500Y-63660000I237500J0D01*
G01*
X97569500Y-63660000D01*
G75*
G02*
X97807000Y-63897500I0J-237500D01*
G01*
G37*
G36*
G01*
X98759000Y-63455000D02*
X99234000Y-63455000D01*
G75*
G02*
X99471500Y-63692500I0J-237500D01*
G01*
X99471500Y-64267500D01*
G75*
G02*
X99234000Y-64505000I-237500J0D01*
G01*
X98759000Y-64505000D01*
G75*
G02*
X98521500Y-64267500I0J237500D01*
G01*
X98521500Y-63692500D01*
G75*
G02*
X98759000Y-63455000I237500J0D01*
G01*
G37*
G36*
G01*
X98759000Y-61705000D02*
X99234000Y-61705000D01*
G75*
G02*
X99471500Y-61942500I0J-237500D01*
G01*
X99471500Y-62517500D01*
G75*
G02*
X99234000Y-62755000I-237500J0D01*
G01*
X98759000Y-62755000D01*
G75*
G02*
X98521500Y-62517500I0J237500D01*
G01*
X98521500Y-61942500D01*
G75*
G02*
X98759000Y-61705000I237500J0D01*
G01*
G37*
M02*
