%FSLAX45Y45*%
G04 Gerber Fmt 4.5, Leading zero omitted, Abs format (unit mm)*
G04 Created by KiCad (PCBNEW (5.1.10)-1) date 2021-10-08 21:44:05*
%MOMM*%
%LPD*%
G01*
G04 APERTURE LIST*
%TA.AperFunction,Profile*%
%ADD10C,0.150000*%
%TD*%
%ADD11C,0.200000*%
%ADD12C,0.300000*%
G04 APERTURE END LIST*
D10*
X12604000Y-2851400D02*
X12604000Y-1708400D01*
X12604000Y-1708400D02*
X12451600Y-1556000D01*
X12858000Y-3105400D02*
X12604000Y-2851400D01*
X12451600Y-1556000D02*
X6000000Y-1556000D01*
X6000000Y-1556000D02*
X6000000Y-6890000D01*
X12604000Y-6890000D02*
X12604000Y-6636000D01*
X6000000Y-6890000D02*
X12604000Y-6890000D01*
X12858000Y-6382000D02*
X12858000Y-3105400D01*
X12604000Y-6636000D02*
X12858000Y-6382000D01*
D11*
X7237000Y-6476000D02*
X7557000Y-6796000D01*
X7557000Y-6476000D02*
X7237000Y-6796000D01*
X7364000Y-1650000D02*
X7684000Y-1970000D01*
X7684000Y-1650000D02*
X7364000Y-1970000D01*
X12444000Y-3174000D02*
X12764000Y-3494000D01*
X12764000Y-3174000D02*
X12444000Y-3494000D01*
X12444000Y-5968000D02*
X12764000Y-6288000D01*
X12764000Y-5968000D02*
X12444000Y-6288000D01*
D12*
X6278928Y-7363214D02*
X6278928Y-7063214D01*
X6350357Y-7063214D01*
X6393214Y-7077500D01*
X6421786Y-7106071D01*
X6436071Y-7134643D01*
X6450357Y-7191786D01*
X6450357Y-7234643D01*
X6436071Y-7291786D01*
X6421786Y-7320357D01*
X6393214Y-7348929D01*
X6350357Y-7363214D01*
X6278928Y-7363214D01*
X6578928Y-7363214D02*
X6578928Y-7163214D01*
X6578928Y-7220357D02*
X6593214Y-7191786D01*
X6607500Y-7177500D01*
X6636071Y-7163214D01*
X6664643Y-7163214D01*
X6764643Y-7363214D02*
X6764643Y-7163214D01*
X6764643Y-7063214D02*
X6750357Y-7077500D01*
X6764643Y-7091786D01*
X6778928Y-7077500D01*
X6764643Y-7063214D01*
X6764643Y-7091786D01*
X6950357Y-7363214D02*
X6921786Y-7348929D01*
X6907500Y-7320357D01*
X6907500Y-7063214D01*
X7107500Y-7363214D02*
X7078928Y-7348929D01*
X7064643Y-7320357D01*
X7064643Y-7063214D01*
X7450357Y-7363214D02*
X7450357Y-7063214D01*
X7550357Y-7277500D01*
X7650357Y-7063214D01*
X7650357Y-7363214D01*
X7921786Y-7363214D02*
X7921786Y-7206071D01*
X7907500Y-7177500D01*
X7878928Y-7163214D01*
X7821786Y-7163214D01*
X7793214Y-7177500D01*
X7921786Y-7348929D02*
X7893214Y-7363214D01*
X7821786Y-7363214D01*
X7793214Y-7348929D01*
X7778928Y-7320357D01*
X7778928Y-7291786D01*
X7793214Y-7263214D01*
X7821786Y-7248929D01*
X7893214Y-7248929D01*
X7921786Y-7234643D01*
X8064643Y-7163214D02*
X8064643Y-7463214D01*
X8064643Y-7177500D02*
X8093214Y-7163214D01*
X8150357Y-7163214D01*
X8178928Y-7177500D01*
X8193214Y-7191786D01*
X8207500Y-7220357D01*
X8207500Y-7306071D01*
X8193214Y-7334643D01*
X8178928Y-7348929D01*
X8150357Y-7363214D01*
X8093214Y-7363214D01*
X8064643Y-7348929D01*
X8336071Y-7334643D02*
X8350357Y-7348929D01*
X8336071Y-7363214D01*
X8321786Y-7348929D01*
X8336071Y-7334643D01*
X8336071Y-7363214D01*
X8336071Y-7177500D02*
X8350357Y-7191786D01*
X8336071Y-7206071D01*
X8321786Y-7191786D01*
X8336071Y-7177500D01*
X8336071Y-7206071D01*
X5672500Y-7697500D02*
X5992500Y-8017500D01*
X5992500Y-7697500D02*
X5672500Y-8017500D01*
X6250357Y-7693214D02*
X6436071Y-7693214D01*
X6336071Y-7807500D01*
X6378928Y-7807500D01*
X6407500Y-7821786D01*
X6421786Y-7836071D01*
X6436071Y-7864643D01*
X6436071Y-7936071D01*
X6421786Y-7964643D01*
X6407500Y-7978929D01*
X6378928Y-7993214D01*
X6293214Y-7993214D01*
X6264643Y-7978929D01*
X6250357Y-7964643D01*
X6564643Y-7964643D02*
X6578928Y-7978929D01*
X6564643Y-7993214D01*
X6550357Y-7978929D01*
X6564643Y-7964643D01*
X6564643Y-7993214D01*
X6693214Y-7721786D02*
X6707500Y-7707500D01*
X6736071Y-7693214D01*
X6807500Y-7693214D01*
X6836071Y-7707500D01*
X6850357Y-7721786D01*
X6864643Y-7750357D01*
X6864643Y-7778929D01*
X6850357Y-7821786D01*
X6678928Y-7993214D01*
X6864643Y-7993214D01*
X7050357Y-7693214D02*
X7078928Y-7693214D01*
X7107500Y-7707500D01*
X7121786Y-7721786D01*
X7136071Y-7750357D01*
X7150357Y-7807500D01*
X7150357Y-7878929D01*
X7136071Y-7936071D01*
X7121786Y-7964643D01*
X7107500Y-7978929D01*
X7078928Y-7993214D01*
X7050357Y-7993214D01*
X7021786Y-7978929D01*
X7007500Y-7964643D01*
X6993214Y-7936071D01*
X6978928Y-7878929D01*
X6978928Y-7807500D01*
X6993214Y-7750357D01*
X7007500Y-7721786D01*
X7021786Y-7707500D01*
X7050357Y-7693214D01*
X7336071Y-7693214D02*
X7364643Y-7693214D01*
X7393214Y-7707500D01*
X7407500Y-7721786D01*
X7421786Y-7750357D01*
X7436071Y-7807500D01*
X7436071Y-7878929D01*
X7421786Y-7936071D01*
X7407500Y-7964643D01*
X7393214Y-7978929D01*
X7364643Y-7993214D01*
X7336071Y-7993214D01*
X7307500Y-7978929D01*
X7293214Y-7964643D01*
X7278928Y-7936071D01*
X7264643Y-7878929D01*
X7264643Y-7807500D01*
X7278928Y-7750357D01*
X7293214Y-7721786D01*
X7307500Y-7707500D01*
X7336071Y-7693214D01*
X7564643Y-7993214D02*
X7564643Y-7793214D01*
X7564643Y-7821786D02*
X7578928Y-7807500D01*
X7607500Y-7793214D01*
X7650357Y-7793214D01*
X7678928Y-7807500D01*
X7693214Y-7836071D01*
X7693214Y-7993214D01*
X7693214Y-7836071D02*
X7707500Y-7807500D01*
X7736071Y-7793214D01*
X7778928Y-7793214D01*
X7807500Y-7807500D01*
X7821786Y-7836071D01*
X7821786Y-7993214D01*
X7964643Y-7993214D02*
X7964643Y-7793214D01*
X7964643Y-7821786D02*
X7978928Y-7807500D01*
X8007500Y-7793214D01*
X8050357Y-7793214D01*
X8078928Y-7807500D01*
X8093214Y-7836071D01*
X8093214Y-7993214D01*
X8093214Y-7836071D02*
X8107500Y-7807500D01*
X8136071Y-7793214D01*
X8178928Y-7793214D01*
X8207500Y-7807500D01*
X8221786Y-7836071D01*
X8221786Y-7993214D01*
X8807500Y-7678929D02*
X8550357Y-8064643D01*
X9193214Y-7693214D02*
X9221786Y-7693214D01*
X9250357Y-7707500D01*
X9264643Y-7721786D01*
X9278928Y-7750357D01*
X9293214Y-7807500D01*
X9293214Y-7878929D01*
X9278928Y-7936071D01*
X9264643Y-7964643D01*
X9250357Y-7978929D01*
X9221786Y-7993214D01*
X9193214Y-7993214D01*
X9164643Y-7978929D01*
X9150357Y-7964643D01*
X9136071Y-7936071D01*
X9121786Y-7878929D01*
X9121786Y-7807500D01*
X9136071Y-7750357D01*
X9150357Y-7721786D01*
X9164643Y-7707500D01*
X9193214Y-7693214D01*
X9421786Y-7964643D02*
X9436071Y-7978929D01*
X9421786Y-7993214D01*
X9407500Y-7978929D01*
X9421786Y-7964643D01*
X9421786Y-7993214D01*
X9721786Y-7993214D02*
X9550357Y-7993214D01*
X9636071Y-7993214D02*
X9636071Y-7693214D01*
X9607500Y-7736071D01*
X9578928Y-7764643D01*
X9550357Y-7778929D01*
X9836071Y-7721786D02*
X9850357Y-7707500D01*
X9878928Y-7693214D01*
X9950357Y-7693214D01*
X9978928Y-7707500D01*
X9993214Y-7721786D01*
X10007500Y-7750357D01*
X10007500Y-7778929D01*
X9993214Y-7821786D01*
X9821786Y-7993214D01*
X10007500Y-7993214D01*
X10264643Y-7693214D02*
X10207500Y-7693214D01*
X10178928Y-7707500D01*
X10164643Y-7721786D01*
X10136071Y-7764643D01*
X10121786Y-7821786D01*
X10121786Y-7936071D01*
X10136071Y-7964643D01*
X10150357Y-7978929D01*
X10178928Y-7993214D01*
X10236071Y-7993214D01*
X10264643Y-7978929D01*
X10278928Y-7964643D01*
X10293214Y-7936071D01*
X10293214Y-7864643D01*
X10278928Y-7836071D01*
X10264643Y-7821786D01*
X10236071Y-7807500D01*
X10178928Y-7807500D01*
X10150357Y-7821786D01*
X10136071Y-7836071D01*
X10121786Y-7864643D01*
X10478928Y-7693214D02*
X10507500Y-7693214D01*
X10536071Y-7707500D01*
X10550357Y-7721786D01*
X10564643Y-7750357D01*
X10578928Y-7807500D01*
X10578928Y-7878929D01*
X10564643Y-7936071D01*
X10550357Y-7964643D01*
X10536071Y-7978929D01*
X10507500Y-7993214D01*
X10478928Y-7993214D01*
X10450357Y-7978929D01*
X10436071Y-7964643D01*
X10421786Y-7936071D01*
X10407500Y-7878929D01*
X10407500Y-7807500D01*
X10421786Y-7750357D01*
X10436071Y-7721786D01*
X10450357Y-7707500D01*
X10478928Y-7693214D01*
X10693214Y-7693214D02*
X10693214Y-7750357D01*
X10807500Y-7693214D02*
X10807500Y-7750357D01*
X11250357Y-8107500D02*
X11236071Y-8093214D01*
X11207500Y-8050357D01*
X11193214Y-8021786D01*
X11178928Y-7978929D01*
X11164643Y-7907500D01*
X11164643Y-7850357D01*
X11178928Y-7778929D01*
X11193214Y-7736071D01*
X11207500Y-7707500D01*
X11236071Y-7664643D01*
X11250357Y-7650357D01*
X11493214Y-7793214D02*
X11493214Y-7993214D01*
X11421786Y-7678929D02*
X11350357Y-7893214D01*
X11536071Y-7893214D01*
X11878928Y-7993214D02*
X11878928Y-7693214D01*
X12007500Y-7993214D02*
X12007500Y-7836071D01*
X11993214Y-7807500D01*
X11964643Y-7793214D01*
X11921786Y-7793214D01*
X11893214Y-7807500D01*
X11878928Y-7821786D01*
X12193214Y-7993214D02*
X12164643Y-7978929D01*
X12150357Y-7964643D01*
X12136071Y-7936071D01*
X12136071Y-7850357D01*
X12150357Y-7821786D01*
X12164643Y-7807500D01*
X12193214Y-7793214D01*
X12236071Y-7793214D01*
X12264643Y-7807500D01*
X12278928Y-7821786D01*
X12293214Y-7850357D01*
X12293214Y-7936071D01*
X12278928Y-7964643D01*
X12264643Y-7978929D01*
X12236071Y-7993214D01*
X12193214Y-7993214D01*
X12464643Y-7993214D02*
X12436071Y-7978929D01*
X12421786Y-7950357D01*
X12421786Y-7693214D01*
X12693214Y-7978929D02*
X12664643Y-7993214D01*
X12607500Y-7993214D01*
X12578928Y-7978929D01*
X12564643Y-7950357D01*
X12564643Y-7836071D01*
X12578928Y-7807500D01*
X12607500Y-7793214D01*
X12664643Y-7793214D01*
X12693214Y-7807500D01*
X12707500Y-7836071D01*
X12707500Y-7864643D01*
X12564643Y-7893214D01*
X12821786Y-7978929D02*
X12850357Y-7993214D01*
X12907500Y-7993214D01*
X12936071Y-7978929D01*
X12950357Y-7950357D01*
X12950357Y-7936071D01*
X12936071Y-7907500D01*
X12907500Y-7893214D01*
X12864643Y-7893214D01*
X12836071Y-7878929D01*
X12821786Y-7850357D01*
X12821786Y-7836071D01*
X12836071Y-7807500D01*
X12864643Y-7793214D01*
X12907500Y-7793214D01*
X12936071Y-7807500D01*
X13050357Y-8107500D02*
X13064643Y-8093214D01*
X13093214Y-8050357D01*
X13107500Y-8021786D01*
X13121786Y-7978929D01*
X13136071Y-7907500D01*
X13136071Y-7850357D01*
X13121786Y-7778929D01*
X13107500Y-7736071D01*
X13093214Y-7707500D01*
X13064643Y-7664643D01*
X13050357Y-7650357D01*
X13593214Y-8107500D02*
X13578928Y-8093214D01*
X13550357Y-8050357D01*
X13536071Y-8021786D01*
X13521786Y-7978929D01*
X13507500Y-7907500D01*
X13507500Y-7850357D01*
X13521786Y-7778929D01*
X13536071Y-7736071D01*
X13550357Y-7707500D01*
X13578928Y-7664643D01*
X13593214Y-7650357D01*
X13707500Y-7793214D02*
X13707500Y-7993214D01*
X13707500Y-7821786D02*
X13721786Y-7807500D01*
X13750357Y-7793214D01*
X13793214Y-7793214D01*
X13821786Y-7807500D01*
X13836071Y-7836071D01*
X13836071Y-7993214D01*
X14021786Y-7993214D02*
X13993214Y-7978929D01*
X13978928Y-7964643D01*
X13964643Y-7936071D01*
X13964643Y-7850357D01*
X13978928Y-7821786D01*
X13993214Y-7807500D01*
X14021786Y-7793214D01*
X14064643Y-7793214D01*
X14093214Y-7807500D01*
X14107500Y-7821786D01*
X14121786Y-7850357D01*
X14121786Y-7936071D01*
X14107500Y-7964643D01*
X14093214Y-7978929D01*
X14064643Y-7993214D01*
X14021786Y-7993214D01*
X14207500Y-7793214D02*
X14321786Y-7793214D01*
X14250357Y-7693214D02*
X14250357Y-7950357D01*
X14264643Y-7978929D01*
X14293214Y-7993214D01*
X14321786Y-7993214D01*
X14650357Y-7793214D02*
X14650357Y-8093214D01*
X14650357Y-7807500D02*
X14678928Y-7793214D01*
X14736071Y-7793214D01*
X14764643Y-7807500D01*
X14778928Y-7821786D01*
X14793214Y-7850357D01*
X14793214Y-7936071D01*
X14778928Y-7964643D01*
X14764643Y-7978929D01*
X14736071Y-7993214D01*
X14678928Y-7993214D01*
X14650357Y-7978929D01*
X14964643Y-7993214D02*
X14936071Y-7978929D01*
X14921786Y-7950357D01*
X14921786Y-7693214D01*
X15207500Y-7993214D02*
X15207500Y-7836071D01*
X15193214Y-7807500D01*
X15164643Y-7793214D01*
X15107500Y-7793214D01*
X15078928Y-7807500D01*
X15207500Y-7978929D02*
X15178928Y-7993214D01*
X15107500Y-7993214D01*
X15078928Y-7978929D01*
X15064643Y-7950357D01*
X15064643Y-7921786D01*
X15078928Y-7893214D01*
X15107500Y-7878929D01*
X15178928Y-7878929D01*
X15207500Y-7864643D01*
X15307500Y-7793214D02*
X15421786Y-7793214D01*
X15350357Y-7693214D02*
X15350357Y-7950357D01*
X15364643Y-7978929D01*
X15393214Y-7993214D01*
X15421786Y-7993214D01*
X15636071Y-7978929D02*
X15607500Y-7993214D01*
X15550357Y-7993214D01*
X15521786Y-7978929D01*
X15507500Y-7950357D01*
X15507500Y-7836071D01*
X15521786Y-7807500D01*
X15550357Y-7793214D01*
X15607500Y-7793214D01*
X15636071Y-7807500D01*
X15650357Y-7836071D01*
X15650357Y-7864643D01*
X15507500Y-7893214D01*
X15907500Y-7993214D02*
X15907500Y-7693214D01*
X15907500Y-7978929D02*
X15878928Y-7993214D01*
X15821786Y-7993214D01*
X15793214Y-7978929D01*
X15778928Y-7964643D01*
X15764643Y-7936071D01*
X15764643Y-7850357D01*
X15778928Y-7821786D01*
X15793214Y-7807500D01*
X15821786Y-7793214D01*
X15878928Y-7793214D01*
X15907500Y-7807500D01*
X16021786Y-8107500D02*
X16036071Y-8093214D01*
X16064643Y-8050357D01*
X16078928Y-8021786D01*
X16093214Y-7978929D01*
X16107500Y-7907500D01*
X16107500Y-7850357D01*
X16093214Y-7778929D01*
X16078928Y-7736071D01*
X16064643Y-7707500D01*
X16036071Y-7664643D01*
X16021786Y-7650357D01*
M02*
