G04 #@! TF.GenerationSoftware,KiCad,Pcbnew,(6.0.0)*
G04 #@! TF.CreationDate,2022-07-16T19:13:52+12:00*
G04 #@! TF.ProjectId,bldc_driver_fpga,626c6463-5f64-4726-9976-65725f667067,rev?*
G04 #@! TF.SameCoordinates,Original*
G04 #@! TF.FileFunction,Legend,Top*
G04 #@! TF.FilePolarity,Positive*
%FSLAX46Y46*%
G04 Gerber Fmt 4.6, Leading zero omitted, Abs format (unit mm)*
G04 Created by KiCad (PCBNEW (6.0.0)) date 2022-07-16 19:13:52*
%MOMM*%
%LPD*%
G01*
G04 APERTURE LIST*
G04 Aperture macros list*
%AMRoundRect*
0 Rectangle with rounded corners*
0 $1 Rounding radius*
0 $2 $3 $4 $5 $6 $7 $8 $9 X,Y pos of 4 corners*
0 Add a 4 corners polygon primitive as box body*
4,1,4,$2,$3,$4,$5,$6,$7,$8,$9,$2,$3,0*
0 Add four circle primitives for the rounded corners*
1,1,$1+$1,$2,$3*
1,1,$1+$1,$4,$5*
1,1,$1+$1,$6,$7*
1,1,$1+$1,$8,$9*
0 Add four rect primitives between the rounded corners*
20,1,$1+$1,$2,$3,$4,$5,0*
20,1,$1+$1,$4,$5,$6,$7,0*
20,1,$1+$1,$6,$7,$8,$9,0*
20,1,$1+$1,$8,$9,$2,$3,0*%
%AMOutline5P*
0 Free polygon, 5 corners , with rotation*
0 The origin of the aperture is its center*
0 number of corners: always 5*
0 $1 to $10 corner X, Y*
0 $11 Rotation angle, in degrees counterclockwise*
0 create outline with 5 corners*
4,1,5,$1,$2,$3,$4,$5,$6,$7,$8,$9,$10,$1,$2,$11*%
%AMOutline6P*
0 Free polygon, 6 corners , with rotation*
0 The origin of the aperture is its center*
0 number of corners: always 6*
0 $1 to $12 corner X, Y*
0 $13 Rotation angle, in degrees counterclockwise*
0 create outline with 6 corners*
4,1,6,$1,$2,$3,$4,$5,$6,$7,$8,$9,$10,$11,$12,$1,$2,$13*%
%AMOutline7P*
0 Free polygon, 7 corners , with rotation*
0 The origin of the aperture is its center*
0 number of corners: always 7*
0 $1 to $14 corner X, Y*
0 $15 Rotation angle, in degrees counterclockwise*
0 create outline with 7 corners*
4,1,7,$1,$2,$3,$4,$5,$6,$7,$8,$9,$10,$11,$12,$13,$14,$1,$2,$15*%
%AMOutline8P*
0 Free polygon, 8 corners , with rotation*
0 The origin of the aperture is its center*
0 number of corners: always 8*
0 $1 to $16 corner X, Y*
0 $17 Rotation angle, in degrees counterclockwise*
0 create outline with 8 corners*
4,1,8,$1,$2,$3,$4,$5,$6,$7,$8,$9,$10,$11,$12,$13,$14,$15,$16,$1,$2,$17*%
G04 Aperture macros list end*
%ADD10C,0.150000*%
%ADD11C,0.120000*%
%ADD12R,1.100000X1.100000*%
%ADD13R,1.700000X1.700000*%
%ADD14O,1.700000X1.700000*%
%ADD15C,3.200000*%
%ADD16RoundRect,0.237500X0.250000X0.237500X-0.250000X0.237500X-0.250000X-0.237500X0.250000X-0.237500X0*%
%ADD17RoundRect,0.237500X-0.237500X0.250000X-0.237500X-0.250000X0.237500X-0.250000X0.237500X0.250000X0*%
%ADD18RoundRect,0.237500X0.237500X-0.300000X0.237500X0.300000X-0.237500X0.300000X-0.237500X-0.300000X0*%
%ADD19RoundRect,0.062500X-0.325000X-0.062500X0.325000X-0.062500X0.325000X0.062500X-0.325000X0.062500X0*%
%ADD20RoundRect,0.062500X-0.062500X-0.325000X0.062500X-0.325000X0.062500X0.325000X-0.062500X0.325000X0*%
%ADD21R,2.450000X2.450000*%
%ADD22R,0.700000X1.200000*%
%ADD23C,0.650000*%
%ADD24R,4.500000X4.290000*%
%ADD25RoundRect,0.237500X0.300000X0.237500X-0.300000X0.237500X-0.300000X-0.237500X0.300000X-0.237500X0*%
%ADD26RoundRect,0.250000X-0.625000X0.350000X-0.625000X-0.350000X0.625000X-0.350000X0.625000X0.350000X0*%
%ADD27O,1.750000X1.200000*%
%ADD28RoundRect,0.237500X-0.287500X-0.237500X0.287500X-0.237500X0.287500X0.237500X-0.287500X0.237500X0*%
%ADD29RoundRect,0.237500X-0.300000X-0.237500X0.300000X-0.237500X0.300000X0.237500X-0.300000X0.237500X0*%
%ADD30R,0.700000X0.600000*%
%ADD31RoundRect,0.250000X-0.550000X1.500000X-0.550000X-1.500000X0.550000X-1.500000X0.550000X1.500000X0*%
%ADD32RoundRect,0.237500X-0.250000X-0.237500X0.250000X-0.237500X0.250000X0.237500X-0.250000X0.237500X0*%
%ADD33RoundRect,0.237500X-0.237500X0.300000X-0.237500X-0.300000X0.237500X-0.300000X0.237500X0.300000X0*%
%ADD34RoundRect,0.150000X-0.587500X-0.150000X0.587500X-0.150000X0.587500X0.150000X-0.587500X0.150000X0*%
%ADD35RoundRect,0.237500X0.237500X-0.250000X0.237500X0.250000X-0.237500X0.250000X-0.237500X-0.250000X0*%
%ADD36R,0.600000X0.700000*%
%ADD37RoundRect,0.150000X-0.825000X-0.150000X0.825000X-0.150000X0.825000X0.150000X-0.825000X0.150000X0*%
%ADD38R,1.000000X1.000000*%
%ADD39RoundRect,0.050000X0.200000X0.050000X-0.200000X0.050000X-0.200000X-0.050000X0.200000X-0.050000X0*%
%ADD40Outline5P,-0.450000X0.480000X-0.180000X0.750000X0.450000X0.750000X0.450000X-0.750000X-0.450000X-0.750000X180.000000*%
G04 APERTURE END LIST*
D10*
X61518571Y-33557142D02*
X61566190Y-33414285D01*
X61613809Y-33366666D01*
X61709047Y-33319047D01*
X61851904Y-33319047D01*
X61947142Y-33366666D01*
X61994761Y-33414285D01*
X62042380Y-33509523D01*
X62042380Y-33890476D01*
X61042380Y-33890476D01*
X61042380Y-33557142D01*
X61090000Y-33461904D01*
X61137619Y-33414285D01*
X61232857Y-33366666D01*
X61328095Y-33366666D01*
X61423333Y-33414285D01*
X61470952Y-33461904D01*
X61518571Y-33557142D01*
X61518571Y-33890476D01*
X62042380Y-32414285D02*
X62042380Y-32890476D01*
X61042380Y-32890476D01*
X62042380Y-32080952D02*
X61042380Y-32080952D01*
X61042380Y-31842857D01*
X61090000Y-31700000D01*
X61185238Y-31604761D01*
X61280476Y-31557142D01*
X61470952Y-31509523D01*
X61613809Y-31509523D01*
X61804285Y-31557142D01*
X61899523Y-31604761D01*
X61994761Y-31700000D01*
X62042380Y-31842857D01*
X62042380Y-32080952D01*
X61947142Y-30509523D02*
X61994761Y-30557142D01*
X62042380Y-30700000D01*
X62042380Y-30795238D01*
X61994761Y-30938095D01*
X61899523Y-31033333D01*
X61804285Y-31080952D01*
X61613809Y-31128571D01*
X61470952Y-31128571D01*
X61280476Y-31080952D01*
X61185238Y-31033333D01*
X61090000Y-30938095D01*
X61042380Y-30795238D01*
X61042380Y-30700000D01*
X61090000Y-30557142D01*
X61137619Y-30509523D01*
X61518571Y-28985714D02*
X61518571Y-29319047D01*
X62042380Y-29319047D02*
X61042380Y-29319047D01*
X61042380Y-28842857D01*
X61042380Y-28271428D02*
X61042380Y-28080952D01*
X61090000Y-27985714D01*
X61185238Y-27890476D01*
X61375714Y-27842857D01*
X61709047Y-27842857D01*
X61899523Y-27890476D01*
X61994761Y-27985714D01*
X62042380Y-28080952D01*
X62042380Y-28271428D01*
X61994761Y-28366666D01*
X61899523Y-28461904D01*
X61709047Y-28509523D01*
X61375714Y-28509523D01*
X61185238Y-28461904D01*
X61090000Y-28366666D01*
X61042380Y-28271428D01*
X61947142Y-26842857D02*
X61994761Y-26890476D01*
X62042380Y-27033333D01*
X62042380Y-27128571D01*
X61994761Y-27271428D01*
X61899523Y-27366666D01*
X61804285Y-27414285D01*
X61613809Y-27461904D01*
X61470952Y-27461904D01*
X61280476Y-27414285D01*
X61185238Y-27366666D01*
X61090000Y-27271428D01*
X61042380Y-27128571D01*
X61042380Y-27033333D01*
X61090000Y-26890476D01*
X61137619Y-26842857D01*
X61994761Y-25700000D02*
X62042380Y-25557142D01*
X62042380Y-25319047D01*
X61994761Y-25223809D01*
X61947142Y-25176190D01*
X61851904Y-25128571D01*
X61756666Y-25128571D01*
X61661428Y-25176190D01*
X61613809Y-25223809D01*
X61566190Y-25319047D01*
X61518571Y-25509523D01*
X61470952Y-25604761D01*
X61423333Y-25652380D01*
X61328095Y-25700000D01*
X61232857Y-25700000D01*
X61137619Y-25652380D01*
X61090000Y-25604761D01*
X61042380Y-25509523D01*
X61042380Y-25271428D01*
X61090000Y-25128571D01*
X62042380Y-24700000D02*
X61042380Y-24700000D01*
X62042380Y-24271428D02*
X61518571Y-24271428D01*
X61423333Y-24319047D01*
X61375714Y-24414285D01*
X61375714Y-24557142D01*
X61423333Y-24652380D01*
X61470952Y-24700000D01*
X62042380Y-23795238D02*
X61375714Y-23795238D01*
X61042380Y-23795238D02*
X61090000Y-23842857D01*
X61137619Y-23795238D01*
X61090000Y-23747619D01*
X61042380Y-23795238D01*
X61137619Y-23795238D01*
X61994761Y-22938095D02*
X62042380Y-23033333D01*
X62042380Y-23223809D01*
X61994761Y-23319047D01*
X61899523Y-23366666D01*
X61518571Y-23366666D01*
X61423333Y-23319047D01*
X61375714Y-23223809D01*
X61375714Y-23033333D01*
X61423333Y-22938095D01*
X61518571Y-22890476D01*
X61613809Y-22890476D01*
X61709047Y-23366666D01*
X62042380Y-22319047D02*
X61994761Y-22414285D01*
X61899523Y-22461904D01*
X61042380Y-22461904D01*
X62042380Y-21509523D02*
X61042380Y-21509523D01*
X61994761Y-21509523D02*
X62042380Y-21604761D01*
X62042380Y-21795238D01*
X61994761Y-21890476D01*
X61947142Y-21938095D01*
X61851904Y-21985714D01*
X61566190Y-21985714D01*
X61470952Y-21938095D01*
X61423333Y-21890476D01*
X61375714Y-21795238D01*
X61375714Y-21604761D01*
X61423333Y-21509523D01*
X63652380Y-35009523D02*
X63176190Y-35342857D01*
X63652380Y-35580952D02*
X62652380Y-35580952D01*
X62652380Y-35200000D01*
X62700000Y-35104761D01*
X62747619Y-35057142D01*
X62842857Y-35009523D01*
X62985714Y-35009523D01*
X63080952Y-35057142D01*
X63128571Y-35104761D01*
X63176190Y-35200000D01*
X63176190Y-35580952D01*
X63604761Y-34200000D02*
X63652380Y-34295238D01*
X63652380Y-34485714D01*
X63604761Y-34580952D01*
X63509523Y-34628571D01*
X63128571Y-34628571D01*
X63033333Y-34580952D01*
X62985714Y-34485714D01*
X62985714Y-34295238D01*
X63033333Y-34200000D01*
X63128571Y-34152380D01*
X63223809Y-34152380D01*
X63319047Y-34628571D01*
X62985714Y-33819047D02*
X63652380Y-33580952D01*
X62985714Y-33342857D01*
X63652380Y-31676190D02*
X63652380Y-32247619D01*
X63652380Y-31961904D02*
X62652380Y-31961904D01*
X62795238Y-32057142D01*
X62890476Y-32152380D01*
X62938095Y-32247619D01*
X63557142Y-31247619D02*
X63604761Y-31200000D01*
X63652380Y-31247619D01*
X63604761Y-31295238D01*
X63557142Y-31247619D01*
X63652380Y-31247619D01*
X63652380Y-30247619D02*
X63652380Y-30819047D01*
X63652380Y-30533333D02*
X62652380Y-30533333D01*
X62795238Y-30628571D01*
X62890476Y-30723809D01*
X62938095Y-30819047D01*
X62747619Y-29104761D02*
X62700000Y-29057142D01*
X62652380Y-28961904D01*
X62652380Y-28723809D01*
X62700000Y-28628571D01*
X62747619Y-28580952D01*
X62842857Y-28533333D01*
X62938095Y-28533333D01*
X63080952Y-28580952D01*
X63652380Y-29152380D01*
X63652380Y-28533333D01*
X62652380Y-28200000D02*
X62652380Y-27533333D01*
X63652380Y-27961904D01*
X62604761Y-26438095D02*
X63890476Y-27295238D01*
X62652380Y-25914285D02*
X62652380Y-25819047D01*
X62700000Y-25723809D01*
X62747619Y-25676190D01*
X62842857Y-25628571D01*
X63033333Y-25580952D01*
X63271428Y-25580952D01*
X63461904Y-25628571D01*
X63557142Y-25676190D01*
X63604761Y-25723809D01*
X63652380Y-25819047D01*
X63652380Y-25914285D01*
X63604761Y-26009523D01*
X63557142Y-26057142D01*
X63461904Y-26104761D01*
X63271428Y-26152380D01*
X63033333Y-26152380D01*
X62842857Y-26104761D01*
X62747619Y-26057142D01*
X62700000Y-26009523D01*
X62652380Y-25914285D01*
X62747619Y-25200000D02*
X62700000Y-25152380D01*
X62652380Y-25057142D01*
X62652380Y-24819047D01*
X62700000Y-24723809D01*
X62747619Y-24676190D01*
X62842857Y-24628571D01*
X62938095Y-24628571D01*
X63080952Y-24676190D01*
X63652380Y-25247619D01*
X63652380Y-24628571D01*
X62604761Y-23485714D02*
X63890476Y-24342857D01*
X62747619Y-23200000D02*
X62700000Y-23152380D01*
X62652380Y-23057142D01*
X62652380Y-22819047D01*
X62700000Y-22723809D01*
X62747619Y-22676190D01*
X62842857Y-22628571D01*
X62938095Y-22628571D01*
X63080952Y-22676190D01*
X63652380Y-23247619D01*
X63652380Y-22628571D01*
X62652380Y-22009523D02*
X62652380Y-21914285D01*
X62700000Y-21819047D01*
X62747619Y-21771428D01*
X62842857Y-21723809D01*
X63033333Y-21676190D01*
X63271428Y-21676190D01*
X63461904Y-21723809D01*
X63557142Y-21771428D01*
X63604761Y-21819047D01*
X63652380Y-21914285D01*
X63652380Y-22009523D01*
X63604761Y-22104761D01*
X63557142Y-22152380D01*
X63461904Y-22200000D01*
X63271428Y-22247619D01*
X63033333Y-22247619D01*
X62842857Y-22200000D01*
X62747619Y-22152380D01*
X62700000Y-22104761D01*
X62652380Y-22009523D01*
X62747619Y-21295238D02*
X62700000Y-21247619D01*
X62652380Y-21152380D01*
X62652380Y-20914285D01*
X62700000Y-20819047D01*
X62747619Y-20771428D01*
X62842857Y-20723809D01*
X62938095Y-20723809D01*
X63080952Y-20771428D01*
X63652380Y-21342857D01*
X63652380Y-20723809D01*
X62747619Y-20342857D02*
X62700000Y-20295238D01*
X62652380Y-20200000D01*
X62652380Y-19961904D01*
X62700000Y-19866666D01*
X62747619Y-19819047D01*
X62842857Y-19771428D01*
X62938095Y-19771428D01*
X63080952Y-19819047D01*
X63652380Y-20390476D01*
X63652380Y-19771428D01*
X65262380Y-31652380D02*
X64262380Y-31652380D01*
X65262380Y-31080952D02*
X64690952Y-31509523D01*
X64262380Y-31080952D02*
X64833809Y-31652380D01*
X65214761Y-30271428D02*
X65262380Y-30366666D01*
X65262380Y-30557142D01*
X65214761Y-30652380D01*
X65119523Y-30700000D01*
X64738571Y-30700000D01*
X64643333Y-30652380D01*
X64595714Y-30557142D01*
X64595714Y-30366666D01*
X64643333Y-30271428D01*
X64738571Y-30223809D01*
X64833809Y-30223809D01*
X64929047Y-30700000D01*
X65214761Y-29842857D02*
X65262380Y-29747619D01*
X65262380Y-29557142D01*
X65214761Y-29461904D01*
X65119523Y-29414285D01*
X65071904Y-29414285D01*
X64976666Y-29461904D01*
X64929047Y-29557142D01*
X64929047Y-29700000D01*
X64881428Y-29795238D01*
X64786190Y-29842857D01*
X64738571Y-29842857D01*
X64643333Y-29795238D01*
X64595714Y-29700000D01*
X64595714Y-29557142D01*
X64643333Y-29461904D01*
X65262380Y-28985714D02*
X64262380Y-28985714D01*
X65262380Y-28557142D02*
X64738571Y-28557142D01*
X64643333Y-28604761D01*
X64595714Y-28700000D01*
X64595714Y-28842857D01*
X64643333Y-28938095D01*
X64690952Y-28985714D01*
X65262380Y-27652380D02*
X64738571Y-27652380D01*
X64643333Y-27700000D01*
X64595714Y-27795238D01*
X64595714Y-27985714D01*
X64643333Y-28080952D01*
X65214761Y-27652380D02*
X65262380Y-27747619D01*
X65262380Y-27985714D01*
X65214761Y-28080952D01*
X65119523Y-28128571D01*
X65024285Y-28128571D01*
X64929047Y-28080952D01*
X64881428Y-27985714D01*
X64881428Y-27747619D01*
X64833809Y-27652380D01*
X64595714Y-27271428D02*
X65262380Y-27033333D01*
X64595714Y-26795238D01*
X65262380Y-25080952D02*
X64786190Y-25414285D01*
X65262380Y-25652380D02*
X64262380Y-25652380D01*
X64262380Y-25271428D01*
X64310000Y-25176190D01*
X64357619Y-25128571D01*
X64452857Y-25080952D01*
X64595714Y-25080952D01*
X64690952Y-25128571D01*
X64738571Y-25176190D01*
X64786190Y-25271428D01*
X64786190Y-25652380D01*
X65262380Y-24223809D02*
X64738571Y-24223809D01*
X64643333Y-24271428D01*
X64595714Y-24366666D01*
X64595714Y-24557142D01*
X64643333Y-24652380D01*
X65214761Y-24223809D02*
X65262380Y-24319047D01*
X65262380Y-24557142D01*
X65214761Y-24652380D01*
X65119523Y-24700000D01*
X65024285Y-24700000D01*
X64929047Y-24652380D01*
X64881428Y-24557142D01*
X64881428Y-24319047D01*
X64833809Y-24223809D01*
X64595714Y-23747619D02*
X65452857Y-23747619D01*
X65548095Y-23795238D01*
X65595714Y-23890476D01*
X65595714Y-23938095D01*
X64262380Y-23747619D02*
X64310000Y-23795238D01*
X64357619Y-23747619D01*
X64310000Y-23700000D01*
X64262380Y-23747619D01*
X64357619Y-23747619D01*
X79419047Y-61000000D02*
X79323809Y-60952380D01*
X79180952Y-60952380D01*
X79038095Y-61000000D01*
X78942857Y-61095238D01*
X78895238Y-61190476D01*
X78847619Y-61380952D01*
X78847619Y-61523809D01*
X78895238Y-61714285D01*
X78942857Y-61809523D01*
X79038095Y-61904761D01*
X79180952Y-61952380D01*
X79276190Y-61952380D01*
X79419047Y-61904761D01*
X79466666Y-61857142D01*
X79466666Y-61523809D01*
X79276190Y-61523809D01*
X79895238Y-61952380D02*
X79895238Y-60952380D01*
X80466666Y-61952380D01*
X80466666Y-60952380D01*
X80942857Y-61952380D02*
X80942857Y-60952380D01*
X81180952Y-60952380D01*
X81323809Y-61000000D01*
X81419047Y-61095238D01*
X81466666Y-61190476D01*
X81514285Y-61380952D01*
X81514285Y-61523809D01*
X81466666Y-61714285D01*
X81419047Y-61809523D01*
X81323809Y-61904761D01*
X81180952Y-61952380D01*
X80942857Y-61952380D01*
X82704761Y-61571428D02*
X83466666Y-61571428D01*
X83942857Y-61285714D02*
X84704761Y-61571428D01*
X83942857Y-61857142D01*
X77823809Y-52052380D02*
X78442857Y-52052380D01*
X78109523Y-52433333D01*
X78252380Y-52433333D01*
X78347619Y-52480952D01*
X78395238Y-52528571D01*
X78442857Y-52623809D01*
X78442857Y-52861904D01*
X78395238Y-52957142D01*
X78347619Y-53004761D01*
X78252380Y-53052380D01*
X77966666Y-53052380D01*
X77871428Y-53004761D01*
X77823809Y-52957142D01*
X78871428Y-52957142D02*
X78919047Y-53004761D01*
X78871428Y-53052380D01*
X78823809Y-53004761D01*
X78871428Y-52957142D01*
X78871428Y-53052380D01*
X79252380Y-52052380D02*
X79871428Y-52052380D01*
X79538095Y-52433333D01*
X79680952Y-52433333D01*
X79776190Y-52480952D01*
X79823809Y-52528571D01*
X79871428Y-52623809D01*
X79871428Y-52861904D01*
X79823809Y-52957142D01*
X79776190Y-53004761D01*
X79680952Y-53052380D01*
X79395238Y-53052380D01*
X79300000Y-53004761D01*
X79252380Y-52957142D01*
X80157142Y-52052380D02*
X80490476Y-53052380D01*
X80823809Y-52052380D01*
X78847619Y-59571428D02*
X79609523Y-59571428D01*
X79228571Y-59952380D02*
X79228571Y-59190476D01*
X80609523Y-59952380D02*
X80038095Y-59952380D01*
X80323809Y-59952380D02*
X80323809Y-58952380D01*
X80228571Y-59095238D01*
X80133333Y-59190476D01*
X80038095Y-59238095D01*
X80990476Y-59047619D02*
X81038095Y-59000000D01*
X81133333Y-58952380D01*
X81371428Y-58952380D01*
X81466666Y-59000000D01*
X81514285Y-59047619D01*
X81561904Y-59142857D01*
X81561904Y-59238095D01*
X81514285Y-59380952D01*
X80942857Y-59952380D01*
X81561904Y-59952380D01*
X82752380Y-59571428D02*
X83514285Y-59571428D01*
X83990476Y-59285714D02*
X84752380Y-59571428D01*
X83990476Y-59857142D01*
X123266666Y-51752380D02*
X123266666Y-50752380D01*
X123600000Y-51466666D01*
X123933333Y-50752380D01*
X123933333Y-51752380D01*
X124552380Y-51752380D02*
X124457142Y-51704761D01*
X124409523Y-51657142D01*
X124361904Y-51561904D01*
X124361904Y-51276190D01*
X124409523Y-51180952D01*
X124457142Y-51133333D01*
X124552380Y-51085714D01*
X124695238Y-51085714D01*
X124790476Y-51133333D01*
X124838095Y-51180952D01*
X124885714Y-51276190D01*
X124885714Y-51561904D01*
X124838095Y-51657142D01*
X124790476Y-51704761D01*
X124695238Y-51752380D01*
X124552380Y-51752380D01*
X125171428Y-51085714D02*
X125552380Y-51085714D01*
X125314285Y-50752380D02*
X125314285Y-51609523D01*
X125361904Y-51704761D01*
X125457142Y-51752380D01*
X125552380Y-51752380D01*
X126028571Y-51752380D02*
X125933333Y-51704761D01*
X125885714Y-51657142D01*
X125838095Y-51561904D01*
X125838095Y-51276190D01*
X125885714Y-51180952D01*
X125933333Y-51133333D01*
X126028571Y-51085714D01*
X126171428Y-51085714D01*
X126266666Y-51133333D01*
X126314285Y-51180952D01*
X126361904Y-51276190D01*
X126361904Y-51561904D01*
X126314285Y-51657142D01*
X126266666Y-51704761D01*
X126171428Y-51752380D01*
X126028571Y-51752380D01*
X126790476Y-51752380D02*
X126790476Y-51085714D01*
X126790476Y-51276190D02*
X126838095Y-51180952D01*
X126885714Y-51133333D01*
X126980952Y-51085714D01*
X127076190Y-51085714D01*
X67052380Y-49261904D02*
X66052380Y-49261904D01*
X66528571Y-49261904D02*
X66528571Y-48690476D01*
X67052380Y-48690476D02*
X66052380Y-48690476D01*
X67052380Y-47785714D02*
X66528571Y-47785714D01*
X66433333Y-47833333D01*
X66385714Y-47928571D01*
X66385714Y-48119047D01*
X66433333Y-48214285D01*
X67004761Y-47785714D02*
X67052380Y-47880952D01*
X67052380Y-48119047D01*
X67004761Y-48214285D01*
X66909523Y-48261904D01*
X66814285Y-48261904D01*
X66719047Y-48214285D01*
X66671428Y-48119047D01*
X66671428Y-47880952D01*
X66623809Y-47785714D01*
X67052380Y-47166666D02*
X67004761Y-47261904D01*
X66909523Y-47309523D01*
X66052380Y-47309523D01*
X67052380Y-46642857D02*
X67004761Y-46738095D01*
X66909523Y-46785714D01*
X66052380Y-46785714D01*
X66004761Y-45547619D02*
X67290476Y-46404761D01*
X66528571Y-45214285D02*
X66528571Y-44880952D01*
X67052380Y-44738095D02*
X67052380Y-45214285D01*
X66052380Y-45214285D01*
X66052380Y-44738095D01*
X66385714Y-44309523D02*
X67052380Y-44309523D01*
X66480952Y-44309523D02*
X66433333Y-44261904D01*
X66385714Y-44166666D01*
X66385714Y-44023809D01*
X66433333Y-43928571D01*
X66528571Y-43880952D01*
X67052380Y-43880952D01*
X67004761Y-42976190D02*
X67052380Y-43071428D01*
X67052380Y-43261904D01*
X67004761Y-43357142D01*
X66957142Y-43404761D01*
X66861904Y-43452380D01*
X66576190Y-43452380D01*
X66480952Y-43404761D01*
X66433333Y-43357142D01*
X66385714Y-43261904D01*
X66385714Y-43071428D01*
X66433333Y-42976190D01*
X67052380Y-42404761D02*
X67004761Y-42500000D01*
X66957142Y-42547619D01*
X66861904Y-42595238D01*
X66576190Y-42595238D01*
X66480952Y-42547619D01*
X66433333Y-42500000D01*
X66385714Y-42404761D01*
X66385714Y-42261904D01*
X66433333Y-42166666D01*
X66480952Y-42119047D01*
X66576190Y-42071428D01*
X66861904Y-42071428D01*
X66957142Y-42119047D01*
X67004761Y-42166666D01*
X67052380Y-42261904D01*
X67052380Y-42404761D01*
X67052380Y-41214285D02*
X66052380Y-41214285D01*
X67004761Y-41214285D02*
X67052380Y-41309523D01*
X67052380Y-41500000D01*
X67004761Y-41595238D01*
X66957142Y-41642857D01*
X66861904Y-41690476D01*
X66576190Y-41690476D01*
X66480952Y-41642857D01*
X66433333Y-41595238D01*
X66385714Y-41500000D01*
X66385714Y-41309523D01*
X66433333Y-41214285D01*
X67004761Y-40357142D02*
X67052380Y-40452380D01*
X67052380Y-40642857D01*
X67004761Y-40738095D01*
X66909523Y-40785714D01*
X66528571Y-40785714D01*
X66433333Y-40738095D01*
X66385714Y-40642857D01*
X66385714Y-40452380D01*
X66433333Y-40357142D01*
X66528571Y-40309523D01*
X66623809Y-40309523D01*
X66719047Y-40785714D01*
X67052380Y-39880952D02*
X66385714Y-39880952D01*
X66576190Y-39880952D02*
X66480952Y-39833333D01*
X66433333Y-39785714D01*
X66385714Y-39690476D01*
X66385714Y-39595238D01*
X78580952Y-56152380D02*
X78009523Y-56152380D01*
X78295238Y-56152380D02*
X78295238Y-55152380D01*
X78200000Y-55295238D01*
X78104761Y-55390476D01*
X78009523Y-55438095D01*
X78961904Y-55247619D02*
X79009523Y-55200000D01*
X79104761Y-55152380D01*
X79342857Y-55152380D01*
X79438095Y-55200000D01*
X79485714Y-55247619D01*
X79533333Y-55342857D01*
X79533333Y-55438095D01*
X79485714Y-55580952D01*
X78914285Y-56152380D01*
X79533333Y-56152380D01*
X79819047Y-55152380D02*
X80152380Y-56152380D01*
X80485714Y-55152380D01*
X124147380Y-40541285D02*
X123147380Y-40541285D01*
X123147380Y-40303190D01*
X123195000Y-40160333D01*
X123290238Y-40065095D01*
X123385476Y-40017476D01*
X123575952Y-39969857D01*
X123718809Y-39969857D01*
X123909285Y-40017476D01*
X124004523Y-40065095D01*
X124099761Y-40160333D01*
X124147380Y-40303190D01*
X124147380Y-40541285D01*
X124147380Y-39017476D02*
X124147380Y-39588904D01*
X124147380Y-39303190D02*
X123147380Y-39303190D01*
X123290238Y-39398428D01*
X123385476Y-39493666D01*
X123433095Y-39588904D01*
X123147380Y-38398428D02*
X123147380Y-38303190D01*
X123195000Y-38207952D01*
X123242619Y-38160333D01*
X123337857Y-38112714D01*
X123528333Y-38065095D01*
X123766428Y-38065095D01*
X123956904Y-38112714D01*
X124052142Y-38160333D01*
X124099761Y-38207952D01*
X124147380Y-38303190D01*
X124147380Y-38398428D01*
X124099761Y-38493666D01*
X124052142Y-38541285D01*
X123956904Y-38588904D01*
X123766428Y-38636523D01*
X123528333Y-38636523D01*
X123337857Y-38588904D01*
X123242619Y-38541285D01*
X123195000Y-38493666D01*
X123147380Y-38398428D01*
X101857142Y-43382380D02*
X101523809Y-42906190D01*
X101285714Y-43382380D02*
X101285714Y-42382380D01*
X101666666Y-42382380D01*
X101761904Y-42430000D01*
X101809523Y-42477619D01*
X101857142Y-42572857D01*
X101857142Y-42715714D01*
X101809523Y-42810952D01*
X101761904Y-42858571D01*
X101666666Y-42906190D01*
X101285714Y-42906190D01*
X102809523Y-43382380D02*
X102238095Y-43382380D01*
X102523809Y-43382380D02*
X102523809Y-42382380D01*
X102428571Y-42525238D01*
X102333333Y-42620476D01*
X102238095Y-42668095D01*
X103190476Y-42477619D02*
X103238095Y-42430000D01*
X103333333Y-42382380D01*
X103571428Y-42382380D01*
X103666666Y-42430000D01*
X103714285Y-42477619D01*
X103761904Y-42572857D01*
X103761904Y-42668095D01*
X103714285Y-42810952D01*
X103142857Y-43382380D01*
X103761904Y-43382380D01*
X66652380Y-55666666D02*
X66176190Y-56000000D01*
X66652380Y-56238095D02*
X65652380Y-56238095D01*
X65652380Y-55857142D01*
X65700000Y-55761904D01*
X65747619Y-55714285D01*
X65842857Y-55666666D01*
X65985714Y-55666666D01*
X66080952Y-55714285D01*
X66128571Y-55761904D01*
X66176190Y-55857142D01*
X66176190Y-56238095D01*
X65652380Y-54761904D02*
X65652380Y-55238095D01*
X66128571Y-55285714D01*
X66080952Y-55238095D01*
X66033333Y-55142857D01*
X66033333Y-54904761D01*
X66080952Y-54809523D01*
X66128571Y-54761904D01*
X66223809Y-54714285D01*
X66461904Y-54714285D01*
X66557142Y-54761904D01*
X66604761Y-54809523D01*
X66652380Y-54904761D01*
X66652380Y-55142857D01*
X66604761Y-55238095D01*
X66557142Y-55285714D01*
X93927142Y-41642857D02*
X93974761Y-41690476D01*
X94022380Y-41833333D01*
X94022380Y-41928571D01*
X93974761Y-42071428D01*
X93879523Y-42166666D01*
X93784285Y-42214285D01*
X93593809Y-42261904D01*
X93450952Y-42261904D01*
X93260476Y-42214285D01*
X93165238Y-42166666D01*
X93070000Y-42071428D01*
X93022380Y-41928571D01*
X93022380Y-41833333D01*
X93070000Y-41690476D01*
X93117619Y-41642857D01*
X94022380Y-40690476D02*
X94022380Y-41261904D01*
X94022380Y-40976190D02*
X93022380Y-40976190D01*
X93165238Y-41071428D01*
X93260476Y-41166666D01*
X93308095Y-41261904D01*
X93022380Y-40071428D02*
X93022380Y-39976190D01*
X93070000Y-39880952D01*
X93117619Y-39833333D01*
X93212857Y-39785714D01*
X93403333Y-39738095D01*
X93641428Y-39738095D01*
X93831904Y-39785714D01*
X93927142Y-39833333D01*
X93974761Y-39880952D01*
X94022380Y-39976190D01*
X94022380Y-40071428D01*
X93974761Y-40166666D01*
X93927142Y-40214285D01*
X93831904Y-40261904D01*
X93641428Y-40309523D01*
X93403333Y-40309523D01*
X93212857Y-40261904D01*
X93117619Y-40214285D01*
X93070000Y-40166666D01*
X93022380Y-40071428D01*
X89223809Y-44852380D02*
X89223809Y-43852380D01*
X90271428Y-44757142D02*
X90223809Y-44804761D01*
X90080952Y-44852380D01*
X89985714Y-44852380D01*
X89842857Y-44804761D01*
X89747619Y-44709523D01*
X89700000Y-44614285D01*
X89652380Y-44423809D01*
X89652380Y-44280952D01*
X89700000Y-44090476D01*
X89747619Y-43995238D01*
X89842857Y-43900000D01*
X89985714Y-43852380D01*
X90080952Y-43852380D01*
X90223809Y-43900000D01*
X90271428Y-43947619D01*
X91223809Y-44852380D02*
X90652380Y-44852380D01*
X90938095Y-44852380D02*
X90938095Y-43852380D01*
X90842857Y-43995238D01*
X90747619Y-44090476D01*
X90652380Y-44138095D01*
X102333333Y-27382380D02*
X102000000Y-26906190D01*
X101761904Y-27382380D02*
X101761904Y-26382380D01*
X102142857Y-26382380D01*
X102238095Y-26430000D01*
X102285714Y-26477619D01*
X102333333Y-26572857D01*
X102333333Y-26715714D01*
X102285714Y-26810952D01*
X102238095Y-26858571D01*
X102142857Y-26906190D01*
X101761904Y-26906190D01*
X102809523Y-27382380D02*
X103000000Y-27382380D01*
X103095238Y-27334761D01*
X103142857Y-27287142D01*
X103238095Y-27144285D01*
X103285714Y-26953809D01*
X103285714Y-26572857D01*
X103238095Y-26477619D01*
X103190476Y-26430000D01*
X103095238Y-26382380D01*
X102904761Y-26382380D01*
X102809523Y-26430000D01*
X102761904Y-26477619D01*
X102714285Y-26572857D01*
X102714285Y-26810952D01*
X102761904Y-26906190D01*
X102809523Y-26953809D01*
X102904761Y-27001428D01*
X103095238Y-27001428D01*
X103190476Y-26953809D01*
X103238095Y-26906190D01*
X103285714Y-26810952D01*
X107404761Y-24447619D02*
X107309523Y-24400000D01*
X107214285Y-24304761D01*
X107071428Y-24161904D01*
X106976190Y-24114285D01*
X106880952Y-24114285D01*
X106928571Y-24352380D02*
X106833333Y-24304761D01*
X106738095Y-24209523D01*
X106690476Y-24019047D01*
X106690476Y-23685714D01*
X106738095Y-23495238D01*
X106833333Y-23400000D01*
X106928571Y-23352380D01*
X107119047Y-23352380D01*
X107214285Y-23400000D01*
X107309523Y-23495238D01*
X107357142Y-23685714D01*
X107357142Y-24019047D01*
X107309523Y-24209523D01*
X107214285Y-24304761D01*
X107119047Y-24352380D01*
X106928571Y-24352380D01*
X108309523Y-24352380D02*
X107738095Y-24352380D01*
X108023809Y-24352380D02*
X108023809Y-23352380D01*
X107928571Y-23495238D01*
X107833333Y-23590476D01*
X107738095Y-23638095D01*
X87057142Y-54452380D02*
X86723809Y-53976190D01*
X86485714Y-54452380D02*
X86485714Y-53452380D01*
X86866666Y-53452380D01*
X86961904Y-53500000D01*
X87009523Y-53547619D01*
X87057142Y-53642857D01*
X87057142Y-53785714D01*
X87009523Y-53880952D01*
X86961904Y-53928571D01*
X86866666Y-53976190D01*
X86485714Y-53976190D01*
X87390476Y-53452380D02*
X88009523Y-53452380D01*
X87676190Y-53833333D01*
X87819047Y-53833333D01*
X87914285Y-53880952D01*
X87961904Y-53928571D01*
X88009523Y-54023809D01*
X88009523Y-54261904D01*
X87961904Y-54357142D01*
X87914285Y-54404761D01*
X87819047Y-54452380D01*
X87533333Y-54452380D01*
X87438095Y-54404761D01*
X87390476Y-54357142D01*
X88961904Y-54452380D02*
X88390476Y-54452380D01*
X88676190Y-54452380D02*
X88676190Y-53452380D01*
X88580952Y-53595238D01*
X88485714Y-53690476D01*
X88390476Y-53738095D01*
X92257142Y-49052380D02*
X91923809Y-48576190D01*
X91685714Y-49052380D02*
X91685714Y-48052380D01*
X92066666Y-48052380D01*
X92161904Y-48100000D01*
X92209523Y-48147619D01*
X92257142Y-48242857D01*
X92257142Y-48385714D01*
X92209523Y-48480952D01*
X92161904Y-48528571D01*
X92066666Y-48576190D01*
X91685714Y-48576190D01*
X92590476Y-48052380D02*
X93209523Y-48052380D01*
X92876190Y-48433333D01*
X93019047Y-48433333D01*
X93114285Y-48480952D01*
X93161904Y-48528571D01*
X93209523Y-48623809D01*
X93209523Y-48861904D01*
X93161904Y-48957142D01*
X93114285Y-49004761D01*
X93019047Y-49052380D01*
X92733333Y-49052380D01*
X92638095Y-49004761D01*
X92590476Y-48957142D01*
X93542857Y-48052380D02*
X94161904Y-48052380D01*
X93828571Y-48433333D01*
X93971428Y-48433333D01*
X94066666Y-48480952D01*
X94114285Y-48528571D01*
X94161904Y-48623809D01*
X94161904Y-48861904D01*
X94114285Y-48957142D01*
X94066666Y-49004761D01*
X93971428Y-49052380D01*
X93685714Y-49052380D01*
X93590476Y-49004761D01*
X93542857Y-48957142D01*
X102933333Y-63657142D02*
X102885714Y-63704761D01*
X102742857Y-63752380D01*
X102647619Y-63752380D01*
X102504761Y-63704761D01*
X102409523Y-63609523D01*
X102361904Y-63514285D01*
X102314285Y-63323809D01*
X102314285Y-63180952D01*
X102361904Y-62990476D01*
X102409523Y-62895238D01*
X102504761Y-62800000D01*
X102647619Y-62752380D01*
X102742857Y-62752380D01*
X102885714Y-62800000D01*
X102933333Y-62847619D01*
X103790476Y-63085714D02*
X103790476Y-63752380D01*
X103552380Y-62704761D02*
X103314285Y-63419047D01*
X103933333Y-63419047D01*
X124966666Y-40352380D02*
X124966666Y-41066666D01*
X124919047Y-41209523D01*
X124823809Y-41304761D01*
X124680952Y-41352380D01*
X124585714Y-41352380D01*
X125871428Y-40352380D02*
X125680952Y-40352380D01*
X125585714Y-40400000D01*
X125538095Y-40447619D01*
X125442857Y-40590476D01*
X125395238Y-40780952D01*
X125395238Y-41161904D01*
X125442857Y-41257142D01*
X125490476Y-41304761D01*
X125585714Y-41352380D01*
X125776190Y-41352380D01*
X125871428Y-41304761D01*
X125919047Y-41257142D01*
X125966666Y-41161904D01*
X125966666Y-40923809D01*
X125919047Y-40828571D01*
X125871428Y-40780952D01*
X125776190Y-40733333D01*
X125585714Y-40733333D01*
X125490476Y-40780952D01*
X125442857Y-40828571D01*
X125395238Y-40923809D01*
X65352380Y-55666666D02*
X64876190Y-56000000D01*
X65352380Y-56238095D02*
X64352380Y-56238095D01*
X64352380Y-55857142D01*
X64400000Y-55761904D01*
X64447619Y-55714285D01*
X64542857Y-55666666D01*
X64685714Y-55666666D01*
X64780952Y-55714285D01*
X64828571Y-55761904D01*
X64876190Y-55857142D01*
X64876190Y-56238095D01*
X64352380Y-54809523D02*
X64352380Y-55000000D01*
X64400000Y-55095238D01*
X64447619Y-55142857D01*
X64590476Y-55238095D01*
X64780952Y-55285714D01*
X65161904Y-55285714D01*
X65257142Y-55238095D01*
X65304761Y-55190476D01*
X65352380Y-55095238D01*
X65352380Y-54904761D01*
X65304761Y-54809523D01*
X65257142Y-54761904D01*
X65161904Y-54714285D01*
X64923809Y-54714285D01*
X64828571Y-54761904D01*
X64780952Y-54809523D01*
X64733333Y-54904761D01*
X64733333Y-55095238D01*
X64780952Y-55190476D01*
X64828571Y-55238095D01*
X64923809Y-55285714D01*
X109857142Y-62057142D02*
X109809523Y-62104761D01*
X109666666Y-62152380D01*
X109571428Y-62152380D01*
X109428571Y-62104761D01*
X109333333Y-62009523D01*
X109285714Y-61914285D01*
X109238095Y-61723809D01*
X109238095Y-61580952D01*
X109285714Y-61390476D01*
X109333333Y-61295238D01*
X109428571Y-61200000D01*
X109571428Y-61152380D01*
X109666666Y-61152380D01*
X109809523Y-61200000D01*
X109857142Y-61247619D01*
X110809523Y-62152380D02*
X110238095Y-62152380D01*
X110523809Y-62152380D02*
X110523809Y-61152380D01*
X110428571Y-61295238D01*
X110333333Y-61390476D01*
X110238095Y-61438095D01*
X111714285Y-61152380D02*
X111238095Y-61152380D01*
X111190476Y-61628571D01*
X111238095Y-61580952D01*
X111333333Y-61533333D01*
X111571428Y-61533333D01*
X111666666Y-61580952D01*
X111714285Y-61628571D01*
X111761904Y-61723809D01*
X111761904Y-61961904D01*
X111714285Y-62057142D01*
X111666666Y-62104761D01*
X111571428Y-62152380D01*
X111333333Y-62152380D01*
X111238095Y-62104761D01*
X111190476Y-62057142D01*
X65252380Y-52642857D02*
X64776190Y-52976190D01*
X65252380Y-53214285D02*
X64252380Y-53214285D01*
X64252380Y-52833333D01*
X64300000Y-52738095D01*
X64347619Y-52690476D01*
X64442857Y-52642857D01*
X64585714Y-52642857D01*
X64680952Y-52690476D01*
X64728571Y-52738095D01*
X64776190Y-52833333D01*
X64776190Y-53214285D01*
X64347619Y-52261904D02*
X64300000Y-52214285D01*
X64252380Y-52119047D01*
X64252380Y-51880952D01*
X64300000Y-51785714D01*
X64347619Y-51738095D01*
X64442857Y-51690476D01*
X64538095Y-51690476D01*
X64680952Y-51738095D01*
X65252380Y-52309523D01*
X65252380Y-51690476D01*
X65252380Y-50738095D02*
X65252380Y-51309523D01*
X65252380Y-51023809D02*
X64252380Y-51023809D01*
X64395238Y-51119047D01*
X64490476Y-51214285D01*
X64538095Y-51309523D01*
X83466666Y-62752380D02*
X83466666Y-63466666D01*
X83419047Y-63609523D01*
X83323809Y-63704761D01*
X83180952Y-63752380D01*
X83085714Y-63752380D01*
X84466666Y-63752380D02*
X83895238Y-63752380D01*
X84180952Y-63752380D02*
X84180952Y-62752380D01*
X84085714Y-62895238D01*
X83990476Y-62990476D01*
X83895238Y-63038095D01*
X97052380Y-47038095D02*
X96052380Y-47038095D01*
X96052380Y-46800000D01*
X96100000Y-46657142D01*
X96195238Y-46561904D01*
X96290476Y-46514285D01*
X96480952Y-46466666D01*
X96623809Y-46466666D01*
X96814285Y-46514285D01*
X96909523Y-46561904D01*
X97004761Y-46657142D01*
X97052380Y-46800000D01*
X97052380Y-47038095D01*
X96385714Y-45609523D02*
X97052380Y-45609523D01*
X96004761Y-45847619D02*
X96719047Y-46085714D01*
X96719047Y-45466666D01*
X101857142Y-47382380D02*
X101523809Y-46906190D01*
X101285714Y-47382380D02*
X101285714Y-46382380D01*
X101666666Y-46382380D01*
X101761904Y-46430000D01*
X101809523Y-46477619D01*
X101857142Y-46572857D01*
X101857142Y-46715714D01*
X101809523Y-46810952D01*
X101761904Y-46858571D01*
X101666666Y-46906190D01*
X101285714Y-46906190D01*
X102809523Y-47382380D02*
X102238095Y-47382380D01*
X102523809Y-47382380D02*
X102523809Y-46382380D01*
X102428571Y-46525238D01*
X102333333Y-46620476D01*
X102238095Y-46668095D01*
X103142857Y-46382380D02*
X103761904Y-46382380D01*
X103428571Y-46763333D01*
X103571428Y-46763333D01*
X103666666Y-46810952D01*
X103714285Y-46858571D01*
X103761904Y-46953809D01*
X103761904Y-47191904D01*
X103714285Y-47287142D01*
X103666666Y-47334761D01*
X103571428Y-47382380D01*
X103285714Y-47382380D01*
X103190476Y-47334761D01*
X103142857Y-47287142D01*
X94333333Y-54557142D02*
X94285714Y-54604761D01*
X94142857Y-54652380D01*
X94047619Y-54652380D01*
X93904761Y-54604761D01*
X93809523Y-54509523D01*
X93761904Y-54414285D01*
X93714285Y-54223809D01*
X93714285Y-54080952D01*
X93761904Y-53890476D01*
X93809523Y-53795238D01*
X93904761Y-53700000D01*
X94047619Y-53652380D01*
X94142857Y-53652380D01*
X94285714Y-53700000D01*
X94333333Y-53747619D01*
X94714285Y-53747619D02*
X94761904Y-53700000D01*
X94857142Y-53652380D01*
X95095238Y-53652380D01*
X95190476Y-53700000D01*
X95238095Y-53747619D01*
X95285714Y-53842857D01*
X95285714Y-53938095D01*
X95238095Y-54080952D01*
X94666666Y-54652380D01*
X95285714Y-54652380D01*
X84857142Y-37152380D02*
X84523809Y-36676190D01*
X84285714Y-37152380D02*
X84285714Y-36152380D01*
X84666666Y-36152380D01*
X84761904Y-36200000D01*
X84809523Y-36247619D01*
X84857142Y-36342857D01*
X84857142Y-36485714D01*
X84809523Y-36580952D01*
X84761904Y-36628571D01*
X84666666Y-36676190D01*
X84285714Y-36676190D01*
X85809523Y-37152380D02*
X85238095Y-37152380D01*
X85523809Y-37152380D02*
X85523809Y-36152380D01*
X85428571Y-36295238D01*
X85333333Y-36390476D01*
X85238095Y-36438095D01*
X86142857Y-36152380D02*
X86809523Y-36152380D01*
X86380952Y-37152380D01*
X117857142Y-62366666D02*
X117904761Y-62414285D01*
X117952380Y-62557142D01*
X117952380Y-62652380D01*
X117904761Y-62795238D01*
X117809523Y-62890476D01*
X117714285Y-62938095D01*
X117523809Y-62985714D01*
X117380952Y-62985714D01*
X117190476Y-62938095D01*
X117095238Y-62890476D01*
X117000000Y-62795238D01*
X116952380Y-62652380D01*
X116952380Y-62557142D01*
X117000000Y-62414285D01*
X117047619Y-62366666D01*
X116952380Y-62033333D02*
X116952380Y-61414285D01*
X117333333Y-61747619D01*
X117333333Y-61604761D01*
X117380952Y-61509523D01*
X117428571Y-61461904D01*
X117523809Y-61414285D01*
X117761904Y-61414285D01*
X117857142Y-61461904D01*
X117904761Y-61509523D01*
X117952380Y-61604761D01*
X117952380Y-61890476D01*
X117904761Y-61985714D01*
X117857142Y-62033333D01*
X77657142Y-38752380D02*
X77323809Y-38276190D01*
X77085714Y-38752380D02*
X77085714Y-37752380D01*
X77466666Y-37752380D01*
X77561904Y-37800000D01*
X77609523Y-37847619D01*
X77657142Y-37942857D01*
X77657142Y-38085714D01*
X77609523Y-38180952D01*
X77561904Y-38228571D01*
X77466666Y-38276190D01*
X77085714Y-38276190D01*
X78609523Y-38752380D02*
X78038095Y-38752380D01*
X78323809Y-38752380D02*
X78323809Y-37752380D01*
X78228571Y-37895238D01*
X78133333Y-37990476D01*
X78038095Y-38038095D01*
X79085714Y-38752380D02*
X79276190Y-38752380D01*
X79371428Y-38704761D01*
X79419047Y-38657142D01*
X79514285Y-38514285D01*
X79561904Y-38323809D01*
X79561904Y-37942857D01*
X79514285Y-37847619D01*
X79466666Y-37800000D01*
X79371428Y-37752380D01*
X79180952Y-37752380D01*
X79085714Y-37800000D01*
X79038095Y-37847619D01*
X78990476Y-37942857D01*
X78990476Y-38180952D01*
X79038095Y-38276190D01*
X79085714Y-38323809D01*
X79180952Y-38371428D01*
X79371428Y-38371428D01*
X79466666Y-38323809D01*
X79514285Y-38276190D01*
X79561904Y-38180952D01*
X66552380Y-52642857D02*
X66076190Y-52976190D01*
X66552380Y-53214285D02*
X65552380Y-53214285D01*
X65552380Y-52833333D01*
X65600000Y-52738095D01*
X65647619Y-52690476D01*
X65742857Y-52642857D01*
X65885714Y-52642857D01*
X65980952Y-52690476D01*
X66028571Y-52738095D01*
X66076190Y-52833333D01*
X66076190Y-53214285D01*
X65647619Y-52261904D02*
X65600000Y-52214285D01*
X65552380Y-52119047D01*
X65552380Y-51880952D01*
X65600000Y-51785714D01*
X65647619Y-51738095D01*
X65742857Y-51690476D01*
X65838095Y-51690476D01*
X65980952Y-51738095D01*
X66552380Y-52309523D01*
X66552380Y-51690476D01*
X65647619Y-51309523D02*
X65600000Y-51261904D01*
X65552380Y-51166666D01*
X65552380Y-50928571D01*
X65600000Y-50833333D01*
X65647619Y-50785714D01*
X65742857Y-50738095D01*
X65838095Y-50738095D01*
X65980952Y-50785714D01*
X66552380Y-51357142D01*
X66552380Y-50738095D01*
X113304761Y-34647619D02*
X113209523Y-34600000D01*
X113114285Y-34504761D01*
X112971428Y-34361904D01*
X112876190Y-34314285D01*
X112780952Y-34314285D01*
X112828571Y-34552380D02*
X112733333Y-34504761D01*
X112638095Y-34409523D01*
X112590476Y-34219047D01*
X112590476Y-33885714D01*
X112638095Y-33695238D01*
X112733333Y-33600000D01*
X112828571Y-33552380D01*
X113019047Y-33552380D01*
X113114285Y-33600000D01*
X113209523Y-33695238D01*
X113257142Y-33885714D01*
X113257142Y-34219047D01*
X113209523Y-34409523D01*
X113114285Y-34504761D01*
X113019047Y-34552380D01*
X112828571Y-34552380D01*
X114114285Y-33885714D02*
X114114285Y-34552380D01*
X113876190Y-33504761D02*
X113638095Y-34219047D01*
X114257142Y-34219047D01*
X86357142Y-34142857D02*
X86404761Y-34190476D01*
X86452380Y-34333333D01*
X86452380Y-34428571D01*
X86404761Y-34571428D01*
X86309523Y-34666666D01*
X86214285Y-34714285D01*
X86023809Y-34761904D01*
X85880952Y-34761904D01*
X85690476Y-34714285D01*
X85595238Y-34666666D01*
X85500000Y-34571428D01*
X85452380Y-34428571D01*
X85452380Y-34333333D01*
X85500000Y-34190476D01*
X85547619Y-34142857D01*
X86452380Y-33190476D02*
X86452380Y-33761904D01*
X86452380Y-33476190D02*
X85452380Y-33476190D01*
X85595238Y-33571428D01*
X85690476Y-33666666D01*
X85738095Y-33761904D01*
X85452380Y-32333333D02*
X85452380Y-32523809D01*
X85500000Y-32619047D01*
X85547619Y-32666666D01*
X85690476Y-32761904D01*
X85880952Y-32809523D01*
X86261904Y-32809523D01*
X86357142Y-32761904D01*
X86404761Y-32714285D01*
X86452380Y-32619047D01*
X86452380Y-32428571D01*
X86404761Y-32333333D01*
X86357142Y-32285714D01*
X86261904Y-32238095D01*
X86023809Y-32238095D01*
X85928571Y-32285714D01*
X85880952Y-32333333D01*
X85833333Y-32428571D01*
X85833333Y-32619047D01*
X85880952Y-32714285D01*
X85928571Y-32761904D01*
X86023809Y-32809523D01*
X70657142Y-45487142D02*
X70609523Y-45534761D01*
X70466666Y-45582380D01*
X70371428Y-45582380D01*
X70228571Y-45534761D01*
X70133333Y-45439523D01*
X70085714Y-45344285D01*
X70038095Y-45153809D01*
X70038095Y-45010952D01*
X70085714Y-44820476D01*
X70133333Y-44725238D01*
X70228571Y-44630000D01*
X70371428Y-44582380D01*
X70466666Y-44582380D01*
X70609523Y-44630000D01*
X70657142Y-44677619D01*
X71609523Y-45582380D02*
X71038095Y-45582380D01*
X71323809Y-45582380D02*
X71323809Y-44582380D01*
X71228571Y-44725238D01*
X71133333Y-44820476D01*
X71038095Y-44868095D01*
X71942857Y-44582380D02*
X72609523Y-44582380D01*
X72180952Y-45582380D01*
X107304761Y-44647619D02*
X107209523Y-44600000D01*
X107114285Y-44504761D01*
X106971428Y-44361904D01*
X106876190Y-44314285D01*
X106780952Y-44314285D01*
X106828571Y-44552380D02*
X106733333Y-44504761D01*
X106638095Y-44409523D01*
X106590476Y-44219047D01*
X106590476Y-43885714D01*
X106638095Y-43695238D01*
X106733333Y-43600000D01*
X106828571Y-43552380D01*
X107019047Y-43552380D01*
X107114285Y-43600000D01*
X107209523Y-43695238D01*
X107257142Y-43885714D01*
X107257142Y-44219047D01*
X107209523Y-44409523D01*
X107114285Y-44504761D01*
X107019047Y-44552380D01*
X106828571Y-44552380D01*
X108161904Y-43552380D02*
X107685714Y-43552380D01*
X107638095Y-44028571D01*
X107685714Y-43980952D01*
X107780952Y-43933333D01*
X108019047Y-43933333D01*
X108114285Y-43980952D01*
X108161904Y-44028571D01*
X108209523Y-44123809D01*
X108209523Y-44361904D01*
X108161904Y-44457142D01*
X108114285Y-44504761D01*
X108019047Y-44552380D01*
X107780952Y-44552380D01*
X107685714Y-44504761D01*
X107638095Y-44457142D01*
X109561904Y-56052380D02*
X109561904Y-55052380D01*
X109800000Y-55052380D01*
X109942857Y-55100000D01*
X110038095Y-55195238D01*
X110085714Y-55290476D01*
X110133333Y-55480952D01*
X110133333Y-55623809D01*
X110085714Y-55814285D01*
X110038095Y-55909523D01*
X109942857Y-56004761D01*
X109800000Y-56052380D01*
X109561904Y-56052380D01*
X111038095Y-55052380D02*
X110561904Y-55052380D01*
X110514285Y-55528571D01*
X110561904Y-55480952D01*
X110657142Y-55433333D01*
X110895238Y-55433333D01*
X110990476Y-55480952D01*
X111038095Y-55528571D01*
X111085714Y-55623809D01*
X111085714Y-55861904D01*
X111038095Y-55957142D01*
X110990476Y-56004761D01*
X110895238Y-56052380D01*
X110657142Y-56052380D01*
X110561904Y-56004761D01*
X110514285Y-55957142D01*
X87057142Y-56152380D02*
X86723809Y-55676190D01*
X86485714Y-56152380D02*
X86485714Y-55152380D01*
X86866666Y-55152380D01*
X86961904Y-55200000D01*
X87009523Y-55247619D01*
X87057142Y-55342857D01*
X87057142Y-55485714D01*
X87009523Y-55580952D01*
X86961904Y-55628571D01*
X86866666Y-55676190D01*
X86485714Y-55676190D01*
X87390476Y-55152380D02*
X88009523Y-55152380D01*
X87676190Y-55533333D01*
X87819047Y-55533333D01*
X87914285Y-55580952D01*
X87961904Y-55628571D01*
X88009523Y-55723809D01*
X88009523Y-55961904D01*
X87961904Y-56057142D01*
X87914285Y-56104761D01*
X87819047Y-56152380D01*
X87533333Y-56152380D01*
X87438095Y-56104761D01*
X87390476Y-56057142D01*
X88628571Y-55152380D02*
X88723809Y-55152380D01*
X88819047Y-55200000D01*
X88866666Y-55247619D01*
X88914285Y-55342857D01*
X88961904Y-55533333D01*
X88961904Y-55771428D01*
X88914285Y-55961904D01*
X88866666Y-56057142D01*
X88819047Y-56104761D01*
X88723809Y-56152380D01*
X88628571Y-56152380D01*
X88533333Y-56104761D01*
X88485714Y-56057142D01*
X88438095Y-55961904D01*
X88390476Y-55771428D01*
X88390476Y-55533333D01*
X88438095Y-55342857D01*
X88485714Y-55247619D01*
X88533333Y-55200000D01*
X88628571Y-55152380D01*
X102833333Y-59657142D02*
X102785714Y-59704761D01*
X102642857Y-59752380D01*
X102547619Y-59752380D01*
X102404761Y-59704761D01*
X102309523Y-59609523D01*
X102261904Y-59514285D01*
X102214285Y-59323809D01*
X102214285Y-59180952D01*
X102261904Y-58990476D01*
X102309523Y-58895238D01*
X102404761Y-58800000D01*
X102547619Y-58752380D01*
X102642857Y-58752380D01*
X102785714Y-58800000D01*
X102833333Y-58847619D01*
X103690476Y-58752380D02*
X103500000Y-58752380D01*
X103404761Y-58800000D01*
X103357142Y-58847619D01*
X103261904Y-58990476D01*
X103214285Y-59180952D01*
X103214285Y-59561904D01*
X103261904Y-59657142D01*
X103309523Y-59704761D01*
X103404761Y-59752380D01*
X103595238Y-59752380D01*
X103690476Y-59704761D01*
X103738095Y-59657142D01*
X103785714Y-59561904D01*
X103785714Y-59323809D01*
X103738095Y-59228571D01*
X103690476Y-59180952D01*
X103595238Y-59133333D01*
X103404761Y-59133333D01*
X103309523Y-59180952D01*
X103261904Y-59228571D01*
X103214285Y-59323809D01*
X93927142Y-45142857D02*
X93974761Y-45190476D01*
X94022380Y-45333333D01*
X94022380Y-45428571D01*
X93974761Y-45571428D01*
X93879523Y-45666666D01*
X93784285Y-45714285D01*
X93593809Y-45761904D01*
X93450952Y-45761904D01*
X93260476Y-45714285D01*
X93165238Y-45666666D01*
X93070000Y-45571428D01*
X93022380Y-45428571D01*
X93022380Y-45333333D01*
X93070000Y-45190476D01*
X93117619Y-45142857D01*
X94022380Y-44190476D02*
X94022380Y-44761904D01*
X94022380Y-44476190D02*
X93022380Y-44476190D01*
X93165238Y-44571428D01*
X93260476Y-44666666D01*
X93308095Y-44761904D01*
X94022380Y-43238095D02*
X94022380Y-43809523D01*
X94022380Y-43523809D02*
X93022380Y-43523809D01*
X93165238Y-43619047D01*
X93260476Y-43714285D01*
X93308095Y-43809523D01*
X92257142Y-50452380D02*
X91923809Y-49976190D01*
X91685714Y-50452380D02*
X91685714Y-49452380D01*
X92066666Y-49452380D01*
X92161904Y-49500000D01*
X92209523Y-49547619D01*
X92257142Y-49642857D01*
X92257142Y-49785714D01*
X92209523Y-49880952D01*
X92161904Y-49928571D01*
X92066666Y-49976190D01*
X91685714Y-49976190D01*
X92590476Y-49452380D02*
X93209523Y-49452380D01*
X92876190Y-49833333D01*
X93019047Y-49833333D01*
X93114285Y-49880952D01*
X93161904Y-49928571D01*
X93209523Y-50023809D01*
X93209523Y-50261904D01*
X93161904Y-50357142D01*
X93114285Y-50404761D01*
X93019047Y-50452380D01*
X92733333Y-50452380D01*
X92638095Y-50404761D01*
X92590476Y-50357142D01*
X94066666Y-49785714D02*
X94066666Y-50452380D01*
X93828571Y-49404761D02*
X93590476Y-50119047D01*
X94209523Y-50119047D01*
X85552380Y-31042857D02*
X85076190Y-31376190D01*
X85552380Y-31614285D02*
X84552380Y-31614285D01*
X84552380Y-31233333D01*
X84600000Y-31138095D01*
X84647619Y-31090476D01*
X84742857Y-31042857D01*
X84885714Y-31042857D01*
X84980952Y-31090476D01*
X85028571Y-31138095D01*
X85076190Y-31233333D01*
X85076190Y-31614285D01*
X84647619Y-30661904D02*
X84600000Y-30614285D01*
X84552380Y-30519047D01*
X84552380Y-30280952D01*
X84600000Y-30185714D01*
X84647619Y-30138095D01*
X84742857Y-30090476D01*
X84838095Y-30090476D01*
X84980952Y-30138095D01*
X85552380Y-30709523D01*
X85552380Y-30090476D01*
X84552380Y-29185714D02*
X84552380Y-29661904D01*
X85028571Y-29709523D01*
X84980952Y-29661904D01*
X84933333Y-29566666D01*
X84933333Y-29328571D01*
X84980952Y-29233333D01*
X85028571Y-29185714D01*
X85123809Y-29138095D01*
X85361904Y-29138095D01*
X85457142Y-29185714D01*
X85504761Y-29233333D01*
X85552380Y-29328571D01*
X85552380Y-29566666D01*
X85504761Y-29661904D01*
X85457142Y-29709523D01*
X101857142Y-37382380D02*
X101523809Y-36906190D01*
X101285714Y-37382380D02*
X101285714Y-36382380D01*
X101666666Y-36382380D01*
X101761904Y-36430000D01*
X101809523Y-36477619D01*
X101857142Y-36572857D01*
X101857142Y-36715714D01*
X101809523Y-36810952D01*
X101761904Y-36858571D01*
X101666666Y-36906190D01*
X101285714Y-36906190D01*
X102809523Y-37382380D02*
X102238095Y-37382380D01*
X102523809Y-37382380D02*
X102523809Y-36382380D01*
X102428571Y-36525238D01*
X102333333Y-36620476D01*
X102238095Y-36668095D01*
X103761904Y-37382380D02*
X103190476Y-37382380D01*
X103476190Y-37382380D02*
X103476190Y-36382380D01*
X103380952Y-36525238D01*
X103285714Y-36620476D01*
X103190476Y-36668095D01*
X88433333Y-37882380D02*
X88100000Y-37406190D01*
X87861904Y-37882380D02*
X87861904Y-36882380D01*
X88242857Y-36882380D01*
X88338095Y-36930000D01*
X88385714Y-36977619D01*
X88433333Y-37072857D01*
X88433333Y-37215714D01*
X88385714Y-37310952D01*
X88338095Y-37358571D01*
X88242857Y-37406190D01*
X87861904Y-37406190D01*
X89004761Y-37310952D02*
X88909523Y-37263333D01*
X88861904Y-37215714D01*
X88814285Y-37120476D01*
X88814285Y-37072857D01*
X88861904Y-36977619D01*
X88909523Y-36930000D01*
X89004761Y-36882380D01*
X89195238Y-36882380D01*
X89290476Y-36930000D01*
X89338095Y-36977619D01*
X89385714Y-37072857D01*
X89385714Y-37120476D01*
X89338095Y-37215714D01*
X89290476Y-37263333D01*
X89195238Y-37310952D01*
X89004761Y-37310952D01*
X88909523Y-37358571D01*
X88861904Y-37406190D01*
X88814285Y-37501428D01*
X88814285Y-37691904D01*
X88861904Y-37787142D01*
X88909523Y-37834761D01*
X89004761Y-37882380D01*
X89195238Y-37882380D01*
X89290476Y-37834761D01*
X89338095Y-37787142D01*
X89385714Y-37691904D01*
X89385714Y-37501428D01*
X89338095Y-37406190D01*
X89290476Y-37358571D01*
X89195238Y-37310952D01*
X91061904Y-33552380D02*
X91061904Y-32552380D01*
X91300000Y-32552380D01*
X91442857Y-32600000D01*
X91538095Y-32695238D01*
X91585714Y-32790476D01*
X91633333Y-32980952D01*
X91633333Y-33123809D01*
X91585714Y-33314285D01*
X91538095Y-33409523D01*
X91442857Y-33504761D01*
X91300000Y-33552380D01*
X91061904Y-33552380D01*
X92014285Y-32647619D02*
X92061904Y-32600000D01*
X92157142Y-32552380D01*
X92395238Y-32552380D01*
X92490476Y-32600000D01*
X92538095Y-32647619D01*
X92585714Y-32742857D01*
X92585714Y-32838095D01*
X92538095Y-32980952D01*
X91966666Y-33552380D01*
X92585714Y-33552380D01*
X63952380Y-55666666D02*
X63476190Y-56000000D01*
X63952380Y-56238095D02*
X62952380Y-56238095D01*
X62952380Y-55857142D01*
X63000000Y-55761904D01*
X63047619Y-55714285D01*
X63142857Y-55666666D01*
X63285714Y-55666666D01*
X63380952Y-55714285D01*
X63428571Y-55761904D01*
X63476190Y-55857142D01*
X63476190Y-56238095D01*
X62952380Y-55333333D02*
X62952380Y-54666666D01*
X63952380Y-55095238D01*
X101857142Y-53382380D02*
X101523809Y-52906190D01*
X101285714Y-53382380D02*
X101285714Y-52382380D01*
X101666666Y-52382380D01*
X101761904Y-52430000D01*
X101809523Y-52477619D01*
X101857142Y-52572857D01*
X101857142Y-52715714D01*
X101809523Y-52810952D01*
X101761904Y-52858571D01*
X101666666Y-52906190D01*
X101285714Y-52906190D01*
X102809523Y-53382380D02*
X102238095Y-53382380D01*
X102523809Y-53382380D02*
X102523809Y-52382380D01*
X102428571Y-52525238D01*
X102333333Y-52620476D01*
X102238095Y-52668095D01*
X103666666Y-52715714D02*
X103666666Y-53382380D01*
X103428571Y-52334761D02*
X103190476Y-53049047D01*
X103809523Y-53049047D01*
X94533333Y-36357142D02*
X94485714Y-36404761D01*
X94342857Y-36452380D01*
X94247619Y-36452380D01*
X94104761Y-36404761D01*
X94009523Y-36309523D01*
X93961904Y-36214285D01*
X93914285Y-36023809D01*
X93914285Y-35880952D01*
X93961904Y-35690476D01*
X94009523Y-35595238D01*
X94104761Y-35500000D01*
X94247619Y-35452380D01*
X94342857Y-35452380D01*
X94485714Y-35500000D01*
X94533333Y-35547619D01*
X95009523Y-36452380D02*
X95200000Y-36452380D01*
X95295238Y-36404761D01*
X95342857Y-36357142D01*
X95438095Y-36214285D01*
X95485714Y-36023809D01*
X95485714Y-35642857D01*
X95438095Y-35547619D01*
X95390476Y-35500000D01*
X95295238Y-35452380D01*
X95104761Y-35452380D01*
X95009523Y-35500000D01*
X94961904Y-35547619D01*
X94914285Y-35642857D01*
X94914285Y-35880952D01*
X94961904Y-35976190D01*
X95009523Y-36023809D01*
X95104761Y-36071428D01*
X95295238Y-36071428D01*
X95390476Y-36023809D01*
X95438095Y-35976190D01*
X95485714Y-35880952D01*
X92257142Y-51952380D02*
X91923809Y-51476190D01*
X91685714Y-51952380D02*
X91685714Y-50952380D01*
X92066666Y-50952380D01*
X92161904Y-51000000D01*
X92209523Y-51047619D01*
X92257142Y-51142857D01*
X92257142Y-51285714D01*
X92209523Y-51380952D01*
X92161904Y-51428571D01*
X92066666Y-51476190D01*
X91685714Y-51476190D01*
X92590476Y-50952380D02*
X93209523Y-50952380D01*
X92876190Y-51333333D01*
X93019047Y-51333333D01*
X93114285Y-51380952D01*
X93161904Y-51428571D01*
X93209523Y-51523809D01*
X93209523Y-51761904D01*
X93161904Y-51857142D01*
X93114285Y-51904761D01*
X93019047Y-51952380D01*
X92733333Y-51952380D01*
X92638095Y-51904761D01*
X92590476Y-51857142D01*
X93590476Y-51047619D02*
X93638095Y-51000000D01*
X93733333Y-50952380D01*
X93971428Y-50952380D01*
X94066666Y-51000000D01*
X94114285Y-51047619D01*
X94161904Y-51142857D01*
X94161904Y-51238095D01*
X94114285Y-51380952D01*
X93542857Y-51952380D01*
X94161904Y-51952380D01*
X114257142Y-54652380D02*
X113923809Y-54176190D01*
X113685714Y-54652380D02*
X113685714Y-53652380D01*
X114066666Y-53652380D01*
X114161904Y-53700000D01*
X114209523Y-53747619D01*
X114257142Y-53842857D01*
X114257142Y-53985714D01*
X114209523Y-54080952D01*
X114161904Y-54128571D01*
X114066666Y-54176190D01*
X113685714Y-54176190D01*
X115209523Y-54652380D02*
X114638095Y-54652380D01*
X114923809Y-54652380D02*
X114923809Y-53652380D01*
X114828571Y-53795238D01*
X114733333Y-53890476D01*
X114638095Y-53938095D01*
X116114285Y-53652380D02*
X115638095Y-53652380D01*
X115590476Y-54128571D01*
X115638095Y-54080952D01*
X115733333Y-54033333D01*
X115971428Y-54033333D01*
X116066666Y-54080952D01*
X116114285Y-54128571D01*
X116161904Y-54223809D01*
X116161904Y-54461904D01*
X116114285Y-54557142D01*
X116066666Y-54604761D01*
X115971428Y-54652380D01*
X115733333Y-54652380D01*
X115638095Y-54604761D01*
X115590476Y-54557142D01*
X97052380Y-39138095D02*
X96052380Y-39138095D01*
X96052380Y-38900000D01*
X96100000Y-38757142D01*
X96195238Y-38661904D01*
X96290476Y-38614285D01*
X96480952Y-38566666D01*
X96623809Y-38566666D01*
X96814285Y-38614285D01*
X96909523Y-38661904D01*
X97004761Y-38757142D01*
X97052380Y-38900000D01*
X97052380Y-39138095D01*
X96052380Y-38233333D02*
X96052380Y-37614285D01*
X96433333Y-37947619D01*
X96433333Y-37804761D01*
X96480952Y-37709523D01*
X96528571Y-37661904D01*
X96623809Y-37614285D01*
X96861904Y-37614285D01*
X96957142Y-37661904D01*
X97004761Y-37709523D01*
X97052380Y-37804761D01*
X97052380Y-38090476D01*
X97004761Y-38185714D01*
X96957142Y-38233333D01*
X78052380Y-28142857D02*
X77576190Y-28476190D01*
X78052380Y-28714285D02*
X77052380Y-28714285D01*
X77052380Y-28333333D01*
X77100000Y-28238095D01*
X77147619Y-28190476D01*
X77242857Y-28142857D01*
X77385714Y-28142857D01*
X77480952Y-28190476D01*
X77528571Y-28238095D01*
X77576190Y-28333333D01*
X77576190Y-28714285D01*
X77147619Y-27761904D02*
X77100000Y-27714285D01*
X77052380Y-27619047D01*
X77052380Y-27380952D01*
X77100000Y-27285714D01*
X77147619Y-27238095D01*
X77242857Y-27190476D01*
X77338095Y-27190476D01*
X77480952Y-27238095D01*
X78052380Y-27809523D01*
X78052380Y-27190476D01*
X77052380Y-26333333D02*
X77052380Y-26523809D01*
X77100000Y-26619047D01*
X77147619Y-26666666D01*
X77290476Y-26761904D01*
X77480952Y-26809523D01*
X77861904Y-26809523D01*
X77957142Y-26761904D01*
X78004761Y-26714285D01*
X78052380Y-26619047D01*
X78052380Y-26428571D01*
X78004761Y-26333333D01*
X77957142Y-26285714D01*
X77861904Y-26238095D01*
X77623809Y-26238095D01*
X77528571Y-26285714D01*
X77480952Y-26333333D01*
X77433333Y-26428571D01*
X77433333Y-26619047D01*
X77480952Y-26714285D01*
X77528571Y-26761904D01*
X77623809Y-26809523D01*
X102933333Y-61557142D02*
X102885714Y-61604761D01*
X102742857Y-61652380D01*
X102647619Y-61652380D01*
X102504761Y-61604761D01*
X102409523Y-61509523D01*
X102361904Y-61414285D01*
X102314285Y-61223809D01*
X102314285Y-61080952D01*
X102361904Y-60890476D01*
X102409523Y-60795238D01*
X102504761Y-60700000D01*
X102647619Y-60652380D01*
X102742857Y-60652380D01*
X102885714Y-60700000D01*
X102933333Y-60747619D01*
X103838095Y-60652380D02*
X103361904Y-60652380D01*
X103314285Y-61128571D01*
X103361904Y-61080952D01*
X103457142Y-61033333D01*
X103695238Y-61033333D01*
X103790476Y-61080952D01*
X103838095Y-61128571D01*
X103885714Y-61223809D01*
X103885714Y-61461904D01*
X103838095Y-61557142D01*
X103790476Y-61604761D01*
X103695238Y-61652380D01*
X103457142Y-61652380D01*
X103361904Y-61604761D01*
X103314285Y-61557142D01*
X76138095Y-39172380D02*
X76138095Y-39981904D01*
X76185714Y-40077142D01*
X76233333Y-40124761D01*
X76328571Y-40172380D01*
X76519047Y-40172380D01*
X76614285Y-40124761D01*
X76661904Y-40077142D01*
X76709523Y-39981904D01*
X76709523Y-39172380D01*
X77709523Y-40172380D02*
X77138095Y-40172380D01*
X77423809Y-40172380D02*
X77423809Y-39172380D01*
X77328571Y-39315238D01*
X77233333Y-39410476D01*
X77138095Y-39458095D01*
X119527142Y-55642857D02*
X119574761Y-55690476D01*
X119622380Y-55833333D01*
X119622380Y-55928571D01*
X119574761Y-56071428D01*
X119479523Y-56166666D01*
X119384285Y-56214285D01*
X119193809Y-56261904D01*
X119050952Y-56261904D01*
X118860476Y-56214285D01*
X118765238Y-56166666D01*
X118670000Y-56071428D01*
X118622380Y-55928571D01*
X118622380Y-55833333D01*
X118670000Y-55690476D01*
X118717619Y-55642857D01*
X119622380Y-54690476D02*
X119622380Y-55261904D01*
X119622380Y-54976190D02*
X118622380Y-54976190D01*
X118765238Y-55071428D01*
X118860476Y-55166666D01*
X118908095Y-55261904D01*
X119622380Y-54214285D02*
X119622380Y-54023809D01*
X119574761Y-53928571D01*
X119527142Y-53880952D01*
X119384285Y-53785714D01*
X119193809Y-53738095D01*
X118812857Y-53738095D01*
X118717619Y-53785714D01*
X118670000Y-53833333D01*
X118622380Y-53928571D01*
X118622380Y-54119047D01*
X118670000Y-54214285D01*
X118717619Y-54261904D01*
X118812857Y-54309523D01*
X119050952Y-54309523D01*
X119146190Y-54261904D01*
X119193809Y-54214285D01*
X119241428Y-54119047D01*
X119241428Y-53928571D01*
X119193809Y-53833333D01*
X119146190Y-53785714D01*
X119050952Y-53738095D01*
X101857142Y-34382380D02*
X101523809Y-33906190D01*
X101285714Y-34382380D02*
X101285714Y-33382380D01*
X101666666Y-33382380D01*
X101761904Y-33430000D01*
X101809523Y-33477619D01*
X101857142Y-33572857D01*
X101857142Y-33715714D01*
X101809523Y-33810952D01*
X101761904Y-33858571D01*
X101666666Y-33906190D01*
X101285714Y-33906190D01*
X102809523Y-34382380D02*
X102238095Y-34382380D01*
X102523809Y-34382380D02*
X102523809Y-33382380D01*
X102428571Y-33525238D01*
X102333333Y-33620476D01*
X102238095Y-33668095D01*
X103428571Y-33382380D02*
X103523809Y-33382380D01*
X103619047Y-33430000D01*
X103666666Y-33477619D01*
X103714285Y-33572857D01*
X103761904Y-33763333D01*
X103761904Y-34001428D01*
X103714285Y-34191904D01*
X103666666Y-34287142D01*
X103619047Y-34334761D01*
X103523809Y-34382380D01*
X103428571Y-34382380D01*
X103333333Y-34334761D01*
X103285714Y-34287142D01*
X103238095Y-34191904D01*
X103190476Y-34001428D01*
X103190476Y-33763333D01*
X103238095Y-33572857D01*
X103285714Y-33477619D01*
X103333333Y-33430000D01*
X103428571Y-33382380D01*
X122482380Y-59666666D02*
X122006190Y-60000000D01*
X122482380Y-60238095D02*
X121482380Y-60238095D01*
X121482380Y-59857142D01*
X121530000Y-59761904D01*
X121577619Y-59714285D01*
X121672857Y-59666666D01*
X121815714Y-59666666D01*
X121910952Y-59714285D01*
X121958571Y-59761904D01*
X122006190Y-59857142D01*
X122006190Y-60238095D01*
X121482380Y-59333333D02*
X121482380Y-58714285D01*
X121863333Y-59047619D01*
X121863333Y-58904761D01*
X121910952Y-58809523D01*
X121958571Y-58761904D01*
X122053809Y-58714285D01*
X122291904Y-58714285D01*
X122387142Y-58761904D01*
X122434761Y-58809523D01*
X122482380Y-58904761D01*
X122482380Y-59190476D01*
X122434761Y-59285714D01*
X122387142Y-59333333D01*
X81052380Y-28142857D02*
X80576190Y-28476190D01*
X81052380Y-28714285D02*
X80052380Y-28714285D01*
X80052380Y-28333333D01*
X80100000Y-28238095D01*
X80147619Y-28190476D01*
X80242857Y-28142857D01*
X80385714Y-28142857D01*
X80480952Y-28190476D01*
X80528571Y-28238095D01*
X80576190Y-28333333D01*
X80576190Y-28714285D01*
X80147619Y-27761904D02*
X80100000Y-27714285D01*
X80052380Y-27619047D01*
X80052380Y-27380952D01*
X80100000Y-27285714D01*
X80147619Y-27238095D01*
X80242857Y-27190476D01*
X80338095Y-27190476D01*
X80480952Y-27238095D01*
X81052380Y-27809523D01*
X81052380Y-27190476D01*
X80052380Y-26857142D02*
X80052380Y-26190476D01*
X81052380Y-26619047D01*
X86852380Y-31042857D02*
X86376190Y-31376190D01*
X86852380Y-31614285D02*
X85852380Y-31614285D01*
X85852380Y-31233333D01*
X85900000Y-31138095D01*
X85947619Y-31090476D01*
X86042857Y-31042857D01*
X86185714Y-31042857D01*
X86280952Y-31090476D01*
X86328571Y-31138095D01*
X86376190Y-31233333D01*
X86376190Y-31614285D01*
X85947619Y-30661904D02*
X85900000Y-30614285D01*
X85852380Y-30519047D01*
X85852380Y-30280952D01*
X85900000Y-30185714D01*
X85947619Y-30138095D01*
X86042857Y-30090476D01*
X86138095Y-30090476D01*
X86280952Y-30138095D01*
X86852380Y-30709523D01*
X86852380Y-30090476D01*
X85852380Y-29757142D02*
X85852380Y-29138095D01*
X86233333Y-29471428D01*
X86233333Y-29328571D01*
X86280952Y-29233333D01*
X86328571Y-29185714D01*
X86423809Y-29138095D01*
X86661904Y-29138095D01*
X86757142Y-29185714D01*
X86804761Y-29233333D01*
X86852380Y-29328571D01*
X86852380Y-29614285D01*
X86804761Y-29709523D01*
X86757142Y-29757142D01*
X107504761Y-34547619D02*
X107409523Y-34500000D01*
X107314285Y-34404761D01*
X107171428Y-34261904D01*
X107076190Y-34214285D01*
X106980952Y-34214285D01*
X107028571Y-34452380D02*
X106933333Y-34404761D01*
X106838095Y-34309523D01*
X106790476Y-34119047D01*
X106790476Y-33785714D01*
X106838095Y-33595238D01*
X106933333Y-33500000D01*
X107028571Y-33452380D01*
X107219047Y-33452380D01*
X107314285Y-33500000D01*
X107409523Y-33595238D01*
X107457142Y-33785714D01*
X107457142Y-34119047D01*
X107409523Y-34309523D01*
X107314285Y-34404761D01*
X107219047Y-34452380D01*
X107028571Y-34452380D01*
X107790476Y-33452380D02*
X108409523Y-33452380D01*
X108076190Y-33833333D01*
X108219047Y-33833333D01*
X108314285Y-33880952D01*
X108361904Y-33928571D01*
X108409523Y-34023809D01*
X108409523Y-34261904D01*
X108361904Y-34357142D01*
X108314285Y-34404761D01*
X108219047Y-34452380D01*
X107933333Y-34452380D01*
X107838095Y-34404761D01*
X107790476Y-34357142D01*
X82438095Y-48452380D02*
X83009523Y-48452380D01*
X82723809Y-49452380D02*
X82723809Y-48452380D01*
X83342857Y-49452380D02*
X83342857Y-48452380D01*
X83723809Y-48452380D01*
X83819047Y-48500000D01*
X83866666Y-48547619D01*
X83914285Y-48642857D01*
X83914285Y-48785714D01*
X83866666Y-48880952D01*
X83819047Y-48928571D01*
X83723809Y-48976190D01*
X83342857Y-48976190D01*
X84295238Y-48547619D02*
X84342857Y-48500000D01*
X84438095Y-48452380D01*
X84676190Y-48452380D01*
X84771428Y-48500000D01*
X84819047Y-48547619D01*
X84866666Y-48642857D01*
X84866666Y-48738095D01*
X84819047Y-48880952D01*
X84247619Y-49452380D01*
X84866666Y-49452380D01*
X113404761Y-24447619D02*
X113309523Y-24400000D01*
X113214285Y-24304761D01*
X113071428Y-24161904D01*
X112976190Y-24114285D01*
X112880952Y-24114285D01*
X112928571Y-24352380D02*
X112833333Y-24304761D01*
X112738095Y-24209523D01*
X112690476Y-24019047D01*
X112690476Y-23685714D01*
X112738095Y-23495238D01*
X112833333Y-23400000D01*
X112928571Y-23352380D01*
X113119047Y-23352380D01*
X113214285Y-23400000D01*
X113309523Y-23495238D01*
X113357142Y-23685714D01*
X113357142Y-24019047D01*
X113309523Y-24209523D01*
X113214285Y-24304761D01*
X113119047Y-24352380D01*
X112928571Y-24352380D01*
X113738095Y-23447619D02*
X113785714Y-23400000D01*
X113880952Y-23352380D01*
X114119047Y-23352380D01*
X114214285Y-23400000D01*
X114261904Y-23447619D01*
X114309523Y-23542857D01*
X114309523Y-23638095D01*
X114261904Y-23780952D01*
X113690476Y-24352380D01*
X114309523Y-24352380D01*
X106357142Y-58642857D02*
X106404761Y-58690476D01*
X106452380Y-58833333D01*
X106452380Y-58928571D01*
X106404761Y-59071428D01*
X106309523Y-59166666D01*
X106214285Y-59214285D01*
X106023809Y-59261904D01*
X105880952Y-59261904D01*
X105690476Y-59214285D01*
X105595238Y-59166666D01*
X105500000Y-59071428D01*
X105452380Y-58928571D01*
X105452380Y-58833333D01*
X105500000Y-58690476D01*
X105547619Y-58642857D01*
X106452380Y-57690476D02*
X106452380Y-58261904D01*
X106452380Y-57976190D02*
X105452380Y-57976190D01*
X105595238Y-58071428D01*
X105690476Y-58166666D01*
X105738095Y-58261904D01*
X105880952Y-57119047D02*
X105833333Y-57214285D01*
X105785714Y-57261904D01*
X105690476Y-57309523D01*
X105642857Y-57309523D01*
X105547619Y-57261904D01*
X105500000Y-57214285D01*
X105452380Y-57119047D01*
X105452380Y-56928571D01*
X105500000Y-56833333D01*
X105547619Y-56785714D01*
X105642857Y-56738095D01*
X105690476Y-56738095D01*
X105785714Y-56785714D01*
X105833333Y-56833333D01*
X105880952Y-56928571D01*
X105880952Y-57119047D01*
X105928571Y-57214285D01*
X105976190Y-57261904D01*
X106071428Y-57309523D01*
X106261904Y-57309523D01*
X106357142Y-57261904D01*
X106404761Y-57214285D01*
X106452380Y-57119047D01*
X106452380Y-56928571D01*
X106404761Y-56833333D01*
X106357142Y-56785714D01*
X106261904Y-56738095D01*
X106071428Y-56738095D01*
X105976190Y-56785714D01*
X105928571Y-56833333D01*
X105880952Y-56928571D01*
X111433333Y-64252380D02*
X111100000Y-63776190D01*
X110861904Y-64252380D02*
X110861904Y-63252380D01*
X111242857Y-63252380D01*
X111338095Y-63300000D01*
X111385714Y-63347619D01*
X111433333Y-63442857D01*
X111433333Y-63585714D01*
X111385714Y-63680952D01*
X111338095Y-63728571D01*
X111242857Y-63776190D01*
X110861904Y-63776190D01*
X111814285Y-63347619D02*
X111861904Y-63300000D01*
X111957142Y-63252380D01*
X112195238Y-63252380D01*
X112290476Y-63300000D01*
X112338095Y-63347619D01*
X112385714Y-63442857D01*
X112385714Y-63538095D01*
X112338095Y-63680952D01*
X111766666Y-64252380D01*
X112385714Y-64252380D01*
X76552380Y-28142857D02*
X76076190Y-28476190D01*
X76552380Y-28714285D02*
X75552380Y-28714285D01*
X75552380Y-28333333D01*
X75600000Y-28238095D01*
X75647619Y-28190476D01*
X75742857Y-28142857D01*
X75885714Y-28142857D01*
X75980952Y-28190476D01*
X76028571Y-28238095D01*
X76076190Y-28333333D01*
X76076190Y-28714285D01*
X75647619Y-27761904D02*
X75600000Y-27714285D01*
X75552380Y-27619047D01*
X75552380Y-27380952D01*
X75600000Y-27285714D01*
X75647619Y-27238095D01*
X75742857Y-27190476D01*
X75838095Y-27190476D01*
X75980952Y-27238095D01*
X76552380Y-27809523D01*
X76552380Y-27190476D01*
X75980952Y-26619047D02*
X75933333Y-26714285D01*
X75885714Y-26761904D01*
X75790476Y-26809523D01*
X75742857Y-26809523D01*
X75647619Y-26761904D01*
X75600000Y-26714285D01*
X75552380Y-26619047D01*
X75552380Y-26428571D01*
X75600000Y-26333333D01*
X75647619Y-26285714D01*
X75742857Y-26238095D01*
X75790476Y-26238095D01*
X75885714Y-26285714D01*
X75933333Y-26333333D01*
X75980952Y-26428571D01*
X75980952Y-26619047D01*
X76028571Y-26714285D01*
X76076190Y-26761904D01*
X76171428Y-26809523D01*
X76361904Y-26809523D01*
X76457142Y-26761904D01*
X76504761Y-26714285D01*
X76552380Y-26619047D01*
X76552380Y-26428571D01*
X76504761Y-26333333D01*
X76457142Y-26285714D01*
X76361904Y-26238095D01*
X76171428Y-26238095D01*
X76076190Y-26285714D01*
X76028571Y-26333333D01*
X75980952Y-26428571D01*
X122482380Y-63066666D02*
X122006190Y-63400000D01*
X122482380Y-63638095D02*
X121482380Y-63638095D01*
X121482380Y-63257142D01*
X121530000Y-63161904D01*
X121577619Y-63114285D01*
X121672857Y-63066666D01*
X121815714Y-63066666D01*
X121910952Y-63114285D01*
X121958571Y-63161904D01*
X122006190Y-63257142D01*
X122006190Y-63638095D01*
X121815714Y-62209523D02*
X122482380Y-62209523D01*
X121434761Y-62447619D02*
X122149047Y-62685714D01*
X122149047Y-62066666D01*
X117857142Y-60566666D02*
X117904761Y-60614285D01*
X117952380Y-60757142D01*
X117952380Y-60852380D01*
X117904761Y-60995238D01*
X117809523Y-61090476D01*
X117714285Y-61138095D01*
X117523809Y-61185714D01*
X117380952Y-61185714D01*
X117190476Y-61138095D01*
X117095238Y-61090476D01*
X117000000Y-60995238D01*
X116952380Y-60852380D01*
X116952380Y-60757142D01*
X117000000Y-60614285D01*
X117047619Y-60566666D01*
X116952380Y-60233333D02*
X116952380Y-59566666D01*
X117952380Y-59995238D01*
X118152380Y-59038095D02*
X117152380Y-59038095D01*
X117152380Y-58800000D01*
X117200000Y-58657142D01*
X117295238Y-58561904D01*
X117390476Y-58514285D01*
X117580952Y-58466666D01*
X117723809Y-58466666D01*
X117914285Y-58514285D01*
X118009523Y-58561904D01*
X118104761Y-58657142D01*
X118152380Y-58800000D01*
X118152380Y-59038095D01*
X118152380Y-57514285D02*
X118152380Y-58085714D01*
X118152380Y-57800000D02*
X117152380Y-57800000D01*
X117295238Y-57895238D01*
X117390476Y-57990476D01*
X117438095Y-58085714D01*
X79552380Y-28142857D02*
X79076190Y-28476190D01*
X79552380Y-28714285D02*
X78552380Y-28714285D01*
X78552380Y-28333333D01*
X78600000Y-28238095D01*
X78647619Y-28190476D01*
X78742857Y-28142857D01*
X78885714Y-28142857D01*
X78980952Y-28190476D01*
X79028571Y-28238095D01*
X79076190Y-28333333D01*
X79076190Y-28714285D01*
X78647619Y-27761904D02*
X78600000Y-27714285D01*
X78552380Y-27619047D01*
X78552380Y-27380952D01*
X78600000Y-27285714D01*
X78647619Y-27238095D01*
X78742857Y-27190476D01*
X78838095Y-27190476D01*
X78980952Y-27238095D01*
X79552380Y-27809523D01*
X79552380Y-27190476D01*
X78885714Y-26333333D02*
X79552380Y-26333333D01*
X78504761Y-26571428D02*
X79219047Y-26809523D01*
X79219047Y-26190476D01*
X113252380Y-60376190D02*
X112252380Y-60376190D01*
X113157142Y-59328571D02*
X113204761Y-59376190D01*
X113252380Y-59519047D01*
X113252380Y-59614285D01*
X113204761Y-59757142D01*
X113109523Y-59852380D01*
X113014285Y-59900000D01*
X112823809Y-59947619D01*
X112680952Y-59947619D01*
X112490476Y-59900000D01*
X112395238Y-59852380D01*
X112300000Y-59757142D01*
X112252380Y-59614285D01*
X112252380Y-59519047D01*
X112300000Y-59376190D01*
X112347619Y-59328571D01*
X112347619Y-58947619D02*
X112300000Y-58900000D01*
X112252380Y-58804761D01*
X112252380Y-58566666D01*
X112300000Y-58471428D01*
X112347619Y-58423809D01*
X112442857Y-58376190D01*
X112538095Y-58376190D01*
X112680952Y-58423809D01*
X113252380Y-58995238D01*
X113252380Y-58376190D01*
X82438095Y-45552380D02*
X83009523Y-45552380D01*
X82723809Y-46552380D02*
X82723809Y-45552380D01*
X83342857Y-46552380D02*
X83342857Y-45552380D01*
X83723809Y-45552380D01*
X83819047Y-45600000D01*
X83866666Y-45647619D01*
X83914285Y-45742857D01*
X83914285Y-45885714D01*
X83866666Y-45980952D01*
X83819047Y-46028571D01*
X83723809Y-46076190D01*
X83342857Y-46076190D01*
X84866666Y-46552380D02*
X84295238Y-46552380D01*
X84580952Y-46552380D02*
X84580952Y-45552380D01*
X84485714Y-45695238D01*
X84390476Y-45790476D01*
X84295238Y-45838095D01*
X85557142Y-44766666D02*
X85604761Y-44814285D01*
X85652380Y-44957142D01*
X85652380Y-45052380D01*
X85604761Y-45195238D01*
X85509523Y-45290476D01*
X85414285Y-45338095D01*
X85223809Y-45385714D01*
X85080952Y-45385714D01*
X84890476Y-45338095D01*
X84795238Y-45290476D01*
X84700000Y-45195238D01*
X84652380Y-45052380D01*
X84652380Y-44957142D01*
X84700000Y-44814285D01*
X84747619Y-44766666D01*
X85080952Y-44195238D02*
X85033333Y-44290476D01*
X84985714Y-44338095D01*
X84890476Y-44385714D01*
X84842857Y-44385714D01*
X84747619Y-44338095D01*
X84700000Y-44290476D01*
X84652380Y-44195238D01*
X84652380Y-44004761D01*
X84700000Y-43909523D01*
X84747619Y-43861904D01*
X84842857Y-43814285D01*
X84890476Y-43814285D01*
X84985714Y-43861904D01*
X85033333Y-43909523D01*
X85080952Y-44004761D01*
X85080952Y-44195238D01*
X85128571Y-44290476D01*
X85176190Y-44338095D01*
X85271428Y-44385714D01*
X85461904Y-44385714D01*
X85557142Y-44338095D01*
X85604761Y-44290476D01*
X85652380Y-44195238D01*
X85652380Y-44004761D01*
X85604761Y-43909523D01*
X85557142Y-43861904D01*
X85461904Y-43814285D01*
X85271428Y-43814285D01*
X85176190Y-43861904D01*
X85128571Y-43909523D01*
X85080952Y-44004761D01*
X81657142Y-41782380D02*
X81323809Y-41306190D01*
X81085714Y-41782380D02*
X81085714Y-40782380D01*
X81466666Y-40782380D01*
X81561904Y-40830000D01*
X81609523Y-40877619D01*
X81657142Y-40972857D01*
X81657142Y-41115714D01*
X81609523Y-41210952D01*
X81561904Y-41258571D01*
X81466666Y-41306190D01*
X81085714Y-41306190D01*
X82609523Y-41782380D02*
X82038095Y-41782380D01*
X82323809Y-41782380D02*
X82323809Y-40782380D01*
X82228571Y-40925238D01*
X82133333Y-41020476D01*
X82038095Y-41068095D01*
X83180952Y-41210952D02*
X83085714Y-41163333D01*
X83038095Y-41115714D01*
X82990476Y-41020476D01*
X82990476Y-40972857D01*
X83038095Y-40877619D01*
X83085714Y-40830000D01*
X83180952Y-40782380D01*
X83371428Y-40782380D01*
X83466666Y-40830000D01*
X83514285Y-40877619D01*
X83561904Y-40972857D01*
X83561904Y-41020476D01*
X83514285Y-41115714D01*
X83466666Y-41163333D01*
X83371428Y-41210952D01*
X83180952Y-41210952D01*
X83085714Y-41258571D01*
X83038095Y-41306190D01*
X82990476Y-41401428D01*
X82990476Y-41591904D01*
X83038095Y-41687142D01*
X83085714Y-41734761D01*
X83180952Y-41782380D01*
X83371428Y-41782380D01*
X83466666Y-41734761D01*
X83514285Y-41687142D01*
X83561904Y-41591904D01*
X83561904Y-41401428D01*
X83514285Y-41306190D01*
X83466666Y-41258571D01*
X83371428Y-41210952D01*
X82438095Y-47052380D02*
X83009523Y-47052380D01*
X82723809Y-48052380D02*
X82723809Y-47052380D01*
X83342857Y-48052380D02*
X83342857Y-47052380D01*
X83723809Y-47052380D01*
X83819047Y-47100000D01*
X83866666Y-47147619D01*
X83914285Y-47242857D01*
X83914285Y-47385714D01*
X83866666Y-47480952D01*
X83819047Y-47528571D01*
X83723809Y-47576190D01*
X83342857Y-47576190D01*
X84247619Y-47052380D02*
X84866666Y-47052380D01*
X84533333Y-47433333D01*
X84676190Y-47433333D01*
X84771428Y-47480952D01*
X84819047Y-47528571D01*
X84866666Y-47623809D01*
X84866666Y-47861904D01*
X84819047Y-47957142D01*
X84771428Y-48004761D01*
X84676190Y-48052380D01*
X84390476Y-48052380D01*
X84295238Y-48004761D01*
X84247619Y-47957142D01*
X64052380Y-52642857D02*
X63576190Y-52976190D01*
X64052380Y-53214285D02*
X63052380Y-53214285D01*
X63052380Y-52833333D01*
X63100000Y-52738095D01*
X63147619Y-52690476D01*
X63242857Y-52642857D01*
X63385714Y-52642857D01*
X63480952Y-52690476D01*
X63528571Y-52738095D01*
X63576190Y-52833333D01*
X63576190Y-53214285D01*
X63147619Y-52261904D02*
X63100000Y-52214285D01*
X63052380Y-52119047D01*
X63052380Y-51880952D01*
X63100000Y-51785714D01*
X63147619Y-51738095D01*
X63242857Y-51690476D01*
X63338095Y-51690476D01*
X63480952Y-51738095D01*
X64052380Y-52309523D01*
X64052380Y-51690476D01*
X63052380Y-51071428D02*
X63052380Y-50976190D01*
X63100000Y-50880952D01*
X63147619Y-50833333D01*
X63242857Y-50785714D01*
X63433333Y-50738095D01*
X63671428Y-50738095D01*
X63861904Y-50785714D01*
X63957142Y-50833333D01*
X64004761Y-50880952D01*
X64052380Y-50976190D01*
X64052380Y-51071428D01*
X64004761Y-51166666D01*
X63957142Y-51214285D01*
X63861904Y-51261904D01*
X63671428Y-51309523D01*
X63433333Y-51309523D01*
X63242857Y-51261904D01*
X63147619Y-51214285D01*
X63100000Y-51166666D01*
X63052380Y-51071428D01*
X113404761Y-44647619D02*
X113309523Y-44600000D01*
X113214285Y-44504761D01*
X113071428Y-44361904D01*
X112976190Y-44314285D01*
X112880952Y-44314285D01*
X112928571Y-44552380D02*
X112833333Y-44504761D01*
X112738095Y-44409523D01*
X112690476Y-44219047D01*
X112690476Y-43885714D01*
X112738095Y-43695238D01*
X112833333Y-43600000D01*
X112928571Y-43552380D01*
X113119047Y-43552380D01*
X113214285Y-43600000D01*
X113309523Y-43695238D01*
X113357142Y-43885714D01*
X113357142Y-44219047D01*
X113309523Y-44409523D01*
X113214285Y-44504761D01*
X113119047Y-44552380D01*
X112928571Y-44552380D01*
X114214285Y-43552380D02*
X114023809Y-43552380D01*
X113928571Y-43600000D01*
X113880952Y-43647619D01*
X113785714Y-43790476D01*
X113738095Y-43980952D01*
X113738095Y-44361904D01*
X113785714Y-44457142D01*
X113833333Y-44504761D01*
X113928571Y-44552380D01*
X114119047Y-44552380D01*
X114214285Y-44504761D01*
X114261904Y-44457142D01*
X114309523Y-44361904D01*
X114309523Y-44123809D01*
X114261904Y-44028571D01*
X114214285Y-43980952D01*
X114119047Y-43933333D01*
X113928571Y-43933333D01*
X113833333Y-43980952D01*
X113785714Y-44028571D01*
X113738095Y-44123809D01*
D11*
X124600000Y-41400000D02*
X126600000Y-41400000D01*
X126600000Y-41400000D02*
X126600000Y-37550000D01*
X124600000Y-41400000D02*
X124600000Y-37550000D01*
X89217500Y-67687500D02*
X89217500Y-65027500D01*
X86617500Y-67687500D02*
X86617500Y-66357500D01*
X87947500Y-67687500D02*
X86617500Y-67687500D01*
X107057500Y-67687500D02*
X107057500Y-65027500D01*
X89217500Y-67687500D02*
X107057500Y-67687500D01*
X89217500Y-65027500D02*
X107057500Y-65027500D01*
X80066000Y-19430000D02*
X102986000Y-19430000D01*
X77466000Y-19430000D02*
X77466000Y-18100000D01*
X80066000Y-19430000D02*
X80066000Y-16770000D01*
X102986000Y-19430000D02*
X102986000Y-16770000D01*
X80066000Y-16770000D02*
X102986000Y-16770000D01*
X78796000Y-19430000D02*
X77466000Y-19430000D01*
X106990000Y-19430000D02*
X124830000Y-19430000D01*
X105720000Y-19430000D02*
X104390000Y-19430000D01*
X124830000Y-19430000D02*
X124830000Y-16770000D01*
X106990000Y-19430000D02*
X106990000Y-16770000D01*
X106990000Y-16770000D02*
X124830000Y-16770000D01*
X104390000Y-19430000D02*
X104390000Y-18100000D01*
X112077500Y-65027500D02*
X124837500Y-65027500D01*
X124837500Y-67687500D02*
X124837500Y-65027500D01*
X112077500Y-67687500D02*
X124837500Y-67687500D01*
X112077500Y-67687500D02*
X112077500Y-65027500D01*
X110807500Y-67687500D02*
X109477500Y-67687500D01*
X109477500Y-67687500D02*
X109477500Y-66357500D01*
X102754724Y-40977500D02*
X102245276Y-40977500D01*
X102754724Y-42022500D02*
X102245276Y-42022500D01*
X71022500Y-55245276D02*
X71022500Y-55754724D01*
X69977500Y-55245276D02*
X69977500Y-55754724D01*
X94490000Y-41146267D02*
X94490000Y-40853733D01*
X95510000Y-41146267D02*
X95510000Y-40853733D01*
X88365000Y-43110000D02*
X87890000Y-43110000D01*
X87890000Y-43110000D02*
X87890000Y-42635000D01*
X92110000Y-43110000D02*
X92110000Y-42635000D01*
X88365000Y-38890000D02*
X87890000Y-38890000D01*
X91635000Y-43110000D02*
X92110000Y-43110000D01*
X92110000Y-38890000D02*
X92110000Y-39365000D01*
X91635000Y-38890000D02*
X92110000Y-38890000D01*
X102754724Y-26022500D02*
X102245276Y-26022500D01*
X102754724Y-24977500D02*
X102245276Y-24977500D01*
X104699988Y-31099994D02*
X104699988Y-25899994D01*
X110299988Y-24899994D02*
X109899988Y-24899994D01*
X110299988Y-31499994D02*
X110299988Y-24899994D01*
X84854724Y-53477500D02*
X84345276Y-53477500D01*
X84854724Y-54522500D02*
X84345276Y-54522500D01*
X88854724Y-47977500D02*
X88345276Y-47977500D01*
X88854724Y-49022500D02*
X88345276Y-49022500D01*
X100396267Y-62740000D02*
X100103733Y-62740000D01*
X100396267Y-63760000D02*
X100103733Y-63760000D01*
X127460000Y-43700000D02*
X127460000Y-43400000D01*
X126750000Y-47500000D02*
X127360000Y-47500000D01*
X127660000Y-42890000D02*
X127660000Y-41640000D01*
X123250000Y-45000000D02*
X123750000Y-45000000D01*
X123750000Y-46900000D02*
X123750000Y-47100000D01*
X123250000Y-46900000D02*
X123750000Y-46900000D01*
X126050000Y-50060000D02*
X126050000Y-49450000D01*
X124750000Y-41940000D02*
X124750000Y-42550000D01*
X126750000Y-42550000D02*
X123250000Y-42550000D01*
X127360000Y-50060000D02*
X127360000Y-41940000D01*
X127360000Y-43700000D02*
X127560000Y-43700000D01*
X123250000Y-44900000D02*
X123750000Y-44900000D01*
X123250000Y-47000000D02*
X123750000Y-47000000D01*
X123750000Y-44900000D02*
X123750000Y-45100000D01*
X123750000Y-45100000D02*
X123250000Y-45100000D01*
X124750000Y-50060000D02*
X124750000Y-49450000D01*
X122640000Y-50060000D02*
X127360000Y-50060000D01*
X126750000Y-49450000D02*
X126750000Y-47500000D01*
X122640000Y-41940000D02*
X122640000Y-50060000D01*
X123250000Y-42550000D02*
X123250000Y-49450000D01*
X123250000Y-49450000D02*
X126750000Y-49450000D01*
X127660000Y-41640000D02*
X126410000Y-41640000D01*
X127360000Y-41940000D02*
X122640000Y-41940000D01*
X126050000Y-41940000D02*
X126050000Y-42550000D01*
X127360000Y-44500000D02*
X126750000Y-44500000D01*
X127560000Y-43700000D02*
X127560000Y-43400000D01*
X126750000Y-44500000D02*
X126750000Y-42550000D01*
X127560000Y-43400000D02*
X127360000Y-43400000D01*
X123750000Y-47100000D02*
X123250000Y-47100000D01*
X69522500Y-55245276D02*
X69522500Y-55754724D01*
X68477500Y-55245276D02*
X68477500Y-55754724D01*
X76700000Y-54965000D02*
X74240000Y-54965000D01*
X74240000Y-56435000D02*
X76700000Y-56435000D01*
X74240000Y-54965000D02*
X74240000Y-56435000D01*
X114753733Y-62210000D02*
X115046267Y-62210000D01*
X114753733Y-61190000D02*
X115046267Y-61190000D01*
X69522500Y-51745276D02*
X69522500Y-52254724D01*
X68477500Y-51745276D02*
X68477500Y-52254724D01*
X90110000Y-57140000D02*
X88860000Y-57140000D01*
X85090000Y-57440000D02*
X85090000Y-63560000D01*
X89910000Y-59200000D02*
X89910000Y-58900000D01*
X90010000Y-58900000D02*
X89810000Y-58900000D01*
X85700000Y-60400000D02*
X86200000Y-60400000D01*
X86200000Y-60600000D02*
X85700000Y-60600000D01*
X88500000Y-57440000D02*
X88500000Y-58050000D01*
X87200000Y-63560000D02*
X87200000Y-62950000D01*
X89810000Y-60000000D02*
X89200000Y-60000000D01*
X89200000Y-61000000D02*
X89810000Y-61000000D01*
X86200000Y-60400000D02*
X86200000Y-60600000D01*
X90110000Y-58390000D02*
X90110000Y-57140000D01*
X85700000Y-62950000D02*
X89200000Y-62950000D01*
X90010000Y-59200000D02*
X90010000Y-58900000D01*
X89200000Y-62950000D02*
X89200000Y-61000000D01*
X85700000Y-58050000D02*
X85700000Y-62950000D01*
X85090000Y-63560000D02*
X89810000Y-63560000D01*
X89200000Y-58050000D02*
X85700000Y-58050000D01*
X89200000Y-60000000D02*
X89200000Y-58050000D01*
X89810000Y-59200000D02*
X90010000Y-59200000D01*
X89810000Y-63560000D02*
X89810000Y-57440000D01*
X89810000Y-57440000D02*
X85090000Y-57440000D01*
X88500000Y-63560000D02*
X88500000Y-62950000D01*
X85700000Y-60500000D02*
X86200000Y-60500000D01*
X87200000Y-57440000D02*
X87200000Y-58050000D01*
X97200000Y-44700000D02*
X97200000Y-42850000D01*
X97200000Y-42850000D02*
X96000000Y-42850000D01*
X96000000Y-44700000D02*
X96000000Y-42850000D01*
X102754724Y-46022500D02*
X102245276Y-46022500D01*
X102754724Y-44977500D02*
X102245276Y-44977500D01*
X96845563Y-56340000D02*
X97910000Y-57404437D01*
X96347500Y-55312500D02*
X96347500Y-56100000D01*
X92154437Y-56340000D02*
X91090000Y-57404437D01*
X91090000Y-57404437D02*
X91090000Y-63160000D01*
X97910000Y-57404437D02*
X97910000Y-63160000D01*
X91090000Y-63160000D02*
X93440000Y-63160000D01*
X97910000Y-63160000D02*
X95560000Y-63160000D01*
X96741250Y-55706250D02*
X95953750Y-55706250D01*
X96845563Y-56340000D02*
X95560000Y-56340000D01*
X92154437Y-56340000D02*
X93440000Y-56340000D01*
X82045276Y-36177500D02*
X82554724Y-36177500D01*
X82045276Y-37222500D02*
X82554724Y-37222500D01*
X118053733Y-63290000D02*
X118346267Y-63290000D01*
X118053733Y-64310000D02*
X118346267Y-64310000D01*
X82045276Y-37777500D02*
X82554724Y-37777500D01*
X82045276Y-38822500D02*
X82554724Y-38822500D01*
X69977500Y-51745276D02*
X69977500Y-52254724D01*
X71022500Y-51745276D02*
X71022500Y-52254724D01*
X110700000Y-35500000D02*
X110700000Y-42100000D01*
X116300000Y-35900000D02*
X116300000Y-41100000D01*
X110700000Y-42100000D02*
X111100000Y-42100000D01*
X86990000Y-33353733D02*
X86990000Y-33646267D01*
X88010000Y-33353733D02*
X88010000Y-33646267D01*
X71446267Y-44210000D02*
X71153733Y-44210000D01*
X71446267Y-43190000D02*
X71153733Y-43190000D01*
X110300000Y-44900000D02*
X109900000Y-44900000D01*
X104700000Y-51100000D02*
X104700000Y-45900000D01*
X110300000Y-51500000D02*
X110300000Y-44900000D01*
X110300000Y-56440000D02*
X108625000Y-56440000D01*
X110300000Y-59560000D02*
X109650000Y-59560000D01*
X110300000Y-56440000D02*
X110950000Y-56440000D01*
X110300000Y-59560000D02*
X110950000Y-59560000D01*
X84854724Y-56222500D02*
X84345276Y-56222500D01*
X84854724Y-55177500D02*
X84345276Y-55177500D01*
X100396267Y-59760000D02*
X100103733Y-59760000D01*
X100396267Y-58740000D02*
X100103733Y-58740000D01*
X95510000Y-44646267D02*
X95510000Y-44353733D01*
X94490000Y-44646267D02*
X94490000Y-44353733D01*
X88854724Y-50522500D02*
X88345276Y-50522500D01*
X88854724Y-49477500D02*
X88345276Y-49477500D01*
X82522500Y-30754724D02*
X82522500Y-30245276D01*
X81477500Y-30754724D02*
X81477500Y-30245276D01*
X102754724Y-36022500D02*
X102245276Y-36022500D01*
X102754724Y-34977500D02*
X102245276Y-34977500D01*
X88854724Y-36522500D02*
X88345276Y-36522500D01*
X88854724Y-35477500D02*
X88345276Y-35477500D01*
X90650000Y-33800000D02*
X90650000Y-35000000D01*
X92500000Y-35000000D02*
X90650000Y-35000000D01*
X92500000Y-33800000D02*
X90650000Y-33800000D01*
X68022500Y-55245276D02*
X68022500Y-55754724D01*
X66977500Y-55245276D02*
X66977500Y-55754724D01*
X102754724Y-50977500D02*
X102245276Y-50977500D01*
X102754724Y-52022500D02*
X102245276Y-52022500D01*
X92146267Y-36510000D02*
X91853733Y-36510000D01*
X92146267Y-35490000D02*
X91853733Y-35490000D01*
X88854724Y-50977500D02*
X88345276Y-50977500D01*
X88854724Y-52022500D02*
X88345276Y-52022500D01*
X114645276Y-58022500D02*
X115154724Y-58022500D01*
X114645276Y-56977500D02*
X115154724Y-56977500D01*
X97200000Y-39450000D02*
X96000000Y-39450000D01*
X96000000Y-41300000D02*
X96000000Y-39450000D01*
X97200000Y-41300000D02*
X97200000Y-39450000D01*
X78022500Y-30754724D02*
X78022500Y-30245276D01*
X76977500Y-30754724D02*
X76977500Y-30245276D01*
X100396267Y-60740000D02*
X100103733Y-60740000D01*
X100396267Y-61760000D02*
X100103733Y-61760000D01*
X76900000Y-40565000D02*
X73450000Y-40565000D01*
X76900000Y-49435000D02*
X78850000Y-49435000D01*
X76900000Y-49435000D02*
X74950000Y-49435000D01*
X76900000Y-40565000D02*
X78850000Y-40565000D01*
X121110000Y-55146267D02*
X121110000Y-54853733D01*
X120090000Y-55146267D02*
X120090000Y-54853733D01*
X102754724Y-31977500D02*
X102245276Y-31977500D01*
X102754724Y-33022500D02*
X102245276Y-33022500D01*
X121122500Y-59245276D02*
X121122500Y-59754724D01*
X120077500Y-59245276D02*
X120077500Y-59754724D01*
X81022500Y-30754724D02*
X81022500Y-30245276D01*
X79977500Y-30754724D02*
X79977500Y-30245276D01*
X84022500Y-30754724D02*
X84022500Y-30245276D01*
X82977500Y-30754724D02*
X82977500Y-30245276D01*
X104700000Y-41100000D02*
X104700000Y-35900000D01*
X110300000Y-34900000D02*
X109900000Y-34900000D01*
X110300000Y-41500000D02*
X110300000Y-34900000D01*
X89200000Y-47100000D02*
X89200000Y-45700000D01*
X90600000Y-45700000D02*
X90600000Y-47100000D01*
X89200000Y-45700000D02*
X90600000Y-45700000D01*
X90600000Y-47100000D02*
X89200000Y-47100000D01*
X110700000Y-25500000D02*
X110700000Y-32100000D01*
X116300000Y-25900000D02*
X116300000Y-31100000D01*
X110700000Y-32100000D02*
X111100000Y-32100000D01*
X108010000Y-57853733D02*
X108010000Y-58146267D01*
X106990000Y-57853733D02*
X106990000Y-58146267D01*
X115054724Y-63277500D02*
X114545276Y-63277500D01*
X115054724Y-64322500D02*
X114545276Y-64322500D01*
X64100000Y-38140000D02*
X64100000Y-38750000D01*
X61800000Y-47300000D02*
X61300000Y-47300000D01*
X61800000Y-41300000D02*
X61300000Y-41300000D01*
X61300000Y-45100000D02*
X61800000Y-45100000D01*
X61800000Y-43100000D02*
X61800000Y-43300000D01*
X65710000Y-37840000D02*
X64460000Y-37840000D01*
X65610000Y-39600000D02*
X65410000Y-39600000D01*
X65510000Y-39900000D02*
X65510000Y-39600000D01*
X64800000Y-49650000D02*
X64800000Y-47700000D01*
X61800000Y-45300000D02*
X61300000Y-45300000D01*
X65410000Y-38140000D02*
X60690000Y-38140000D01*
X61300000Y-38750000D02*
X61300000Y-49650000D01*
X65410000Y-40700000D02*
X64800000Y-40700000D01*
X65710000Y-39090000D02*
X65710000Y-37840000D01*
X61800000Y-43300000D02*
X61300000Y-43300000D01*
X62800000Y-50260000D02*
X62800000Y-49650000D01*
X64800000Y-38750000D02*
X61300000Y-38750000D01*
X61300000Y-47100000D02*
X61800000Y-47100000D01*
X61300000Y-41100000D02*
X61800000Y-41100000D01*
X60690000Y-38140000D02*
X60690000Y-50260000D01*
X64800000Y-47700000D02*
X65410000Y-47700000D01*
X61300000Y-47200000D02*
X61800000Y-47200000D01*
X62800000Y-38140000D02*
X62800000Y-38750000D01*
X61800000Y-47100000D02*
X61800000Y-47300000D01*
X60690000Y-50260000D02*
X65410000Y-50260000D01*
X64100000Y-50260000D02*
X64100000Y-49650000D01*
X65610000Y-39900000D02*
X65610000Y-39600000D01*
X61300000Y-43100000D02*
X61800000Y-43100000D01*
X61800000Y-41100000D02*
X61800000Y-41300000D01*
X65410000Y-39900000D02*
X65610000Y-39900000D01*
X61300000Y-41200000D02*
X61800000Y-41200000D01*
X61300000Y-49650000D02*
X64800000Y-49650000D01*
X64800000Y-40700000D02*
X64800000Y-38750000D01*
X61300000Y-45200000D02*
X61800000Y-45200000D01*
X61300000Y-43200000D02*
X61800000Y-43200000D01*
X61800000Y-45100000D02*
X61800000Y-45300000D01*
X65410000Y-50260000D02*
X65410000Y-38140000D01*
X76522500Y-30754724D02*
X76522500Y-30245276D01*
X75477500Y-30754724D02*
X75477500Y-30245276D01*
X120077500Y-62645276D02*
X120077500Y-63154724D01*
X121122500Y-62645276D02*
X121122500Y-63154724D01*
X119510000Y-61153733D02*
X119510000Y-61446267D01*
X118490000Y-61153733D02*
X118490000Y-61446267D01*
X119600000Y-57600000D02*
X119600000Y-59450000D01*
X118400000Y-57600000D02*
X118400000Y-59450000D01*
X118400000Y-59450000D02*
X119600000Y-59450000D01*
X78477500Y-30754724D02*
X78477500Y-30245276D01*
X79522500Y-30754724D02*
X79522500Y-30245276D01*
X115308000Y-60870000D02*
X116197000Y-60870000D01*
X116197000Y-60870000D02*
X116197000Y-59981000D01*
X115800000Y-60600000D02*
X113800000Y-60600000D01*
X113800000Y-60600000D02*
X113800000Y-60600000D01*
X113800000Y-60600000D02*
X115800000Y-60600000D01*
X115800000Y-60600000D02*
X115800000Y-60600000D01*
X113800000Y-60600000D02*
X113800000Y-60600000D01*
X113800000Y-60600000D02*
X113800000Y-58600000D01*
X113800000Y-58600000D02*
X113800000Y-58600000D01*
X113800000Y-58600000D02*
X113800000Y-60600000D01*
X115800000Y-58600000D02*
X115800000Y-58600000D01*
X115800000Y-58600000D02*
X115800000Y-60600000D01*
X115800000Y-60600000D02*
X115800000Y-60600000D01*
X115800000Y-60600000D02*
X115800000Y-58600000D01*
X113800000Y-58600000D02*
X115800000Y-58600000D01*
X115800000Y-58600000D02*
X115800000Y-58600000D01*
X115800000Y-58600000D02*
X113800000Y-58600000D01*
X113800000Y-58600000D02*
X113800000Y-58600000D01*
X85200000Y-47100000D02*
X85200000Y-45700000D01*
X85200000Y-45700000D02*
X86600000Y-45700000D01*
X86600000Y-47100000D02*
X85200000Y-47100000D01*
X86600000Y-45700000D02*
X86600000Y-47100000D01*
X86010000Y-41653733D02*
X86010000Y-41946267D01*
X84990000Y-41653733D02*
X84990000Y-41946267D01*
X82554724Y-39377500D02*
X82045276Y-39377500D01*
X82554724Y-40422500D02*
X82045276Y-40422500D01*
X87200000Y-45700000D02*
X88600000Y-45700000D01*
X87200000Y-47100000D02*
X87200000Y-45700000D01*
X88600000Y-47100000D02*
X87200000Y-47100000D01*
X88600000Y-45700000D02*
X88600000Y-47100000D01*
X74240000Y-53335000D02*
X76700000Y-53335000D01*
X74240000Y-51865000D02*
X74240000Y-53335000D01*
X76700000Y-51865000D02*
X74240000Y-51865000D01*
X66977500Y-51745276D02*
X66977500Y-52254724D01*
X68022500Y-51745276D02*
X68022500Y-52254724D01*
X110700000Y-45500000D02*
X110700000Y-52100000D01*
X110700000Y-52100000D02*
X111100000Y-52100000D01*
X116300000Y-45900000D02*
X116300000Y-51100000D01*
%LPC*%
D12*
X125600000Y-40600000D03*
X125600000Y-37800000D03*
D13*
X87947500Y-66357500D03*
D14*
X90487500Y-66357500D03*
X93027500Y-66357500D03*
X95567500Y-66357500D03*
X98107500Y-66357500D03*
X100647500Y-66357500D03*
X103187500Y-66357500D03*
X105727500Y-66357500D03*
D13*
X78796000Y-18100000D03*
D14*
X81336000Y-18100000D03*
X83876000Y-18100000D03*
X86416000Y-18100000D03*
X88956000Y-18100000D03*
X91496000Y-18100000D03*
X94036000Y-18100000D03*
X96576000Y-18100000D03*
X99116000Y-18100000D03*
X101656000Y-18100000D03*
D13*
X105720000Y-18100000D03*
D14*
X108260000Y-18100000D03*
X110800000Y-18100000D03*
X113340000Y-18100000D03*
X115880000Y-18100000D03*
X118420000Y-18100000D03*
X120960000Y-18100000D03*
X123500000Y-18100000D03*
D13*
X110807500Y-66357500D03*
D14*
X113347500Y-66357500D03*
X115887500Y-66357500D03*
X118427500Y-66357500D03*
X120967500Y-66357500D03*
X123507500Y-66357500D03*
D15*
X75240000Y-18100000D03*
X126040000Y-61280000D03*
X126040000Y-33340000D03*
X73970000Y-66360000D03*
D16*
X103412500Y-41500000D03*
X101587500Y-41500000D03*
D17*
X70500000Y-54587500D03*
X70500000Y-56412500D03*
D18*
X95000000Y-41862500D03*
X95000000Y-40137500D03*
D19*
X88012500Y-39750000D03*
X88012500Y-40250000D03*
X88012500Y-40750000D03*
X88012500Y-41250000D03*
X88012500Y-41750000D03*
X88012500Y-42250000D03*
D20*
X88750000Y-42987500D03*
X89250000Y-42987500D03*
X89750000Y-42987500D03*
X90250000Y-42987500D03*
X90750000Y-42987500D03*
X91250000Y-42987500D03*
D19*
X91987500Y-42250000D03*
X91987500Y-41750000D03*
X91987500Y-41250000D03*
X91987500Y-40750000D03*
X91987500Y-40250000D03*
X91987500Y-39750000D03*
D20*
X91250000Y-39012500D03*
X90750000Y-39012500D03*
X90250000Y-39012500D03*
X89750000Y-39012500D03*
X89250000Y-39012500D03*
X88750000Y-39012500D03*
D21*
X90000000Y-41000000D03*
D16*
X103412500Y-25500000D03*
X101587500Y-25500000D03*
D22*
X106859988Y-25599994D03*
X109409988Y-25599994D03*
X108139988Y-25599994D03*
X105589988Y-25599994D03*
D23*
X105699988Y-27299994D03*
X109299988Y-27299994D03*
X108099988Y-30799994D03*
X106899988Y-27299994D03*
X108099988Y-28499994D03*
X108099988Y-29699994D03*
X108099988Y-27299994D03*
D22*
X106859988Y-31399994D03*
D23*
X106899988Y-28499994D03*
X106899988Y-29699994D03*
X109299988Y-29699994D03*
X109299988Y-30799994D03*
D24*
X107499988Y-28999994D03*
D22*
X109409988Y-31399994D03*
D23*
X105699988Y-29699994D03*
X106899988Y-30799994D03*
D22*
X108139988Y-31399994D03*
X105589988Y-31399994D03*
D23*
X109299988Y-28499994D03*
X105699988Y-28499994D03*
X105699988Y-30799994D03*
D16*
X85512500Y-54000000D03*
X83687500Y-54000000D03*
X89512500Y-48500000D03*
X87687500Y-48500000D03*
D25*
X101112500Y-63250000D03*
X99387500Y-63250000D03*
D26*
X125550000Y-44000000D03*
D27*
X125550000Y-46000000D03*
X125550000Y-48000000D03*
D17*
X69000000Y-54587500D03*
X69000000Y-56412500D03*
D28*
X75025000Y-55700000D03*
X76775000Y-55700000D03*
D29*
X114037500Y-61700000D03*
X115762500Y-61700000D03*
D17*
X69000000Y-51087500D03*
X69000000Y-52912500D03*
D26*
X88000000Y-59500000D03*
D27*
X88000000Y-61500000D03*
D30*
X96600000Y-43300000D03*
X96600000Y-44700000D03*
D16*
X103412500Y-45500000D03*
X101587500Y-45500000D03*
D31*
X94500000Y-57050000D03*
X94500000Y-62450000D03*
D32*
X81387500Y-36700000D03*
X83212500Y-36700000D03*
D29*
X117337500Y-63800000D03*
X119062500Y-63800000D03*
D32*
X81387500Y-38300000D03*
X83212500Y-38300000D03*
D17*
X70500000Y-51087500D03*
X70500000Y-52912500D03*
D22*
X114140000Y-41400000D03*
X111590000Y-41400000D03*
X112860000Y-41400000D03*
X115410000Y-41400000D03*
X112860000Y-35600000D03*
X115410000Y-35600000D03*
D24*
X113500000Y-38000000D03*
D22*
X111590000Y-35600000D03*
X114140000Y-35600000D03*
D33*
X87500000Y-32637500D03*
X87500000Y-34362500D03*
D25*
X72162500Y-43700000D03*
X70437500Y-43700000D03*
D22*
X108140000Y-45600000D03*
X106860000Y-45600000D03*
X109410000Y-45600000D03*
X105590000Y-45600000D03*
D23*
X106900000Y-50800000D03*
X108100000Y-49700000D03*
D22*
X105590000Y-51400000D03*
X109410000Y-51400000D03*
D23*
X105700000Y-48500000D03*
X108100000Y-50800000D03*
X108100000Y-47300000D03*
X108100000Y-48500000D03*
D24*
X107500000Y-49000000D03*
D23*
X109300000Y-47300000D03*
X106900000Y-48500000D03*
X109300000Y-49700000D03*
D22*
X108140000Y-51400000D03*
D23*
X106900000Y-47300000D03*
X105700000Y-47300000D03*
X105700000Y-49700000D03*
X109300000Y-48500000D03*
X109300000Y-50800000D03*
X105700000Y-50800000D03*
D22*
X106860000Y-51400000D03*
D23*
X106900000Y-49700000D03*
D34*
X109362500Y-57050000D03*
X109362500Y-58950000D03*
X111237500Y-58000000D03*
D16*
X85512500Y-55700000D03*
X83687500Y-55700000D03*
D25*
X101112500Y-59250000D03*
X99387500Y-59250000D03*
D18*
X95000000Y-45362500D03*
X95000000Y-43637500D03*
D16*
X89512500Y-50000000D03*
X87687500Y-50000000D03*
D35*
X82000000Y-31412500D03*
X82000000Y-29587500D03*
D16*
X103412500Y-35500000D03*
X101587500Y-35500000D03*
X89512500Y-36000000D03*
X87687500Y-36000000D03*
D36*
X91100000Y-34400000D03*
X92500000Y-34400000D03*
D17*
X67500000Y-54587500D03*
X67500000Y-56412500D03*
D16*
X103412500Y-51500000D03*
X101587500Y-51500000D03*
D25*
X92862500Y-36000000D03*
X91137500Y-36000000D03*
D16*
X89512500Y-51500000D03*
X87687500Y-51500000D03*
D32*
X113987500Y-57500000D03*
X115812500Y-57500000D03*
D30*
X96600000Y-39900000D03*
X96600000Y-41300000D03*
D35*
X77500000Y-31412500D03*
X77500000Y-29587500D03*
D25*
X101112500Y-61250000D03*
X99387500Y-61250000D03*
D37*
X74425000Y-41190000D03*
X74425000Y-42460000D03*
X74425000Y-43730000D03*
X74425000Y-45000000D03*
X74425000Y-46270000D03*
X74425000Y-47540000D03*
X74425000Y-48810000D03*
X79375000Y-48810000D03*
X79375000Y-47540000D03*
X79375000Y-46270000D03*
X79375000Y-45000000D03*
X79375000Y-43730000D03*
X79375000Y-42460000D03*
X79375000Y-41190000D03*
D18*
X120600000Y-55862500D03*
X120600000Y-54137500D03*
D16*
X103412500Y-32500000D03*
X101587500Y-32500000D03*
D17*
X120600000Y-58587500D03*
X120600000Y-60412500D03*
D35*
X80500000Y-31412500D03*
X80500000Y-29587500D03*
X83500000Y-31412500D03*
X83500000Y-29587500D03*
D22*
X109410000Y-35600000D03*
X106860000Y-35600000D03*
X108140000Y-35600000D03*
X105590000Y-35600000D03*
D23*
X108100000Y-38500000D03*
X108100000Y-39700000D03*
X105700000Y-40800000D03*
X105700000Y-37300000D03*
D22*
X105590000Y-41400000D03*
X106860000Y-41400000D03*
D23*
X109300000Y-39700000D03*
X106900000Y-39700000D03*
X105700000Y-38500000D03*
D24*
X107500000Y-39000000D03*
D23*
X109300000Y-38500000D03*
X105700000Y-39700000D03*
X109300000Y-37300000D03*
X106900000Y-38500000D03*
X108100000Y-40800000D03*
X106900000Y-37300000D03*
D22*
X109410000Y-41400000D03*
X108140000Y-41400000D03*
D23*
X109300000Y-40800000D03*
X108100000Y-37300000D03*
X106900000Y-40800000D03*
D38*
X89900000Y-46400000D03*
D22*
X112860000Y-31400000D03*
X114140000Y-31400000D03*
X111590000Y-31400000D03*
X115410000Y-31400000D03*
X114140000Y-25600000D03*
D24*
X113500000Y-28000000D03*
D22*
X115410000Y-25600000D03*
X111590000Y-25600000D03*
X112860000Y-25600000D03*
D33*
X107500000Y-57137500D03*
X107500000Y-58862500D03*
D16*
X115712500Y-63800000D03*
X113887500Y-63800000D03*
D26*
X63600000Y-40200000D03*
D27*
X63600000Y-42200000D03*
X63600000Y-44200000D03*
X63600000Y-46200000D03*
X63600000Y-48200000D03*
D35*
X76000000Y-31412500D03*
X76000000Y-29587500D03*
D17*
X120600000Y-61987500D03*
X120600000Y-63812500D03*
D33*
X119000000Y-60437500D03*
X119000000Y-62162500D03*
D30*
X119000000Y-59000000D03*
X119000000Y-57600000D03*
D35*
X79000000Y-31412500D03*
X79000000Y-29587500D03*
D39*
X115750000Y-60400000D03*
X115750000Y-60000000D03*
X115750000Y-59600000D03*
X115750000Y-59200000D03*
X115750000Y-58800000D03*
X113850000Y-58800000D03*
X113850000Y-59200000D03*
X113850000Y-59600000D03*
X113850000Y-60000000D03*
X113850000Y-60400000D03*
D40*
X114800000Y-59600000D03*
D38*
X85900000Y-46400000D03*
D33*
X85500000Y-40937500D03*
X85500000Y-42662500D03*
D16*
X83212500Y-39900000D03*
X81387500Y-39900000D03*
D38*
X87900000Y-46400000D03*
D28*
X75025000Y-52600000D03*
X76775000Y-52600000D03*
D17*
X67500000Y-51087500D03*
X67500000Y-52912500D03*
D22*
X111590000Y-51400000D03*
X114140000Y-51400000D03*
X112860000Y-51400000D03*
X115410000Y-51400000D03*
X114140000Y-45600000D03*
D24*
X113500000Y-48000000D03*
D22*
X112860000Y-45600000D03*
X115410000Y-45600000D03*
X111590000Y-45600000D03*
M02*
