G04 #@! TF.GenerationSoftware,KiCad,Pcbnew,(5.1.10)-1*
G04 #@! TF.CreationDate,2021-10-08T21:42:51+13:00*
G04 #@! TF.ProjectId,bldc_driver_fpga,626c6463-5f64-4726-9976-65725f667067,rev?*
G04 #@! TF.SameCoordinates,Original*
G04 #@! TF.FileFunction,Legend,Top*
G04 #@! TF.FilePolarity,Positive*
%FSLAX46Y46*%
G04 Gerber Fmt 4.6, Leading zero omitted, Abs format (unit mm)*
G04 Created by KiCad (PCBNEW (5.1.10)-1) date 2021-10-08 21:42:51*
%MOMM*%
%LPD*%
G01*
G04 APERTURE LIST*
%ADD10C,0.150000*%
%ADD11C,0.120000*%
%ADD12C,0.200000*%
%ADD13C,0.100000*%
%ADD14C,0.254000*%
%ADD15C,3.200000*%
%ADD16R,4.290000X4.500000*%
%ADD17R,1.200000X0.700000*%
%ADD18O,1.750000X1.200000*%
%ADD19R,8.200000X1.100000*%
%ADD20R,2.500000X1.240000*%
%ADD21O,1.700000X1.700000*%
%ADD22R,1.700000X1.700000*%
%ADD23O,2.700000X3.300000*%
%ADD24R,1.560000X0.650000*%
%ADD25R,2.450000X2.450000*%
%ADD26R,0.600000X0.700000*%
%ADD27R,0.700000X0.600000*%
G04 APERTURE END LIST*
D10*
X105720571Y-51577142D02*
X105768190Y-51434285D01*
X105815809Y-51386666D01*
X105911047Y-51339047D01*
X106053904Y-51339047D01*
X106149142Y-51386666D01*
X106196761Y-51434285D01*
X106244380Y-51529523D01*
X106244380Y-51910476D01*
X105244380Y-51910476D01*
X105244380Y-51577142D01*
X105292000Y-51481904D01*
X105339619Y-51434285D01*
X105434857Y-51386666D01*
X105530095Y-51386666D01*
X105625333Y-51434285D01*
X105672952Y-51481904D01*
X105720571Y-51577142D01*
X105720571Y-51910476D01*
X106244380Y-50434285D02*
X106244380Y-50910476D01*
X105244380Y-50910476D01*
X106244380Y-50100952D02*
X105244380Y-50100952D01*
X105244380Y-49862857D01*
X105292000Y-49720000D01*
X105387238Y-49624761D01*
X105482476Y-49577142D01*
X105672952Y-49529523D01*
X105815809Y-49529523D01*
X106006285Y-49577142D01*
X106101523Y-49624761D01*
X106196761Y-49720000D01*
X106244380Y-49862857D01*
X106244380Y-50100952D01*
X106149142Y-48529523D02*
X106196761Y-48577142D01*
X106244380Y-48720000D01*
X106244380Y-48815238D01*
X106196761Y-48958095D01*
X106101523Y-49053333D01*
X106006285Y-49100952D01*
X105815809Y-49148571D01*
X105672952Y-49148571D01*
X105482476Y-49100952D01*
X105387238Y-49053333D01*
X105292000Y-48958095D01*
X105244380Y-48815238D01*
X105244380Y-48720000D01*
X105292000Y-48577142D01*
X105339619Y-48529523D01*
X105720571Y-47005714D02*
X105720571Y-47339047D01*
X106244380Y-47339047D02*
X105244380Y-47339047D01*
X105244380Y-46862857D01*
X105244380Y-46291428D02*
X105244380Y-46100952D01*
X105292000Y-46005714D01*
X105387238Y-45910476D01*
X105577714Y-45862857D01*
X105911047Y-45862857D01*
X106101523Y-45910476D01*
X106196761Y-46005714D01*
X106244380Y-46100952D01*
X106244380Y-46291428D01*
X106196761Y-46386666D01*
X106101523Y-46481904D01*
X105911047Y-46529523D01*
X105577714Y-46529523D01*
X105387238Y-46481904D01*
X105292000Y-46386666D01*
X105244380Y-46291428D01*
X106149142Y-44862857D02*
X106196761Y-44910476D01*
X106244380Y-45053333D01*
X106244380Y-45148571D01*
X106196761Y-45291428D01*
X106101523Y-45386666D01*
X106006285Y-45434285D01*
X105815809Y-45481904D01*
X105672952Y-45481904D01*
X105482476Y-45434285D01*
X105387238Y-45386666D01*
X105292000Y-45291428D01*
X105244380Y-45148571D01*
X105244380Y-45053333D01*
X105292000Y-44910476D01*
X105339619Y-44862857D01*
X106196761Y-43720000D02*
X106244380Y-43577142D01*
X106244380Y-43339047D01*
X106196761Y-43243809D01*
X106149142Y-43196190D01*
X106053904Y-43148571D01*
X105958666Y-43148571D01*
X105863428Y-43196190D01*
X105815809Y-43243809D01*
X105768190Y-43339047D01*
X105720571Y-43529523D01*
X105672952Y-43624761D01*
X105625333Y-43672380D01*
X105530095Y-43720000D01*
X105434857Y-43720000D01*
X105339619Y-43672380D01*
X105292000Y-43624761D01*
X105244380Y-43529523D01*
X105244380Y-43291428D01*
X105292000Y-43148571D01*
X106244380Y-42720000D02*
X105244380Y-42720000D01*
X106244380Y-42291428D02*
X105720571Y-42291428D01*
X105625333Y-42339047D01*
X105577714Y-42434285D01*
X105577714Y-42577142D01*
X105625333Y-42672380D01*
X105672952Y-42720000D01*
X106244380Y-41815238D02*
X105577714Y-41815238D01*
X105244380Y-41815238D02*
X105292000Y-41862857D01*
X105339619Y-41815238D01*
X105292000Y-41767619D01*
X105244380Y-41815238D01*
X105339619Y-41815238D01*
X106196761Y-40958095D02*
X106244380Y-41053333D01*
X106244380Y-41243809D01*
X106196761Y-41339047D01*
X106101523Y-41386666D01*
X105720571Y-41386666D01*
X105625333Y-41339047D01*
X105577714Y-41243809D01*
X105577714Y-41053333D01*
X105625333Y-40958095D01*
X105720571Y-40910476D01*
X105815809Y-40910476D01*
X105911047Y-41386666D01*
X106244380Y-40339047D02*
X106196761Y-40434285D01*
X106101523Y-40481904D01*
X105244380Y-40481904D01*
X106244380Y-39529523D02*
X105244380Y-39529523D01*
X106196761Y-39529523D02*
X106244380Y-39624761D01*
X106244380Y-39815238D01*
X106196761Y-39910476D01*
X106149142Y-39958095D01*
X106053904Y-40005714D01*
X105768190Y-40005714D01*
X105672952Y-39958095D01*
X105625333Y-39910476D01*
X105577714Y-39815238D01*
X105577714Y-39624761D01*
X105625333Y-39529523D01*
X107894380Y-53553333D02*
X107418190Y-53886666D01*
X107894380Y-54124761D02*
X106894380Y-54124761D01*
X106894380Y-53743809D01*
X106942000Y-53648571D01*
X106989619Y-53600952D01*
X107084857Y-53553333D01*
X107227714Y-53553333D01*
X107322952Y-53600952D01*
X107370571Y-53648571D01*
X107418190Y-53743809D01*
X107418190Y-54124761D01*
X107846761Y-52743809D02*
X107894380Y-52839047D01*
X107894380Y-53029523D01*
X107846761Y-53124761D01*
X107751523Y-53172380D01*
X107370571Y-53172380D01*
X107275333Y-53124761D01*
X107227714Y-53029523D01*
X107227714Y-52839047D01*
X107275333Y-52743809D01*
X107370571Y-52696190D01*
X107465809Y-52696190D01*
X107561047Y-53172380D01*
X107227714Y-52362857D02*
X107894380Y-52124761D01*
X107227714Y-51886666D01*
X107894380Y-50219999D02*
X107894380Y-50791428D01*
X107894380Y-50505714D02*
X106894380Y-50505714D01*
X107037238Y-50600952D01*
X107132476Y-50696190D01*
X107180095Y-50791428D01*
X107799142Y-49791428D02*
X107846761Y-49743809D01*
X107894380Y-49791428D01*
X107846761Y-49839047D01*
X107799142Y-49791428D01*
X107894380Y-49791428D01*
X106894380Y-49124761D02*
X106894380Y-49029523D01*
X106942000Y-48934285D01*
X106989619Y-48886666D01*
X107084857Y-48839047D01*
X107275333Y-48791428D01*
X107513428Y-48791428D01*
X107703904Y-48839047D01*
X107799142Y-48886666D01*
X107846761Y-48934285D01*
X107894380Y-49029523D01*
X107894380Y-49124761D01*
X107846761Y-49220000D01*
X107799142Y-49267619D01*
X107703904Y-49315238D01*
X107513428Y-49362857D01*
X107275333Y-49362857D01*
X107084857Y-49315238D01*
X106989619Y-49267619D01*
X106942000Y-49220000D01*
X106894380Y-49124761D01*
X107513428Y-47600952D02*
X107513428Y-46839047D01*
X106894380Y-45696190D02*
X106894380Y-45077142D01*
X107275333Y-45410476D01*
X107275333Y-45267619D01*
X107322952Y-45172380D01*
X107370571Y-45124761D01*
X107465809Y-45077142D01*
X107703904Y-45077142D01*
X107799142Y-45124761D01*
X107846761Y-45172380D01*
X107894380Y-45267619D01*
X107894380Y-45553333D01*
X107846761Y-45648571D01*
X107799142Y-45696190D01*
X106846761Y-43934285D02*
X108132476Y-44791428D01*
X107894380Y-43077142D02*
X107894380Y-43648571D01*
X107894380Y-43362857D02*
X106894380Y-43362857D01*
X107037238Y-43458095D01*
X107132476Y-43553333D01*
X107180095Y-43648571D01*
X106894380Y-42458095D02*
X106894380Y-42362857D01*
X106942000Y-42267619D01*
X106989619Y-42220000D01*
X107084857Y-42172380D01*
X107275333Y-42124761D01*
X107513428Y-42124761D01*
X107703904Y-42172380D01*
X107799142Y-42220000D01*
X107846761Y-42267619D01*
X107894380Y-42362857D01*
X107894380Y-42458095D01*
X107846761Y-42553333D01*
X107799142Y-42600952D01*
X107703904Y-42648571D01*
X107513428Y-42696190D01*
X107275333Y-42696190D01*
X107084857Y-42648571D01*
X106989619Y-42600952D01*
X106942000Y-42553333D01*
X106894380Y-42458095D01*
X106846761Y-40981904D02*
X108132476Y-41839047D01*
X106989619Y-40696190D02*
X106942000Y-40648571D01*
X106894380Y-40553333D01*
X106894380Y-40315238D01*
X106942000Y-40220000D01*
X106989619Y-40172380D01*
X107084857Y-40124761D01*
X107180095Y-40124761D01*
X107322952Y-40172380D01*
X107894380Y-40743809D01*
X107894380Y-40124761D01*
X106894380Y-39505714D02*
X106894380Y-39410476D01*
X106942000Y-39315238D01*
X106989619Y-39267619D01*
X107084857Y-39220000D01*
X107275333Y-39172380D01*
X107513428Y-39172380D01*
X107703904Y-39220000D01*
X107799142Y-39267619D01*
X107846761Y-39315238D01*
X107894380Y-39410476D01*
X107894380Y-39505714D01*
X107846761Y-39600952D01*
X107799142Y-39648571D01*
X107703904Y-39696190D01*
X107513428Y-39743809D01*
X107275333Y-39743809D01*
X107084857Y-39696190D01*
X106989619Y-39648571D01*
X106942000Y-39600952D01*
X106894380Y-39505714D01*
X106989619Y-38791428D02*
X106942000Y-38743809D01*
X106894380Y-38648571D01*
X106894380Y-38410476D01*
X106942000Y-38315238D01*
X106989619Y-38267619D01*
X107084857Y-38220000D01*
X107180095Y-38220000D01*
X107322952Y-38267619D01*
X107894380Y-38839047D01*
X107894380Y-38220000D01*
X107894380Y-37267619D02*
X107894380Y-37839047D01*
X107894380Y-37553333D02*
X106894380Y-37553333D01*
X107037238Y-37648571D01*
X107132476Y-37743809D01*
X107180095Y-37839047D01*
X109544380Y-49672380D02*
X108544380Y-49672380D01*
X109544380Y-49100952D02*
X108972952Y-49529523D01*
X108544380Y-49100952D02*
X109115809Y-49672380D01*
X109496761Y-48291428D02*
X109544380Y-48386666D01*
X109544380Y-48577142D01*
X109496761Y-48672380D01*
X109401523Y-48720000D01*
X109020571Y-48720000D01*
X108925333Y-48672380D01*
X108877714Y-48577142D01*
X108877714Y-48386666D01*
X108925333Y-48291428D01*
X109020571Y-48243809D01*
X109115809Y-48243809D01*
X109211047Y-48720000D01*
X109496761Y-47862857D02*
X109544380Y-47767619D01*
X109544380Y-47577142D01*
X109496761Y-47481904D01*
X109401523Y-47434285D01*
X109353904Y-47434285D01*
X109258666Y-47481904D01*
X109211047Y-47577142D01*
X109211047Y-47720000D01*
X109163428Y-47815238D01*
X109068190Y-47862857D01*
X109020571Y-47862857D01*
X108925333Y-47815238D01*
X108877714Y-47720000D01*
X108877714Y-47577142D01*
X108925333Y-47481904D01*
X109544380Y-47005714D02*
X108544380Y-47005714D01*
X109544380Y-46577142D02*
X109020571Y-46577142D01*
X108925333Y-46624761D01*
X108877714Y-46720000D01*
X108877714Y-46862857D01*
X108925333Y-46958095D01*
X108972952Y-47005714D01*
X109544380Y-45672380D02*
X109020571Y-45672380D01*
X108925333Y-45720000D01*
X108877714Y-45815238D01*
X108877714Y-46005714D01*
X108925333Y-46100952D01*
X109496761Y-45672380D02*
X109544380Y-45767619D01*
X109544380Y-46005714D01*
X109496761Y-46100952D01*
X109401523Y-46148571D01*
X109306285Y-46148571D01*
X109211047Y-46100952D01*
X109163428Y-46005714D01*
X109163428Y-45767619D01*
X109115809Y-45672380D01*
X108877714Y-45291428D02*
X109544380Y-45053333D01*
X108877714Y-44815238D01*
X109544380Y-43100952D02*
X109068190Y-43434285D01*
X109544380Y-43672380D02*
X108544380Y-43672380D01*
X108544380Y-43291428D01*
X108592000Y-43196190D01*
X108639619Y-43148571D01*
X108734857Y-43100952D01*
X108877714Y-43100952D01*
X108972952Y-43148571D01*
X109020571Y-43196190D01*
X109068190Y-43291428D01*
X109068190Y-43672380D01*
X109544380Y-42243809D02*
X109020571Y-42243809D01*
X108925333Y-42291428D01*
X108877714Y-42386666D01*
X108877714Y-42577142D01*
X108925333Y-42672380D01*
X109496761Y-42243809D02*
X109544380Y-42339047D01*
X109544380Y-42577142D01*
X109496761Y-42672380D01*
X109401523Y-42720000D01*
X109306285Y-42720000D01*
X109211047Y-42672380D01*
X109163428Y-42577142D01*
X109163428Y-42339047D01*
X109115809Y-42243809D01*
X108877714Y-41767619D02*
X109734857Y-41767619D01*
X109830095Y-41815238D01*
X109877714Y-41910476D01*
X109877714Y-41958095D01*
X108544380Y-41767619D02*
X108592000Y-41815238D01*
X108639619Y-41767619D01*
X108592000Y-41720000D01*
X108544380Y-41767619D01*
X108639619Y-41767619D01*
X73485428Y-42886380D02*
X73723523Y-43886380D01*
X73914000Y-43172095D01*
X74104476Y-43886380D01*
X74342571Y-42886380D01*
X73628285Y-47839380D02*
X73628285Y-48648904D01*
X73675904Y-48744142D01*
X73723523Y-48791761D01*
X73818761Y-48839380D01*
X74009238Y-48839380D01*
X74104476Y-48791761D01*
X74152095Y-48744142D01*
X74199714Y-48648904D01*
X74199714Y-47839380D01*
X62127190Y-53919380D02*
X62127190Y-52919380D01*
X62460523Y-53633666D01*
X62793857Y-52919380D01*
X62793857Y-53919380D01*
X63127190Y-52919380D02*
X63698619Y-52919380D01*
X63412904Y-53919380D02*
X63412904Y-52919380D01*
X64603380Y-53919380D02*
X64270047Y-53443190D01*
X64031952Y-53919380D02*
X64031952Y-52919380D01*
X64412904Y-52919380D01*
X64508142Y-52967000D01*
X64555761Y-53014619D01*
X64603380Y-53109857D01*
X64603380Y-53252714D01*
X64555761Y-53347952D01*
X64508142Y-53395571D01*
X64412904Y-53443190D01*
X64031952Y-53443190D01*
X64793857Y-54014619D02*
X65555761Y-54014619D01*
X65984333Y-52919380D02*
X66174809Y-52919380D01*
X66270047Y-52967000D01*
X66365285Y-53062238D01*
X66412904Y-53252714D01*
X66412904Y-53586047D01*
X66365285Y-53776523D01*
X66270047Y-53871761D01*
X66174809Y-53919380D01*
X65984333Y-53919380D01*
X65889095Y-53871761D01*
X65793857Y-53776523D01*
X65746238Y-53586047D01*
X65746238Y-53252714D01*
X65793857Y-53062238D01*
X65889095Y-52967000D01*
X65984333Y-52919380D01*
X66841476Y-52919380D02*
X66841476Y-53728904D01*
X66889095Y-53824142D01*
X66936714Y-53871761D01*
X67031952Y-53919380D01*
X67222428Y-53919380D01*
X67317666Y-53871761D01*
X67365285Y-53824142D01*
X67412904Y-53728904D01*
X67412904Y-52919380D01*
X67746238Y-52919380D02*
X68317666Y-52919380D01*
X68031952Y-53919380D02*
X68031952Y-52919380D01*
X88074857Y-52109666D02*
X88551047Y-52109666D01*
X87979619Y-52395380D02*
X88312952Y-51395380D01*
X88646285Y-52395380D01*
X88836761Y-51395380D02*
X89408190Y-51395380D01*
X89122476Y-52395380D02*
X89122476Y-51395380D01*
X89646285Y-51395380D02*
X90312952Y-52395380D01*
X90312952Y-51395380D02*
X89646285Y-52395380D01*
X91979619Y-52395380D02*
X91408190Y-52395380D01*
X91693904Y-52395380D02*
X91693904Y-51395380D01*
X91598666Y-51538238D01*
X91503428Y-51633476D01*
X91408190Y-51681095D01*
X92360571Y-51490619D02*
X92408190Y-51443000D01*
X92503428Y-51395380D01*
X92741523Y-51395380D01*
X92836761Y-51443000D01*
X92884380Y-51490619D01*
X92932000Y-51585857D01*
X92932000Y-51681095D01*
X92884380Y-51823952D01*
X92312952Y-52395380D01*
X92932000Y-52395380D01*
X93217714Y-51395380D02*
X93551047Y-52395380D01*
X93884380Y-51395380D01*
X120531000Y-41020904D02*
X120483380Y-41116142D01*
X120483380Y-41259000D01*
X120531000Y-41401857D01*
X120626238Y-41497095D01*
X120721476Y-41544714D01*
X120911952Y-41592333D01*
X121054809Y-41592333D01*
X121245285Y-41544714D01*
X121340523Y-41497095D01*
X121435761Y-41401857D01*
X121483380Y-41259000D01*
X121483380Y-41163761D01*
X121435761Y-41020904D01*
X121388142Y-40973285D01*
X121054809Y-40973285D01*
X121054809Y-41163761D01*
X121483380Y-40544714D02*
X120483380Y-40544714D01*
X121483380Y-39973285D01*
X120483380Y-39973285D01*
X121483380Y-39497095D02*
X120483380Y-39497095D01*
X120483380Y-39259000D01*
X120531000Y-39116142D01*
X120626238Y-39020904D01*
X120721476Y-38973285D01*
X120911952Y-38925666D01*
X121054809Y-38925666D01*
X121245285Y-38973285D01*
X121340523Y-39020904D01*
X121435761Y-39116142D01*
X121483380Y-39259000D01*
X121483380Y-39497095D01*
X120824666Y-42251380D02*
X121491333Y-42251380D01*
X120824666Y-43251380D01*
X121491333Y-43251380D01*
X121229428Y-44759571D02*
X121372285Y-44807190D01*
X121419904Y-44854809D01*
X121467523Y-44950047D01*
X121467523Y-45092904D01*
X121419904Y-45188142D01*
X121372285Y-45235761D01*
X121277047Y-45283380D01*
X120896095Y-45283380D01*
X120896095Y-44283380D01*
X121229428Y-44283380D01*
X121324666Y-44331000D01*
X121372285Y-44378619D01*
X121419904Y-44473857D01*
X121419904Y-44569095D01*
X121372285Y-44664333D01*
X121324666Y-44711952D01*
X121229428Y-44759571D01*
X120896095Y-44759571D01*
X120919904Y-47029666D02*
X121396095Y-47029666D01*
X120824666Y-47315380D02*
X121158000Y-46315380D01*
X121491333Y-47315380D01*
X119792857Y-48966428D02*
X120554761Y-48966428D01*
X120173809Y-49347380D02*
X120173809Y-48585476D01*
X121507142Y-48347380D02*
X121030952Y-48347380D01*
X120983333Y-48823571D01*
X121030952Y-48775952D01*
X121126190Y-48728333D01*
X121364285Y-48728333D01*
X121459523Y-48775952D01*
X121507142Y-48823571D01*
X121554761Y-48918809D01*
X121554761Y-49156904D01*
X121507142Y-49252142D01*
X121459523Y-49299761D01*
X121364285Y-49347380D01*
X121126190Y-49347380D01*
X121030952Y-49299761D01*
X120983333Y-49252142D01*
X119705380Y-49719904D02*
X118705380Y-49719904D01*
X119181571Y-49719904D02*
X119181571Y-49148476D01*
X119705380Y-49148476D02*
X118705380Y-49148476D01*
X119705380Y-48243714D02*
X119181571Y-48243714D01*
X119086333Y-48291333D01*
X119038714Y-48386571D01*
X119038714Y-48577047D01*
X119086333Y-48672285D01*
X119657761Y-48243714D02*
X119705380Y-48338952D01*
X119705380Y-48577047D01*
X119657761Y-48672285D01*
X119562523Y-48719904D01*
X119467285Y-48719904D01*
X119372047Y-48672285D01*
X119324428Y-48577047D01*
X119324428Y-48338952D01*
X119276809Y-48243714D01*
X119705380Y-47624666D02*
X119657761Y-47719904D01*
X119562523Y-47767523D01*
X118705380Y-47767523D01*
X119705380Y-47100857D02*
X119657761Y-47196095D01*
X119562523Y-47243714D01*
X118705380Y-47243714D01*
X118657761Y-46005619D02*
X119943476Y-46862761D01*
X119181571Y-45672285D02*
X119181571Y-45338952D01*
X119705380Y-45196095D02*
X119705380Y-45672285D01*
X118705380Y-45672285D01*
X118705380Y-45196095D01*
X119038714Y-44767523D02*
X119705380Y-44767523D01*
X119133952Y-44767523D02*
X119086333Y-44719904D01*
X119038714Y-44624666D01*
X119038714Y-44481809D01*
X119086333Y-44386571D01*
X119181571Y-44338952D01*
X119705380Y-44338952D01*
X119657761Y-43434190D02*
X119705380Y-43529428D01*
X119705380Y-43719904D01*
X119657761Y-43815142D01*
X119610142Y-43862761D01*
X119514904Y-43910380D01*
X119229190Y-43910380D01*
X119133952Y-43862761D01*
X119086333Y-43815142D01*
X119038714Y-43719904D01*
X119038714Y-43529428D01*
X119086333Y-43434190D01*
X119705380Y-42862761D02*
X119657761Y-42958000D01*
X119610142Y-43005619D01*
X119514904Y-43053238D01*
X119229190Y-43053238D01*
X119133952Y-43005619D01*
X119086333Y-42958000D01*
X119038714Y-42862761D01*
X119038714Y-42719904D01*
X119086333Y-42624666D01*
X119133952Y-42577047D01*
X119229190Y-42529428D01*
X119514904Y-42529428D01*
X119610142Y-42577047D01*
X119657761Y-42624666D01*
X119705380Y-42719904D01*
X119705380Y-42862761D01*
X119705380Y-41672285D02*
X118705380Y-41672285D01*
X119657761Y-41672285D02*
X119705380Y-41767523D01*
X119705380Y-41958000D01*
X119657761Y-42053238D01*
X119610142Y-42100857D01*
X119514904Y-42148476D01*
X119229190Y-42148476D01*
X119133952Y-42100857D01*
X119086333Y-42053238D01*
X119038714Y-41958000D01*
X119038714Y-41767523D01*
X119086333Y-41672285D01*
X119657761Y-40815142D02*
X119705380Y-40910380D01*
X119705380Y-41100857D01*
X119657761Y-41196095D01*
X119562523Y-41243714D01*
X119181571Y-41243714D01*
X119086333Y-41196095D01*
X119038714Y-41100857D01*
X119038714Y-40910380D01*
X119086333Y-40815142D01*
X119181571Y-40767523D01*
X119276809Y-40767523D01*
X119372047Y-41243714D01*
X119705380Y-40338952D02*
X119038714Y-40338952D01*
X119229190Y-40338952D02*
X119133952Y-40291333D01*
X119086333Y-40243714D01*
X119038714Y-40148476D01*
X119038714Y-40053238D01*
X88392380Y-63534285D02*
X88392380Y-64105714D01*
X88392380Y-63820000D02*
X87392380Y-63820000D01*
X87535238Y-63915238D01*
X87630476Y-64010476D01*
X87678095Y-64105714D01*
D11*
X98296000Y-22255267D02*
X98296000Y-21912733D01*
X99316000Y-22255267D02*
X99316000Y-21912733D01*
X96772000Y-22255267D02*
X96772000Y-21912733D01*
X97792000Y-22255267D02*
X97792000Y-21912733D01*
X95248000Y-22255267D02*
X95248000Y-21912733D01*
X96268000Y-22255267D02*
X96268000Y-21912733D01*
X93724000Y-22255267D02*
X93724000Y-21912733D01*
X94744000Y-22255267D02*
X94744000Y-21912733D01*
X92200000Y-22255267D02*
X92200000Y-21912733D01*
X93220000Y-22255267D02*
X93220000Y-21912733D01*
X90676000Y-22255267D02*
X90676000Y-21912733D01*
X91696000Y-22255267D02*
X91696000Y-21912733D01*
X109093000Y-35550000D02*
X111043000Y-35550000D01*
X109093000Y-35550000D02*
X107143000Y-35550000D01*
X109093000Y-26680000D02*
X111043000Y-26680000D01*
X109093000Y-26680000D02*
X105643000Y-26680000D01*
X111517500Y-21637248D02*
X111517500Y-22159752D01*
X110097500Y-21637248D02*
X110097500Y-22159752D01*
X108977500Y-21646248D02*
X108977500Y-22168752D01*
X107557500Y-21646248D02*
X107557500Y-22168752D01*
X106437500Y-21646248D02*
X106437500Y-22168752D01*
X105017500Y-21646248D02*
X105017500Y-22168752D01*
X99306748Y-27738000D02*
X99829252Y-27738000D01*
X99306748Y-29158000D02*
X99829252Y-29158000D01*
X99838252Y-31126500D02*
X99315748Y-31126500D01*
X99838252Y-29706500D02*
X99315748Y-29706500D01*
X99306748Y-25769500D02*
X99829252Y-25769500D01*
X99306748Y-27189500D02*
X99829252Y-27189500D01*
X84007936Y-46905500D02*
X85462064Y-46905500D01*
X84007936Y-48725500D02*
X85462064Y-48725500D01*
X84045436Y-59097500D02*
X85499564Y-59097500D01*
X84045436Y-60917500D02*
X85499564Y-60917500D01*
X85343276Y-30465500D02*
X85852724Y-30465500D01*
X85343276Y-31510500D02*
X85852724Y-31510500D01*
X85343276Y-28941500D02*
X85852724Y-28941500D01*
X85343276Y-29986500D02*
X85852724Y-29986500D01*
X85089276Y-40879500D02*
X85598724Y-40879500D01*
X85089276Y-41924500D02*
X85598724Y-41924500D01*
X85089276Y-39355500D02*
X85598724Y-39355500D01*
X85089276Y-40400500D02*
X85598724Y-40400500D01*
X85089276Y-54087500D02*
X85598724Y-54087500D01*
X85089276Y-55132500D02*
X85598724Y-55132500D01*
X85089276Y-52563500D02*
X85598724Y-52563500D01*
X85089276Y-53608500D02*
X85598724Y-53608500D01*
X95264500Y-45314776D02*
X95264500Y-45824224D01*
X94219500Y-45314776D02*
X94219500Y-45824224D01*
X115975224Y-58942500D02*
X115465776Y-58942500D01*
X115975224Y-57897500D02*
X115465776Y-57897500D01*
X115465776Y-56373500D02*
X115975224Y-56373500D01*
X115465776Y-57418500D02*
X115975224Y-57418500D01*
X113743000Y-62165776D02*
X113743000Y-62675224D01*
X112698000Y-62165776D02*
X112698000Y-62675224D01*
X110568000Y-62165776D02*
X110568000Y-62675224D01*
X109523000Y-62165776D02*
X109523000Y-62675224D01*
X75802500Y-30929000D02*
X81002500Y-30929000D01*
X75402500Y-36529000D02*
X82002500Y-36529000D01*
X82002500Y-36529000D02*
X82002500Y-36129000D01*
X81022500Y-30422500D02*
X75822500Y-30422500D01*
X81422500Y-24822500D02*
X74822500Y-24822500D01*
X74822500Y-24822500D02*
X74822500Y-25222500D01*
X75822500Y-43110500D02*
X81022500Y-43110500D01*
X75422500Y-48710500D02*
X82022500Y-48710500D01*
X82022500Y-48710500D02*
X82022500Y-48310500D01*
X81010500Y-42625000D02*
X75810500Y-42625000D01*
X81410500Y-37025000D02*
X74810500Y-37025000D01*
X74810500Y-37025000D02*
X74810500Y-37425000D01*
X75822500Y-55302500D02*
X81022500Y-55302500D01*
X75422500Y-60902500D02*
X82022500Y-60902500D01*
X82022500Y-60902500D02*
X82022500Y-60502500D01*
X81022500Y-54806500D02*
X75822500Y-54806500D01*
X81422500Y-49206500D02*
X74822500Y-49206500D01*
X74822500Y-49206500D02*
X74822500Y-49606500D01*
X121824500Y-50828000D02*
X126544500Y-50828000D01*
X126544500Y-50828000D02*
X126544500Y-38708000D01*
X126544500Y-38708000D02*
X121824500Y-38708000D01*
X121824500Y-38708000D02*
X121824500Y-50828000D01*
X121824500Y-49068000D02*
X121624500Y-49068000D01*
X121624500Y-49068000D02*
X121624500Y-49368000D01*
X121624500Y-49368000D02*
X121824500Y-49368000D01*
X121724500Y-49068000D02*
X121724500Y-49368000D01*
X121824500Y-48268000D02*
X122434500Y-48268000D01*
X122434500Y-48268000D02*
X122434500Y-50218000D01*
X122434500Y-50218000D02*
X125934500Y-50218000D01*
X125934500Y-50218000D02*
X125934500Y-39318000D01*
X125934500Y-39318000D02*
X122434500Y-39318000D01*
X122434500Y-39318000D02*
X122434500Y-41268000D01*
X122434500Y-41268000D02*
X121824500Y-41268000D01*
X123134500Y-50828000D02*
X123134500Y-50218000D01*
X124434500Y-50828000D02*
X124434500Y-50218000D01*
X123134500Y-38708000D02*
X123134500Y-39318000D01*
X124434500Y-38708000D02*
X124434500Y-39318000D01*
X125934500Y-47868000D02*
X125434500Y-47868000D01*
X125434500Y-47868000D02*
X125434500Y-47668000D01*
X125434500Y-47668000D02*
X125934500Y-47668000D01*
X125934500Y-47768000D02*
X125434500Y-47768000D01*
X125934500Y-45868000D02*
X125434500Y-45868000D01*
X125434500Y-45868000D02*
X125434500Y-45668000D01*
X125434500Y-45668000D02*
X125934500Y-45668000D01*
X125934500Y-45768000D02*
X125434500Y-45768000D01*
X125934500Y-43868000D02*
X125434500Y-43868000D01*
X125434500Y-43868000D02*
X125434500Y-43668000D01*
X125434500Y-43668000D02*
X125934500Y-43668000D01*
X125934500Y-43768000D02*
X125434500Y-43768000D01*
X125934500Y-41868000D02*
X125434500Y-41868000D01*
X125434500Y-41868000D02*
X125434500Y-41668000D01*
X125434500Y-41668000D02*
X125934500Y-41668000D01*
X125934500Y-41768000D02*
X125434500Y-41768000D01*
X121524500Y-49878000D02*
X121524500Y-51128000D01*
X121524500Y-51128000D02*
X122774500Y-51128000D01*
D12*
X72159000Y-48410500D02*
X72159000Y-48410500D01*
X72259000Y-48410500D02*
X72259000Y-48410500D01*
X72159000Y-48410500D02*
X72159000Y-48410500D01*
D13*
X61314000Y-42160500D02*
X61314000Y-49410500D01*
D12*
X72259000Y-48410500D02*
G75*
G02*
X72159000Y-48410500I-50000J0D01*
G01*
X72159000Y-48410500D02*
G75*
G02*
X72259000Y-48410500I50000J0D01*
G01*
X72259000Y-48410500D02*
G75*
G02*
X72159000Y-48410500I-50000J0D01*
G01*
D11*
X124837500Y-67687500D02*
X124837500Y-65027500D01*
X112077500Y-67687500D02*
X124837500Y-67687500D01*
X112077500Y-65027500D02*
X124837500Y-65027500D01*
X112077500Y-67687500D02*
X112077500Y-65027500D01*
X110807500Y-67687500D02*
X109477500Y-67687500D01*
X109477500Y-67687500D02*
X109477500Y-66357500D01*
X124830000Y-19430000D02*
X124830000Y-16770000D01*
X106990000Y-19430000D02*
X124830000Y-19430000D01*
X106990000Y-16770000D02*
X124830000Y-16770000D01*
X106990000Y-19430000D02*
X106990000Y-16770000D01*
X105720000Y-19430000D02*
X104390000Y-19430000D01*
X104390000Y-19430000D02*
X104390000Y-18100000D01*
X102986000Y-19430000D02*
X102986000Y-16770000D01*
X80066000Y-19430000D02*
X102986000Y-19430000D01*
X80066000Y-16770000D02*
X102986000Y-16770000D01*
X80066000Y-19430000D02*
X80066000Y-16770000D01*
X78796000Y-19430000D02*
X77466000Y-19430000D01*
X77466000Y-19430000D02*
X77466000Y-18100000D01*
X107057500Y-67687500D02*
X107057500Y-65027500D01*
X89217500Y-67687500D02*
X107057500Y-67687500D01*
X89217500Y-65027500D02*
X107057500Y-65027500D01*
X89217500Y-67687500D02*
X89217500Y-65027500D01*
X87947500Y-67687500D02*
X86617500Y-67687500D01*
X86617500Y-67687500D02*
X86617500Y-66357500D01*
X93095500Y-52948500D02*
X88185500Y-52948500D01*
X88185500Y-52948500D02*
X88185500Y-62768500D01*
X88185500Y-62768500D02*
X91285500Y-62768500D01*
X91285500Y-62768500D02*
X91285500Y-64168500D01*
X91285500Y-64168500D02*
X93095500Y-64168500D01*
X93095500Y-52948500D02*
X98005500Y-52948500D01*
X98005500Y-52948500D02*
X98005500Y-62768500D01*
X98005500Y-62768500D02*
X94905500Y-62768500D01*
X94905500Y-62768500D02*
X94905500Y-64168500D01*
X94905500Y-64168500D02*
X93095500Y-64168500D01*
X90795500Y-52708500D02*
X87945500Y-52708500D01*
X87945500Y-52708500D02*
X87945500Y-55558500D01*
X84444000Y-46060000D02*
X86244000Y-46060000D01*
X86244000Y-42840000D02*
X83794000Y-42840000D01*
X81142000Y-66888000D02*
X82942000Y-66888000D01*
X82942000Y-63668000D02*
X80492000Y-63668000D01*
X93361000Y-43258000D02*
X92886000Y-43258000D01*
X92886000Y-43258000D02*
X92886000Y-42783000D01*
X96631000Y-39038000D02*
X97106000Y-39038000D01*
X97106000Y-39038000D02*
X97106000Y-39513000D01*
X93361000Y-39038000D02*
X92886000Y-39038000D01*
X92886000Y-39038000D02*
X92886000Y-39513000D01*
X96631000Y-43258000D02*
X97106000Y-43258000D01*
X90621500Y-38446000D02*
X90621500Y-37246000D01*
X88771500Y-38446000D02*
X90621500Y-38446000D01*
X88771500Y-37246000D02*
X90621500Y-37246000D01*
X96802500Y-47364000D02*
X95602500Y-47364000D01*
X96802500Y-49214000D02*
X96802500Y-47364000D01*
X95602500Y-49214000D02*
X95602500Y-47364000D01*
X95342000Y-47364000D02*
X94142000Y-47364000D01*
X95342000Y-49214000D02*
X95342000Y-47364000D01*
X94142000Y-49214000D02*
X94142000Y-47364000D01*
X115795500Y-63316500D02*
X116995500Y-63316500D01*
X115795500Y-61466500D02*
X115795500Y-63316500D01*
X116995500Y-61466500D02*
X116995500Y-63316500D01*
X103648252Y-30618500D02*
X103125748Y-30618500D01*
X103648252Y-29198500D02*
X103125748Y-29198500D01*
X89283000Y-44151733D02*
X89283000Y-44494267D01*
X88263000Y-44151733D02*
X88263000Y-44494267D01*
X92077000Y-37992233D02*
X92077000Y-38334767D01*
X91057000Y-37992233D02*
X91057000Y-38334767D01*
X90930000Y-43097267D02*
X90930000Y-42754733D01*
X91950000Y-43097267D02*
X91950000Y-42754733D01*
X92708000Y-48431267D02*
X92708000Y-48088733D01*
X93728000Y-48431267D02*
X93728000Y-48088733D01*
X98540500Y-40647252D02*
X98540500Y-40124748D01*
X99960500Y-40647252D02*
X99960500Y-40124748D01*
X115882267Y-60454000D02*
X115539733Y-60454000D01*
X115882267Y-59434000D02*
X115539733Y-59434000D01*
X106787767Y-64200500D02*
X106445233Y-64200500D01*
X106787767Y-63180500D02*
X106445233Y-63180500D01*
X114298000Y-62591767D02*
X114298000Y-62249233D01*
X115318000Y-62591767D02*
X115318000Y-62249233D01*
X105708500Y-55137000D02*
X103358500Y-55137000D01*
X98888500Y-55137000D02*
X101238500Y-55137000D01*
X98888500Y-60892563D02*
X98888500Y-55137000D01*
X105708500Y-60892563D02*
X105708500Y-55137000D01*
X104644063Y-61957000D02*
X103358500Y-61957000D01*
X99952937Y-61957000D02*
X101238500Y-61957000D01*
X99952937Y-61957000D02*
X98888500Y-60892563D01*
X104644063Y-61957000D02*
X105708500Y-60892563D01*
X100451000Y-62984500D02*
X100451000Y-62197000D01*
X100057250Y-62590750D02*
X100844750Y-62590750D01*
X111123000Y-62591767D02*
X111123000Y-62249233D01*
X112143000Y-62591767D02*
X112143000Y-62249233D01*
D10*
X89098380Y-22726857D02*
X88622190Y-23060190D01*
X89098380Y-23298285D02*
X88098380Y-23298285D01*
X88098380Y-22917333D01*
X88146000Y-22822095D01*
X88193619Y-22774476D01*
X88288857Y-22726857D01*
X88431714Y-22726857D01*
X88526952Y-22774476D01*
X88574571Y-22822095D01*
X88622190Y-22917333D01*
X88622190Y-23298285D01*
X88193619Y-22345904D02*
X88146000Y-22298285D01*
X88098380Y-22203047D01*
X88098380Y-21964952D01*
X88146000Y-21869714D01*
X88193619Y-21822095D01*
X88288857Y-21774476D01*
X88384095Y-21774476D01*
X88526952Y-21822095D01*
X89098380Y-22393523D01*
X89098380Y-21774476D01*
X88526952Y-21203047D02*
X88479333Y-21298285D01*
X88431714Y-21345904D01*
X88336476Y-21393523D01*
X88288857Y-21393523D01*
X88193619Y-21345904D01*
X88146000Y-21298285D01*
X88098380Y-21203047D01*
X88098380Y-21012571D01*
X88146000Y-20917333D01*
X88193619Y-20869714D01*
X88288857Y-20822095D01*
X88336476Y-20822095D01*
X88431714Y-20869714D01*
X88479333Y-20917333D01*
X88526952Y-21012571D01*
X88526952Y-21203047D01*
X88574571Y-21298285D01*
X88622190Y-21345904D01*
X88717428Y-21393523D01*
X88907904Y-21393523D01*
X89003142Y-21345904D01*
X89050761Y-21298285D01*
X89098380Y-21203047D01*
X89098380Y-21012571D01*
X89050761Y-20917333D01*
X89003142Y-20869714D01*
X88907904Y-20822095D01*
X88717428Y-20822095D01*
X88622190Y-20869714D01*
X88574571Y-20917333D01*
X88526952Y-21012571D01*
X87828380Y-22740857D02*
X87352190Y-23074190D01*
X87828380Y-23312285D02*
X86828380Y-23312285D01*
X86828380Y-22931333D01*
X86876000Y-22836095D01*
X86923619Y-22788476D01*
X87018857Y-22740857D01*
X87161714Y-22740857D01*
X87256952Y-22788476D01*
X87304571Y-22836095D01*
X87352190Y-22931333D01*
X87352190Y-23312285D01*
X86923619Y-22359904D02*
X86876000Y-22312285D01*
X86828380Y-22217047D01*
X86828380Y-21978952D01*
X86876000Y-21883714D01*
X86923619Y-21836095D01*
X87018857Y-21788476D01*
X87114095Y-21788476D01*
X87256952Y-21836095D01*
X87828380Y-22407523D01*
X87828380Y-21788476D01*
X86828380Y-21455142D02*
X86828380Y-20788476D01*
X87828380Y-21217047D01*
X86558380Y-22740857D02*
X86082190Y-23074190D01*
X86558380Y-23312285D02*
X85558380Y-23312285D01*
X85558380Y-22931333D01*
X85606000Y-22836095D01*
X85653619Y-22788476D01*
X85748857Y-22740857D01*
X85891714Y-22740857D01*
X85986952Y-22788476D01*
X86034571Y-22836095D01*
X86082190Y-22931333D01*
X86082190Y-23312285D01*
X85653619Y-22359904D02*
X85606000Y-22312285D01*
X85558380Y-22217047D01*
X85558380Y-21978952D01*
X85606000Y-21883714D01*
X85653619Y-21836095D01*
X85748857Y-21788476D01*
X85844095Y-21788476D01*
X85986952Y-21836095D01*
X86558380Y-22407523D01*
X86558380Y-21788476D01*
X85558380Y-20931333D02*
X85558380Y-21121809D01*
X85606000Y-21217047D01*
X85653619Y-21264666D01*
X85796476Y-21359904D01*
X85986952Y-21407523D01*
X86367904Y-21407523D01*
X86463142Y-21359904D01*
X86510761Y-21312285D01*
X86558380Y-21217047D01*
X86558380Y-21026571D01*
X86510761Y-20931333D01*
X86463142Y-20883714D01*
X86367904Y-20836095D01*
X86129809Y-20836095D01*
X86034571Y-20883714D01*
X85986952Y-20931333D01*
X85939333Y-21026571D01*
X85939333Y-21217047D01*
X85986952Y-21312285D01*
X86034571Y-21359904D01*
X86129809Y-21407523D01*
X85161380Y-22726857D02*
X84685190Y-23060190D01*
X85161380Y-23298285D02*
X84161380Y-23298285D01*
X84161380Y-22917333D01*
X84209000Y-22822095D01*
X84256619Y-22774476D01*
X84351857Y-22726857D01*
X84494714Y-22726857D01*
X84589952Y-22774476D01*
X84637571Y-22822095D01*
X84685190Y-22917333D01*
X84685190Y-23298285D01*
X84256619Y-22345904D02*
X84209000Y-22298285D01*
X84161380Y-22203047D01*
X84161380Y-21964952D01*
X84209000Y-21869714D01*
X84256619Y-21822095D01*
X84351857Y-21774476D01*
X84447095Y-21774476D01*
X84589952Y-21822095D01*
X85161380Y-22393523D01*
X85161380Y-21774476D01*
X84161380Y-20869714D02*
X84161380Y-21345904D01*
X84637571Y-21393523D01*
X84589952Y-21345904D01*
X84542333Y-21250666D01*
X84542333Y-21012571D01*
X84589952Y-20917333D01*
X84637571Y-20869714D01*
X84732809Y-20822095D01*
X84970904Y-20822095D01*
X85066142Y-20869714D01*
X85113761Y-20917333D01*
X85161380Y-21012571D01*
X85161380Y-21250666D01*
X85113761Y-21345904D01*
X85066142Y-21393523D01*
X83891380Y-22726857D02*
X83415190Y-23060190D01*
X83891380Y-23298285D02*
X82891380Y-23298285D01*
X82891380Y-22917333D01*
X82939000Y-22822095D01*
X82986619Y-22774476D01*
X83081857Y-22726857D01*
X83224714Y-22726857D01*
X83319952Y-22774476D01*
X83367571Y-22822095D01*
X83415190Y-22917333D01*
X83415190Y-23298285D01*
X82986619Y-22345904D02*
X82939000Y-22298285D01*
X82891380Y-22203047D01*
X82891380Y-21964952D01*
X82939000Y-21869714D01*
X82986619Y-21822095D01*
X83081857Y-21774476D01*
X83177095Y-21774476D01*
X83319952Y-21822095D01*
X83891380Y-22393523D01*
X83891380Y-21774476D01*
X83224714Y-20917333D02*
X83891380Y-20917333D01*
X82843761Y-21155428D02*
X83558047Y-21393523D01*
X83558047Y-20774476D01*
X82621380Y-22726857D02*
X82145190Y-23060190D01*
X82621380Y-23298285D02*
X81621380Y-23298285D01*
X81621380Y-22917333D01*
X81669000Y-22822095D01*
X81716619Y-22774476D01*
X81811857Y-22726857D01*
X81954714Y-22726857D01*
X82049952Y-22774476D01*
X82097571Y-22822095D01*
X82145190Y-22917333D01*
X82145190Y-23298285D01*
X81716619Y-22345904D02*
X81669000Y-22298285D01*
X81621380Y-22203047D01*
X81621380Y-21964952D01*
X81669000Y-21869714D01*
X81716619Y-21822095D01*
X81811857Y-21774476D01*
X81907095Y-21774476D01*
X82049952Y-21822095D01*
X82621380Y-22393523D01*
X82621380Y-21774476D01*
X81621380Y-21441142D02*
X81621380Y-20822095D01*
X82002333Y-21155428D01*
X82002333Y-21012571D01*
X82049952Y-20917333D01*
X82097571Y-20869714D01*
X82192809Y-20822095D01*
X82430904Y-20822095D01*
X82526142Y-20869714D01*
X82573761Y-20917333D01*
X82621380Y-21012571D01*
X82621380Y-21298285D01*
X82573761Y-21393523D01*
X82526142Y-21441142D01*
X108331095Y-25287380D02*
X108331095Y-26096904D01*
X108378714Y-26192142D01*
X108426333Y-26239761D01*
X108521571Y-26287380D01*
X108712047Y-26287380D01*
X108807285Y-26239761D01*
X108854904Y-26192142D01*
X108902523Y-26096904D01*
X108902523Y-25287380D01*
X109902523Y-26287380D02*
X109331095Y-26287380D01*
X109616809Y-26287380D02*
X109616809Y-25287380D01*
X109521571Y-25430238D01*
X109426333Y-25525476D01*
X109331095Y-25573095D01*
X114625380Y-22541357D02*
X114149190Y-22874690D01*
X114625380Y-23112785D02*
X113625380Y-23112785D01*
X113625380Y-22731833D01*
X113673000Y-22636595D01*
X113720619Y-22588976D01*
X113815857Y-22541357D01*
X113958714Y-22541357D01*
X114053952Y-22588976D01*
X114101571Y-22636595D01*
X114149190Y-22731833D01*
X114149190Y-23112785D01*
X113720619Y-22160404D02*
X113673000Y-22112785D01*
X113625380Y-22017547D01*
X113625380Y-21779452D01*
X113673000Y-21684214D01*
X113720619Y-21636595D01*
X113815857Y-21588976D01*
X113911095Y-21588976D01*
X114053952Y-21636595D01*
X114625380Y-22208023D01*
X114625380Y-21588976D01*
X113720619Y-21208023D02*
X113673000Y-21160404D01*
X113625380Y-21065166D01*
X113625380Y-20827071D01*
X113673000Y-20731833D01*
X113720619Y-20684214D01*
X113815857Y-20636595D01*
X113911095Y-20636595D01*
X114053952Y-20684214D01*
X114625380Y-21255642D01*
X114625380Y-20636595D01*
X113101380Y-22486857D02*
X112625190Y-22820190D01*
X113101380Y-23058285D02*
X112101380Y-23058285D01*
X112101380Y-22677333D01*
X112149000Y-22582095D01*
X112196619Y-22534476D01*
X112291857Y-22486857D01*
X112434714Y-22486857D01*
X112529952Y-22534476D01*
X112577571Y-22582095D01*
X112625190Y-22677333D01*
X112625190Y-23058285D01*
X112196619Y-22105904D02*
X112149000Y-22058285D01*
X112101380Y-21963047D01*
X112101380Y-21724952D01*
X112149000Y-21629714D01*
X112196619Y-21582095D01*
X112291857Y-21534476D01*
X112387095Y-21534476D01*
X112529952Y-21582095D01*
X113101380Y-22153523D01*
X113101380Y-21534476D01*
X113101380Y-20582095D02*
X113101380Y-21153523D01*
X113101380Y-20867809D02*
X112101380Y-20867809D01*
X112244238Y-20963047D01*
X112339476Y-21058285D01*
X112387095Y-21153523D01*
X104465380Y-22550357D02*
X103989190Y-22883690D01*
X104465380Y-23121785D02*
X103465380Y-23121785D01*
X103465380Y-22740833D01*
X103513000Y-22645595D01*
X103560619Y-22597976D01*
X103655857Y-22550357D01*
X103798714Y-22550357D01*
X103893952Y-22597976D01*
X103941571Y-22645595D01*
X103989190Y-22740833D01*
X103989190Y-23121785D01*
X103560619Y-22169404D02*
X103513000Y-22121785D01*
X103465380Y-22026547D01*
X103465380Y-21788452D01*
X103513000Y-21693214D01*
X103560619Y-21645595D01*
X103655857Y-21597976D01*
X103751095Y-21597976D01*
X103893952Y-21645595D01*
X104465380Y-22217023D01*
X104465380Y-21597976D01*
X103465380Y-20978928D02*
X103465380Y-20883690D01*
X103513000Y-20788452D01*
X103560619Y-20740833D01*
X103655857Y-20693214D01*
X103846333Y-20645595D01*
X104084428Y-20645595D01*
X104274904Y-20693214D01*
X104370142Y-20740833D01*
X104417761Y-20788452D01*
X104465380Y-20883690D01*
X104465380Y-20978928D01*
X104417761Y-21074166D01*
X104370142Y-21121785D01*
X104274904Y-21169404D01*
X104084428Y-21217023D01*
X103846333Y-21217023D01*
X103655857Y-21169404D01*
X103560619Y-21121785D01*
X103513000Y-21074166D01*
X103465380Y-20978928D01*
X95623142Y-29027380D02*
X95289809Y-28551190D01*
X95051714Y-29027380D02*
X95051714Y-28027380D01*
X95432666Y-28027380D01*
X95527904Y-28075000D01*
X95575523Y-28122619D01*
X95623142Y-28217857D01*
X95623142Y-28360714D01*
X95575523Y-28455952D01*
X95527904Y-28503571D01*
X95432666Y-28551190D01*
X95051714Y-28551190D01*
X96575523Y-29027380D02*
X96004095Y-29027380D01*
X96289809Y-29027380D02*
X96289809Y-28027380D01*
X96194571Y-28170238D01*
X96099333Y-28265476D01*
X96004095Y-28313095D01*
X97051714Y-29027380D02*
X97242190Y-29027380D01*
X97337428Y-28979761D01*
X97385047Y-28932142D01*
X97480285Y-28789285D01*
X97527904Y-28598809D01*
X97527904Y-28217857D01*
X97480285Y-28122619D01*
X97432666Y-28075000D01*
X97337428Y-28027380D01*
X97146952Y-28027380D01*
X97051714Y-28075000D01*
X97004095Y-28122619D01*
X96956476Y-28217857D01*
X96956476Y-28455952D01*
X97004095Y-28551190D01*
X97051714Y-28598809D01*
X97146952Y-28646428D01*
X97337428Y-28646428D01*
X97432666Y-28598809D01*
X97480285Y-28551190D01*
X97527904Y-28455952D01*
X98934142Y-32518880D02*
X98600809Y-32042690D01*
X98362714Y-32518880D02*
X98362714Y-31518880D01*
X98743666Y-31518880D01*
X98838904Y-31566500D01*
X98886523Y-31614119D01*
X98934142Y-31709357D01*
X98934142Y-31852214D01*
X98886523Y-31947452D01*
X98838904Y-31995071D01*
X98743666Y-32042690D01*
X98362714Y-32042690D01*
X99886523Y-32518880D02*
X99315095Y-32518880D01*
X99600809Y-32518880D02*
X99600809Y-31518880D01*
X99505571Y-31661738D01*
X99410333Y-31756976D01*
X99315095Y-31804595D01*
X100457952Y-31947452D02*
X100362714Y-31899833D01*
X100315095Y-31852214D01*
X100267476Y-31756976D01*
X100267476Y-31709357D01*
X100315095Y-31614119D01*
X100362714Y-31566500D01*
X100457952Y-31518880D01*
X100648428Y-31518880D01*
X100743666Y-31566500D01*
X100791285Y-31614119D01*
X100838904Y-31709357D01*
X100838904Y-31756976D01*
X100791285Y-31852214D01*
X100743666Y-31899833D01*
X100648428Y-31947452D01*
X100457952Y-31947452D01*
X100362714Y-31995071D01*
X100315095Y-32042690D01*
X100267476Y-32137928D01*
X100267476Y-32328404D01*
X100315095Y-32423642D01*
X100362714Y-32471261D01*
X100457952Y-32518880D01*
X100648428Y-32518880D01*
X100743666Y-32471261D01*
X100791285Y-32423642D01*
X100838904Y-32328404D01*
X100838904Y-32137928D01*
X100791285Y-32042690D01*
X100743666Y-31995071D01*
X100648428Y-31947452D01*
X98925142Y-25281880D02*
X98591809Y-24805690D01*
X98353714Y-25281880D02*
X98353714Y-24281880D01*
X98734666Y-24281880D01*
X98829904Y-24329500D01*
X98877523Y-24377119D01*
X98925142Y-24472357D01*
X98925142Y-24615214D01*
X98877523Y-24710452D01*
X98829904Y-24758071D01*
X98734666Y-24805690D01*
X98353714Y-24805690D01*
X99877523Y-25281880D02*
X99306095Y-25281880D01*
X99591809Y-25281880D02*
X99591809Y-24281880D01*
X99496571Y-24424738D01*
X99401333Y-24519976D01*
X99306095Y-24567595D01*
X100210857Y-24281880D02*
X100877523Y-24281880D01*
X100448952Y-25281880D01*
X88130142Y-48204380D02*
X87796809Y-47728190D01*
X87558714Y-48204380D02*
X87558714Y-47204380D01*
X87939666Y-47204380D01*
X88034904Y-47252000D01*
X88082523Y-47299619D01*
X88130142Y-47394857D01*
X88130142Y-47537714D01*
X88082523Y-47632952D01*
X88034904Y-47680571D01*
X87939666Y-47728190D01*
X87558714Y-47728190D01*
X89082523Y-48204380D02*
X88511095Y-48204380D01*
X88796809Y-48204380D02*
X88796809Y-47204380D01*
X88701571Y-47347238D01*
X88606333Y-47442476D01*
X88511095Y-47490095D01*
X89939666Y-47204380D02*
X89749190Y-47204380D01*
X89653952Y-47252000D01*
X89606333Y-47299619D01*
X89511095Y-47442476D01*
X89463476Y-47632952D01*
X89463476Y-48013904D01*
X89511095Y-48109142D01*
X89558714Y-48156761D01*
X89653952Y-48204380D01*
X89844428Y-48204380D01*
X89939666Y-48156761D01*
X89987285Y-48109142D01*
X90034904Y-48013904D01*
X90034904Y-47775809D01*
X89987285Y-47680571D01*
X89939666Y-47632952D01*
X89844428Y-47585333D01*
X89653952Y-47585333D01*
X89558714Y-47632952D01*
X89511095Y-47680571D01*
X89463476Y-47775809D01*
X84193142Y-62301380D02*
X83859809Y-61825190D01*
X83621714Y-62301380D02*
X83621714Y-61301380D01*
X84002666Y-61301380D01*
X84097904Y-61349000D01*
X84145523Y-61396619D01*
X84193142Y-61491857D01*
X84193142Y-61634714D01*
X84145523Y-61729952D01*
X84097904Y-61777571D01*
X84002666Y-61825190D01*
X83621714Y-61825190D01*
X85145523Y-62301380D02*
X84574095Y-62301380D01*
X84859809Y-62301380D02*
X84859809Y-61301380D01*
X84764571Y-61444238D01*
X84669333Y-61539476D01*
X84574095Y-61587095D01*
X86050285Y-61301380D02*
X85574095Y-61301380D01*
X85526476Y-61777571D01*
X85574095Y-61729952D01*
X85669333Y-61682333D01*
X85907428Y-61682333D01*
X86002666Y-61729952D01*
X86050285Y-61777571D01*
X86097904Y-61872809D01*
X86097904Y-62110904D01*
X86050285Y-62206142D01*
X86002666Y-62253761D01*
X85907428Y-62301380D01*
X85669333Y-62301380D01*
X85574095Y-62253761D01*
X85526476Y-62206142D01*
X88130142Y-31440380D02*
X87796809Y-30964190D01*
X87558714Y-31440380D02*
X87558714Y-30440380D01*
X87939666Y-30440380D01*
X88034904Y-30488000D01*
X88082523Y-30535619D01*
X88130142Y-30630857D01*
X88130142Y-30773714D01*
X88082523Y-30868952D01*
X88034904Y-30916571D01*
X87939666Y-30964190D01*
X87558714Y-30964190D01*
X89082523Y-31440380D02*
X88511095Y-31440380D01*
X88796809Y-31440380D02*
X88796809Y-30440380D01*
X88701571Y-30583238D01*
X88606333Y-30678476D01*
X88511095Y-30726095D01*
X89939666Y-30773714D02*
X89939666Y-31440380D01*
X89701571Y-30392761D02*
X89463476Y-31107047D01*
X90082523Y-31107047D01*
X88130142Y-29916380D02*
X87796809Y-29440190D01*
X87558714Y-29916380D02*
X87558714Y-28916380D01*
X87939666Y-28916380D01*
X88034904Y-28964000D01*
X88082523Y-29011619D01*
X88130142Y-29106857D01*
X88130142Y-29249714D01*
X88082523Y-29344952D01*
X88034904Y-29392571D01*
X87939666Y-29440190D01*
X87558714Y-29440190D01*
X89082523Y-29916380D02*
X88511095Y-29916380D01*
X88796809Y-29916380D02*
X88796809Y-28916380D01*
X88701571Y-29059238D01*
X88606333Y-29154476D01*
X88511095Y-29202095D01*
X89415857Y-28916380D02*
X90034904Y-28916380D01*
X89701571Y-29297333D01*
X89844428Y-29297333D01*
X89939666Y-29344952D01*
X89987285Y-29392571D01*
X90034904Y-29487809D01*
X90034904Y-29725904D01*
X89987285Y-29821142D01*
X89939666Y-29868761D01*
X89844428Y-29916380D01*
X89558714Y-29916380D01*
X89463476Y-29868761D01*
X89415857Y-29821142D01*
X87876142Y-41854380D02*
X87542809Y-41378190D01*
X87304714Y-41854380D02*
X87304714Y-40854380D01*
X87685666Y-40854380D01*
X87780904Y-40902000D01*
X87828523Y-40949619D01*
X87876142Y-41044857D01*
X87876142Y-41187714D01*
X87828523Y-41282952D01*
X87780904Y-41330571D01*
X87685666Y-41378190D01*
X87304714Y-41378190D01*
X88828523Y-41854380D02*
X88257095Y-41854380D01*
X88542809Y-41854380D02*
X88542809Y-40854380D01*
X88447571Y-40997238D01*
X88352333Y-41092476D01*
X88257095Y-41140095D01*
X89209476Y-40949619D02*
X89257095Y-40902000D01*
X89352333Y-40854380D01*
X89590428Y-40854380D01*
X89685666Y-40902000D01*
X89733285Y-40949619D01*
X89780904Y-41044857D01*
X89780904Y-41140095D01*
X89733285Y-41282952D01*
X89161857Y-41854380D01*
X89780904Y-41854380D01*
X87876142Y-40330380D02*
X87542809Y-39854190D01*
X87304714Y-40330380D02*
X87304714Y-39330380D01*
X87685666Y-39330380D01*
X87780904Y-39378000D01*
X87828523Y-39425619D01*
X87876142Y-39520857D01*
X87876142Y-39663714D01*
X87828523Y-39758952D01*
X87780904Y-39806571D01*
X87685666Y-39854190D01*
X87304714Y-39854190D01*
X88828523Y-40330380D02*
X88257095Y-40330380D01*
X88542809Y-40330380D02*
X88542809Y-39330380D01*
X88447571Y-39473238D01*
X88352333Y-39568476D01*
X88257095Y-39616095D01*
X89780904Y-40330380D02*
X89209476Y-40330380D01*
X89495190Y-40330380D02*
X89495190Y-39330380D01*
X89399952Y-39473238D01*
X89304714Y-39568476D01*
X89209476Y-39616095D01*
X83383380Y-55252857D02*
X82907190Y-55586190D01*
X83383380Y-55824285D02*
X82383380Y-55824285D01*
X82383380Y-55443333D01*
X82431000Y-55348095D01*
X82478619Y-55300476D01*
X82573857Y-55252857D01*
X82716714Y-55252857D01*
X82811952Y-55300476D01*
X82859571Y-55348095D01*
X82907190Y-55443333D01*
X82907190Y-55824285D01*
X83383380Y-54300476D02*
X83383380Y-54871904D01*
X83383380Y-54586190D02*
X82383380Y-54586190D01*
X82526238Y-54681428D01*
X82621476Y-54776666D01*
X82669095Y-54871904D01*
X82383380Y-53681428D02*
X82383380Y-53586190D01*
X82431000Y-53490952D01*
X82478619Y-53443333D01*
X82573857Y-53395714D01*
X82764333Y-53348095D01*
X83002428Y-53348095D01*
X83192904Y-53395714D01*
X83288142Y-53443333D01*
X83335761Y-53490952D01*
X83383380Y-53586190D01*
X83383380Y-53681428D01*
X83335761Y-53776666D01*
X83288142Y-53824285D01*
X83192904Y-53871904D01*
X83002428Y-53919523D01*
X82764333Y-53919523D01*
X82573857Y-53871904D01*
X82478619Y-53824285D01*
X82431000Y-53776666D01*
X82383380Y-53681428D01*
X85177333Y-52108380D02*
X84844000Y-51632190D01*
X84605904Y-52108380D02*
X84605904Y-51108380D01*
X84986857Y-51108380D01*
X85082095Y-51156000D01*
X85129714Y-51203619D01*
X85177333Y-51298857D01*
X85177333Y-51441714D01*
X85129714Y-51536952D01*
X85082095Y-51584571D01*
X84986857Y-51632190D01*
X84605904Y-51632190D01*
X85653523Y-52108380D02*
X85844000Y-52108380D01*
X85939238Y-52060761D01*
X85986857Y-52013142D01*
X86082095Y-51870285D01*
X86129714Y-51679809D01*
X86129714Y-51298857D01*
X86082095Y-51203619D01*
X86034476Y-51156000D01*
X85939238Y-51108380D01*
X85748761Y-51108380D01*
X85653523Y-51156000D01*
X85605904Y-51203619D01*
X85558285Y-51298857D01*
X85558285Y-51536952D01*
X85605904Y-51632190D01*
X85653523Y-51679809D01*
X85748761Y-51727428D01*
X85939238Y-51727428D01*
X86034476Y-51679809D01*
X86082095Y-51632190D01*
X86129714Y-51536952D01*
X96624380Y-45736166D02*
X96148190Y-46069500D01*
X96624380Y-46307595D02*
X95624380Y-46307595D01*
X95624380Y-45926642D01*
X95672000Y-45831404D01*
X95719619Y-45783785D01*
X95814857Y-45736166D01*
X95957714Y-45736166D01*
X96052952Y-45783785D01*
X96100571Y-45831404D01*
X96148190Y-45926642D01*
X96148190Y-46307595D01*
X96052952Y-45164738D02*
X96005333Y-45259976D01*
X95957714Y-45307595D01*
X95862476Y-45355214D01*
X95814857Y-45355214D01*
X95719619Y-45307595D01*
X95672000Y-45259976D01*
X95624380Y-45164738D01*
X95624380Y-44974261D01*
X95672000Y-44879023D01*
X95719619Y-44831404D01*
X95814857Y-44783785D01*
X95862476Y-44783785D01*
X95957714Y-44831404D01*
X96005333Y-44879023D01*
X96052952Y-44974261D01*
X96052952Y-45164738D01*
X96100571Y-45259976D01*
X96148190Y-45307595D01*
X96243428Y-45355214D01*
X96433904Y-45355214D01*
X96529142Y-45307595D01*
X96576761Y-45259976D01*
X96624380Y-45164738D01*
X96624380Y-44974261D01*
X96576761Y-44879023D01*
X96529142Y-44831404D01*
X96433904Y-44783785D01*
X96243428Y-44783785D01*
X96148190Y-44831404D01*
X96100571Y-44879023D01*
X96052952Y-44974261D01*
X118451333Y-58872380D02*
X118118000Y-58396190D01*
X117879904Y-58872380D02*
X117879904Y-57872380D01*
X118260857Y-57872380D01*
X118356095Y-57920000D01*
X118403714Y-57967619D01*
X118451333Y-58062857D01*
X118451333Y-58205714D01*
X118403714Y-58300952D01*
X118356095Y-58348571D01*
X118260857Y-58396190D01*
X117879904Y-58396190D01*
X119308476Y-58205714D02*
X119308476Y-58872380D01*
X119070380Y-57824761D02*
X118832285Y-58539047D01*
X119451333Y-58539047D01*
X118451333Y-57348380D02*
X118118000Y-56872190D01*
X117879904Y-57348380D02*
X117879904Y-56348380D01*
X118260857Y-56348380D01*
X118356095Y-56396000D01*
X118403714Y-56443619D01*
X118451333Y-56538857D01*
X118451333Y-56681714D01*
X118403714Y-56776952D01*
X118356095Y-56824571D01*
X118260857Y-56872190D01*
X117879904Y-56872190D01*
X118784666Y-56348380D02*
X119403714Y-56348380D01*
X119070380Y-56729333D01*
X119213238Y-56729333D01*
X119308476Y-56776952D01*
X119356095Y-56824571D01*
X119403714Y-56919809D01*
X119403714Y-57157904D01*
X119356095Y-57253142D01*
X119308476Y-57300761D01*
X119213238Y-57348380D01*
X118927523Y-57348380D01*
X118832285Y-57300761D01*
X118784666Y-57253142D01*
X113736380Y-59983666D02*
X113260190Y-60317000D01*
X113736380Y-60555095D02*
X112736380Y-60555095D01*
X112736380Y-60174142D01*
X112784000Y-60078904D01*
X112831619Y-60031285D01*
X112926857Y-59983666D01*
X113069714Y-59983666D01*
X113164952Y-60031285D01*
X113212571Y-60078904D01*
X113260190Y-60174142D01*
X113260190Y-60555095D01*
X112831619Y-59602714D02*
X112784000Y-59555095D01*
X112736380Y-59459857D01*
X112736380Y-59221761D01*
X112784000Y-59126523D01*
X112831619Y-59078904D01*
X112926857Y-59031285D01*
X113022095Y-59031285D01*
X113164952Y-59078904D01*
X113736380Y-59650333D01*
X113736380Y-59031285D01*
X110307380Y-59983666D02*
X109831190Y-60317000D01*
X110307380Y-60555095D02*
X109307380Y-60555095D01*
X109307380Y-60174142D01*
X109355000Y-60078904D01*
X109402619Y-60031285D01*
X109497857Y-59983666D01*
X109640714Y-59983666D01*
X109735952Y-60031285D01*
X109783571Y-60078904D01*
X109831190Y-60174142D01*
X109831190Y-60555095D01*
X110307380Y-59031285D02*
X110307380Y-59602714D01*
X110307380Y-59317000D02*
X109307380Y-59317000D01*
X109450238Y-59412238D01*
X109545476Y-59507476D01*
X109593095Y-59602714D01*
X73564761Y-34202619D02*
X73469523Y-34155000D01*
X73374285Y-34059761D01*
X73231428Y-33916904D01*
X73136190Y-33869285D01*
X73040952Y-33869285D01*
X73088571Y-34107380D02*
X72993333Y-34059761D01*
X72898095Y-33964523D01*
X72850476Y-33774047D01*
X72850476Y-33440714D01*
X72898095Y-33250238D01*
X72993333Y-33155000D01*
X73088571Y-33107380D01*
X73279047Y-33107380D01*
X73374285Y-33155000D01*
X73469523Y-33250238D01*
X73517142Y-33440714D01*
X73517142Y-33774047D01*
X73469523Y-33964523D01*
X73374285Y-34059761D01*
X73279047Y-34107380D01*
X73088571Y-34107380D01*
X74374285Y-33107380D02*
X74183809Y-33107380D01*
X74088571Y-33155000D01*
X74040952Y-33202619D01*
X73945714Y-33345476D01*
X73898095Y-33535952D01*
X73898095Y-33916904D01*
X73945714Y-34012142D01*
X73993333Y-34059761D01*
X74088571Y-34107380D01*
X74279047Y-34107380D01*
X74374285Y-34059761D01*
X74421904Y-34012142D01*
X74469523Y-33916904D01*
X74469523Y-33678809D01*
X74421904Y-33583571D01*
X74374285Y-33535952D01*
X74279047Y-33488333D01*
X74088571Y-33488333D01*
X73993333Y-33535952D01*
X73945714Y-33583571D01*
X73898095Y-33678809D01*
X73437761Y-28233619D02*
X73342523Y-28186000D01*
X73247285Y-28090761D01*
X73104428Y-27947904D01*
X73009190Y-27900285D01*
X72913952Y-27900285D01*
X72961571Y-28138380D02*
X72866333Y-28090761D01*
X72771095Y-27995523D01*
X72723476Y-27805047D01*
X72723476Y-27471714D01*
X72771095Y-27281238D01*
X72866333Y-27186000D01*
X72961571Y-27138380D01*
X73152047Y-27138380D01*
X73247285Y-27186000D01*
X73342523Y-27281238D01*
X73390142Y-27471714D01*
X73390142Y-27805047D01*
X73342523Y-27995523D01*
X73247285Y-28090761D01*
X73152047Y-28138380D01*
X72961571Y-28138380D01*
X74294904Y-27138380D02*
X73818714Y-27138380D01*
X73771095Y-27614571D01*
X73818714Y-27566952D01*
X73913952Y-27519333D01*
X74152047Y-27519333D01*
X74247285Y-27566952D01*
X74294904Y-27614571D01*
X74342523Y-27709809D01*
X74342523Y-27947904D01*
X74294904Y-28043142D01*
X74247285Y-28090761D01*
X74152047Y-28138380D01*
X73913952Y-28138380D01*
X73818714Y-28090761D01*
X73771095Y-28043142D01*
X73691761Y-46394619D02*
X73596523Y-46347000D01*
X73501285Y-46251761D01*
X73358428Y-46108904D01*
X73263190Y-46061285D01*
X73167952Y-46061285D01*
X73215571Y-46299380D02*
X73120333Y-46251761D01*
X73025095Y-46156523D01*
X72977476Y-45966047D01*
X72977476Y-45632714D01*
X73025095Y-45442238D01*
X73120333Y-45347000D01*
X73215571Y-45299380D01*
X73406047Y-45299380D01*
X73501285Y-45347000D01*
X73596523Y-45442238D01*
X73644142Y-45632714D01*
X73644142Y-45966047D01*
X73596523Y-46156523D01*
X73501285Y-46251761D01*
X73406047Y-46299380D01*
X73215571Y-46299380D01*
X74501285Y-45632714D02*
X74501285Y-46299380D01*
X74263190Y-45251761D02*
X74025095Y-45966047D01*
X74644142Y-45966047D01*
X73310761Y-40425619D02*
X73215523Y-40378000D01*
X73120285Y-40282761D01*
X72977428Y-40139904D01*
X72882190Y-40092285D01*
X72786952Y-40092285D01*
X72834571Y-40330380D02*
X72739333Y-40282761D01*
X72644095Y-40187523D01*
X72596476Y-39997047D01*
X72596476Y-39663714D01*
X72644095Y-39473238D01*
X72739333Y-39378000D01*
X72834571Y-39330380D01*
X73025047Y-39330380D01*
X73120285Y-39378000D01*
X73215523Y-39473238D01*
X73263142Y-39663714D01*
X73263142Y-39997047D01*
X73215523Y-40187523D01*
X73120285Y-40282761D01*
X73025047Y-40330380D01*
X72834571Y-40330380D01*
X73596476Y-39330380D02*
X74215523Y-39330380D01*
X73882190Y-39711333D01*
X74025047Y-39711333D01*
X74120285Y-39758952D01*
X74167904Y-39806571D01*
X74215523Y-39901809D01*
X74215523Y-40139904D01*
X74167904Y-40235142D01*
X74120285Y-40282761D01*
X74025047Y-40330380D01*
X73739333Y-40330380D01*
X73644095Y-40282761D01*
X73596476Y-40235142D01*
X78347261Y-62330119D02*
X78252023Y-62282500D01*
X78156785Y-62187261D01*
X78013928Y-62044404D01*
X77918690Y-61996785D01*
X77823452Y-61996785D01*
X77871071Y-62234880D02*
X77775833Y-62187261D01*
X77680595Y-62092023D01*
X77632976Y-61901547D01*
X77632976Y-61568214D01*
X77680595Y-61377738D01*
X77775833Y-61282500D01*
X77871071Y-61234880D01*
X78061547Y-61234880D01*
X78156785Y-61282500D01*
X78252023Y-61377738D01*
X78299642Y-61568214D01*
X78299642Y-61901547D01*
X78252023Y-62092023D01*
X78156785Y-62187261D01*
X78061547Y-62234880D01*
X77871071Y-62234880D01*
X78680595Y-61330119D02*
X78728214Y-61282500D01*
X78823452Y-61234880D01*
X79061547Y-61234880D01*
X79156785Y-61282500D01*
X79204404Y-61330119D01*
X79252023Y-61425357D01*
X79252023Y-61520595D01*
X79204404Y-61663452D01*
X78632976Y-62234880D01*
X79252023Y-62234880D01*
X73691761Y-52617619D02*
X73596523Y-52570000D01*
X73501285Y-52474761D01*
X73358428Y-52331904D01*
X73263190Y-52284285D01*
X73167952Y-52284285D01*
X73215571Y-52522380D02*
X73120333Y-52474761D01*
X73025095Y-52379523D01*
X72977476Y-52189047D01*
X72977476Y-51855714D01*
X73025095Y-51665238D01*
X73120333Y-51570000D01*
X73215571Y-51522380D01*
X73406047Y-51522380D01*
X73501285Y-51570000D01*
X73596523Y-51665238D01*
X73644142Y-51855714D01*
X73644142Y-52189047D01*
X73596523Y-52379523D01*
X73501285Y-52474761D01*
X73406047Y-52522380D01*
X73215571Y-52522380D01*
X74596523Y-52522380D02*
X74025095Y-52522380D01*
X74310809Y-52522380D02*
X74310809Y-51522380D01*
X74215571Y-51665238D01*
X74120333Y-51760476D01*
X74025095Y-51808095D01*
X102464880Y-51593857D02*
X101464880Y-51593857D01*
X102464880Y-51022428D01*
X101464880Y-51022428D01*
X101464880Y-50689095D02*
X101464880Y-50117666D01*
X102464880Y-50403380D02*
X101464880Y-50403380D01*
X102464880Y-49260523D02*
X102464880Y-49831952D01*
X102464880Y-49546238D02*
X101464880Y-49546238D01*
X101607738Y-49641476D01*
X101702976Y-49736714D01*
X101750595Y-49831952D01*
D14*
X66090523Y-46333833D02*
X66997666Y-46333833D01*
X67179095Y-46394309D01*
X67300047Y-46515261D01*
X67360523Y-46696690D01*
X67360523Y-46817642D01*
X66090523Y-45184785D02*
X66090523Y-45426690D01*
X66151000Y-45547642D01*
X66211476Y-45608119D01*
X66392904Y-45729071D01*
X66634809Y-45789547D01*
X67118619Y-45789547D01*
X67239571Y-45729071D01*
X67300047Y-45668595D01*
X67360523Y-45547642D01*
X67360523Y-45305738D01*
X67300047Y-45184785D01*
X67239571Y-45124309D01*
X67118619Y-45063833D01*
X66816238Y-45063833D01*
X66695285Y-45124309D01*
X66634809Y-45184785D01*
X66574333Y-45305738D01*
X66574333Y-45547642D01*
X66634809Y-45668595D01*
X66695285Y-45729071D01*
X66816238Y-45789547D01*
D10*
X83383380Y-42378190D02*
X82383380Y-42378190D01*
X83288142Y-41330571D02*
X83335761Y-41378190D01*
X83383380Y-41521047D01*
X83383380Y-41616285D01*
X83335761Y-41759142D01*
X83240523Y-41854380D01*
X83145285Y-41902000D01*
X82954809Y-41949619D01*
X82811952Y-41949619D01*
X82621476Y-41902000D01*
X82526238Y-41854380D01*
X82431000Y-41759142D01*
X82383380Y-41616285D01*
X82383380Y-41521047D01*
X82431000Y-41378190D01*
X82478619Y-41330571D01*
X82383380Y-40997238D02*
X82383380Y-40378190D01*
X82764333Y-40711523D01*
X82764333Y-40568666D01*
X82811952Y-40473428D01*
X82859571Y-40425809D01*
X82954809Y-40378190D01*
X83192904Y-40378190D01*
X83288142Y-40425809D01*
X83335761Y-40473428D01*
X83383380Y-40568666D01*
X83383380Y-40854380D01*
X83335761Y-40949619D01*
X83288142Y-40997238D01*
X81065809Y-62830380D02*
X81065809Y-61830380D01*
X82113428Y-62735142D02*
X82065809Y-62782761D01*
X81922952Y-62830380D01*
X81827714Y-62830380D01*
X81684857Y-62782761D01*
X81589619Y-62687523D01*
X81542000Y-62592285D01*
X81494380Y-62401809D01*
X81494380Y-62258952D01*
X81542000Y-62068476D01*
X81589619Y-61973238D01*
X81684857Y-61878000D01*
X81827714Y-61830380D01*
X81922952Y-61830380D01*
X82065809Y-61878000D01*
X82113428Y-61925619D01*
X82494380Y-61925619D02*
X82542000Y-61878000D01*
X82637238Y-61830380D01*
X82875333Y-61830380D01*
X82970571Y-61878000D01*
X83018190Y-61925619D01*
X83065809Y-62020857D01*
X83065809Y-62116095D01*
X83018190Y-62258952D01*
X82446761Y-62830380D01*
X83065809Y-62830380D01*
X94019809Y-38298380D02*
X94019809Y-37298380D01*
X95067428Y-38203142D02*
X95019809Y-38250761D01*
X94876952Y-38298380D01*
X94781714Y-38298380D01*
X94638857Y-38250761D01*
X94543619Y-38155523D01*
X94496000Y-38060285D01*
X94448380Y-37869809D01*
X94448380Y-37726952D01*
X94496000Y-37536476D01*
X94543619Y-37441238D01*
X94638857Y-37346000D01*
X94781714Y-37298380D01*
X94876952Y-37298380D01*
X95019809Y-37346000D01*
X95067428Y-37393619D01*
X96019809Y-38298380D02*
X95448380Y-38298380D01*
X95734095Y-38298380D02*
X95734095Y-37298380D01*
X95638857Y-37441238D01*
X95543619Y-37536476D01*
X95448380Y-37584095D01*
X86510904Y-38298380D02*
X86510904Y-37298380D01*
X86749000Y-37298380D01*
X86891857Y-37346000D01*
X86987095Y-37441238D01*
X87034714Y-37536476D01*
X87082333Y-37726952D01*
X87082333Y-37869809D01*
X87034714Y-38060285D01*
X86987095Y-38155523D01*
X86891857Y-38250761D01*
X86749000Y-38298380D01*
X86510904Y-38298380D01*
X87939476Y-37631714D02*
X87939476Y-38298380D01*
X87701380Y-37250761D02*
X87463285Y-37965047D01*
X88082333Y-37965047D01*
X96718380Y-51665095D02*
X95718380Y-51665095D01*
X95718380Y-51427000D01*
X95766000Y-51284142D01*
X95861238Y-51188904D01*
X95956476Y-51141285D01*
X96146952Y-51093666D01*
X96289809Y-51093666D01*
X96480285Y-51141285D01*
X96575523Y-51188904D01*
X96670761Y-51284142D01*
X96718380Y-51427000D01*
X96718380Y-51665095D01*
X95718380Y-50760333D02*
X95718380Y-50141285D01*
X96099333Y-50474619D01*
X96099333Y-50331761D01*
X96146952Y-50236523D01*
X96194571Y-50188904D01*
X96289809Y-50141285D01*
X96527904Y-50141285D01*
X96623142Y-50188904D01*
X96670761Y-50236523D01*
X96718380Y-50331761D01*
X96718380Y-50617476D01*
X96670761Y-50712714D01*
X96623142Y-50760333D01*
X95194380Y-51665095D02*
X94194380Y-51665095D01*
X94194380Y-51427000D01*
X94242000Y-51284142D01*
X94337238Y-51188904D01*
X94432476Y-51141285D01*
X94622952Y-51093666D01*
X94765809Y-51093666D01*
X94956285Y-51141285D01*
X95051523Y-51188904D01*
X95146761Y-51284142D01*
X95194380Y-51427000D01*
X95194380Y-51665095D01*
X94289619Y-50712714D02*
X94242000Y-50665095D01*
X94194380Y-50569857D01*
X94194380Y-50331761D01*
X94242000Y-50236523D01*
X94289619Y-50188904D01*
X94384857Y-50141285D01*
X94480095Y-50141285D01*
X94622952Y-50188904D01*
X95194380Y-50760333D01*
X95194380Y-50141285D01*
X119959380Y-62968095D02*
X118959380Y-62968095D01*
X118959380Y-62730000D01*
X119007000Y-62587142D01*
X119102238Y-62491904D01*
X119197476Y-62444285D01*
X119387952Y-62396666D01*
X119530809Y-62396666D01*
X119721285Y-62444285D01*
X119816523Y-62491904D01*
X119911761Y-62587142D01*
X119959380Y-62730000D01*
X119959380Y-62968095D01*
X119959380Y-61444285D02*
X119959380Y-62015714D01*
X119959380Y-61730000D02*
X118959380Y-61730000D01*
X119102238Y-61825238D01*
X119197476Y-61920476D01*
X119245095Y-62015714D01*
X102744142Y-31915642D02*
X102696523Y-31963261D01*
X102553666Y-32010880D01*
X102458428Y-32010880D01*
X102315571Y-31963261D01*
X102220333Y-31868023D01*
X102172714Y-31772785D01*
X102125095Y-31582309D01*
X102125095Y-31439452D01*
X102172714Y-31248976D01*
X102220333Y-31153738D01*
X102315571Y-31058500D01*
X102458428Y-31010880D01*
X102553666Y-31010880D01*
X102696523Y-31058500D01*
X102744142Y-31106119D01*
X103696523Y-32010880D02*
X103125095Y-32010880D01*
X103410809Y-32010880D02*
X103410809Y-31010880D01*
X103315571Y-31153738D01*
X103220333Y-31248976D01*
X103125095Y-31296595D01*
X104029857Y-31010880D02*
X104696523Y-31010880D01*
X104267952Y-32010880D01*
X90400142Y-44203857D02*
X90447761Y-44251476D01*
X90495380Y-44394333D01*
X90495380Y-44489571D01*
X90447761Y-44632428D01*
X90352523Y-44727666D01*
X90257285Y-44775285D01*
X90066809Y-44822904D01*
X89923952Y-44822904D01*
X89733476Y-44775285D01*
X89638238Y-44727666D01*
X89543000Y-44632428D01*
X89495380Y-44489571D01*
X89495380Y-44394333D01*
X89543000Y-44251476D01*
X89590619Y-44203857D01*
X90495380Y-43251476D02*
X90495380Y-43822904D01*
X90495380Y-43537190D02*
X89495380Y-43537190D01*
X89638238Y-43632428D01*
X89733476Y-43727666D01*
X89781095Y-43822904D01*
X89495380Y-42394333D02*
X89495380Y-42584809D01*
X89543000Y-42680047D01*
X89590619Y-42727666D01*
X89733476Y-42822904D01*
X89923952Y-42870523D01*
X90304904Y-42870523D01*
X90400142Y-42822904D01*
X90447761Y-42775285D01*
X90495380Y-42680047D01*
X90495380Y-42489571D01*
X90447761Y-42394333D01*
X90400142Y-42346714D01*
X90304904Y-42299095D01*
X90066809Y-42299095D01*
X89971571Y-42346714D01*
X89923952Y-42394333D01*
X89876333Y-42489571D01*
X89876333Y-42680047D01*
X89923952Y-42775285D01*
X89971571Y-42822904D01*
X90066809Y-42870523D01*
X92051142Y-35567857D02*
X92098761Y-35615476D01*
X92146380Y-35758333D01*
X92146380Y-35853571D01*
X92098761Y-35996428D01*
X92003523Y-36091666D01*
X91908285Y-36139285D01*
X91717809Y-36186904D01*
X91574952Y-36186904D01*
X91384476Y-36139285D01*
X91289238Y-36091666D01*
X91194000Y-35996428D01*
X91146380Y-35853571D01*
X91146380Y-35758333D01*
X91194000Y-35615476D01*
X91241619Y-35567857D01*
X92146380Y-34615476D02*
X92146380Y-35186904D01*
X92146380Y-34901190D02*
X91146380Y-34901190D01*
X91289238Y-34996428D01*
X91384476Y-35091666D01*
X91432095Y-35186904D01*
X92146380Y-33663095D02*
X92146380Y-34234523D01*
X92146380Y-33948809D02*
X91146380Y-33948809D01*
X91289238Y-34044047D01*
X91384476Y-34139285D01*
X91432095Y-34234523D01*
X91305142Y-45696142D02*
X91257523Y-45743761D01*
X91114666Y-45791380D01*
X91019428Y-45791380D01*
X90876571Y-45743761D01*
X90781333Y-45648523D01*
X90733714Y-45553285D01*
X90686095Y-45362809D01*
X90686095Y-45219952D01*
X90733714Y-45029476D01*
X90781333Y-44934238D01*
X90876571Y-44839000D01*
X91019428Y-44791380D01*
X91114666Y-44791380D01*
X91257523Y-44839000D01*
X91305142Y-44886619D01*
X92257523Y-45791380D02*
X91686095Y-45791380D01*
X91971809Y-45791380D02*
X91971809Y-44791380D01*
X91876571Y-44934238D01*
X91781333Y-45029476D01*
X91686095Y-45077095D01*
X92876571Y-44791380D02*
X92971809Y-44791380D01*
X93067047Y-44839000D01*
X93114666Y-44886619D01*
X93162285Y-44981857D01*
X93209904Y-45172333D01*
X93209904Y-45410428D01*
X93162285Y-45600904D01*
X93114666Y-45696142D01*
X93067047Y-45743761D01*
X92971809Y-45791380D01*
X92876571Y-45791380D01*
X92781333Y-45743761D01*
X92733714Y-45696142D01*
X92686095Y-45600904D01*
X92638476Y-45410428D01*
X92638476Y-45172333D01*
X92686095Y-44981857D01*
X92733714Y-44886619D01*
X92781333Y-44839000D01*
X92876571Y-44791380D01*
X92145142Y-48426666D02*
X92192761Y-48474285D01*
X92240380Y-48617142D01*
X92240380Y-48712380D01*
X92192761Y-48855238D01*
X92097523Y-48950476D01*
X92002285Y-48998095D01*
X91811809Y-49045714D01*
X91668952Y-49045714D01*
X91478476Y-48998095D01*
X91383238Y-48950476D01*
X91288000Y-48855238D01*
X91240380Y-48712380D01*
X91240380Y-48617142D01*
X91288000Y-48474285D01*
X91335619Y-48426666D01*
X92240380Y-47950476D02*
X92240380Y-47760000D01*
X92192761Y-47664761D01*
X92145142Y-47617142D01*
X92002285Y-47521904D01*
X91811809Y-47474285D01*
X91430857Y-47474285D01*
X91335619Y-47521904D01*
X91288000Y-47569523D01*
X91240380Y-47664761D01*
X91240380Y-47855238D01*
X91288000Y-47950476D01*
X91335619Y-47998095D01*
X91430857Y-48045714D01*
X91668952Y-48045714D01*
X91764190Y-47998095D01*
X91811809Y-47950476D01*
X91859428Y-47855238D01*
X91859428Y-47664761D01*
X91811809Y-47569523D01*
X91764190Y-47521904D01*
X91668952Y-47474285D01*
X101322142Y-40552666D02*
X101369761Y-40600285D01*
X101417380Y-40743142D01*
X101417380Y-40838380D01*
X101369761Y-40981238D01*
X101274523Y-41076476D01*
X101179285Y-41124095D01*
X100988809Y-41171714D01*
X100845952Y-41171714D01*
X100655476Y-41124095D01*
X100560238Y-41076476D01*
X100465000Y-40981238D01*
X100417380Y-40838380D01*
X100417380Y-40743142D01*
X100465000Y-40600285D01*
X100512619Y-40552666D01*
X100845952Y-39981238D02*
X100798333Y-40076476D01*
X100750714Y-40124095D01*
X100655476Y-40171714D01*
X100607857Y-40171714D01*
X100512619Y-40124095D01*
X100465000Y-40076476D01*
X100417380Y-39981238D01*
X100417380Y-39790761D01*
X100465000Y-39695523D01*
X100512619Y-39647904D01*
X100607857Y-39600285D01*
X100655476Y-39600285D01*
X100750714Y-39647904D01*
X100798333Y-39695523D01*
X100845952Y-39790761D01*
X100845952Y-39981238D01*
X100893571Y-40076476D01*
X100941190Y-40124095D01*
X101036428Y-40171714D01*
X101226904Y-40171714D01*
X101322142Y-40124095D01*
X101369761Y-40076476D01*
X101417380Y-39981238D01*
X101417380Y-39790761D01*
X101369761Y-39695523D01*
X101322142Y-39647904D01*
X101226904Y-39600285D01*
X101036428Y-39600285D01*
X100941190Y-39647904D01*
X100893571Y-39695523D01*
X100845952Y-39790761D01*
X118324333Y-60301142D02*
X118276714Y-60348761D01*
X118133857Y-60396380D01*
X118038619Y-60396380D01*
X117895761Y-60348761D01*
X117800523Y-60253523D01*
X117752904Y-60158285D01*
X117705285Y-59967809D01*
X117705285Y-59824952D01*
X117752904Y-59634476D01*
X117800523Y-59539238D01*
X117895761Y-59444000D01*
X118038619Y-59396380D01*
X118133857Y-59396380D01*
X118276714Y-59444000D01*
X118324333Y-59491619D01*
X118657666Y-59396380D02*
X119324333Y-59396380D01*
X118895761Y-60396380D01*
X103846333Y-64238142D02*
X103798714Y-64285761D01*
X103655857Y-64333380D01*
X103560619Y-64333380D01*
X103417761Y-64285761D01*
X103322523Y-64190523D01*
X103274904Y-64095285D01*
X103227285Y-63904809D01*
X103227285Y-63761952D01*
X103274904Y-63571476D01*
X103322523Y-63476238D01*
X103417761Y-63381000D01*
X103560619Y-63333380D01*
X103655857Y-63333380D01*
X103798714Y-63381000D01*
X103846333Y-63428619D01*
X104703476Y-63333380D02*
X104513000Y-63333380D01*
X104417761Y-63381000D01*
X104370142Y-63428619D01*
X104274904Y-63571476D01*
X104227285Y-63761952D01*
X104227285Y-64142904D01*
X104274904Y-64238142D01*
X104322523Y-64285761D01*
X104417761Y-64333380D01*
X104608238Y-64333380D01*
X104703476Y-64285761D01*
X104751095Y-64238142D01*
X104798714Y-64142904D01*
X104798714Y-63904809D01*
X104751095Y-63809571D01*
X104703476Y-63761952D01*
X104608238Y-63714333D01*
X104417761Y-63714333D01*
X104322523Y-63761952D01*
X104274904Y-63809571D01*
X104227285Y-63904809D01*
X118467142Y-62523666D02*
X118514761Y-62571285D01*
X118562380Y-62714142D01*
X118562380Y-62809380D01*
X118514761Y-62952238D01*
X118419523Y-63047476D01*
X118324285Y-63095095D01*
X118133809Y-63142714D01*
X117990952Y-63142714D01*
X117800476Y-63095095D01*
X117705238Y-63047476D01*
X117610000Y-62952238D01*
X117562380Y-62809380D01*
X117562380Y-62714142D01*
X117610000Y-62571285D01*
X117657619Y-62523666D01*
X117562380Y-62190333D02*
X117562380Y-61571285D01*
X117943333Y-61904619D01*
X117943333Y-61761761D01*
X117990952Y-61666523D01*
X118038571Y-61618904D01*
X118133809Y-61571285D01*
X118371904Y-61571285D01*
X118467142Y-61618904D01*
X118514761Y-61666523D01*
X118562380Y-61761761D01*
X118562380Y-62047476D01*
X118514761Y-62142714D01*
X118467142Y-62190333D01*
X106910142Y-58586666D02*
X106957761Y-58634285D01*
X107005380Y-58777142D01*
X107005380Y-58872380D01*
X106957761Y-59015238D01*
X106862523Y-59110476D01*
X106767285Y-59158095D01*
X106576809Y-59205714D01*
X106433952Y-59205714D01*
X106243476Y-59158095D01*
X106148238Y-59110476D01*
X106053000Y-59015238D01*
X106005380Y-58872380D01*
X106005380Y-58777142D01*
X106053000Y-58634285D01*
X106100619Y-58586666D01*
X106100619Y-58205714D02*
X106053000Y-58158095D01*
X106005380Y-58062857D01*
X106005380Y-57824761D01*
X106053000Y-57729523D01*
X106100619Y-57681904D01*
X106195857Y-57634285D01*
X106291095Y-57634285D01*
X106433952Y-57681904D01*
X107005380Y-58253333D01*
X107005380Y-57634285D01*
X112117142Y-59983666D02*
X112164761Y-60031285D01*
X112212380Y-60174142D01*
X112212380Y-60269380D01*
X112164761Y-60412238D01*
X112069523Y-60507476D01*
X111974285Y-60555095D01*
X111783809Y-60602714D01*
X111640952Y-60602714D01*
X111450476Y-60555095D01*
X111355238Y-60507476D01*
X111260000Y-60412238D01*
X111212380Y-60269380D01*
X111212380Y-60174142D01*
X111260000Y-60031285D01*
X111307619Y-59983666D01*
X112212380Y-59031285D02*
X112212380Y-59602714D01*
X112212380Y-59317000D02*
X111212380Y-59317000D01*
X111355238Y-59412238D01*
X111450476Y-59507476D01*
X111498095Y-59602714D01*
%LPC*%
G36*
G01*
X99043500Y-21734000D02*
X98568500Y-21734000D01*
G75*
G02*
X98331000Y-21496500I0J237500D01*
G01*
X98331000Y-20921500D01*
G75*
G02*
X98568500Y-20684000I237500J0D01*
G01*
X99043500Y-20684000D01*
G75*
G02*
X99281000Y-20921500I0J-237500D01*
G01*
X99281000Y-21496500D01*
G75*
G02*
X99043500Y-21734000I-237500J0D01*
G01*
G37*
G36*
G01*
X99043500Y-23484000D02*
X98568500Y-23484000D01*
G75*
G02*
X98331000Y-23246500I0J237500D01*
G01*
X98331000Y-22671500D01*
G75*
G02*
X98568500Y-22434000I237500J0D01*
G01*
X99043500Y-22434000D01*
G75*
G02*
X99281000Y-22671500I0J-237500D01*
G01*
X99281000Y-23246500D01*
G75*
G02*
X99043500Y-23484000I-237500J0D01*
G01*
G37*
G36*
G01*
X97519500Y-21734000D02*
X97044500Y-21734000D01*
G75*
G02*
X96807000Y-21496500I0J237500D01*
G01*
X96807000Y-20921500D01*
G75*
G02*
X97044500Y-20684000I237500J0D01*
G01*
X97519500Y-20684000D01*
G75*
G02*
X97757000Y-20921500I0J-237500D01*
G01*
X97757000Y-21496500D01*
G75*
G02*
X97519500Y-21734000I-237500J0D01*
G01*
G37*
G36*
G01*
X97519500Y-23484000D02*
X97044500Y-23484000D01*
G75*
G02*
X96807000Y-23246500I0J237500D01*
G01*
X96807000Y-22671500D01*
G75*
G02*
X97044500Y-22434000I237500J0D01*
G01*
X97519500Y-22434000D01*
G75*
G02*
X97757000Y-22671500I0J-237500D01*
G01*
X97757000Y-23246500D01*
G75*
G02*
X97519500Y-23484000I-237500J0D01*
G01*
G37*
G36*
G01*
X95995500Y-21734000D02*
X95520500Y-21734000D01*
G75*
G02*
X95283000Y-21496500I0J237500D01*
G01*
X95283000Y-20921500D01*
G75*
G02*
X95520500Y-20684000I237500J0D01*
G01*
X95995500Y-20684000D01*
G75*
G02*
X96233000Y-20921500I0J-237500D01*
G01*
X96233000Y-21496500D01*
G75*
G02*
X95995500Y-21734000I-237500J0D01*
G01*
G37*
G36*
G01*
X95995500Y-23484000D02*
X95520500Y-23484000D01*
G75*
G02*
X95283000Y-23246500I0J237500D01*
G01*
X95283000Y-22671500D01*
G75*
G02*
X95520500Y-22434000I237500J0D01*
G01*
X95995500Y-22434000D01*
G75*
G02*
X96233000Y-22671500I0J-237500D01*
G01*
X96233000Y-23246500D01*
G75*
G02*
X95995500Y-23484000I-237500J0D01*
G01*
G37*
G36*
G01*
X94471500Y-21734000D02*
X93996500Y-21734000D01*
G75*
G02*
X93759000Y-21496500I0J237500D01*
G01*
X93759000Y-20921500D01*
G75*
G02*
X93996500Y-20684000I237500J0D01*
G01*
X94471500Y-20684000D01*
G75*
G02*
X94709000Y-20921500I0J-237500D01*
G01*
X94709000Y-21496500D01*
G75*
G02*
X94471500Y-21734000I-237500J0D01*
G01*
G37*
G36*
G01*
X94471500Y-23484000D02*
X93996500Y-23484000D01*
G75*
G02*
X93759000Y-23246500I0J237500D01*
G01*
X93759000Y-22671500D01*
G75*
G02*
X93996500Y-22434000I237500J0D01*
G01*
X94471500Y-22434000D01*
G75*
G02*
X94709000Y-22671500I0J-237500D01*
G01*
X94709000Y-23246500D01*
G75*
G02*
X94471500Y-23484000I-237500J0D01*
G01*
G37*
G36*
G01*
X92947500Y-21734000D02*
X92472500Y-21734000D01*
G75*
G02*
X92235000Y-21496500I0J237500D01*
G01*
X92235000Y-20921500D01*
G75*
G02*
X92472500Y-20684000I237500J0D01*
G01*
X92947500Y-20684000D01*
G75*
G02*
X93185000Y-20921500I0J-237500D01*
G01*
X93185000Y-21496500D01*
G75*
G02*
X92947500Y-21734000I-237500J0D01*
G01*
G37*
G36*
G01*
X92947500Y-23484000D02*
X92472500Y-23484000D01*
G75*
G02*
X92235000Y-23246500I0J237500D01*
G01*
X92235000Y-22671500D01*
G75*
G02*
X92472500Y-22434000I237500J0D01*
G01*
X92947500Y-22434000D01*
G75*
G02*
X93185000Y-22671500I0J-237500D01*
G01*
X93185000Y-23246500D01*
G75*
G02*
X92947500Y-23484000I-237500J0D01*
G01*
G37*
G36*
G01*
X91423500Y-21734000D02*
X90948500Y-21734000D01*
G75*
G02*
X90711000Y-21496500I0J237500D01*
G01*
X90711000Y-20921500D01*
G75*
G02*
X90948500Y-20684000I237500J0D01*
G01*
X91423500Y-20684000D01*
G75*
G02*
X91661000Y-20921500I0J-237500D01*
G01*
X91661000Y-21496500D01*
G75*
G02*
X91423500Y-21734000I-237500J0D01*
G01*
G37*
G36*
G01*
X91423500Y-23484000D02*
X90948500Y-23484000D01*
G75*
G02*
X90711000Y-23246500I0J237500D01*
G01*
X90711000Y-22671500D01*
G75*
G02*
X90948500Y-22434000I237500J0D01*
G01*
X91423500Y-22434000D01*
G75*
G02*
X91661000Y-22671500I0J-237500D01*
G01*
X91661000Y-23246500D01*
G75*
G02*
X91423500Y-23484000I-237500J0D01*
G01*
G37*
D15*
X73970000Y-66360000D03*
X126040000Y-33340000D03*
X126040000Y-61280000D03*
X75240000Y-18100000D03*
G36*
G01*
X110593000Y-27455000D02*
X110593000Y-27155000D01*
G75*
G02*
X110743000Y-27005000I150000J0D01*
G01*
X112393000Y-27005000D01*
G75*
G02*
X112543000Y-27155000I0J-150000D01*
G01*
X112543000Y-27455000D01*
G75*
G02*
X112393000Y-27605000I-150000J0D01*
G01*
X110743000Y-27605000D01*
G75*
G02*
X110593000Y-27455000I0J150000D01*
G01*
G37*
G36*
G01*
X110593000Y-28725000D02*
X110593000Y-28425000D01*
G75*
G02*
X110743000Y-28275000I150000J0D01*
G01*
X112393000Y-28275000D01*
G75*
G02*
X112543000Y-28425000I0J-150000D01*
G01*
X112543000Y-28725000D01*
G75*
G02*
X112393000Y-28875000I-150000J0D01*
G01*
X110743000Y-28875000D01*
G75*
G02*
X110593000Y-28725000I0J150000D01*
G01*
G37*
G36*
G01*
X110593000Y-29995000D02*
X110593000Y-29695000D01*
G75*
G02*
X110743000Y-29545000I150000J0D01*
G01*
X112393000Y-29545000D01*
G75*
G02*
X112543000Y-29695000I0J-150000D01*
G01*
X112543000Y-29995000D01*
G75*
G02*
X112393000Y-30145000I-150000J0D01*
G01*
X110743000Y-30145000D01*
G75*
G02*
X110593000Y-29995000I0J150000D01*
G01*
G37*
G36*
G01*
X110593000Y-31265000D02*
X110593000Y-30965000D01*
G75*
G02*
X110743000Y-30815000I150000J0D01*
G01*
X112393000Y-30815000D01*
G75*
G02*
X112543000Y-30965000I0J-150000D01*
G01*
X112543000Y-31265000D01*
G75*
G02*
X112393000Y-31415000I-150000J0D01*
G01*
X110743000Y-31415000D01*
G75*
G02*
X110593000Y-31265000I0J150000D01*
G01*
G37*
G36*
G01*
X110593000Y-32535000D02*
X110593000Y-32235000D01*
G75*
G02*
X110743000Y-32085000I150000J0D01*
G01*
X112393000Y-32085000D01*
G75*
G02*
X112543000Y-32235000I0J-150000D01*
G01*
X112543000Y-32535000D01*
G75*
G02*
X112393000Y-32685000I-150000J0D01*
G01*
X110743000Y-32685000D01*
G75*
G02*
X110593000Y-32535000I0J150000D01*
G01*
G37*
G36*
G01*
X110593000Y-33805000D02*
X110593000Y-33505000D01*
G75*
G02*
X110743000Y-33355000I150000J0D01*
G01*
X112393000Y-33355000D01*
G75*
G02*
X112543000Y-33505000I0J-150000D01*
G01*
X112543000Y-33805000D01*
G75*
G02*
X112393000Y-33955000I-150000J0D01*
G01*
X110743000Y-33955000D01*
G75*
G02*
X110593000Y-33805000I0J150000D01*
G01*
G37*
G36*
G01*
X110593000Y-35075000D02*
X110593000Y-34775000D01*
G75*
G02*
X110743000Y-34625000I150000J0D01*
G01*
X112393000Y-34625000D01*
G75*
G02*
X112543000Y-34775000I0J-150000D01*
G01*
X112543000Y-35075000D01*
G75*
G02*
X112393000Y-35225000I-150000J0D01*
G01*
X110743000Y-35225000D01*
G75*
G02*
X110593000Y-35075000I0J150000D01*
G01*
G37*
G36*
G01*
X105643000Y-35075000D02*
X105643000Y-34775000D01*
G75*
G02*
X105793000Y-34625000I150000J0D01*
G01*
X107443000Y-34625000D01*
G75*
G02*
X107593000Y-34775000I0J-150000D01*
G01*
X107593000Y-35075000D01*
G75*
G02*
X107443000Y-35225000I-150000J0D01*
G01*
X105793000Y-35225000D01*
G75*
G02*
X105643000Y-35075000I0J150000D01*
G01*
G37*
G36*
G01*
X105643000Y-33805000D02*
X105643000Y-33505000D01*
G75*
G02*
X105793000Y-33355000I150000J0D01*
G01*
X107443000Y-33355000D01*
G75*
G02*
X107593000Y-33505000I0J-150000D01*
G01*
X107593000Y-33805000D01*
G75*
G02*
X107443000Y-33955000I-150000J0D01*
G01*
X105793000Y-33955000D01*
G75*
G02*
X105643000Y-33805000I0J150000D01*
G01*
G37*
G36*
G01*
X105643000Y-32535000D02*
X105643000Y-32235000D01*
G75*
G02*
X105793000Y-32085000I150000J0D01*
G01*
X107443000Y-32085000D01*
G75*
G02*
X107593000Y-32235000I0J-150000D01*
G01*
X107593000Y-32535000D01*
G75*
G02*
X107443000Y-32685000I-150000J0D01*
G01*
X105793000Y-32685000D01*
G75*
G02*
X105643000Y-32535000I0J150000D01*
G01*
G37*
G36*
G01*
X105643000Y-31265000D02*
X105643000Y-30965000D01*
G75*
G02*
X105793000Y-30815000I150000J0D01*
G01*
X107443000Y-30815000D01*
G75*
G02*
X107593000Y-30965000I0J-150000D01*
G01*
X107593000Y-31265000D01*
G75*
G02*
X107443000Y-31415000I-150000J0D01*
G01*
X105793000Y-31415000D01*
G75*
G02*
X105643000Y-31265000I0J150000D01*
G01*
G37*
G36*
G01*
X105643000Y-29995000D02*
X105643000Y-29695000D01*
G75*
G02*
X105793000Y-29545000I150000J0D01*
G01*
X107443000Y-29545000D01*
G75*
G02*
X107593000Y-29695000I0J-150000D01*
G01*
X107593000Y-29995000D01*
G75*
G02*
X107443000Y-30145000I-150000J0D01*
G01*
X105793000Y-30145000D01*
G75*
G02*
X105643000Y-29995000I0J150000D01*
G01*
G37*
G36*
G01*
X105643000Y-28725000D02*
X105643000Y-28425000D01*
G75*
G02*
X105793000Y-28275000I150000J0D01*
G01*
X107443000Y-28275000D01*
G75*
G02*
X107593000Y-28425000I0J-150000D01*
G01*
X107593000Y-28725000D01*
G75*
G02*
X107443000Y-28875000I-150000J0D01*
G01*
X105793000Y-28875000D01*
G75*
G02*
X105643000Y-28725000I0J150000D01*
G01*
G37*
G36*
G01*
X105643000Y-27455000D02*
X105643000Y-27155000D01*
G75*
G02*
X105793000Y-27005000I150000J0D01*
G01*
X107443000Y-27005000D01*
G75*
G02*
X107593000Y-27155000I0J-150000D01*
G01*
X107593000Y-27455000D01*
G75*
G02*
X107443000Y-27605000I-150000J0D01*
G01*
X105793000Y-27605000D01*
G75*
G02*
X105643000Y-27455000I0J150000D01*
G01*
G37*
G36*
G01*
X110357499Y-22348500D02*
X111257501Y-22348500D01*
G75*
G02*
X111507500Y-22598499I0J-249999D01*
G01*
X111507500Y-23248501D01*
G75*
G02*
X111257501Y-23498500I-249999J0D01*
G01*
X110357499Y-23498500D01*
G75*
G02*
X110107500Y-23248501I0J249999D01*
G01*
X110107500Y-22598499D01*
G75*
G02*
X110357499Y-22348500I249999J0D01*
G01*
G37*
G36*
G01*
X110357499Y-20298500D02*
X111257501Y-20298500D01*
G75*
G02*
X111507500Y-20548499I0J-249999D01*
G01*
X111507500Y-21198501D01*
G75*
G02*
X111257501Y-21448500I-249999J0D01*
G01*
X110357499Y-21448500D01*
G75*
G02*
X110107500Y-21198501I0J249999D01*
G01*
X110107500Y-20548499D01*
G75*
G02*
X110357499Y-20298500I249999J0D01*
G01*
G37*
G36*
G01*
X107817499Y-22357500D02*
X108717501Y-22357500D01*
G75*
G02*
X108967500Y-22607499I0J-249999D01*
G01*
X108967500Y-23257501D01*
G75*
G02*
X108717501Y-23507500I-249999J0D01*
G01*
X107817499Y-23507500D01*
G75*
G02*
X107567500Y-23257501I0J249999D01*
G01*
X107567500Y-22607499D01*
G75*
G02*
X107817499Y-22357500I249999J0D01*
G01*
G37*
G36*
G01*
X107817499Y-20307500D02*
X108717501Y-20307500D01*
G75*
G02*
X108967500Y-20557499I0J-249999D01*
G01*
X108967500Y-21207501D01*
G75*
G02*
X108717501Y-21457500I-249999J0D01*
G01*
X107817499Y-21457500D01*
G75*
G02*
X107567500Y-21207501I0J249999D01*
G01*
X107567500Y-20557499D01*
G75*
G02*
X107817499Y-20307500I249999J0D01*
G01*
G37*
G36*
G01*
X105277499Y-22357500D02*
X106177501Y-22357500D01*
G75*
G02*
X106427500Y-22607499I0J-249999D01*
G01*
X106427500Y-23257501D01*
G75*
G02*
X106177501Y-23507500I-249999J0D01*
G01*
X105277499Y-23507500D01*
G75*
G02*
X105027500Y-23257501I0J249999D01*
G01*
X105027500Y-22607499D01*
G75*
G02*
X105277499Y-22357500I249999J0D01*
G01*
G37*
G36*
G01*
X105277499Y-20307500D02*
X106177501Y-20307500D01*
G75*
G02*
X106427500Y-20557499I0J-249999D01*
G01*
X106427500Y-21207501D01*
G75*
G02*
X106177501Y-21457500I-249999J0D01*
G01*
X105277499Y-21457500D01*
G75*
G02*
X105027500Y-21207501I0J249999D01*
G01*
X105027500Y-20557499D01*
G75*
G02*
X105277499Y-20307500I249999J0D01*
G01*
G37*
G36*
G01*
X100018000Y-28898001D02*
X100018000Y-27997999D01*
G75*
G02*
X100267999Y-27748000I249999J0D01*
G01*
X100918001Y-27748000D01*
G75*
G02*
X101168000Y-27997999I0J-249999D01*
G01*
X101168000Y-28898001D01*
G75*
G02*
X100918001Y-29148000I-249999J0D01*
G01*
X100267999Y-29148000D01*
G75*
G02*
X100018000Y-28898001I0J249999D01*
G01*
G37*
G36*
G01*
X97968000Y-28898001D02*
X97968000Y-27997999D01*
G75*
G02*
X98217999Y-27748000I249999J0D01*
G01*
X98868001Y-27748000D01*
G75*
G02*
X99118000Y-27997999I0J-249999D01*
G01*
X99118000Y-28898001D01*
G75*
G02*
X98868001Y-29148000I-249999J0D01*
G01*
X98217999Y-29148000D01*
G75*
G02*
X97968000Y-28898001I0J249999D01*
G01*
G37*
G36*
G01*
X99127000Y-29966499D02*
X99127000Y-30866501D01*
G75*
G02*
X98877001Y-31116500I-249999J0D01*
G01*
X98226999Y-31116500D01*
G75*
G02*
X97977000Y-30866501I0J249999D01*
G01*
X97977000Y-29966499D01*
G75*
G02*
X98226999Y-29716500I249999J0D01*
G01*
X98877001Y-29716500D01*
G75*
G02*
X99127000Y-29966499I0J-249999D01*
G01*
G37*
G36*
G01*
X101177000Y-29966499D02*
X101177000Y-30866501D01*
G75*
G02*
X100927001Y-31116500I-249999J0D01*
G01*
X100276999Y-31116500D01*
G75*
G02*
X100027000Y-30866501I0J249999D01*
G01*
X100027000Y-29966499D01*
G75*
G02*
X100276999Y-29716500I249999J0D01*
G01*
X100927001Y-29716500D01*
G75*
G02*
X101177000Y-29966499I0J-249999D01*
G01*
G37*
G36*
G01*
X100018000Y-26929501D02*
X100018000Y-26029499D01*
G75*
G02*
X100267999Y-25779500I249999J0D01*
G01*
X100918001Y-25779500D01*
G75*
G02*
X101168000Y-26029499I0J-249999D01*
G01*
X101168000Y-26929501D01*
G75*
G02*
X100918001Y-27179500I-249999J0D01*
G01*
X100267999Y-27179500D01*
G75*
G02*
X100018000Y-26929501I0J249999D01*
G01*
G37*
G36*
G01*
X97968000Y-26929501D02*
X97968000Y-26029499D01*
G75*
G02*
X98217999Y-25779500I249999J0D01*
G01*
X98868001Y-25779500D01*
G75*
G02*
X99118000Y-26029499I0J-249999D01*
G01*
X99118000Y-26929501D01*
G75*
G02*
X98868001Y-27179500I-249999J0D01*
G01*
X98217999Y-27179500D01*
G75*
G02*
X97968000Y-26929501I0J249999D01*
G01*
G37*
G36*
G01*
X85635000Y-48440500D02*
X85635000Y-47190500D01*
G75*
G02*
X85885000Y-46940500I250000J0D01*
G01*
X86685000Y-46940500D01*
G75*
G02*
X86935000Y-47190500I0J-250000D01*
G01*
X86935000Y-48440500D01*
G75*
G02*
X86685000Y-48690500I-250000J0D01*
G01*
X85885000Y-48690500D01*
G75*
G02*
X85635000Y-48440500I0J250000D01*
G01*
G37*
G36*
G01*
X82535000Y-48440500D02*
X82535000Y-47190500D01*
G75*
G02*
X82785000Y-46940500I250000J0D01*
G01*
X83585000Y-46940500D01*
G75*
G02*
X83835000Y-47190500I0J-250000D01*
G01*
X83835000Y-48440500D01*
G75*
G02*
X83585000Y-48690500I-250000J0D01*
G01*
X82785000Y-48690500D01*
G75*
G02*
X82535000Y-48440500I0J250000D01*
G01*
G37*
G36*
G01*
X85672500Y-60632500D02*
X85672500Y-59382500D01*
G75*
G02*
X85922500Y-59132500I250000J0D01*
G01*
X86722500Y-59132500D01*
G75*
G02*
X86972500Y-59382500I0J-250000D01*
G01*
X86972500Y-60632500D01*
G75*
G02*
X86722500Y-60882500I-250000J0D01*
G01*
X85922500Y-60882500D01*
G75*
G02*
X85672500Y-60632500I0J250000D01*
G01*
G37*
G36*
G01*
X82572500Y-60632500D02*
X82572500Y-59382500D01*
G75*
G02*
X82822500Y-59132500I250000J0D01*
G01*
X83622500Y-59132500D01*
G75*
G02*
X83872500Y-59382500I0J-250000D01*
G01*
X83872500Y-60632500D01*
G75*
G02*
X83622500Y-60882500I-250000J0D01*
G01*
X82822500Y-60882500D01*
G75*
G02*
X82572500Y-60632500I0J250000D01*
G01*
G37*
G36*
G01*
X86023000Y-31225500D02*
X86023000Y-30750500D01*
G75*
G02*
X86260500Y-30513000I237500J0D01*
G01*
X86760500Y-30513000D01*
G75*
G02*
X86998000Y-30750500I0J-237500D01*
G01*
X86998000Y-31225500D01*
G75*
G02*
X86760500Y-31463000I-237500J0D01*
G01*
X86260500Y-31463000D01*
G75*
G02*
X86023000Y-31225500I0J237500D01*
G01*
G37*
G36*
G01*
X84198000Y-31225500D02*
X84198000Y-30750500D01*
G75*
G02*
X84435500Y-30513000I237500J0D01*
G01*
X84935500Y-30513000D01*
G75*
G02*
X85173000Y-30750500I0J-237500D01*
G01*
X85173000Y-31225500D01*
G75*
G02*
X84935500Y-31463000I-237500J0D01*
G01*
X84435500Y-31463000D01*
G75*
G02*
X84198000Y-31225500I0J237500D01*
G01*
G37*
G36*
G01*
X86023000Y-29701500D02*
X86023000Y-29226500D01*
G75*
G02*
X86260500Y-28989000I237500J0D01*
G01*
X86760500Y-28989000D01*
G75*
G02*
X86998000Y-29226500I0J-237500D01*
G01*
X86998000Y-29701500D01*
G75*
G02*
X86760500Y-29939000I-237500J0D01*
G01*
X86260500Y-29939000D01*
G75*
G02*
X86023000Y-29701500I0J237500D01*
G01*
G37*
G36*
G01*
X84198000Y-29701500D02*
X84198000Y-29226500D01*
G75*
G02*
X84435500Y-28989000I237500J0D01*
G01*
X84935500Y-28989000D01*
G75*
G02*
X85173000Y-29226500I0J-237500D01*
G01*
X85173000Y-29701500D01*
G75*
G02*
X84935500Y-29939000I-237500J0D01*
G01*
X84435500Y-29939000D01*
G75*
G02*
X84198000Y-29701500I0J237500D01*
G01*
G37*
G36*
G01*
X85769000Y-41639500D02*
X85769000Y-41164500D01*
G75*
G02*
X86006500Y-40927000I237500J0D01*
G01*
X86506500Y-40927000D01*
G75*
G02*
X86744000Y-41164500I0J-237500D01*
G01*
X86744000Y-41639500D01*
G75*
G02*
X86506500Y-41877000I-237500J0D01*
G01*
X86006500Y-41877000D01*
G75*
G02*
X85769000Y-41639500I0J237500D01*
G01*
G37*
G36*
G01*
X83944000Y-41639500D02*
X83944000Y-41164500D01*
G75*
G02*
X84181500Y-40927000I237500J0D01*
G01*
X84681500Y-40927000D01*
G75*
G02*
X84919000Y-41164500I0J-237500D01*
G01*
X84919000Y-41639500D01*
G75*
G02*
X84681500Y-41877000I-237500J0D01*
G01*
X84181500Y-41877000D01*
G75*
G02*
X83944000Y-41639500I0J237500D01*
G01*
G37*
G36*
G01*
X85769000Y-40115500D02*
X85769000Y-39640500D01*
G75*
G02*
X86006500Y-39403000I237500J0D01*
G01*
X86506500Y-39403000D01*
G75*
G02*
X86744000Y-39640500I0J-237500D01*
G01*
X86744000Y-40115500D01*
G75*
G02*
X86506500Y-40353000I-237500J0D01*
G01*
X86006500Y-40353000D01*
G75*
G02*
X85769000Y-40115500I0J237500D01*
G01*
G37*
G36*
G01*
X83944000Y-40115500D02*
X83944000Y-39640500D01*
G75*
G02*
X84181500Y-39403000I237500J0D01*
G01*
X84681500Y-39403000D01*
G75*
G02*
X84919000Y-39640500I0J-237500D01*
G01*
X84919000Y-40115500D01*
G75*
G02*
X84681500Y-40353000I-237500J0D01*
G01*
X84181500Y-40353000D01*
G75*
G02*
X83944000Y-40115500I0J237500D01*
G01*
G37*
G36*
G01*
X85769000Y-54847500D02*
X85769000Y-54372500D01*
G75*
G02*
X86006500Y-54135000I237500J0D01*
G01*
X86506500Y-54135000D01*
G75*
G02*
X86744000Y-54372500I0J-237500D01*
G01*
X86744000Y-54847500D01*
G75*
G02*
X86506500Y-55085000I-237500J0D01*
G01*
X86006500Y-55085000D01*
G75*
G02*
X85769000Y-54847500I0J237500D01*
G01*
G37*
G36*
G01*
X83944000Y-54847500D02*
X83944000Y-54372500D01*
G75*
G02*
X84181500Y-54135000I237500J0D01*
G01*
X84681500Y-54135000D01*
G75*
G02*
X84919000Y-54372500I0J-237500D01*
G01*
X84919000Y-54847500D01*
G75*
G02*
X84681500Y-55085000I-237500J0D01*
G01*
X84181500Y-55085000D01*
G75*
G02*
X83944000Y-54847500I0J237500D01*
G01*
G37*
G36*
G01*
X85769000Y-53323500D02*
X85769000Y-52848500D01*
G75*
G02*
X86006500Y-52611000I237500J0D01*
G01*
X86506500Y-52611000D01*
G75*
G02*
X86744000Y-52848500I0J-237500D01*
G01*
X86744000Y-53323500D01*
G75*
G02*
X86506500Y-53561000I-237500J0D01*
G01*
X86006500Y-53561000D01*
G75*
G02*
X85769000Y-53323500I0J237500D01*
G01*
G37*
G36*
G01*
X83944000Y-53323500D02*
X83944000Y-52848500D01*
G75*
G02*
X84181500Y-52611000I237500J0D01*
G01*
X84681500Y-52611000D01*
G75*
G02*
X84919000Y-52848500I0J-237500D01*
G01*
X84919000Y-53323500D01*
G75*
G02*
X84681500Y-53561000I-237500J0D01*
G01*
X84181500Y-53561000D01*
G75*
G02*
X83944000Y-53323500I0J237500D01*
G01*
G37*
G36*
G01*
X94504500Y-45994500D02*
X94979500Y-45994500D01*
G75*
G02*
X95217000Y-46232000I0J-237500D01*
G01*
X95217000Y-46732000D01*
G75*
G02*
X94979500Y-46969500I-237500J0D01*
G01*
X94504500Y-46969500D01*
G75*
G02*
X94267000Y-46732000I0J237500D01*
G01*
X94267000Y-46232000D01*
G75*
G02*
X94504500Y-45994500I237500J0D01*
G01*
G37*
G36*
G01*
X94504500Y-44169500D02*
X94979500Y-44169500D01*
G75*
G02*
X95217000Y-44407000I0J-237500D01*
G01*
X95217000Y-44907000D01*
G75*
G02*
X94979500Y-45144500I-237500J0D01*
G01*
X94504500Y-45144500D01*
G75*
G02*
X94267000Y-44907000I0J237500D01*
G01*
X94267000Y-44407000D01*
G75*
G02*
X94504500Y-44169500I237500J0D01*
G01*
G37*
G36*
G01*
X115295500Y-58182500D02*
X115295500Y-58657500D01*
G75*
G02*
X115058000Y-58895000I-237500J0D01*
G01*
X114558000Y-58895000D01*
G75*
G02*
X114320500Y-58657500I0J237500D01*
G01*
X114320500Y-58182500D01*
G75*
G02*
X114558000Y-57945000I237500J0D01*
G01*
X115058000Y-57945000D01*
G75*
G02*
X115295500Y-58182500I0J-237500D01*
G01*
G37*
G36*
G01*
X117120500Y-58182500D02*
X117120500Y-58657500D01*
G75*
G02*
X116883000Y-58895000I-237500J0D01*
G01*
X116383000Y-58895000D01*
G75*
G02*
X116145500Y-58657500I0J237500D01*
G01*
X116145500Y-58182500D01*
G75*
G02*
X116383000Y-57945000I237500J0D01*
G01*
X116883000Y-57945000D01*
G75*
G02*
X117120500Y-58182500I0J-237500D01*
G01*
G37*
G36*
G01*
X116145500Y-57133500D02*
X116145500Y-56658500D01*
G75*
G02*
X116383000Y-56421000I237500J0D01*
G01*
X116883000Y-56421000D01*
G75*
G02*
X117120500Y-56658500I0J-237500D01*
G01*
X117120500Y-57133500D01*
G75*
G02*
X116883000Y-57371000I-237500J0D01*
G01*
X116383000Y-57371000D01*
G75*
G02*
X116145500Y-57133500I0J237500D01*
G01*
G37*
G36*
G01*
X114320500Y-57133500D02*
X114320500Y-56658500D01*
G75*
G02*
X114558000Y-56421000I237500J0D01*
G01*
X115058000Y-56421000D01*
G75*
G02*
X115295500Y-56658500I0J-237500D01*
G01*
X115295500Y-57133500D01*
G75*
G02*
X115058000Y-57371000I-237500J0D01*
G01*
X114558000Y-57371000D01*
G75*
G02*
X114320500Y-57133500I0J237500D01*
G01*
G37*
G36*
G01*
X112983000Y-62845500D02*
X113458000Y-62845500D01*
G75*
G02*
X113695500Y-63083000I0J-237500D01*
G01*
X113695500Y-63583000D01*
G75*
G02*
X113458000Y-63820500I-237500J0D01*
G01*
X112983000Y-63820500D01*
G75*
G02*
X112745500Y-63583000I0J237500D01*
G01*
X112745500Y-63083000D01*
G75*
G02*
X112983000Y-62845500I237500J0D01*
G01*
G37*
G36*
G01*
X112983000Y-61020500D02*
X113458000Y-61020500D01*
G75*
G02*
X113695500Y-61258000I0J-237500D01*
G01*
X113695500Y-61758000D01*
G75*
G02*
X113458000Y-61995500I-237500J0D01*
G01*
X112983000Y-61995500D01*
G75*
G02*
X112745500Y-61758000I0J237500D01*
G01*
X112745500Y-61258000D01*
G75*
G02*
X112983000Y-61020500I237500J0D01*
G01*
G37*
G36*
G01*
X109808000Y-62845500D02*
X110283000Y-62845500D01*
G75*
G02*
X110520500Y-63083000I0J-237500D01*
G01*
X110520500Y-63583000D01*
G75*
G02*
X110283000Y-63820500I-237500J0D01*
G01*
X109808000Y-63820500D01*
G75*
G02*
X109570500Y-63583000I0J237500D01*
G01*
X109570500Y-63083000D01*
G75*
G02*
X109808000Y-62845500I237500J0D01*
G01*
G37*
G36*
G01*
X109808000Y-61020500D02*
X110283000Y-61020500D01*
G75*
G02*
X110520500Y-61258000I0J-237500D01*
G01*
X110520500Y-61758000D01*
G75*
G02*
X110283000Y-61995500I-237500J0D01*
G01*
X109808000Y-61995500D01*
G75*
G02*
X109570500Y-61758000I0J237500D01*
G01*
X109570500Y-61258000D01*
G75*
G02*
X109808000Y-61020500I237500J0D01*
G01*
G37*
D16*
X77902500Y-33729000D03*
D17*
X75502500Y-35639000D03*
X75502500Y-34369000D03*
X75502500Y-33089000D03*
X75502500Y-31819000D03*
X81302500Y-31819000D03*
X81302500Y-33089000D03*
X81302500Y-34369000D03*
X81302500Y-35639000D03*
D16*
X78922500Y-27622500D03*
D17*
X81322500Y-25712500D03*
X81322500Y-26982500D03*
X81322500Y-28262500D03*
X81322500Y-29532500D03*
X75522500Y-29532500D03*
X75522500Y-28262500D03*
X75522500Y-26982500D03*
X75522500Y-25712500D03*
D16*
X77922500Y-45910500D03*
D17*
X75522500Y-47820500D03*
X75522500Y-46550500D03*
X75522500Y-45270500D03*
X75522500Y-44000500D03*
X81322500Y-44000500D03*
X81322500Y-45270500D03*
X81322500Y-46550500D03*
X81322500Y-47820500D03*
D16*
X78910500Y-39825000D03*
D17*
X81310500Y-37915000D03*
X81310500Y-39185000D03*
X81310500Y-40465000D03*
X81310500Y-41735000D03*
X75510500Y-41735000D03*
X75510500Y-40465000D03*
X75510500Y-39185000D03*
X75510500Y-37915000D03*
D16*
X77922500Y-58102500D03*
D17*
X75522500Y-60012500D03*
X75522500Y-58742500D03*
X75522500Y-57462500D03*
X75522500Y-56192500D03*
X81322500Y-56192500D03*
X81322500Y-57462500D03*
X81322500Y-58742500D03*
X81322500Y-60012500D03*
D16*
X78922500Y-52006500D03*
D17*
X81322500Y-50096500D03*
X81322500Y-51366500D03*
X81322500Y-52646500D03*
X81322500Y-53916500D03*
X75522500Y-53916500D03*
X75522500Y-52646500D03*
X75522500Y-51366500D03*
X75522500Y-50096500D03*
D18*
X123634500Y-40768000D03*
X123634500Y-42768000D03*
X123634500Y-44768000D03*
X123634500Y-46768000D03*
G36*
G01*
X124259501Y-49368000D02*
X123009499Y-49368000D01*
G75*
G02*
X122759500Y-49118001I0J249999D01*
G01*
X122759500Y-48417999D01*
G75*
G02*
X123009499Y-48168000I249999J0D01*
G01*
X124259501Y-48168000D01*
G75*
G02*
X124509500Y-48417999I0J-249999D01*
G01*
X124509500Y-49118001D01*
G75*
G02*
X124259501Y-49368000I-249999J0D01*
G01*
G37*
D19*
X65414000Y-41140500D03*
X65414000Y-50680500D03*
D20*
X70344000Y-43410500D03*
X70344000Y-45910500D03*
X70344000Y-48410500D03*
D21*
X123507500Y-66357500D03*
X120967500Y-66357500D03*
X118427500Y-66357500D03*
X115887500Y-66357500D03*
X113347500Y-66357500D03*
D22*
X110807500Y-66357500D03*
D21*
X123500000Y-18100000D03*
X120960000Y-18100000D03*
X118420000Y-18100000D03*
X115880000Y-18100000D03*
X113340000Y-18100000D03*
X110800000Y-18100000D03*
X108260000Y-18100000D03*
D22*
X105720000Y-18100000D03*
D21*
X101656000Y-18100000D03*
X99116000Y-18100000D03*
X96576000Y-18100000D03*
X94036000Y-18100000D03*
X91496000Y-18100000D03*
X88956000Y-18100000D03*
X86416000Y-18100000D03*
X83876000Y-18100000D03*
X81336000Y-18100000D03*
D22*
X78796000Y-18100000D03*
D21*
X105727500Y-66357500D03*
X103187500Y-66357500D03*
X100647500Y-66357500D03*
X98107500Y-66357500D03*
X95567500Y-66357500D03*
X93027500Y-66357500D03*
X90487500Y-66357500D03*
D22*
X87947500Y-66357500D03*
D23*
X95195500Y-60808500D03*
X90995500Y-60808500D03*
X95195500Y-55308500D03*
G36*
G01*
X89645500Y-56708499D02*
X89645500Y-53908501D01*
G75*
G02*
X89895501Y-53658500I250001J0D01*
G01*
X92095499Y-53658500D01*
G75*
G02*
X92345500Y-53908501I0J-250001D01*
G01*
X92345500Y-56708499D01*
G75*
G02*
X92095499Y-56958500I-250001J0D01*
G01*
X89895501Y-56958500D01*
G75*
G02*
X89645500Y-56708499I0J250001D01*
G01*
G37*
D24*
X86694000Y-43500000D03*
X86694000Y-45400000D03*
X83994000Y-45400000D03*
X83994000Y-44450000D03*
X83994000Y-43500000D03*
X83392000Y-64328000D03*
X83392000Y-66228000D03*
X80692000Y-66228000D03*
X80692000Y-65278000D03*
X80692000Y-64328000D03*
D25*
X94996000Y-41148000D03*
G36*
G01*
X96371000Y-42810500D02*
X96371000Y-43460500D01*
G75*
G02*
X96308500Y-43523000I-62500J0D01*
G01*
X96183500Y-43523000D01*
G75*
G02*
X96121000Y-43460500I0J62500D01*
G01*
X96121000Y-42810500D01*
G75*
G02*
X96183500Y-42748000I62500J0D01*
G01*
X96308500Y-42748000D01*
G75*
G02*
X96371000Y-42810500I0J-62500D01*
G01*
G37*
G36*
G01*
X95871000Y-42810500D02*
X95871000Y-43460500D01*
G75*
G02*
X95808500Y-43523000I-62500J0D01*
G01*
X95683500Y-43523000D01*
G75*
G02*
X95621000Y-43460500I0J62500D01*
G01*
X95621000Y-42810500D01*
G75*
G02*
X95683500Y-42748000I62500J0D01*
G01*
X95808500Y-42748000D01*
G75*
G02*
X95871000Y-42810500I0J-62500D01*
G01*
G37*
G36*
G01*
X95371000Y-42810500D02*
X95371000Y-43460500D01*
G75*
G02*
X95308500Y-43523000I-62500J0D01*
G01*
X95183500Y-43523000D01*
G75*
G02*
X95121000Y-43460500I0J62500D01*
G01*
X95121000Y-42810500D01*
G75*
G02*
X95183500Y-42748000I62500J0D01*
G01*
X95308500Y-42748000D01*
G75*
G02*
X95371000Y-42810500I0J-62500D01*
G01*
G37*
G36*
G01*
X94871000Y-42810500D02*
X94871000Y-43460500D01*
G75*
G02*
X94808500Y-43523000I-62500J0D01*
G01*
X94683500Y-43523000D01*
G75*
G02*
X94621000Y-43460500I0J62500D01*
G01*
X94621000Y-42810500D01*
G75*
G02*
X94683500Y-42748000I62500J0D01*
G01*
X94808500Y-42748000D01*
G75*
G02*
X94871000Y-42810500I0J-62500D01*
G01*
G37*
G36*
G01*
X94371000Y-42810500D02*
X94371000Y-43460500D01*
G75*
G02*
X94308500Y-43523000I-62500J0D01*
G01*
X94183500Y-43523000D01*
G75*
G02*
X94121000Y-43460500I0J62500D01*
G01*
X94121000Y-42810500D01*
G75*
G02*
X94183500Y-42748000I62500J0D01*
G01*
X94308500Y-42748000D01*
G75*
G02*
X94371000Y-42810500I0J-62500D01*
G01*
G37*
G36*
G01*
X93871000Y-42810500D02*
X93871000Y-43460500D01*
G75*
G02*
X93808500Y-43523000I-62500J0D01*
G01*
X93683500Y-43523000D01*
G75*
G02*
X93621000Y-43460500I0J62500D01*
G01*
X93621000Y-42810500D01*
G75*
G02*
X93683500Y-42748000I62500J0D01*
G01*
X93808500Y-42748000D01*
G75*
G02*
X93871000Y-42810500I0J-62500D01*
G01*
G37*
G36*
G01*
X93396000Y-42335500D02*
X93396000Y-42460500D01*
G75*
G02*
X93333500Y-42523000I-62500J0D01*
G01*
X92683500Y-42523000D01*
G75*
G02*
X92621000Y-42460500I0J62500D01*
G01*
X92621000Y-42335500D01*
G75*
G02*
X92683500Y-42273000I62500J0D01*
G01*
X93333500Y-42273000D01*
G75*
G02*
X93396000Y-42335500I0J-62500D01*
G01*
G37*
G36*
G01*
X93396000Y-41835500D02*
X93396000Y-41960500D01*
G75*
G02*
X93333500Y-42023000I-62500J0D01*
G01*
X92683500Y-42023000D01*
G75*
G02*
X92621000Y-41960500I0J62500D01*
G01*
X92621000Y-41835500D01*
G75*
G02*
X92683500Y-41773000I62500J0D01*
G01*
X93333500Y-41773000D01*
G75*
G02*
X93396000Y-41835500I0J-62500D01*
G01*
G37*
G36*
G01*
X93396000Y-41335500D02*
X93396000Y-41460500D01*
G75*
G02*
X93333500Y-41523000I-62500J0D01*
G01*
X92683500Y-41523000D01*
G75*
G02*
X92621000Y-41460500I0J62500D01*
G01*
X92621000Y-41335500D01*
G75*
G02*
X92683500Y-41273000I62500J0D01*
G01*
X93333500Y-41273000D01*
G75*
G02*
X93396000Y-41335500I0J-62500D01*
G01*
G37*
G36*
G01*
X93396000Y-40835500D02*
X93396000Y-40960500D01*
G75*
G02*
X93333500Y-41023000I-62500J0D01*
G01*
X92683500Y-41023000D01*
G75*
G02*
X92621000Y-40960500I0J62500D01*
G01*
X92621000Y-40835500D01*
G75*
G02*
X92683500Y-40773000I62500J0D01*
G01*
X93333500Y-40773000D01*
G75*
G02*
X93396000Y-40835500I0J-62500D01*
G01*
G37*
G36*
G01*
X93396000Y-40335500D02*
X93396000Y-40460500D01*
G75*
G02*
X93333500Y-40523000I-62500J0D01*
G01*
X92683500Y-40523000D01*
G75*
G02*
X92621000Y-40460500I0J62500D01*
G01*
X92621000Y-40335500D01*
G75*
G02*
X92683500Y-40273000I62500J0D01*
G01*
X93333500Y-40273000D01*
G75*
G02*
X93396000Y-40335500I0J-62500D01*
G01*
G37*
G36*
G01*
X93396000Y-39835500D02*
X93396000Y-39960500D01*
G75*
G02*
X93333500Y-40023000I-62500J0D01*
G01*
X92683500Y-40023000D01*
G75*
G02*
X92621000Y-39960500I0J62500D01*
G01*
X92621000Y-39835500D01*
G75*
G02*
X92683500Y-39773000I62500J0D01*
G01*
X93333500Y-39773000D01*
G75*
G02*
X93396000Y-39835500I0J-62500D01*
G01*
G37*
G36*
G01*
X93871000Y-38835500D02*
X93871000Y-39485500D01*
G75*
G02*
X93808500Y-39548000I-62500J0D01*
G01*
X93683500Y-39548000D01*
G75*
G02*
X93621000Y-39485500I0J62500D01*
G01*
X93621000Y-38835500D01*
G75*
G02*
X93683500Y-38773000I62500J0D01*
G01*
X93808500Y-38773000D01*
G75*
G02*
X93871000Y-38835500I0J-62500D01*
G01*
G37*
G36*
G01*
X94371000Y-38835500D02*
X94371000Y-39485500D01*
G75*
G02*
X94308500Y-39548000I-62500J0D01*
G01*
X94183500Y-39548000D01*
G75*
G02*
X94121000Y-39485500I0J62500D01*
G01*
X94121000Y-38835500D01*
G75*
G02*
X94183500Y-38773000I62500J0D01*
G01*
X94308500Y-38773000D01*
G75*
G02*
X94371000Y-38835500I0J-62500D01*
G01*
G37*
G36*
G01*
X94871000Y-38835500D02*
X94871000Y-39485500D01*
G75*
G02*
X94808500Y-39548000I-62500J0D01*
G01*
X94683500Y-39548000D01*
G75*
G02*
X94621000Y-39485500I0J62500D01*
G01*
X94621000Y-38835500D01*
G75*
G02*
X94683500Y-38773000I62500J0D01*
G01*
X94808500Y-38773000D01*
G75*
G02*
X94871000Y-38835500I0J-62500D01*
G01*
G37*
G36*
G01*
X95371000Y-38835500D02*
X95371000Y-39485500D01*
G75*
G02*
X95308500Y-39548000I-62500J0D01*
G01*
X95183500Y-39548000D01*
G75*
G02*
X95121000Y-39485500I0J62500D01*
G01*
X95121000Y-38835500D01*
G75*
G02*
X95183500Y-38773000I62500J0D01*
G01*
X95308500Y-38773000D01*
G75*
G02*
X95371000Y-38835500I0J-62500D01*
G01*
G37*
G36*
G01*
X95871000Y-38835500D02*
X95871000Y-39485500D01*
G75*
G02*
X95808500Y-39548000I-62500J0D01*
G01*
X95683500Y-39548000D01*
G75*
G02*
X95621000Y-39485500I0J62500D01*
G01*
X95621000Y-38835500D01*
G75*
G02*
X95683500Y-38773000I62500J0D01*
G01*
X95808500Y-38773000D01*
G75*
G02*
X95871000Y-38835500I0J-62500D01*
G01*
G37*
G36*
G01*
X96371000Y-38835500D02*
X96371000Y-39485500D01*
G75*
G02*
X96308500Y-39548000I-62500J0D01*
G01*
X96183500Y-39548000D01*
G75*
G02*
X96121000Y-39485500I0J62500D01*
G01*
X96121000Y-38835500D01*
G75*
G02*
X96183500Y-38773000I62500J0D01*
G01*
X96308500Y-38773000D01*
G75*
G02*
X96371000Y-38835500I0J-62500D01*
G01*
G37*
G36*
G01*
X97371000Y-39835500D02*
X97371000Y-39960500D01*
G75*
G02*
X97308500Y-40023000I-62500J0D01*
G01*
X96658500Y-40023000D01*
G75*
G02*
X96596000Y-39960500I0J62500D01*
G01*
X96596000Y-39835500D01*
G75*
G02*
X96658500Y-39773000I62500J0D01*
G01*
X97308500Y-39773000D01*
G75*
G02*
X97371000Y-39835500I0J-62500D01*
G01*
G37*
G36*
G01*
X97371000Y-40335500D02*
X97371000Y-40460500D01*
G75*
G02*
X97308500Y-40523000I-62500J0D01*
G01*
X96658500Y-40523000D01*
G75*
G02*
X96596000Y-40460500I0J62500D01*
G01*
X96596000Y-40335500D01*
G75*
G02*
X96658500Y-40273000I62500J0D01*
G01*
X97308500Y-40273000D01*
G75*
G02*
X97371000Y-40335500I0J-62500D01*
G01*
G37*
G36*
G01*
X97371000Y-40835500D02*
X97371000Y-40960500D01*
G75*
G02*
X97308500Y-41023000I-62500J0D01*
G01*
X96658500Y-41023000D01*
G75*
G02*
X96596000Y-40960500I0J62500D01*
G01*
X96596000Y-40835500D01*
G75*
G02*
X96658500Y-40773000I62500J0D01*
G01*
X97308500Y-40773000D01*
G75*
G02*
X97371000Y-40835500I0J-62500D01*
G01*
G37*
G36*
G01*
X97371000Y-41335500D02*
X97371000Y-41460500D01*
G75*
G02*
X97308500Y-41523000I-62500J0D01*
G01*
X96658500Y-41523000D01*
G75*
G02*
X96596000Y-41460500I0J62500D01*
G01*
X96596000Y-41335500D01*
G75*
G02*
X96658500Y-41273000I62500J0D01*
G01*
X97308500Y-41273000D01*
G75*
G02*
X97371000Y-41335500I0J-62500D01*
G01*
G37*
G36*
G01*
X97371000Y-41835500D02*
X97371000Y-41960500D01*
G75*
G02*
X97308500Y-42023000I-62500J0D01*
G01*
X96658500Y-42023000D01*
G75*
G02*
X96596000Y-41960500I0J62500D01*
G01*
X96596000Y-41835500D01*
G75*
G02*
X96658500Y-41773000I62500J0D01*
G01*
X97308500Y-41773000D01*
G75*
G02*
X97371000Y-41835500I0J-62500D01*
G01*
G37*
G36*
G01*
X97371000Y-42335500D02*
X97371000Y-42460500D01*
G75*
G02*
X97308500Y-42523000I-62500J0D01*
G01*
X96658500Y-42523000D01*
G75*
G02*
X96596000Y-42460500I0J62500D01*
G01*
X96596000Y-42335500D01*
G75*
G02*
X96658500Y-42273000I62500J0D01*
G01*
X97308500Y-42273000D01*
G75*
G02*
X97371000Y-42335500I0J-62500D01*
G01*
G37*
D26*
X90171500Y-37846000D03*
X88771500Y-37846000D03*
D27*
X96202500Y-47814000D03*
X96202500Y-49214000D03*
X94742000Y-47814000D03*
X94742000Y-49214000D03*
X116395500Y-62866500D03*
X116395500Y-61466500D03*
G36*
G01*
X102937000Y-29458499D02*
X102937000Y-30358501D01*
G75*
G02*
X102687001Y-30608500I-249999J0D01*
G01*
X102036999Y-30608500D01*
G75*
G02*
X101787000Y-30358501I0J249999D01*
G01*
X101787000Y-29458499D01*
G75*
G02*
X102036999Y-29208500I249999J0D01*
G01*
X102687001Y-29208500D01*
G75*
G02*
X102937000Y-29458499I0J-249999D01*
G01*
G37*
G36*
G01*
X104987000Y-29458499D02*
X104987000Y-30358501D01*
G75*
G02*
X104737001Y-30608500I-249999J0D01*
G01*
X104086999Y-30608500D01*
G75*
G02*
X103837000Y-30358501I0J249999D01*
G01*
X103837000Y-29458499D01*
G75*
G02*
X104086999Y-29208500I249999J0D01*
G01*
X104737001Y-29208500D01*
G75*
G02*
X104987000Y-29458499I0J-249999D01*
G01*
G37*
G36*
G01*
X88535500Y-44673000D02*
X89010500Y-44673000D01*
G75*
G02*
X89248000Y-44910500I0J-237500D01*
G01*
X89248000Y-45485500D01*
G75*
G02*
X89010500Y-45723000I-237500J0D01*
G01*
X88535500Y-45723000D01*
G75*
G02*
X88298000Y-45485500I0J237500D01*
G01*
X88298000Y-44910500D01*
G75*
G02*
X88535500Y-44673000I237500J0D01*
G01*
G37*
G36*
G01*
X88535500Y-42923000D02*
X89010500Y-42923000D01*
G75*
G02*
X89248000Y-43160500I0J-237500D01*
G01*
X89248000Y-43735500D01*
G75*
G02*
X89010500Y-43973000I-237500J0D01*
G01*
X88535500Y-43973000D01*
G75*
G02*
X88298000Y-43735500I0J237500D01*
G01*
X88298000Y-43160500D01*
G75*
G02*
X88535500Y-42923000I237500J0D01*
G01*
G37*
G36*
G01*
X91329500Y-38513500D02*
X91804500Y-38513500D01*
G75*
G02*
X92042000Y-38751000I0J-237500D01*
G01*
X92042000Y-39326000D01*
G75*
G02*
X91804500Y-39563500I-237500J0D01*
G01*
X91329500Y-39563500D01*
G75*
G02*
X91092000Y-39326000I0J237500D01*
G01*
X91092000Y-38751000D01*
G75*
G02*
X91329500Y-38513500I237500J0D01*
G01*
G37*
G36*
G01*
X91329500Y-36763500D02*
X91804500Y-36763500D01*
G75*
G02*
X92042000Y-37001000I0J-237500D01*
G01*
X92042000Y-37576000D01*
G75*
G02*
X91804500Y-37813500I-237500J0D01*
G01*
X91329500Y-37813500D01*
G75*
G02*
X91092000Y-37576000I0J237500D01*
G01*
X91092000Y-37001000D01*
G75*
G02*
X91329500Y-36763500I237500J0D01*
G01*
G37*
G36*
G01*
X91677500Y-42576000D02*
X91202500Y-42576000D01*
G75*
G02*
X90965000Y-42338500I0J237500D01*
G01*
X90965000Y-41763500D01*
G75*
G02*
X91202500Y-41526000I237500J0D01*
G01*
X91677500Y-41526000D01*
G75*
G02*
X91915000Y-41763500I0J-237500D01*
G01*
X91915000Y-42338500D01*
G75*
G02*
X91677500Y-42576000I-237500J0D01*
G01*
G37*
G36*
G01*
X91677500Y-44326000D02*
X91202500Y-44326000D01*
G75*
G02*
X90965000Y-44088500I0J237500D01*
G01*
X90965000Y-43513500D01*
G75*
G02*
X91202500Y-43276000I237500J0D01*
G01*
X91677500Y-43276000D01*
G75*
G02*
X91915000Y-43513500I0J-237500D01*
G01*
X91915000Y-44088500D01*
G75*
G02*
X91677500Y-44326000I-237500J0D01*
G01*
G37*
G36*
G01*
X93455500Y-47910000D02*
X92980500Y-47910000D01*
G75*
G02*
X92743000Y-47672500I0J237500D01*
G01*
X92743000Y-47097500D01*
G75*
G02*
X92980500Y-46860000I237500J0D01*
G01*
X93455500Y-46860000D01*
G75*
G02*
X93693000Y-47097500I0J-237500D01*
G01*
X93693000Y-47672500D01*
G75*
G02*
X93455500Y-47910000I-237500J0D01*
G01*
G37*
G36*
G01*
X93455500Y-49660000D02*
X92980500Y-49660000D01*
G75*
G02*
X92743000Y-49422500I0J237500D01*
G01*
X92743000Y-48847500D01*
G75*
G02*
X92980500Y-48610000I237500J0D01*
G01*
X93455500Y-48610000D01*
G75*
G02*
X93693000Y-48847500I0J-237500D01*
G01*
X93693000Y-49422500D01*
G75*
G02*
X93455500Y-49660000I-237500J0D01*
G01*
G37*
G36*
G01*
X99700501Y-39936000D02*
X98800499Y-39936000D01*
G75*
G02*
X98550500Y-39686001I0J249999D01*
G01*
X98550500Y-39035999D01*
G75*
G02*
X98800499Y-38786000I249999J0D01*
G01*
X99700501Y-38786000D01*
G75*
G02*
X99950500Y-39035999I0J-249999D01*
G01*
X99950500Y-39686001D01*
G75*
G02*
X99700501Y-39936000I-249999J0D01*
G01*
G37*
G36*
G01*
X99700501Y-41986000D02*
X98800499Y-41986000D01*
G75*
G02*
X98550500Y-41736001I0J249999D01*
G01*
X98550500Y-41085999D01*
G75*
G02*
X98800499Y-40836000I249999J0D01*
G01*
X99700501Y-40836000D01*
G75*
G02*
X99950500Y-41085999I0J-249999D01*
G01*
X99950500Y-41736001D01*
G75*
G02*
X99700501Y-41986000I-249999J0D01*
G01*
G37*
G36*
G01*
X115361000Y-59706500D02*
X115361000Y-60181500D01*
G75*
G02*
X115123500Y-60419000I-237500J0D01*
G01*
X114548500Y-60419000D01*
G75*
G02*
X114311000Y-60181500I0J237500D01*
G01*
X114311000Y-59706500D01*
G75*
G02*
X114548500Y-59469000I237500J0D01*
G01*
X115123500Y-59469000D01*
G75*
G02*
X115361000Y-59706500I0J-237500D01*
G01*
G37*
G36*
G01*
X117111000Y-59706500D02*
X117111000Y-60181500D01*
G75*
G02*
X116873500Y-60419000I-237500J0D01*
G01*
X116298500Y-60419000D01*
G75*
G02*
X116061000Y-60181500I0J237500D01*
G01*
X116061000Y-59706500D01*
G75*
G02*
X116298500Y-59469000I237500J0D01*
G01*
X116873500Y-59469000D01*
G75*
G02*
X117111000Y-59706500I0J-237500D01*
G01*
G37*
G36*
G01*
X106266500Y-63453000D02*
X106266500Y-63928000D01*
G75*
G02*
X106029000Y-64165500I-237500J0D01*
G01*
X105454000Y-64165500D01*
G75*
G02*
X105216500Y-63928000I0J237500D01*
G01*
X105216500Y-63453000D01*
G75*
G02*
X105454000Y-63215500I237500J0D01*
G01*
X106029000Y-63215500D01*
G75*
G02*
X106266500Y-63453000I0J-237500D01*
G01*
G37*
G36*
G01*
X108016500Y-63453000D02*
X108016500Y-63928000D01*
G75*
G02*
X107779000Y-64165500I-237500J0D01*
G01*
X107204000Y-64165500D01*
G75*
G02*
X106966500Y-63928000I0J237500D01*
G01*
X106966500Y-63453000D01*
G75*
G02*
X107204000Y-63215500I237500J0D01*
G01*
X107779000Y-63215500D01*
G75*
G02*
X108016500Y-63453000I0J-237500D01*
G01*
G37*
G36*
G01*
X115045500Y-62070500D02*
X114570500Y-62070500D01*
G75*
G02*
X114333000Y-61833000I0J237500D01*
G01*
X114333000Y-61258000D01*
G75*
G02*
X114570500Y-61020500I237500J0D01*
G01*
X115045500Y-61020500D01*
G75*
G02*
X115283000Y-61258000I0J-237500D01*
G01*
X115283000Y-61833000D01*
G75*
G02*
X115045500Y-62070500I-237500J0D01*
G01*
G37*
G36*
G01*
X115045500Y-63820500D02*
X114570500Y-63820500D01*
G75*
G02*
X114333000Y-63583000I0J237500D01*
G01*
X114333000Y-63008000D01*
G75*
G02*
X114570500Y-62770500I237500J0D01*
G01*
X115045500Y-62770500D01*
G75*
G02*
X115283000Y-63008000I0J-237500D01*
G01*
X115283000Y-63583000D01*
G75*
G02*
X115045500Y-63820500I-237500J0D01*
G01*
G37*
G36*
G01*
X102848500Y-57597000D02*
X101748500Y-57597000D01*
G75*
G02*
X101498500Y-57347000I0J250000D01*
G01*
X101498500Y-54347000D01*
G75*
G02*
X101748500Y-54097000I250000J0D01*
G01*
X102848500Y-54097000D01*
G75*
G02*
X103098500Y-54347000I0J-250000D01*
G01*
X103098500Y-57347000D01*
G75*
G02*
X102848500Y-57597000I-250000J0D01*
G01*
G37*
G36*
G01*
X102848500Y-62997000D02*
X101748500Y-62997000D01*
G75*
G02*
X101498500Y-62747000I0J250000D01*
G01*
X101498500Y-59747000D01*
G75*
G02*
X101748500Y-59497000I250000J0D01*
G01*
X102848500Y-59497000D01*
G75*
G02*
X103098500Y-59747000I0J-250000D01*
G01*
X103098500Y-62747000D01*
G75*
G02*
X102848500Y-62997000I-250000J0D01*
G01*
G37*
G36*
G01*
X111870500Y-62070500D02*
X111395500Y-62070500D01*
G75*
G02*
X111158000Y-61833000I0J237500D01*
G01*
X111158000Y-61258000D01*
G75*
G02*
X111395500Y-61020500I237500J0D01*
G01*
X111870500Y-61020500D01*
G75*
G02*
X112108000Y-61258000I0J-237500D01*
G01*
X112108000Y-61833000D01*
G75*
G02*
X111870500Y-62070500I-237500J0D01*
G01*
G37*
G36*
G01*
X111870500Y-63820500D02*
X111395500Y-63820500D01*
G75*
G02*
X111158000Y-63583000I0J237500D01*
G01*
X111158000Y-63008000D01*
G75*
G02*
X111395500Y-62770500I237500J0D01*
G01*
X111870500Y-62770500D01*
G75*
G02*
X112108000Y-63008000I0J-237500D01*
G01*
X112108000Y-63583000D01*
G75*
G02*
X111870500Y-63820500I-237500J0D01*
G01*
G37*
M02*
