G04 #@! TF.GenerationSoftware,KiCad,Pcbnew,(6.0.0)*
G04 #@! TF.CreationDate,2022-07-16T19:13:52+12:00*
G04 #@! TF.ProjectId,bldc_driver_fpga,626c6463-5f64-4726-9976-65725f667067,rev?*
G04 #@! TF.SameCoordinates,Original*
G04 #@! TF.FileFunction,Paste,Bot*
G04 #@! TF.FilePolarity,Positive*
%FSLAX46Y46*%
G04 Gerber Fmt 4.6, Leading zero omitted, Abs format (unit mm)*
G04 Created by KiCad (PCBNEW (6.0.0)) date 2022-07-16 19:13:52*
%MOMM*%
%LPD*%
G01*
G04 APERTURE LIST*
G04 Aperture macros list*
%AMRoundRect*
0 Rectangle with rounded corners*
0 $1 Rounding radius*
0 $2 $3 $4 $5 $6 $7 $8 $9 X,Y pos of 4 corners*
0 Add a 4 corners polygon primitive as box body*
4,1,4,$2,$3,$4,$5,$6,$7,$8,$9,$2,$3,0*
0 Add four circle primitives for the rounded corners*
1,1,$1+$1,$2,$3*
1,1,$1+$1,$4,$5*
1,1,$1+$1,$6,$7*
1,1,$1+$1,$8,$9*
0 Add four rect primitives between the rounded corners*
20,1,$1+$1,$2,$3,$4,$5,0*
20,1,$1+$1,$4,$5,$6,$7,0*
20,1,$1+$1,$6,$7,$8,$9,0*
20,1,$1+$1,$8,$9,$2,$3,0*%
G04 Aperture macros list end*
%ADD10R,1.100000X1.100000*%
%ADD11RoundRect,0.237500X0.250000X0.237500X-0.250000X0.237500X-0.250000X-0.237500X0.250000X-0.237500X0*%
%ADD12RoundRect,0.250000X-1.500000X-0.550000X1.500000X-0.550000X1.500000X0.550000X-1.500000X0.550000X0*%
%ADD13RoundRect,0.250000X-0.400000X-0.625000X0.400000X-0.625000X0.400000X0.625000X-0.400000X0.625000X0*%
%ADD14RoundRect,0.237500X0.237500X-0.300000X0.237500X0.300000X-0.237500X0.300000X-0.237500X-0.300000X0*%
%ADD15RoundRect,0.237500X-0.237500X0.250000X-0.237500X-0.250000X0.237500X-0.250000X0.237500X0.250000X0*%
%ADD16RoundRect,0.237500X0.300000X0.237500X-0.300000X0.237500X-0.300000X-0.237500X0.300000X-0.237500X0*%
G04 APERTURE END LIST*
D10*
X127300000Y-50600000D03*
X127300000Y-53400000D03*
X124900000Y-50600000D03*
X124900000Y-53400000D03*
D11*
X89512500Y-51500000D03*
X87687500Y-51500000D03*
D12*
X107550000Y-42500000D03*
X112950000Y-42500000D03*
D11*
X89512500Y-50000000D03*
X87687500Y-50000000D03*
D13*
X117950000Y-38500000D03*
X121050000Y-38500000D03*
D14*
X110800000Y-59862500D03*
X110800000Y-58137500D03*
D15*
X110800000Y-61687500D03*
X110800000Y-63512500D03*
D12*
X107300000Y-32500000D03*
X112700000Y-32500000D03*
D16*
X85462500Y-50000000D03*
X83737500Y-50000000D03*
D12*
X107300000Y-51000000D03*
X112700000Y-51000000D03*
D13*
X118000000Y-29500000D03*
X121100000Y-29500000D03*
D16*
X85462500Y-51500000D03*
X83737500Y-51500000D03*
X85462500Y-48500000D03*
X83737500Y-48500000D03*
D11*
X89512500Y-48500000D03*
X87687500Y-48500000D03*
G36*
X91142121Y-39820002D02*
G01*
X91188614Y-39873658D01*
X91200000Y-39926000D01*
X91200000Y-42074000D01*
X91179998Y-42142121D01*
X91126342Y-42188614D01*
X91074000Y-42200000D01*
X88926000Y-42200000D01*
X88857879Y-42179998D01*
X88811386Y-42126342D01*
X88800000Y-42074000D01*
X88800000Y-39926000D01*
X88820002Y-39857879D01*
X88873658Y-39811386D01*
X88926000Y-39800000D01*
X91074000Y-39800000D01*
X91142121Y-39820002D01*
G37*
M02*
