%FSLAX45Y45*%
G04 Gerber Fmt 4.5, Leading zero omitted, Abs format (unit mm)*
G04 Created by KiCad (PCBNEW (5.1.10)-1) date 2021-10-08 21:44:05*
%MOMM*%
%LPD*%
G01*
G04 APERTURE LIST*
%TA.AperFunction,Profile*%
%ADD10C,0.150000*%
%TD*%
%ADD11C,0.200000*%
%ADD12C,0.300000*%
G04 APERTURE END LIST*
D10*
X12604000Y-2851400D02*
X12604000Y-1708400D01*
X12604000Y-1708400D02*
X12451600Y-1556000D01*
X12858000Y-3105400D02*
X12604000Y-2851400D01*
X12451600Y-1556000D02*
X6000000Y-1556000D01*
X6000000Y-1556000D02*
X6000000Y-6890000D01*
X12604000Y-6890000D02*
X12604000Y-6636000D01*
X6000000Y-6890000D02*
X12604000Y-6890000D01*
X12858000Y-6382000D02*
X12858000Y-3105400D01*
X12604000Y-6636000D02*
X12858000Y-6382000D01*
D11*
X9392100Y-4007300D02*
X9412100Y-4027300D01*
X9412100Y-4007300D02*
X9392100Y-4027300D01*
X9392100Y-4104800D02*
X9412100Y-4124800D01*
X9412100Y-4104800D02*
X9392100Y-4124800D01*
X9392100Y-4202300D02*
X9412100Y-4222300D01*
X9412100Y-4202300D02*
X9392100Y-4222300D01*
X9489600Y-4007300D02*
X9509600Y-4027300D01*
X9509600Y-4007300D02*
X9489600Y-4027300D01*
X9489600Y-4104800D02*
X9509600Y-4124800D01*
X9509600Y-4104800D02*
X9489600Y-4124800D01*
X9489600Y-4202300D02*
X9509600Y-4222300D01*
X9509600Y-4202300D02*
X9489600Y-4222300D01*
X9587100Y-4007300D02*
X9607100Y-4027300D01*
X9607100Y-4007300D02*
X9587100Y-4027300D01*
X9587100Y-4104800D02*
X9607100Y-4124800D01*
X9607100Y-4104800D02*
X9587100Y-4124800D01*
X9587100Y-4202300D02*
X9607100Y-4222300D01*
X9607100Y-4202300D02*
X9587100Y-4222300D01*
X6282690Y-3879850D02*
G75*
G03*
X6282690Y-3879850I-15240J0D01*
G01*
X6403340Y-3879850D02*
G75*
G03*
X6403340Y-3879850I-15240J0D01*
G01*
X6536690Y-4591050D02*
G75*
G03*
X6536690Y-4591050I-15240J0D01*
G01*
X6539040Y-3882200D02*
G75*
G03*
X6539040Y-3882200I-15240J0D01*
G01*
X6539040Y-4341050D02*
G75*
G03*
X6539040Y-4341050I-15240J0D01*
G01*
X6539040Y-4841050D02*
G75*
G03*
X6539040Y-4841050I-15240J0D01*
G01*
X7838440Y-2667000D02*
G75*
G03*
X7838440Y-2667000I-15240J0D01*
G01*
X7838440Y-2768600D02*
G75*
G03*
X7838440Y-2768600I-15240J0D01*
G01*
X7838440Y-2870200D02*
G75*
G03*
X7838440Y-2870200I-15240J0D01*
G01*
X7838440Y-3886200D02*
G75*
G03*
X7838440Y-3886200I-15240J0D01*
G01*
X7838440Y-3987800D02*
G75*
G03*
X7838440Y-3987800I-15240J0D01*
G01*
X7838440Y-4089400D02*
G75*
G03*
X7838440Y-4089400I-15240J0D01*
G01*
X7838440Y-5105400D02*
G75*
G03*
X7838440Y-5105400I-15240J0D01*
G01*
X7838440Y-5207000D02*
G75*
G03*
X7838440Y-5207000I-15240J0D01*
G01*
X7838440Y-5308600D02*
G75*
G03*
X7838440Y-5308600I-15240J0D01*
G01*
X7940040Y-2667000D02*
G75*
G03*
X7940040Y-2667000I-15240J0D01*
G01*
X7940040Y-2768600D02*
G75*
G03*
X7940040Y-2768600I-15240J0D01*
G01*
X7940040Y-2870200D02*
G75*
G03*
X7940040Y-2870200I-15240J0D01*
G01*
X7940040Y-3886200D02*
G75*
G03*
X7940040Y-3886200I-15240J0D01*
G01*
X7940040Y-3987800D02*
G75*
G03*
X7940040Y-3987800I-15240J0D01*
G01*
X7940040Y-4089400D02*
G75*
G03*
X7940040Y-4089400I-15240J0D01*
G01*
X7940040Y-5105400D02*
G75*
G03*
X7940040Y-5105400I-15240J0D01*
G01*
X7940040Y-5207000D02*
G75*
G03*
X7940040Y-5207000I-15240J0D01*
G01*
X7940040Y-5308600D02*
G75*
G03*
X7940040Y-5308600I-15240J0D01*
G01*
X8041640Y-2667000D02*
G75*
G03*
X8041640Y-2667000I-15240J0D01*
G01*
X8041640Y-2768600D02*
G75*
G03*
X8041640Y-2768600I-15240J0D01*
G01*
X8041640Y-2870200D02*
G75*
G03*
X8041640Y-2870200I-15240J0D01*
G01*
X8041640Y-3886200D02*
G75*
G03*
X8041640Y-3886200I-15240J0D01*
G01*
X8041640Y-3987800D02*
G75*
G03*
X8041640Y-3987800I-15240J0D01*
G01*
X8041640Y-4089400D02*
G75*
G03*
X8041640Y-4089400I-15240J0D01*
G01*
X8041640Y-5105400D02*
G75*
G03*
X8041640Y-5105400I-15240J0D01*
G01*
X8041640Y-5207000D02*
G75*
G03*
X8041640Y-5207000I-15240J0D01*
G01*
X8041640Y-5308600D02*
G75*
G03*
X8041640Y-5308600I-15240J0D01*
G01*
X8194040Y-6781800D02*
G75*
G03*
X8194040Y-6781800I-15240J0D01*
G01*
X8321040Y-3352800D02*
G75*
G03*
X8321040Y-3352800I-15240J0D01*
G01*
X8321040Y-3454400D02*
G75*
G03*
X8321040Y-3454400I-15240J0D01*
G01*
X8321040Y-3556000D02*
G75*
G03*
X8321040Y-3556000I-15240J0D01*
G01*
X8359140Y-6350000D02*
G75*
G03*
X8359140Y-6350000I-15240J0D01*
G01*
X8371840Y-4927600D02*
G75*
G03*
X8371840Y-4927600I-15240J0D01*
G01*
X8371840Y-5029200D02*
G75*
G03*
X8371840Y-5029200I-15240J0D01*
G01*
X8371840Y-5130800D02*
G75*
G03*
X8371840Y-5130800I-15240J0D01*
G01*
X8397240Y-5613400D02*
G75*
G03*
X8397240Y-5613400I-15240J0D01*
G01*
X8397240Y-5715000D02*
G75*
G03*
X8397240Y-5715000I-15240J0D01*
G01*
X8397240Y-5816600D02*
G75*
G03*
X8397240Y-5816600I-15240J0D01*
G01*
X8422640Y-3352800D02*
G75*
G03*
X8422640Y-3352800I-15240J0D01*
G01*
X8422640Y-3454400D02*
G75*
G03*
X8422640Y-3454400I-15240J0D01*
G01*
X8422640Y-3556000D02*
G75*
G03*
X8422640Y-3556000I-15240J0D01*
G01*
X8473440Y-4927600D02*
G75*
G03*
X8473440Y-4927600I-15240J0D01*
G01*
X8473440Y-5029200D02*
G75*
G03*
X8473440Y-5029200I-15240J0D01*
G01*
X8473440Y-5130800D02*
G75*
G03*
X8473440Y-5130800I-15240J0D01*
G01*
X8498840Y-5613400D02*
G75*
G03*
X8498840Y-5613400I-15240J0D01*
G01*
X8498840Y-5715000D02*
G75*
G03*
X8498840Y-5715000I-15240J0D01*
G01*
X8498840Y-5816600D02*
G75*
G03*
X8498840Y-5816600I-15240J0D01*
G01*
X8524240Y-3352800D02*
G75*
G03*
X8524240Y-3352800I-15240J0D01*
G01*
X8524240Y-3454400D02*
G75*
G03*
X8524240Y-3454400I-15240J0D01*
G01*
X8524240Y-3556000D02*
G75*
G03*
X8524240Y-3556000I-15240J0D01*
G01*
X8575040Y-4927600D02*
G75*
G03*
X8575040Y-4927600I-15240J0D01*
G01*
X8575040Y-5029200D02*
G75*
G03*
X8575040Y-5029200I-15240J0D01*
G01*
X8575040Y-5130800D02*
G75*
G03*
X8575040Y-5130800I-15240J0D01*
G01*
X8600440Y-5613400D02*
G75*
G03*
X8600440Y-5613400I-15240J0D01*
G01*
X8600440Y-5715000D02*
G75*
G03*
X8600440Y-5715000I-15240J0D01*
G01*
X8600440Y-5816600D02*
G75*
G03*
X8600440Y-5816600I-15240J0D01*
G01*
X8803640Y-4419600D02*
G75*
G03*
X8803640Y-4419600I-15240J0D01*
G01*
X8803640Y-4648200D02*
G75*
G03*
X8803640Y-4648200I-15240J0D01*
G01*
X8816340Y-4965700D02*
G75*
G03*
X8816340Y-4965700I-15240J0D01*
G01*
X8905240Y-4622800D02*
G75*
G03*
X8905240Y-4622800I-15240J0D01*
G01*
X8930640Y-3886200D02*
G75*
G03*
X8930640Y-3886200I-15240J0D01*
G01*
X8956040Y-3683000D02*
G75*
G03*
X8956040Y-3683000I-15240J0D01*
G01*
X8981440Y-2247900D02*
G75*
G03*
X8981440Y-2247900I-15240J0D01*
G01*
X9004300Y-4521200D02*
G75*
G03*
X9004300Y-4521200I-15240J0D01*
G01*
X9044940Y-4870450D02*
G75*
G03*
X9044940Y-4870450I-15240J0D01*
G01*
X9057640Y-4064000D02*
G75*
G03*
X9057640Y-4064000I-15240J0D01*
G01*
X9057640Y-4267200D02*
G75*
G03*
X9057640Y-4267200I-15240J0D01*
G01*
X9083040Y-3581400D02*
G75*
G03*
X9083040Y-3581400I-15240J0D01*
G01*
X9119458Y-4108554D02*
G75*
G03*
X9119458Y-4108554I-15240J0D01*
G01*
X9171940Y-4686300D02*
G75*
G03*
X9171940Y-4686300I-15240J0D01*
G01*
X9311640Y-3683000D02*
G75*
G03*
X9311640Y-3683000I-15240J0D01*
G01*
X9311640Y-4572000D02*
G75*
G03*
X9311640Y-4572000I-15240J0D01*
G01*
X9316090Y-4313550D02*
G75*
G03*
X9316090Y-4313550I-15240J0D01*
G01*
X9413240Y-2463800D02*
G75*
G03*
X9413240Y-2463800I-15240J0D01*
G01*
X9486500Y-3632200D02*
G75*
G03*
X9486500Y-3632200I-15240J0D01*
G01*
X9540240Y-2546350D02*
G75*
G03*
X9540240Y-2546350I-15240J0D01*
G01*
X9593580Y-2461260D02*
G75*
G03*
X9593580Y-2461260I-15240J0D01*
G01*
X9603740Y-3657600D02*
G75*
G03*
X9603740Y-3657600I-15240J0D01*
G01*
X9686290Y-2647950D02*
G75*
G03*
X9686290Y-2647950I-15240J0D01*
G01*
X9718040Y-4622800D02*
G75*
G03*
X9718040Y-4622800I-15240J0D01*
G01*
X9781540Y-4349750D02*
G75*
G03*
X9781540Y-4349750I-15240J0D01*
G01*
X9781540Y-4438650D02*
G75*
G03*
X9781540Y-4438650I-15240J0D01*
G01*
X9781540Y-4527550D02*
G75*
G03*
X9781540Y-4527550I-15240J0D01*
G01*
X9870440Y-3308350D02*
G75*
G03*
X9870440Y-3308350I-15240J0D01*
G01*
X9921240Y-4521200D02*
G75*
G03*
X9921240Y-4521200I-15240J0D01*
G01*
X10041890Y-6430521D02*
G75*
G03*
X10041890Y-6430521I-15240J0D01*
G01*
X10060940Y-4254500D02*
G75*
G03*
X10060940Y-4254500I-15240J0D01*
G01*
X10118090Y-4425950D02*
G75*
G03*
X10118090Y-4425950I-15240J0D01*
G01*
X10124440Y-4337050D02*
G75*
G03*
X10124440Y-4337050I-15240J0D01*
G01*
X10200640Y-3238500D02*
G75*
G03*
X10200640Y-3238500I-15240J0D01*
G01*
X10213340Y-6428740D02*
G75*
G03*
X10213340Y-6428740I-15240J0D01*
G01*
X10226040Y-4622800D02*
G75*
G03*
X10226040Y-4622800I-15240J0D01*
G01*
X10226040Y-4724400D02*
G75*
G03*
X10226040Y-4724400I-15240J0D01*
G01*
X10276840Y-3657600D02*
G75*
G03*
X10276840Y-3657600I-15240J0D01*
G01*
X10327640Y-2540000D02*
G75*
G03*
X10327640Y-2540000I-15240J0D01*
G01*
X10587990Y-2463800D02*
G75*
G03*
X10587990Y-2463800I-15240J0D01*
G01*
X10759440Y-6286500D02*
G75*
G03*
X10759440Y-6286500I-15240J0D01*
G01*
X10778490Y-5829300D02*
G75*
G03*
X10778490Y-5829300I-15240J0D01*
G01*
X10841990Y-2463800D02*
G75*
G03*
X10841990Y-2463800I-15240J0D01*
G01*
X10886440Y-6172200D02*
G75*
G03*
X10886440Y-6172200I-15240J0D01*
G01*
X10886440Y-6311900D02*
G75*
G03*
X10886440Y-6311900I-15240J0D01*
G01*
X10924540Y-2984500D02*
G75*
G03*
X10924540Y-2984500I-15240J0D01*
G01*
X10981690Y-3168650D02*
G75*
G03*
X10981690Y-3168650I-15240J0D01*
G01*
X11038840Y-5156200D02*
G75*
G03*
X11038840Y-5156200I-15240J0D01*
G01*
X11076940Y-5619750D02*
G75*
G03*
X11076940Y-5619750I-15240J0D01*
G01*
X11095990Y-2463800D02*
G75*
G03*
X11095990Y-2463800I-15240J0D01*
G01*
X11102340Y-5905500D02*
G75*
G03*
X11102340Y-5905500I-15240J0D01*
G01*
X11140440Y-6807200D02*
G75*
G03*
X11140440Y-6807200I-15240J0D01*
G01*
X11203940Y-5854700D02*
G75*
G03*
X11203940Y-5854700I-15240J0D01*
G01*
X11275060Y-5742940D02*
G75*
G03*
X11275060Y-5742940I-15240J0D01*
G01*
X11388090Y-3651250D02*
G75*
G03*
X11388090Y-3651250I-15240J0D01*
G01*
X11756390Y-4279900D02*
G75*
G03*
X11756390Y-4279900I-15240J0D01*
G01*
X12363450Y-4039300D02*
X12363450Y-4114300D01*
X12325950Y-4076800D02*
X12400950Y-4076800D01*
X12363450Y-4239300D02*
X12363450Y-4314300D01*
X12325950Y-4276800D02*
X12400950Y-4276800D01*
X12363450Y-4439300D02*
X12363450Y-4514300D01*
X12325950Y-4476800D02*
X12400950Y-4476800D01*
X12363450Y-4639300D02*
X12363450Y-4714300D01*
X12325950Y-4676800D02*
X12400950Y-4676800D01*
X12363450Y-4839300D02*
X12363450Y-4914300D01*
X12325950Y-4876800D02*
X12400950Y-4876800D01*
X7914956Y-1845356D02*
X7914956Y-1774644D01*
X7844244Y-1774644D01*
X7844244Y-1845356D01*
X7914956Y-1845356D01*
X8168956Y-1845356D02*
X8168956Y-1774644D01*
X8098244Y-1774644D01*
X8098244Y-1845356D01*
X8168956Y-1845356D01*
X8422956Y-1845356D02*
X8422956Y-1774644D01*
X8352244Y-1774644D01*
X8352244Y-1845356D01*
X8422956Y-1845356D01*
X8676956Y-1845356D02*
X8676956Y-1774644D01*
X8606244Y-1774644D01*
X8606244Y-1845356D01*
X8676956Y-1845356D01*
X8830106Y-6671106D02*
X8830106Y-6600394D01*
X8759394Y-6600394D01*
X8759394Y-6671106D01*
X8830106Y-6671106D01*
X8930956Y-1845356D02*
X8930956Y-1774644D01*
X8860244Y-1774644D01*
X8860244Y-1845356D01*
X8930956Y-1845356D01*
X9084106Y-6671106D02*
X9084106Y-6600394D01*
X9013394Y-6600394D01*
X9013394Y-6671106D01*
X9084106Y-6671106D01*
X9184956Y-1845356D02*
X9184956Y-1774644D01*
X9114244Y-1774644D01*
X9114244Y-1845356D01*
X9184956Y-1845356D01*
X9338106Y-6671106D02*
X9338106Y-6600394D01*
X9267394Y-6600394D01*
X9267394Y-6671106D01*
X9338106Y-6671106D01*
X9438956Y-1845356D02*
X9438956Y-1774644D01*
X9368244Y-1774644D01*
X9368244Y-1845356D01*
X9438956Y-1845356D01*
X9592106Y-6671106D02*
X9592106Y-6600394D01*
X9521394Y-6600394D01*
X9521394Y-6671106D01*
X9592106Y-6671106D01*
X9692956Y-1845356D02*
X9692956Y-1774644D01*
X9622244Y-1774644D01*
X9622244Y-1845356D01*
X9692956Y-1845356D01*
X9846106Y-6671106D02*
X9846106Y-6600394D01*
X9775394Y-6600394D01*
X9775394Y-6671106D01*
X9846106Y-6671106D01*
X9946956Y-1845356D02*
X9946956Y-1774644D01*
X9876244Y-1774644D01*
X9876244Y-1845356D01*
X9946956Y-1845356D01*
X10100106Y-6671106D02*
X10100106Y-6600394D01*
X10029394Y-6600394D01*
X10029394Y-6671106D01*
X10100106Y-6671106D01*
X10200956Y-1845356D02*
X10200956Y-1774644D01*
X10130244Y-1774644D01*
X10130244Y-1845356D01*
X10200956Y-1845356D01*
X10354106Y-6671106D02*
X10354106Y-6600394D01*
X10283394Y-6600394D01*
X10283394Y-6671106D01*
X10354106Y-6671106D01*
X10607356Y-1845356D02*
X10607356Y-1774644D01*
X10536644Y-1774644D01*
X10536644Y-1845356D01*
X10607356Y-1845356D01*
X10608106Y-6671106D02*
X10608106Y-6600394D01*
X10537394Y-6600394D01*
X10537394Y-6671106D01*
X10608106Y-6671106D01*
X10861356Y-1845356D02*
X10861356Y-1774644D01*
X10790644Y-1774644D01*
X10790644Y-1845356D01*
X10861356Y-1845356D01*
X11115356Y-1845356D02*
X11115356Y-1774644D01*
X11044644Y-1774644D01*
X11044644Y-1845356D01*
X11115356Y-1845356D01*
X11116106Y-6671106D02*
X11116106Y-6600394D01*
X11045394Y-6600394D01*
X11045394Y-6671106D01*
X11116106Y-6671106D01*
X11369356Y-1845356D02*
X11369356Y-1774644D01*
X11298644Y-1774644D01*
X11298644Y-1845356D01*
X11369356Y-1845356D01*
X11370106Y-6671106D02*
X11370106Y-6600394D01*
X11299394Y-6600394D01*
X11299394Y-6671106D01*
X11370106Y-6671106D01*
X11623356Y-1845356D02*
X11623356Y-1774644D01*
X11552644Y-1774644D01*
X11552644Y-1845356D01*
X11623356Y-1845356D01*
X11624106Y-6671106D02*
X11624106Y-6600394D01*
X11553394Y-6600394D01*
X11553394Y-6671106D01*
X11624106Y-6671106D01*
X11877356Y-1845356D02*
X11877356Y-1774644D01*
X11806644Y-1774644D01*
X11806644Y-1845356D01*
X11877356Y-1845356D01*
X11878106Y-6671106D02*
X11878106Y-6600394D01*
X11807394Y-6600394D01*
X11807394Y-6671106D01*
X11878106Y-6671106D01*
X12131356Y-1845356D02*
X12131356Y-1774644D01*
X12060644Y-1774644D01*
X12060644Y-1845356D01*
X12131356Y-1845356D01*
X12132106Y-6671106D02*
X12132106Y-6600394D01*
X12061394Y-6600394D01*
X12061394Y-6671106D01*
X12132106Y-6671106D01*
X12385356Y-1845356D02*
X12385356Y-1774644D01*
X12314644Y-1774644D01*
X12314644Y-1845356D01*
X12385356Y-1845356D01*
X12386106Y-6671106D02*
X12386106Y-6600394D01*
X12315394Y-6600394D01*
X12315394Y-6671106D01*
X12386106Y-6671106D01*
X9099550Y-5600850D02*
X9169550Y-5530850D01*
X9099550Y-5460850D01*
X9029550Y-5530850D01*
X9099550Y-5600850D01*
X9099550Y-6150850D02*
X9169550Y-6080850D01*
X9099550Y-6010850D01*
X9029550Y-6080850D01*
X9099550Y-6150850D01*
X9519550Y-5600850D02*
X9589550Y-5530850D01*
X9519550Y-5460850D01*
X9449550Y-5530850D01*
X9519550Y-5600850D01*
X9519550Y-6150850D02*
X9589550Y-6080850D01*
X9519550Y-6010850D01*
X9449550Y-6080850D01*
X9519550Y-6150850D01*
D12*
X6278928Y-7363214D02*
X6278928Y-7063214D01*
X6350357Y-7063214D01*
X6393214Y-7077500D01*
X6421786Y-7106071D01*
X6436071Y-7134643D01*
X6450357Y-7191786D01*
X6450357Y-7234643D01*
X6436071Y-7291786D01*
X6421786Y-7320357D01*
X6393214Y-7348929D01*
X6350357Y-7363214D01*
X6278928Y-7363214D01*
X6578928Y-7363214D02*
X6578928Y-7163214D01*
X6578928Y-7220357D02*
X6593214Y-7191786D01*
X6607500Y-7177500D01*
X6636071Y-7163214D01*
X6664643Y-7163214D01*
X6764643Y-7363214D02*
X6764643Y-7163214D01*
X6764643Y-7063214D02*
X6750357Y-7077500D01*
X6764643Y-7091786D01*
X6778928Y-7077500D01*
X6764643Y-7063214D01*
X6764643Y-7091786D01*
X6950357Y-7363214D02*
X6921786Y-7348929D01*
X6907500Y-7320357D01*
X6907500Y-7063214D01*
X7107500Y-7363214D02*
X7078928Y-7348929D01*
X7064643Y-7320357D01*
X7064643Y-7063214D01*
X7450357Y-7363214D02*
X7450357Y-7063214D01*
X7550357Y-7277500D01*
X7650357Y-7063214D01*
X7650357Y-7363214D01*
X7921786Y-7363214D02*
X7921786Y-7206071D01*
X7907500Y-7177500D01*
X7878928Y-7163214D01*
X7821786Y-7163214D01*
X7793214Y-7177500D01*
X7921786Y-7348929D02*
X7893214Y-7363214D01*
X7821786Y-7363214D01*
X7793214Y-7348929D01*
X7778928Y-7320357D01*
X7778928Y-7291786D01*
X7793214Y-7263214D01*
X7821786Y-7248929D01*
X7893214Y-7248929D01*
X7921786Y-7234643D01*
X8064643Y-7163214D02*
X8064643Y-7463214D01*
X8064643Y-7177500D02*
X8093214Y-7163214D01*
X8150357Y-7163214D01*
X8178928Y-7177500D01*
X8193214Y-7191786D01*
X8207500Y-7220357D01*
X8207500Y-7306071D01*
X8193214Y-7334643D01*
X8178928Y-7348929D01*
X8150357Y-7363214D01*
X8093214Y-7363214D01*
X8064643Y-7348929D01*
X8336071Y-7334643D02*
X8350357Y-7348929D01*
X8336071Y-7363214D01*
X8321786Y-7348929D01*
X8336071Y-7334643D01*
X8336071Y-7363214D01*
X8336071Y-7177500D02*
X8350357Y-7191786D01*
X8336071Y-7206071D01*
X8321786Y-7191786D01*
X8336071Y-7177500D01*
X8336071Y-7206071D01*
X5972500Y-7847500D02*
X5992500Y-7867500D01*
X5992500Y-7847500D02*
X5972500Y-7867500D01*
X6336071Y-7693214D02*
X6364643Y-7693214D01*
X6393214Y-7707500D01*
X6407500Y-7721786D01*
X6421786Y-7750357D01*
X6436071Y-7807500D01*
X6436071Y-7878929D01*
X6421786Y-7936071D01*
X6407500Y-7964643D01*
X6393214Y-7978929D01*
X6364643Y-7993214D01*
X6336071Y-7993214D01*
X6307500Y-7978929D01*
X6293214Y-7964643D01*
X6278928Y-7936071D01*
X6264643Y-7878929D01*
X6264643Y-7807500D01*
X6278928Y-7750357D01*
X6293214Y-7721786D01*
X6307500Y-7707500D01*
X6336071Y-7693214D01*
X6564643Y-7964643D02*
X6578928Y-7978929D01*
X6564643Y-7993214D01*
X6550357Y-7978929D01*
X6564643Y-7964643D01*
X6564643Y-7993214D01*
X6693214Y-7721786D02*
X6707500Y-7707500D01*
X6736071Y-7693214D01*
X6807500Y-7693214D01*
X6836071Y-7707500D01*
X6850357Y-7721786D01*
X6864643Y-7750357D01*
X6864643Y-7778929D01*
X6850357Y-7821786D01*
X6678928Y-7993214D01*
X6864643Y-7993214D01*
X7050357Y-7693214D02*
X7078928Y-7693214D01*
X7107500Y-7707500D01*
X7121786Y-7721786D01*
X7136071Y-7750357D01*
X7150357Y-7807500D01*
X7150357Y-7878929D01*
X7136071Y-7936071D01*
X7121786Y-7964643D01*
X7107500Y-7978929D01*
X7078928Y-7993214D01*
X7050357Y-7993214D01*
X7021786Y-7978929D01*
X7007500Y-7964643D01*
X6993214Y-7936071D01*
X6978928Y-7878929D01*
X6978928Y-7807500D01*
X6993214Y-7750357D01*
X7007500Y-7721786D01*
X7021786Y-7707500D01*
X7050357Y-7693214D01*
X7336071Y-7693214D02*
X7364643Y-7693214D01*
X7393214Y-7707500D01*
X7407500Y-7721786D01*
X7421786Y-7750357D01*
X7436071Y-7807500D01*
X7436071Y-7878929D01*
X7421786Y-7936071D01*
X7407500Y-7964643D01*
X7393214Y-7978929D01*
X7364643Y-7993214D01*
X7336071Y-7993214D01*
X7307500Y-7978929D01*
X7293214Y-7964643D01*
X7278928Y-7936071D01*
X7264643Y-7878929D01*
X7264643Y-7807500D01*
X7278928Y-7750357D01*
X7293214Y-7721786D01*
X7307500Y-7707500D01*
X7336071Y-7693214D01*
X7564643Y-7993214D02*
X7564643Y-7793214D01*
X7564643Y-7821786D02*
X7578928Y-7807500D01*
X7607500Y-7793214D01*
X7650357Y-7793214D01*
X7678928Y-7807500D01*
X7693214Y-7836071D01*
X7693214Y-7993214D01*
X7693214Y-7836071D02*
X7707500Y-7807500D01*
X7736071Y-7793214D01*
X7778928Y-7793214D01*
X7807500Y-7807500D01*
X7821786Y-7836071D01*
X7821786Y-7993214D01*
X7964643Y-7993214D02*
X7964643Y-7793214D01*
X7964643Y-7821786D02*
X7978928Y-7807500D01*
X8007500Y-7793214D01*
X8050357Y-7793214D01*
X8078928Y-7807500D01*
X8093214Y-7836071D01*
X8093214Y-7993214D01*
X8093214Y-7836071D02*
X8107500Y-7807500D01*
X8136071Y-7793214D01*
X8178928Y-7793214D01*
X8207500Y-7807500D01*
X8221786Y-7836071D01*
X8221786Y-7993214D01*
X8807500Y-7678929D02*
X8550357Y-8064643D01*
X9193214Y-7693214D02*
X9221786Y-7693214D01*
X9250357Y-7707500D01*
X9264643Y-7721786D01*
X9278928Y-7750357D01*
X9293214Y-7807500D01*
X9293214Y-7878929D01*
X9278928Y-7936071D01*
X9264643Y-7964643D01*
X9250357Y-7978929D01*
X9221786Y-7993214D01*
X9193214Y-7993214D01*
X9164643Y-7978929D01*
X9150357Y-7964643D01*
X9136071Y-7936071D01*
X9121786Y-7878929D01*
X9121786Y-7807500D01*
X9136071Y-7750357D01*
X9150357Y-7721786D01*
X9164643Y-7707500D01*
X9193214Y-7693214D01*
X9421786Y-7964643D02*
X9436071Y-7978929D01*
X9421786Y-7993214D01*
X9407500Y-7978929D01*
X9421786Y-7964643D01*
X9421786Y-7993214D01*
X9621786Y-7693214D02*
X9650357Y-7693214D01*
X9678928Y-7707500D01*
X9693214Y-7721786D01*
X9707500Y-7750357D01*
X9721786Y-7807500D01*
X9721786Y-7878929D01*
X9707500Y-7936071D01*
X9693214Y-7964643D01*
X9678928Y-7978929D01*
X9650357Y-7993214D01*
X9621786Y-7993214D01*
X9593214Y-7978929D01*
X9578928Y-7964643D01*
X9564643Y-7936071D01*
X9550357Y-7878929D01*
X9550357Y-7807500D01*
X9564643Y-7750357D01*
X9578928Y-7721786D01*
X9593214Y-7707500D01*
X9621786Y-7693214D01*
X9907500Y-7693214D02*
X9936071Y-7693214D01*
X9964643Y-7707500D01*
X9978928Y-7721786D01*
X9993214Y-7750357D01*
X10007500Y-7807500D01*
X10007500Y-7878929D01*
X9993214Y-7936071D01*
X9978928Y-7964643D01*
X9964643Y-7978929D01*
X9936071Y-7993214D01*
X9907500Y-7993214D01*
X9878928Y-7978929D01*
X9864643Y-7964643D01*
X9850357Y-7936071D01*
X9836071Y-7878929D01*
X9836071Y-7807500D01*
X9850357Y-7750357D01*
X9864643Y-7721786D01*
X9878928Y-7707500D01*
X9907500Y-7693214D01*
X10107500Y-7693214D02*
X10307500Y-7693214D01*
X10178928Y-7993214D01*
X10436071Y-7993214D02*
X10493214Y-7993214D01*
X10521786Y-7978929D01*
X10536071Y-7964643D01*
X10564643Y-7921786D01*
X10578928Y-7864643D01*
X10578928Y-7750357D01*
X10564643Y-7721786D01*
X10550357Y-7707500D01*
X10521786Y-7693214D01*
X10464643Y-7693214D01*
X10436071Y-7707500D01*
X10421786Y-7721786D01*
X10407500Y-7750357D01*
X10407500Y-7821786D01*
X10421786Y-7850357D01*
X10436071Y-7864643D01*
X10464643Y-7878929D01*
X10521786Y-7878929D01*
X10550357Y-7864643D01*
X10564643Y-7850357D01*
X10578928Y-7821786D01*
X10693214Y-7693214D02*
X10693214Y-7750357D01*
X10807500Y-7693214D02*
X10807500Y-7750357D01*
X11250357Y-8107500D02*
X11236071Y-8093214D01*
X11207500Y-8050357D01*
X11193214Y-8021786D01*
X11178928Y-7978929D01*
X11164643Y-7907500D01*
X11164643Y-7850357D01*
X11178928Y-7778929D01*
X11193214Y-7736071D01*
X11207500Y-7707500D01*
X11236071Y-7664643D01*
X11250357Y-7650357D01*
X11378928Y-7993214D02*
X11436071Y-7993214D01*
X11464643Y-7978929D01*
X11478928Y-7964643D01*
X11507500Y-7921786D01*
X11521786Y-7864643D01*
X11521786Y-7750357D01*
X11507500Y-7721786D01*
X11493214Y-7707500D01*
X11464643Y-7693214D01*
X11407500Y-7693214D01*
X11378928Y-7707500D01*
X11364643Y-7721786D01*
X11350357Y-7750357D01*
X11350357Y-7821786D01*
X11364643Y-7850357D01*
X11378928Y-7864643D01*
X11407500Y-7878929D01*
X11464643Y-7878929D01*
X11493214Y-7864643D01*
X11507500Y-7850357D01*
X11521786Y-7821786D01*
X11878928Y-7993214D02*
X11878928Y-7693214D01*
X12007500Y-7993214D02*
X12007500Y-7836071D01*
X11993214Y-7807500D01*
X11964643Y-7793214D01*
X11921786Y-7793214D01*
X11893214Y-7807500D01*
X11878928Y-7821786D01*
X12193214Y-7993214D02*
X12164643Y-7978929D01*
X12150357Y-7964643D01*
X12136071Y-7936071D01*
X12136071Y-7850357D01*
X12150357Y-7821786D01*
X12164643Y-7807500D01*
X12193214Y-7793214D01*
X12236071Y-7793214D01*
X12264643Y-7807500D01*
X12278928Y-7821786D01*
X12293214Y-7850357D01*
X12293214Y-7936071D01*
X12278928Y-7964643D01*
X12264643Y-7978929D01*
X12236071Y-7993214D01*
X12193214Y-7993214D01*
X12464643Y-7993214D02*
X12436071Y-7978929D01*
X12421786Y-7950357D01*
X12421786Y-7693214D01*
X12693214Y-7978929D02*
X12664643Y-7993214D01*
X12607500Y-7993214D01*
X12578928Y-7978929D01*
X12564643Y-7950357D01*
X12564643Y-7836071D01*
X12578928Y-7807500D01*
X12607500Y-7793214D01*
X12664643Y-7793214D01*
X12693214Y-7807500D01*
X12707500Y-7836071D01*
X12707500Y-7864643D01*
X12564643Y-7893214D01*
X12821786Y-7978929D02*
X12850357Y-7993214D01*
X12907500Y-7993214D01*
X12936071Y-7978929D01*
X12950357Y-7950357D01*
X12950357Y-7936071D01*
X12936071Y-7907500D01*
X12907500Y-7893214D01*
X12864643Y-7893214D01*
X12836071Y-7878929D01*
X12821786Y-7850357D01*
X12821786Y-7836071D01*
X12836071Y-7807500D01*
X12864643Y-7793214D01*
X12907500Y-7793214D01*
X12936071Y-7807500D01*
X13050357Y-8107500D02*
X13064643Y-8093214D01*
X13093214Y-8050357D01*
X13107500Y-8021786D01*
X13121786Y-7978929D01*
X13136071Y-7907500D01*
X13136071Y-7850357D01*
X13121786Y-7778929D01*
X13107500Y-7736071D01*
X13093214Y-7707500D01*
X13064643Y-7664643D01*
X13050357Y-7650357D01*
X5992500Y-8253500D02*
G75*
G03*
X5992500Y-8253500I-15240J0D01*
G01*
X6336071Y-8089214D02*
X6364643Y-8089214D01*
X6393214Y-8103500D01*
X6407500Y-8117786D01*
X6421786Y-8146357D01*
X6436071Y-8203500D01*
X6436071Y-8274929D01*
X6421786Y-8332071D01*
X6407500Y-8360643D01*
X6393214Y-8374929D01*
X6364643Y-8389214D01*
X6336071Y-8389214D01*
X6307500Y-8374929D01*
X6293214Y-8360643D01*
X6278928Y-8332071D01*
X6264643Y-8274929D01*
X6264643Y-8203500D01*
X6278928Y-8146357D01*
X6293214Y-8117786D01*
X6307500Y-8103500D01*
X6336071Y-8089214D01*
X6564643Y-8360643D02*
X6578928Y-8374929D01*
X6564643Y-8389214D01*
X6550357Y-8374929D01*
X6564643Y-8360643D01*
X6564643Y-8389214D01*
X6678928Y-8089214D02*
X6864643Y-8089214D01*
X6764643Y-8203500D01*
X6807500Y-8203500D01*
X6836071Y-8217786D01*
X6850357Y-8232071D01*
X6864643Y-8260643D01*
X6864643Y-8332071D01*
X6850357Y-8360643D01*
X6836071Y-8374929D01*
X6807500Y-8389214D01*
X6721786Y-8389214D01*
X6693214Y-8374929D01*
X6678928Y-8360643D01*
X7050357Y-8089214D02*
X7078928Y-8089214D01*
X7107500Y-8103500D01*
X7121786Y-8117786D01*
X7136071Y-8146357D01*
X7150357Y-8203500D01*
X7150357Y-8274929D01*
X7136071Y-8332071D01*
X7121786Y-8360643D01*
X7107500Y-8374929D01*
X7078928Y-8389214D01*
X7050357Y-8389214D01*
X7021786Y-8374929D01*
X7007500Y-8360643D01*
X6993214Y-8332071D01*
X6978928Y-8274929D01*
X6978928Y-8203500D01*
X6993214Y-8146357D01*
X7007500Y-8117786D01*
X7021786Y-8103500D01*
X7050357Y-8089214D01*
X7421786Y-8089214D02*
X7278928Y-8089214D01*
X7264643Y-8232071D01*
X7278928Y-8217786D01*
X7307500Y-8203500D01*
X7378928Y-8203500D01*
X7407500Y-8217786D01*
X7421786Y-8232071D01*
X7436071Y-8260643D01*
X7436071Y-8332071D01*
X7421786Y-8360643D01*
X7407500Y-8374929D01*
X7378928Y-8389214D01*
X7307500Y-8389214D01*
X7278928Y-8374929D01*
X7264643Y-8360643D01*
X7564643Y-8389214D02*
X7564643Y-8189214D01*
X7564643Y-8217786D02*
X7578928Y-8203500D01*
X7607500Y-8189214D01*
X7650357Y-8189214D01*
X7678928Y-8203500D01*
X7693214Y-8232071D01*
X7693214Y-8389214D01*
X7693214Y-8232071D02*
X7707500Y-8203500D01*
X7736071Y-8189214D01*
X7778928Y-8189214D01*
X7807500Y-8203500D01*
X7821786Y-8232071D01*
X7821786Y-8389214D01*
X7964643Y-8389214D02*
X7964643Y-8189214D01*
X7964643Y-8217786D02*
X7978928Y-8203500D01*
X8007500Y-8189214D01*
X8050357Y-8189214D01*
X8078928Y-8203500D01*
X8093214Y-8232071D01*
X8093214Y-8389214D01*
X8093214Y-8232071D02*
X8107500Y-8203500D01*
X8136071Y-8189214D01*
X8178928Y-8189214D01*
X8207500Y-8203500D01*
X8221786Y-8232071D01*
X8221786Y-8389214D01*
X8807500Y-8074929D02*
X8550357Y-8460643D01*
X9193214Y-8089214D02*
X9221786Y-8089214D01*
X9250357Y-8103500D01*
X9264643Y-8117786D01*
X9278928Y-8146357D01*
X9293214Y-8203500D01*
X9293214Y-8274929D01*
X9278928Y-8332071D01*
X9264643Y-8360643D01*
X9250357Y-8374929D01*
X9221786Y-8389214D01*
X9193214Y-8389214D01*
X9164643Y-8374929D01*
X9150357Y-8360643D01*
X9136071Y-8332071D01*
X9121786Y-8274929D01*
X9121786Y-8203500D01*
X9136071Y-8146357D01*
X9150357Y-8117786D01*
X9164643Y-8103500D01*
X9193214Y-8089214D01*
X9421786Y-8360643D02*
X9436071Y-8374929D01*
X9421786Y-8389214D01*
X9407500Y-8374929D01*
X9421786Y-8360643D01*
X9421786Y-8389214D01*
X9621786Y-8089214D02*
X9650357Y-8089214D01*
X9678928Y-8103500D01*
X9693214Y-8117786D01*
X9707500Y-8146357D01*
X9721786Y-8203500D01*
X9721786Y-8274929D01*
X9707500Y-8332071D01*
X9693214Y-8360643D01*
X9678928Y-8374929D01*
X9650357Y-8389214D01*
X9621786Y-8389214D01*
X9593214Y-8374929D01*
X9578928Y-8360643D01*
X9564643Y-8332071D01*
X9550357Y-8274929D01*
X9550357Y-8203500D01*
X9564643Y-8146357D01*
X9578928Y-8117786D01*
X9593214Y-8103500D01*
X9621786Y-8089214D01*
X10007500Y-8389214D02*
X9836071Y-8389214D01*
X9921786Y-8389214D02*
X9921786Y-8089214D01*
X9893214Y-8132071D01*
X9864643Y-8160643D01*
X9836071Y-8174929D01*
X10121786Y-8117786D02*
X10136071Y-8103500D01*
X10164643Y-8089214D01*
X10236071Y-8089214D01*
X10264643Y-8103500D01*
X10278928Y-8117786D01*
X10293214Y-8146357D01*
X10293214Y-8174929D01*
X10278928Y-8217786D01*
X10107500Y-8389214D01*
X10293214Y-8389214D01*
X10478928Y-8089214D02*
X10507500Y-8089214D01*
X10536071Y-8103500D01*
X10550357Y-8117786D01*
X10564643Y-8146357D01*
X10578928Y-8203500D01*
X10578928Y-8274929D01*
X10564643Y-8332071D01*
X10550357Y-8360643D01*
X10536071Y-8374929D01*
X10507500Y-8389214D01*
X10478928Y-8389214D01*
X10450357Y-8374929D01*
X10436071Y-8360643D01*
X10421786Y-8332071D01*
X10407500Y-8274929D01*
X10407500Y-8203500D01*
X10421786Y-8146357D01*
X10436071Y-8117786D01*
X10450357Y-8103500D01*
X10478928Y-8089214D01*
X10693214Y-8089214D02*
X10693214Y-8146357D01*
X10807500Y-8089214D02*
X10807500Y-8146357D01*
X11250357Y-8503500D02*
X11236071Y-8489214D01*
X11207500Y-8446357D01*
X11193214Y-8417786D01*
X11178928Y-8374929D01*
X11164643Y-8303500D01*
X11164643Y-8246357D01*
X11178928Y-8174929D01*
X11193214Y-8132071D01*
X11207500Y-8103500D01*
X11236071Y-8060643D01*
X11250357Y-8046357D01*
X11521786Y-8389214D02*
X11350357Y-8389214D01*
X11436071Y-8389214D02*
X11436071Y-8089214D01*
X11407500Y-8132071D01*
X11378928Y-8160643D01*
X11350357Y-8174929D01*
X11807500Y-8389214D02*
X11636071Y-8389214D01*
X11721786Y-8389214D02*
X11721786Y-8089214D01*
X11693214Y-8132071D01*
X11664643Y-8160643D01*
X11636071Y-8174929D01*
X11978928Y-8217786D02*
X11950357Y-8203500D01*
X11936071Y-8189214D01*
X11921786Y-8160643D01*
X11921786Y-8146357D01*
X11936071Y-8117786D01*
X11950357Y-8103500D01*
X11978928Y-8089214D01*
X12036071Y-8089214D01*
X12064643Y-8103500D01*
X12078928Y-8117786D01*
X12093214Y-8146357D01*
X12093214Y-8160643D01*
X12078928Y-8189214D01*
X12064643Y-8203500D01*
X12036071Y-8217786D01*
X11978928Y-8217786D01*
X11950357Y-8232071D01*
X11936071Y-8246357D01*
X11921786Y-8274929D01*
X11921786Y-8332071D01*
X11936071Y-8360643D01*
X11950357Y-8374929D01*
X11978928Y-8389214D01*
X12036071Y-8389214D01*
X12064643Y-8374929D01*
X12078928Y-8360643D01*
X12093214Y-8332071D01*
X12093214Y-8274929D01*
X12078928Y-8246357D01*
X12064643Y-8232071D01*
X12036071Y-8217786D01*
X12450357Y-8389214D02*
X12450357Y-8089214D01*
X12578928Y-8389214D02*
X12578928Y-8232071D01*
X12564643Y-8203500D01*
X12536071Y-8189214D01*
X12493214Y-8189214D01*
X12464643Y-8203500D01*
X12450357Y-8217786D01*
X12764643Y-8389214D02*
X12736071Y-8374929D01*
X12721786Y-8360643D01*
X12707500Y-8332071D01*
X12707500Y-8246357D01*
X12721786Y-8217786D01*
X12736071Y-8203500D01*
X12764643Y-8189214D01*
X12807500Y-8189214D01*
X12836071Y-8203500D01*
X12850357Y-8217786D01*
X12864643Y-8246357D01*
X12864643Y-8332071D01*
X12850357Y-8360643D01*
X12836071Y-8374929D01*
X12807500Y-8389214D01*
X12764643Y-8389214D01*
X13036071Y-8389214D02*
X13007500Y-8374929D01*
X12993214Y-8346357D01*
X12993214Y-8089214D01*
X13264643Y-8374929D02*
X13236071Y-8389214D01*
X13178928Y-8389214D01*
X13150357Y-8374929D01*
X13136071Y-8346357D01*
X13136071Y-8232071D01*
X13150357Y-8203500D01*
X13178928Y-8189214D01*
X13236071Y-8189214D01*
X13264643Y-8203500D01*
X13278928Y-8232071D01*
X13278928Y-8260643D01*
X13136071Y-8289214D01*
X13393214Y-8374929D02*
X13421786Y-8389214D01*
X13478928Y-8389214D01*
X13507500Y-8374929D01*
X13521786Y-8346357D01*
X13521786Y-8332071D01*
X13507500Y-8303500D01*
X13478928Y-8289214D01*
X13436071Y-8289214D01*
X13407500Y-8274929D01*
X13393214Y-8246357D01*
X13393214Y-8232071D01*
X13407500Y-8203500D01*
X13436071Y-8189214D01*
X13478928Y-8189214D01*
X13507500Y-8203500D01*
X13621786Y-8503500D02*
X13636071Y-8489214D01*
X13664643Y-8446357D01*
X13678928Y-8417786D01*
X13693214Y-8374929D01*
X13707500Y-8303500D01*
X13707500Y-8246357D01*
X13693214Y-8174929D01*
X13678928Y-8132071D01*
X13664643Y-8103500D01*
X13636071Y-8060643D01*
X13621786Y-8046357D01*
X5955000Y-8612000D02*
X5955000Y-8687000D01*
X5917500Y-8649500D02*
X5992500Y-8649500D01*
X6336071Y-8485214D02*
X6364643Y-8485214D01*
X6393214Y-8499500D01*
X6407500Y-8513786D01*
X6421786Y-8542357D01*
X6436071Y-8599500D01*
X6436071Y-8670929D01*
X6421786Y-8728072D01*
X6407500Y-8756643D01*
X6393214Y-8770929D01*
X6364643Y-8785214D01*
X6336071Y-8785214D01*
X6307500Y-8770929D01*
X6293214Y-8756643D01*
X6278928Y-8728072D01*
X6264643Y-8670929D01*
X6264643Y-8599500D01*
X6278928Y-8542357D01*
X6293214Y-8513786D01*
X6307500Y-8499500D01*
X6336071Y-8485214D01*
X6564643Y-8756643D02*
X6578928Y-8770929D01*
X6564643Y-8785214D01*
X6550357Y-8770929D01*
X6564643Y-8756643D01*
X6564643Y-8785214D01*
X6678928Y-8485214D02*
X6878928Y-8485214D01*
X6750357Y-8785214D01*
X7136071Y-8485214D02*
X6993214Y-8485214D01*
X6978928Y-8628072D01*
X6993214Y-8613786D01*
X7021786Y-8599500D01*
X7093214Y-8599500D01*
X7121786Y-8613786D01*
X7136071Y-8628072D01*
X7150357Y-8656643D01*
X7150357Y-8728072D01*
X7136071Y-8756643D01*
X7121786Y-8770929D01*
X7093214Y-8785214D01*
X7021786Y-8785214D01*
X6993214Y-8770929D01*
X6978928Y-8756643D01*
X7336071Y-8485214D02*
X7364643Y-8485214D01*
X7393214Y-8499500D01*
X7407500Y-8513786D01*
X7421786Y-8542357D01*
X7436071Y-8599500D01*
X7436071Y-8670929D01*
X7421786Y-8728072D01*
X7407500Y-8756643D01*
X7393214Y-8770929D01*
X7364643Y-8785214D01*
X7336071Y-8785214D01*
X7307500Y-8770929D01*
X7293214Y-8756643D01*
X7278928Y-8728072D01*
X7264643Y-8670929D01*
X7264643Y-8599500D01*
X7278928Y-8542357D01*
X7293214Y-8513786D01*
X7307500Y-8499500D01*
X7336071Y-8485214D01*
X7564643Y-8785214D02*
X7564643Y-8585214D01*
X7564643Y-8613786D02*
X7578928Y-8599500D01*
X7607500Y-8585214D01*
X7650357Y-8585214D01*
X7678928Y-8599500D01*
X7693214Y-8628072D01*
X7693214Y-8785214D01*
X7693214Y-8628072D02*
X7707500Y-8599500D01*
X7736071Y-8585214D01*
X7778928Y-8585214D01*
X7807500Y-8599500D01*
X7821786Y-8628072D01*
X7821786Y-8785214D01*
X7964643Y-8785214D02*
X7964643Y-8585214D01*
X7964643Y-8613786D02*
X7978928Y-8599500D01*
X8007500Y-8585214D01*
X8050357Y-8585214D01*
X8078928Y-8599500D01*
X8093214Y-8628072D01*
X8093214Y-8785214D01*
X8093214Y-8628072D02*
X8107500Y-8599500D01*
X8136071Y-8585214D01*
X8178928Y-8585214D01*
X8207500Y-8599500D01*
X8221786Y-8628072D01*
X8221786Y-8785214D01*
X8807500Y-8470929D02*
X8550357Y-8856643D01*
X9193214Y-8485214D02*
X9221786Y-8485214D01*
X9250357Y-8499500D01*
X9264643Y-8513786D01*
X9278928Y-8542357D01*
X9293214Y-8599500D01*
X9293214Y-8670929D01*
X9278928Y-8728072D01*
X9264643Y-8756643D01*
X9250357Y-8770929D01*
X9221786Y-8785214D01*
X9193214Y-8785214D01*
X9164643Y-8770929D01*
X9150357Y-8756643D01*
X9136071Y-8728072D01*
X9121786Y-8670929D01*
X9121786Y-8599500D01*
X9136071Y-8542357D01*
X9150357Y-8513786D01*
X9164643Y-8499500D01*
X9193214Y-8485214D01*
X9421786Y-8756643D02*
X9436071Y-8770929D01*
X9421786Y-8785214D01*
X9407500Y-8770929D01*
X9421786Y-8756643D01*
X9421786Y-8785214D01*
X9621786Y-8485214D02*
X9650357Y-8485214D01*
X9678928Y-8499500D01*
X9693214Y-8513786D01*
X9707500Y-8542357D01*
X9721786Y-8599500D01*
X9721786Y-8670929D01*
X9707500Y-8728072D01*
X9693214Y-8756643D01*
X9678928Y-8770929D01*
X9650357Y-8785214D01*
X9621786Y-8785214D01*
X9593214Y-8770929D01*
X9578928Y-8756643D01*
X9564643Y-8728072D01*
X9550357Y-8670929D01*
X9550357Y-8599500D01*
X9564643Y-8542357D01*
X9578928Y-8513786D01*
X9593214Y-8499500D01*
X9621786Y-8485214D01*
X9836071Y-8513786D02*
X9850357Y-8499500D01*
X9878928Y-8485214D01*
X9950357Y-8485214D01*
X9978928Y-8499500D01*
X9993214Y-8513786D01*
X10007500Y-8542357D01*
X10007500Y-8570929D01*
X9993214Y-8613786D01*
X9821786Y-8785214D01*
X10007500Y-8785214D01*
X10150357Y-8785214D02*
X10207500Y-8785214D01*
X10236071Y-8770929D01*
X10250357Y-8756643D01*
X10278928Y-8713786D01*
X10293214Y-8656643D01*
X10293214Y-8542357D01*
X10278928Y-8513786D01*
X10264643Y-8499500D01*
X10236071Y-8485214D01*
X10178928Y-8485214D01*
X10150357Y-8499500D01*
X10136071Y-8513786D01*
X10121786Y-8542357D01*
X10121786Y-8613786D01*
X10136071Y-8642357D01*
X10150357Y-8656643D01*
X10178928Y-8670929D01*
X10236071Y-8670929D01*
X10264643Y-8656643D01*
X10278928Y-8642357D01*
X10293214Y-8613786D01*
X10564643Y-8485214D02*
X10421786Y-8485214D01*
X10407500Y-8628072D01*
X10421786Y-8613786D01*
X10450357Y-8599500D01*
X10521786Y-8599500D01*
X10550357Y-8613786D01*
X10564643Y-8628072D01*
X10578928Y-8656643D01*
X10578928Y-8728072D01*
X10564643Y-8756643D01*
X10550357Y-8770929D01*
X10521786Y-8785214D01*
X10450357Y-8785214D01*
X10421786Y-8770929D01*
X10407500Y-8756643D01*
X10693214Y-8485214D02*
X10693214Y-8542357D01*
X10807500Y-8485214D02*
X10807500Y-8542357D01*
X11250357Y-8899500D02*
X11236071Y-8885214D01*
X11207500Y-8842357D01*
X11193214Y-8813786D01*
X11178928Y-8770929D01*
X11164643Y-8699500D01*
X11164643Y-8642357D01*
X11178928Y-8570929D01*
X11193214Y-8528072D01*
X11207500Y-8499500D01*
X11236071Y-8456643D01*
X11250357Y-8442357D01*
X11507500Y-8485214D02*
X11364643Y-8485214D01*
X11350357Y-8628072D01*
X11364643Y-8613786D01*
X11393214Y-8599500D01*
X11464643Y-8599500D01*
X11493214Y-8613786D01*
X11507500Y-8628072D01*
X11521786Y-8656643D01*
X11521786Y-8728072D01*
X11507500Y-8756643D01*
X11493214Y-8770929D01*
X11464643Y-8785214D01*
X11393214Y-8785214D01*
X11364643Y-8770929D01*
X11350357Y-8756643D01*
X11878928Y-8785214D02*
X11878928Y-8485214D01*
X12007500Y-8785214D02*
X12007500Y-8628072D01*
X11993214Y-8599500D01*
X11964643Y-8585214D01*
X11921786Y-8585214D01*
X11893214Y-8599500D01*
X11878928Y-8613786D01*
X12193214Y-8785214D02*
X12164643Y-8770929D01*
X12150357Y-8756643D01*
X12136071Y-8728072D01*
X12136071Y-8642357D01*
X12150357Y-8613786D01*
X12164643Y-8599500D01*
X12193214Y-8585214D01*
X12236071Y-8585214D01*
X12264643Y-8599500D01*
X12278928Y-8613786D01*
X12293214Y-8642357D01*
X12293214Y-8728072D01*
X12278928Y-8756643D01*
X12264643Y-8770929D01*
X12236071Y-8785214D01*
X12193214Y-8785214D01*
X12464643Y-8785214D02*
X12436071Y-8770929D01*
X12421786Y-8742357D01*
X12421786Y-8485214D01*
X12693214Y-8770929D02*
X12664643Y-8785214D01*
X12607500Y-8785214D01*
X12578928Y-8770929D01*
X12564643Y-8742357D01*
X12564643Y-8628072D01*
X12578928Y-8599500D01*
X12607500Y-8585214D01*
X12664643Y-8585214D01*
X12693214Y-8599500D01*
X12707500Y-8628072D01*
X12707500Y-8656643D01*
X12564643Y-8685214D01*
X12821786Y-8770929D02*
X12850357Y-8785214D01*
X12907500Y-8785214D01*
X12936071Y-8770929D01*
X12950357Y-8742357D01*
X12950357Y-8728072D01*
X12936071Y-8699500D01*
X12907500Y-8685214D01*
X12864643Y-8685214D01*
X12836071Y-8670929D01*
X12821786Y-8642357D01*
X12821786Y-8628072D01*
X12836071Y-8599500D01*
X12864643Y-8585214D01*
X12907500Y-8585214D01*
X12936071Y-8599500D01*
X13050357Y-8899500D02*
X13064643Y-8885214D01*
X13093214Y-8842357D01*
X13107500Y-8813786D01*
X13121786Y-8770929D01*
X13136071Y-8699500D01*
X13136071Y-8642357D01*
X13121786Y-8570929D01*
X13107500Y-8528072D01*
X13093214Y-8499500D01*
X13064643Y-8456643D01*
X13050357Y-8442357D01*
X5977856Y-9080856D02*
X5977856Y-9010144D01*
X5907144Y-9010144D01*
X5907144Y-9080856D01*
X5977856Y-9080856D01*
X6436071Y-9181214D02*
X6264643Y-9181214D01*
X6350357Y-9181214D02*
X6350357Y-8881214D01*
X6321786Y-8924072D01*
X6293214Y-8952643D01*
X6264643Y-8966929D01*
X6564643Y-9152643D02*
X6578928Y-9166929D01*
X6564643Y-9181214D01*
X6550357Y-9166929D01*
X6564643Y-9152643D01*
X6564643Y-9181214D01*
X6764643Y-8881214D02*
X6793214Y-8881214D01*
X6821786Y-8895500D01*
X6836071Y-8909786D01*
X6850357Y-8938357D01*
X6864643Y-8995500D01*
X6864643Y-9066929D01*
X6850357Y-9124072D01*
X6836071Y-9152643D01*
X6821786Y-9166929D01*
X6793214Y-9181214D01*
X6764643Y-9181214D01*
X6736071Y-9166929D01*
X6721786Y-9152643D01*
X6707500Y-9124072D01*
X6693214Y-9066929D01*
X6693214Y-8995500D01*
X6707500Y-8938357D01*
X6721786Y-8909786D01*
X6736071Y-8895500D01*
X6764643Y-8881214D01*
X7050357Y-8881214D02*
X7078928Y-8881214D01*
X7107500Y-8895500D01*
X7121786Y-8909786D01*
X7136071Y-8938357D01*
X7150357Y-8995500D01*
X7150357Y-9066929D01*
X7136071Y-9124072D01*
X7121786Y-9152643D01*
X7107500Y-9166929D01*
X7078928Y-9181214D01*
X7050357Y-9181214D01*
X7021786Y-9166929D01*
X7007500Y-9152643D01*
X6993214Y-9124072D01*
X6978928Y-9066929D01*
X6978928Y-8995500D01*
X6993214Y-8938357D01*
X7007500Y-8909786D01*
X7021786Y-8895500D01*
X7050357Y-8881214D01*
X7336071Y-8881214D02*
X7364643Y-8881214D01*
X7393214Y-8895500D01*
X7407500Y-8909786D01*
X7421786Y-8938357D01*
X7436071Y-8995500D01*
X7436071Y-9066929D01*
X7421786Y-9124072D01*
X7407500Y-9152643D01*
X7393214Y-9166929D01*
X7364643Y-9181214D01*
X7336071Y-9181214D01*
X7307500Y-9166929D01*
X7293214Y-9152643D01*
X7278928Y-9124072D01*
X7264643Y-9066929D01*
X7264643Y-8995500D01*
X7278928Y-8938357D01*
X7293214Y-8909786D01*
X7307500Y-8895500D01*
X7336071Y-8881214D01*
X7564643Y-9181214D02*
X7564643Y-8981214D01*
X7564643Y-9009786D02*
X7578928Y-8995500D01*
X7607500Y-8981214D01*
X7650357Y-8981214D01*
X7678928Y-8995500D01*
X7693214Y-9024072D01*
X7693214Y-9181214D01*
X7693214Y-9024072D02*
X7707500Y-8995500D01*
X7736071Y-8981214D01*
X7778928Y-8981214D01*
X7807500Y-8995500D01*
X7821786Y-9024072D01*
X7821786Y-9181214D01*
X7964643Y-9181214D02*
X7964643Y-8981214D01*
X7964643Y-9009786D02*
X7978928Y-8995500D01*
X8007500Y-8981214D01*
X8050357Y-8981214D01*
X8078928Y-8995500D01*
X8093214Y-9024072D01*
X8093214Y-9181214D01*
X8093214Y-9024072D02*
X8107500Y-8995500D01*
X8136071Y-8981214D01*
X8178928Y-8981214D01*
X8207500Y-8995500D01*
X8221786Y-9024072D01*
X8221786Y-9181214D01*
X8807500Y-8866929D02*
X8550357Y-9252643D01*
X9193214Y-8881214D02*
X9221786Y-8881214D01*
X9250357Y-8895500D01*
X9264643Y-8909786D01*
X9278928Y-8938357D01*
X9293214Y-8995500D01*
X9293214Y-9066929D01*
X9278928Y-9124072D01*
X9264643Y-9152643D01*
X9250357Y-9166929D01*
X9221786Y-9181214D01*
X9193214Y-9181214D01*
X9164643Y-9166929D01*
X9150357Y-9152643D01*
X9136071Y-9124072D01*
X9121786Y-9066929D01*
X9121786Y-8995500D01*
X9136071Y-8938357D01*
X9150357Y-8909786D01*
X9164643Y-8895500D01*
X9193214Y-8881214D01*
X9421786Y-9152643D02*
X9436071Y-9166929D01*
X9421786Y-9181214D01*
X9407500Y-9166929D01*
X9421786Y-9152643D01*
X9421786Y-9181214D01*
X9621786Y-8881214D02*
X9650357Y-8881214D01*
X9678928Y-8895500D01*
X9693214Y-8909786D01*
X9707500Y-8938357D01*
X9721786Y-8995500D01*
X9721786Y-9066929D01*
X9707500Y-9124072D01*
X9693214Y-9152643D01*
X9678928Y-9166929D01*
X9650357Y-9181214D01*
X9621786Y-9181214D01*
X9593214Y-9166929D01*
X9578928Y-9152643D01*
X9564643Y-9124072D01*
X9550357Y-9066929D01*
X9550357Y-8995500D01*
X9564643Y-8938357D01*
X9578928Y-8909786D01*
X9593214Y-8895500D01*
X9621786Y-8881214D01*
X9821786Y-8881214D02*
X10007500Y-8881214D01*
X9907500Y-8995500D01*
X9950357Y-8995500D01*
X9978928Y-9009786D01*
X9993214Y-9024072D01*
X10007500Y-9052643D01*
X10007500Y-9124072D01*
X9993214Y-9152643D01*
X9978928Y-9166929D01*
X9950357Y-9181214D01*
X9864643Y-9181214D01*
X9836071Y-9166929D01*
X9821786Y-9152643D01*
X10150357Y-9181214D02*
X10207500Y-9181214D01*
X10236071Y-9166929D01*
X10250357Y-9152643D01*
X10278928Y-9109786D01*
X10293214Y-9052643D01*
X10293214Y-8938357D01*
X10278928Y-8909786D01*
X10264643Y-8895500D01*
X10236071Y-8881214D01*
X10178928Y-8881214D01*
X10150357Y-8895500D01*
X10136071Y-8909786D01*
X10121786Y-8938357D01*
X10121786Y-9009786D01*
X10136071Y-9038357D01*
X10150357Y-9052643D01*
X10178928Y-9066929D01*
X10236071Y-9066929D01*
X10264643Y-9052643D01*
X10278928Y-9038357D01*
X10293214Y-9009786D01*
X10550357Y-8981214D02*
X10550357Y-9181214D01*
X10478928Y-8866929D02*
X10407500Y-9081214D01*
X10593214Y-9081214D01*
X10693214Y-8881214D02*
X10693214Y-8938357D01*
X10807500Y-8881214D02*
X10807500Y-8938357D01*
X11250357Y-9295500D02*
X11236071Y-9281214D01*
X11207500Y-9238357D01*
X11193214Y-9209786D01*
X11178928Y-9166929D01*
X11164643Y-9095500D01*
X11164643Y-9038357D01*
X11178928Y-8966929D01*
X11193214Y-8924072D01*
X11207500Y-8895500D01*
X11236071Y-8852643D01*
X11250357Y-8838357D01*
X11336071Y-8881214D02*
X11521786Y-8881214D01*
X11421786Y-8995500D01*
X11464643Y-8995500D01*
X11493214Y-9009786D01*
X11507500Y-9024072D01*
X11521786Y-9052643D01*
X11521786Y-9124072D01*
X11507500Y-9152643D01*
X11493214Y-9166929D01*
X11464643Y-9181214D01*
X11378928Y-9181214D01*
X11350357Y-9166929D01*
X11336071Y-9152643D01*
X11636071Y-8909786D02*
X11650357Y-8895500D01*
X11678928Y-8881214D01*
X11750357Y-8881214D01*
X11778928Y-8895500D01*
X11793214Y-8909786D01*
X11807500Y-8938357D01*
X11807500Y-8966929D01*
X11793214Y-9009786D01*
X11621786Y-9181214D01*
X11807500Y-9181214D01*
X12164643Y-9181214D02*
X12164643Y-8881214D01*
X12293214Y-9181214D02*
X12293214Y-9024072D01*
X12278928Y-8995500D01*
X12250357Y-8981214D01*
X12207500Y-8981214D01*
X12178928Y-8995500D01*
X12164643Y-9009786D01*
X12478928Y-9181214D02*
X12450357Y-9166929D01*
X12436071Y-9152643D01*
X12421786Y-9124072D01*
X12421786Y-9038357D01*
X12436071Y-9009786D01*
X12450357Y-8995500D01*
X12478928Y-8981214D01*
X12521786Y-8981214D01*
X12550357Y-8995500D01*
X12564643Y-9009786D01*
X12578928Y-9038357D01*
X12578928Y-9124072D01*
X12564643Y-9152643D01*
X12550357Y-9166929D01*
X12521786Y-9181214D01*
X12478928Y-9181214D01*
X12750357Y-9181214D02*
X12721786Y-9166929D01*
X12707500Y-9138357D01*
X12707500Y-8881214D01*
X12978928Y-9166929D02*
X12950357Y-9181214D01*
X12893214Y-9181214D01*
X12864643Y-9166929D01*
X12850357Y-9138357D01*
X12850357Y-9024072D01*
X12864643Y-8995500D01*
X12893214Y-8981214D01*
X12950357Y-8981214D01*
X12978928Y-8995500D01*
X12993214Y-9024072D01*
X12993214Y-9052643D01*
X12850357Y-9081214D01*
X13107500Y-9166929D02*
X13136071Y-9181214D01*
X13193214Y-9181214D01*
X13221786Y-9166929D01*
X13236071Y-9138357D01*
X13236071Y-9124072D01*
X13221786Y-9095500D01*
X13193214Y-9081214D01*
X13150357Y-9081214D01*
X13121786Y-9066929D01*
X13107500Y-9038357D01*
X13107500Y-9024072D01*
X13121786Y-8995500D01*
X13150357Y-8981214D01*
X13193214Y-8981214D01*
X13221786Y-8995500D01*
X13336071Y-9295500D02*
X13350357Y-9281214D01*
X13378928Y-9238357D01*
X13393214Y-9209786D01*
X13407500Y-9166929D01*
X13421786Y-9095500D01*
X13421786Y-9038357D01*
X13407500Y-8966929D01*
X13393214Y-8924072D01*
X13378928Y-8895500D01*
X13350357Y-8852643D01*
X13336071Y-8838357D01*
X5922500Y-9511500D02*
X5992500Y-9441500D01*
X5922500Y-9371500D01*
X5852500Y-9441500D01*
X5922500Y-9511500D01*
X6436071Y-9577214D02*
X6264643Y-9577214D01*
X6350357Y-9577214D02*
X6350357Y-9277214D01*
X6321786Y-9320072D01*
X6293214Y-9348643D01*
X6264643Y-9362929D01*
X6564643Y-9548643D02*
X6578928Y-9562929D01*
X6564643Y-9577214D01*
X6550357Y-9562929D01*
X6564643Y-9548643D01*
X6564643Y-9577214D01*
X6836071Y-9377214D02*
X6836071Y-9577214D01*
X6764643Y-9262929D02*
X6693214Y-9477214D01*
X6878928Y-9477214D01*
X7050357Y-9277214D02*
X7078928Y-9277214D01*
X7107500Y-9291500D01*
X7121786Y-9305786D01*
X7136071Y-9334357D01*
X7150357Y-9391500D01*
X7150357Y-9462929D01*
X7136071Y-9520072D01*
X7121786Y-9548643D01*
X7107500Y-9562929D01*
X7078928Y-9577214D01*
X7050357Y-9577214D01*
X7021786Y-9562929D01*
X7007500Y-9548643D01*
X6993214Y-9520072D01*
X6978928Y-9462929D01*
X6978928Y-9391500D01*
X6993214Y-9334357D01*
X7007500Y-9305786D01*
X7021786Y-9291500D01*
X7050357Y-9277214D01*
X7336071Y-9277214D02*
X7364643Y-9277214D01*
X7393214Y-9291500D01*
X7407500Y-9305786D01*
X7421786Y-9334357D01*
X7436071Y-9391500D01*
X7436071Y-9462929D01*
X7421786Y-9520072D01*
X7407500Y-9548643D01*
X7393214Y-9562929D01*
X7364643Y-9577214D01*
X7336071Y-9577214D01*
X7307500Y-9562929D01*
X7293214Y-9548643D01*
X7278928Y-9520072D01*
X7264643Y-9462929D01*
X7264643Y-9391500D01*
X7278928Y-9334357D01*
X7293214Y-9305786D01*
X7307500Y-9291500D01*
X7336071Y-9277214D01*
X7564643Y-9577214D02*
X7564643Y-9377214D01*
X7564643Y-9405786D02*
X7578928Y-9391500D01*
X7607500Y-9377214D01*
X7650357Y-9377214D01*
X7678928Y-9391500D01*
X7693214Y-9420072D01*
X7693214Y-9577214D01*
X7693214Y-9420072D02*
X7707500Y-9391500D01*
X7736071Y-9377214D01*
X7778928Y-9377214D01*
X7807500Y-9391500D01*
X7821786Y-9420072D01*
X7821786Y-9577214D01*
X7964643Y-9577214D02*
X7964643Y-9377214D01*
X7964643Y-9405786D02*
X7978928Y-9391500D01*
X8007500Y-9377214D01*
X8050357Y-9377214D01*
X8078928Y-9391500D01*
X8093214Y-9420072D01*
X8093214Y-9577214D01*
X8093214Y-9420072D02*
X8107500Y-9391500D01*
X8136071Y-9377214D01*
X8178928Y-9377214D01*
X8207500Y-9391500D01*
X8221786Y-9420072D01*
X8221786Y-9577214D01*
X8807500Y-9262929D02*
X8550357Y-9648643D01*
X9193214Y-9277214D02*
X9221786Y-9277214D01*
X9250357Y-9291500D01*
X9264643Y-9305786D01*
X9278928Y-9334357D01*
X9293214Y-9391500D01*
X9293214Y-9462929D01*
X9278928Y-9520072D01*
X9264643Y-9548643D01*
X9250357Y-9562929D01*
X9221786Y-9577214D01*
X9193214Y-9577214D01*
X9164643Y-9562929D01*
X9150357Y-9548643D01*
X9136071Y-9520072D01*
X9121786Y-9462929D01*
X9121786Y-9391500D01*
X9136071Y-9334357D01*
X9150357Y-9305786D01*
X9164643Y-9291500D01*
X9193214Y-9277214D01*
X9421786Y-9548643D02*
X9436071Y-9562929D01*
X9421786Y-9577214D01*
X9407500Y-9562929D01*
X9421786Y-9548643D01*
X9421786Y-9577214D01*
X9621786Y-9277214D02*
X9650357Y-9277214D01*
X9678928Y-9291500D01*
X9693214Y-9305786D01*
X9707500Y-9334357D01*
X9721786Y-9391500D01*
X9721786Y-9462929D01*
X9707500Y-9520072D01*
X9693214Y-9548643D01*
X9678928Y-9562929D01*
X9650357Y-9577214D01*
X9621786Y-9577214D01*
X9593214Y-9562929D01*
X9578928Y-9548643D01*
X9564643Y-9520072D01*
X9550357Y-9462929D01*
X9550357Y-9391500D01*
X9564643Y-9334357D01*
X9578928Y-9305786D01*
X9593214Y-9291500D01*
X9621786Y-9277214D01*
X9993214Y-9277214D02*
X9850357Y-9277214D01*
X9836071Y-9420072D01*
X9850357Y-9405786D01*
X9878928Y-9391500D01*
X9950357Y-9391500D01*
X9978928Y-9405786D01*
X9993214Y-9420072D01*
X10007500Y-9448643D01*
X10007500Y-9520072D01*
X9993214Y-9548643D01*
X9978928Y-9562929D01*
X9950357Y-9577214D01*
X9878928Y-9577214D01*
X9850357Y-9562929D01*
X9836071Y-9548643D01*
X10278928Y-9277214D02*
X10136071Y-9277214D01*
X10121786Y-9420072D01*
X10136071Y-9405786D01*
X10164643Y-9391500D01*
X10236071Y-9391500D01*
X10264643Y-9405786D01*
X10278928Y-9420072D01*
X10293214Y-9448643D01*
X10293214Y-9520072D01*
X10278928Y-9548643D01*
X10264643Y-9562929D01*
X10236071Y-9577214D01*
X10164643Y-9577214D01*
X10136071Y-9562929D01*
X10121786Y-9548643D01*
X10578928Y-9577214D02*
X10407500Y-9577214D01*
X10493214Y-9577214D02*
X10493214Y-9277214D01*
X10464643Y-9320072D01*
X10436071Y-9348643D01*
X10407500Y-9362929D01*
X10693214Y-9277214D02*
X10693214Y-9334357D01*
X10807500Y-9277214D02*
X10807500Y-9334357D01*
X11250357Y-9691500D02*
X11236071Y-9677214D01*
X11207500Y-9634357D01*
X11193214Y-9605786D01*
X11178928Y-9562929D01*
X11164643Y-9491500D01*
X11164643Y-9434357D01*
X11178928Y-9362929D01*
X11193214Y-9320072D01*
X11207500Y-9291500D01*
X11236071Y-9248643D01*
X11250357Y-9234357D01*
X11493214Y-9377214D02*
X11493214Y-9577214D01*
X11421786Y-9262929D02*
X11350357Y-9477214D01*
X11536071Y-9477214D01*
X11878928Y-9577214D02*
X11878928Y-9277214D01*
X12007500Y-9577214D02*
X12007500Y-9420072D01*
X11993214Y-9391500D01*
X11964643Y-9377214D01*
X11921786Y-9377214D01*
X11893214Y-9391500D01*
X11878928Y-9405786D01*
X12193214Y-9577214D02*
X12164643Y-9562929D01*
X12150357Y-9548643D01*
X12136071Y-9520072D01*
X12136071Y-9434357D01*
X12150357Y-9405786D01*
X12164643Y-9391500D01*
X12193214Y-9377214D01*
X12236071Y-9377214D01*
X12264643Y-9391500D01*
X12278928Y-9405786D01*
X12293214Y-9434357D01*
X12293214Y-9520072D01*
X12278928Y-9548643D01*
X12264643Y-9562929D01*
X12236071Y-9577214D01*
X12193214Y-9577214D01*
X12464643Y-9577214D02*
X12436071Y-9562929D01*
X12421786Y-9534357D01*
X12421786Y-9277214D01*
X12693214Y-9562929D02*
X12664643Y-9577214D01*
X12607500Y-9577214D01*
X12578928Y-9562929D01*
X12564643Y-9534357D01*
X12564643Y-9420072D01*
X12578928Y-9391500D01*
X12607500Y-9377214D01*
X12664643Y-9377214D01*
X12693214Y-9391500D01*
X12707500Y-9420072D01*
X12707500Y-9448643D01*
X12564643Y-9477214D01*
X12821786Y-9562929D02*
X12850357Y-9577214D01*
X12907500Y-9577214D01*
X12936071Y-9562929D01*
X12950357Y-9534357D01*
X12950357Y-9520072D01*
X12936071Y-9491500D01*
X12907500Y-9477214D01*
X12864643Y-9477214D01*
X12836071Y-9462929D01*
X12821786Y-9434357D01*
X12821786Y-9420072D01*
X12836071Y-9391500D01*
X12864643Y-9377214D01*
X12907500Y-9377214D01*
X12936071Y-9391500D01*
X13050357Y-9691500D02*
X13064643Y-9677214D01*
X13093214Y-9634357D01*
X13107500Y-9605786D01*
X13121786Y-9562929D01*
X13136071Y-9491500D01*
X13136071Y-9434357D01*
X13121786Y-9362929D01*
X13107500Y-9320072D01*
X13093214Y-9291500D01*
X13064643Y-9248643D01*
X13050357Y-9234357D01*
M02*
