G04 #@! TF.GenerationSoftware,KiCad,Pcbnew,(5.1.10)-1*
G04 #@! TF.CreationDate,2021-10-08T21:42:51+13:00*
G04 #@! TF.ProjectId,bldc_driver_fpga,626c6463-5f64-4726-9976-65725f667067,rev?*
G04 #@! TF.SameCoordinates,Original*
G04 #@! TF.FileFunction,Paste,Top*
G04 #@! TF.FilePolarity,Positive*
%FSLAX46Y46*%
G04 Gerber Fmt 4.6, Leading zero omitted, Abs format (unit mm)*
G04 Created by KiCad (PCBNEW (5.1.10)-1) date 2021-10-08 21:42:51*
%MOMM*%
%LPD*%
G01*
G04 APERTURE LIST*
%ADD10R,1.200000X1.550000*%
%ADD11R,1.600000X1.550000*%
%ADD12R,1.200000X0.700000*%
%ADD13R,8.200000X1.100000*%
%ADD14R,2.500000X1.240000*%
%ADD15R,1.560000X0.650000*%
%ADD16C,0.127000*%
%ADD17R,0.600000X0.700000*%
%ADD18R,0.700000X0.600000*%
G04 APERTURE END LIST*
G36*
G01*
X99043500Y-21734000D02*
X98568500Y-21734000D01*
G75*
G02*
X98331000Y-21496500I0J237500D01*
G01*
X98331000Y-20921500D01*
G75*
G02*
X98568500Y-20684000I237500J0D01*
G01*
X99043500Y-20684000D01*
G75*
G02*
X99281000Y-20921500I0J-237500D01*
G01*
X99281000Y-21496500D01*
G75*
G02*
X99043500Y-21734000I-237500J0D01*
G01*
G37*
G36*
G01*
X99043500Y-23484000D02*
X98568500Y-23484000D01*
G75*
G02*
X98331000Y-23246500I0J237500D01*
G01*
X98331000Y-22671500D01*
G75*
G02*
X98568500Y-22434000I237500J0D01*
G01*
X99043500Y-22434000D01*
G75*
G02*
X99281000Y-22671500I0J-237500D01*
G01*
X99281000Y-23246500D01*
G75*
G02*
X99043500Y-23484000I-237500J0D01*
G01*
G37*
G36*
G01*
X97519500Y-21734000D02*
X97044500Y-21734000D01*
G75*
G02*
X96807000Y-21496500I0J237500D01*
G01*
X96807000Y-20921500D01*
G75*
G02*
X97044500Y-20684000I237500J0D01*
G01*
X97519500Y-20684000D01*
G75*
G02*
X97757000Y-20921500I0J-237500D01*
G01*
X97757000Y-21496500D01*
G75*
G02*
X97519500Y-21734000I-237500J0D01*
G01*
G37*
G36*
G01*
X97519500Y-23484000D02*
X97044500Y-23484000D01*
G75*
G02*
X96807000Y-23246500I0J237500D01*
G01*
X96807000Y-22671500D01*
G75*
G02*
X97044500Y-22434000I237500J0D01*
G01*
X97519500Y-22434000D01*
G75*
G02*
X97757000Y-22671500I0J-237500D01*
G01*
X97757000Y-23246500D01*
G75*
G02*
X97519500Y-23484000I-237500J0D01*
G01*
G37*
G36*
G01*
X95995500Y-21734000D02*
X95520500Y-21734000D01*
G75*
G02*
X95283000Y-21496500I0J237500D01*
G01*
X95283000Y-20921500D01*
G75*
G02*
X95520500Y-20684000I237500J0D01*
G01*
X95995500Y-20684000D01*
G75*
G02*
X96233000Y-20921500I0J-237500D01*
G01*
X96233000Y-21496500D01*
G75*
G02*
X95995500Y-21734000I-237500J0D01*
G01*
G37*
G36*
G01*
X95995500Y-23484000D02*
X95520500Y-23484000D01*
G75*
G02*
X95283000Y-23246500I0J237500D01*
G01*
X95283000Y-22671500D01*
G75*
G02*
X95520500Y-22434000I237500J0D01*
G01*
X95995500Y-22434000D01*
G75*
G02*
X96233000Y-22671500I0J-237500D01*
G01*
X96233000Y-23246500D01*
G75*
G02*
X95995500Y-23484000I-237500J0D01*
G01*
G37*
G36*
G01*
X94471500Y-21734000D02*
X93996500Y-21734000D01*
G75*
G02*
X93759000Y-21496500I0J237500D01*
G01*
X93759000Y-20921500D01*
G75*
G02*
X93996500Y-20684000I237500J0D01*
G01*
X94471500Y-20684000D01*
G75*
G02*
X94709000Y-20921500I0J-237500D01*
G01*
X94709000Y-21496500D01*
G75*
G02*
X94471500Y-21734000I-237500J0D01*
G01*
G37*
G36*
G01*
X94471500Y-23484000D02*
X93996500Y-23484000D01*
G75*
G02*
X93759000Y-23246500I0J237500D01*
G01*
X93759000Y-22671500D01*
G75*
G02*
X93996500Y-22434000I237500J0D01*
G01*
X94471500Y-22434000D01*
G75*
G02*
X94709000Y-22671500I0J-237500D01*
G01*
X94709000Y-23246500D01*
G75*
G02*
X94471500Y-23484000I-237500J0D01*
G01*
G37*
G36*
G01*
X92947500Y-21734000D02*
X92472500Y-21734000D01*
G75*
G02*
X92235000Y-21496500I0J237500D01*
G01*
X92235000Y-20921500D01*
G75*
G02*
X92472500Y-20684000I237500J0D01*
G01*
X92947500Y-20684000D01*
G75*
G02*
X93185000Y-20921500I0J-237500D01*
G01*
X93185000Y-21496500D01*
G75*
G02*
X92947500Y-21734000I-237500J0D01*
G01*
G37*
G36*
G01*
X92947500Y-23484000D02*
X92472500Y-23484000D01*
G75*
G02*
X92235000Y-23246500I0J237500D01*
G01*
X92235000Y-22671500D01*
G75*
G02*
X92472500Y-22434000I237500J0D01*
G01*
X92947500Y-22434000D01*
G75*
G02*
X93185000Y-22671500I0J-237500D01*
G01*
X93185000Y-23246500D01*
G75*
G02*
X92947500Y-23484000I-237500J0D01*
G01*
G37*
G36*
G01*
X91423500Y-21734000D02*
X90948500Y-21734000D01*
G75*
G02*
X90711000Y-21496500I0J237500D01*
G01*
X90711000Y-20921500D01*
G75*
G02*
X90948500Y-20684000I237500J0D01*
G01*
X91423500Y-20684000D01*
G75*
G02*
X91661000Y-20921500I0J-237500D01*
G01*
X91661000Y-21496500D01*
G75*
G02*
X91423500Y-21734000I-237500J0D01*
G01*
G37*
G36*
G01*
X91423500Y-23484000D02*
X90948500Y-23484000D01*
G75*
G02*
X90711000Y-23246500I0J237500D01*
G01*
X90711000Y-22671500D01*
G75*
G02*
X90948500Y-22434000I237500J0D01*
G01*
X91423500Y-22434000D01*
G75*
G02*
X91661000Y-22671500I0J-237500D01*
G01*
X91661000Y-23246500D01*
G75*
G02*
X91423500Y-23484000I-237500J0D01*
G01*
G37*
G36*
G01*
X110593000Y-27455000D02*
X110593000Y-27155000D01*
G75*
G02*
X110743000Y-27005000I150000J0D01*
G01*
X112393000Y-27005000D01*
G75*
G02*
X112543000Y-27155000I0J-150000D01*
G01*
X112543000Y-27455000D01*
G75*
G02*
X112393000Y-27605000I-150000J0D01*
G01*
X110743000Y-27605000D01*
G75*
G02*
X110593000Y-27455000I0J150000D01*
G01*
G37*
G36*
G01*
X110593000Y-28725000D02*
X110593000Y-28425000D01*
G75*
G02*
X110743000Y-28275000I150000J0D01*
G01*
X112393000Y-28275000D01*
G75*
G02*
X112543000Y-28425000I0J-150000D01*
G01*
X112543000Y-28725000D01*
G75*
G02*
X112393000Y-28875000I-150000J0D01*
G01*
X110743000Y-28875000D01*
G75*
G02*
X110593000Y-28725000I0J150000D01*
G01*
G37*
G36*
G01*
X110593000Y-29995000D02*
X110593000Y-29695000D01*
G75*
G02*
X110743000Y-29545000I150000J0D01*
G01*
X112393000Y-29545000D01*
G75*
G02*
X112543000Y-29695000I0J-150000D01*
G01*
X112543000Y-29995000D01*
G75*
G02*
X112393000Y-30145000I-150000J0D01*
G01*
X110743000Y-30145000D01*
G75*
G02*
X110593000Y-29995000I0J150000D01*
G01*
G37*
G36*
G01*
X110593000Y-31265000D02*
X110593000Y-30965000D01*
G75*
G02*
X110743000Y-30815000I150000J0D01*
G01*
X112393000Y-30815000D01*
G75*
G02*
X112543000Y-30965000I0J-150000D01*
G01*
X112543000Y-31265000D01*
G75*
G02*
X112393000Y-31415000I-150000J0D01*
G01*
X110743000Y-31415000D01*
G75*
G02*
X110593000Y-31265000I0J150000D01*
G01*
G37*
G36*
G01*
X110593000Y-32535000D02*
X110593000Y-32235000D01*
G75*
G02*
X110743000Y-32085000I150000J0D01*
G01*
X112393000Y-32085000D01*
G75*
G02*
X112543000Y-32235000I0J-150000D01*
G01*
X112543000Y-32535000D01*
G75*
G02*
X112393000Y-32685000I-150000J0D01*
G01*
X110743000Y-32685000D01*
G75*
G02*
X110593000Y-32535000I0J150000D01*
G01*
G37*
G36*
G01*
X110593000Y-33805000D02*
X110593000Y-33505000D01*
G75*
G02*
X110743000Y-33355000I150000J0D01*
G01*
X112393000Y-33355000D01*
G75*
G02*
X112543000Y-33505000I0J-150000D01*
G01*
X112543000Y-33805000D01*
G75*
G02*
X112393000Y-33955000I-150000J0D01*
G01*
X110743000Y-33955000D01*
G75*
G02*
X110593000Y-33805000I0J150000D01*
G01*
G37*
G36*
G01*
X110593000Y-35075000D02*
X110593000Y-34775000D01*
G75*
G02*
X110743000Y-34625000I150000J0D01*
G01*
X112393000Y-34625000D01*
G75*
G02*
X112543000Y-34775000I0J-150000D01*
G01*
X112543000Y-35075000D01*
G75*
G02*
X112393000Y-35225000I-150000J0D01*
G01*
X110743000Y-35225000D01*
G75*
G02*
X110593000Y-35075000I0J150000D01*
G01*
G37*
G36*
G01*
X105643000Y-35075000D02*
X105643000Y-34775000D01*
G75*
G02*
X105793000Y-34625000I150000J0D01*
G01*
X107443000Y-34625000D01*
G75*
G02*
X107593000Y-34775000I0J-150000D01*
G01*
X107593000Y-35075000D01*
G75*
G02*
X107443000Y-35225000I-150000J0D01*
G01*
X105793000Y-35225000D01*
G75*
G02*
X105643000Y-35075000I0J150000D01*
G01*
G37*
G36*
G01*
X105643000Y-33805000D02*
X105643000Y-33505000D01*
G75*
G02*
X105793000Y-33355000I150000J0D01*
G01*
X107443000Y-33355000D01*
G75*
G02*
X107593000Y-33505000I0J-150000D01*
G01*
X107593000Y-33805000D01*
G75*
G02*
X107443000Y-33955000I-150000J0D01*
G01*
X105793000Y-33955000D01*
G75*
G02*
X105643000Y-33805000I0J150000D01*
G01*
G37*
G36*
G01*
X105643000Y-32535000D02*
X105643000Y-32235000D01*
G75*
G02*
X105793000Y-32085000I150000J0D01*
G01*
X107443000Y-32085000D01*
G75*
G02*
X107593000Y-32235000I0J-150000D01*
G01*
X107593000Y-32535000D01*
G75*
G02*
X107443000Y-32685000I-150000J0D01*
G01*
X105793000Y-32685000D01*
G75*
G02*
X105643000Y-32535000I0J150000D01*
G01*
G37*
G36*
G01*
X105643000Y-31265000D02*
X105643000Y-30965000D01*
G75*
G02*
X105793000Y-30815000I150000J0D01*
G01*
X107443000Y-30815000D01*
G75*
G02*
X107593000Y-30965000I0J-150000D01*
G01*
X107593000Y-31265000D01*
G75*
G02*
X107443000Y-31415000I-150000J0D01*
G01*
X105793000Y-31415000D01*
G75*
G02*
X105643000Y-31265000I0J150000D01*
G01*
G37*
G36*
G01*
X105643000Y-29995000D02*
X105643000Y-29695000D01*
G75*
G02*
X105793000Y-29545000I150000J0D01*
G01*
X107443000Y-29545000D01*
G75*
G02*
X107593000Y-29695000I0J-150000D01*
G01*
X107593000Y-29995000D01*
G75*
G02*
X107443000Y-30145000I-150000J0D01*
G01*
X105793000Y-30145000D01*
G75*
G02*
X105643000Y-29995000I0J150000D01*
G01*
G37*
G36*
G01*
X105643000Y-28725000D02*
X105643000Y-28425000D01*
G75*
G02*
X105793000Y-28275000I150000J0D01*
G01*
X107443000Y-28275000D01*
G75*
G02*
X107593000Y-28425000I0J-150000D01*
G01*
X107593000Y-28725000D01*
G75*
G02*
X107443000Y-28875000I-150000J0D01*
G01*
X105793000Y-28875000D01*
G75*
G02*
X105643000Y-28725000I0J150000D01*
G01*
G37*
G36*
G01*
X105643000Y-27455000D02*
X105643000Y-27155000D01*
G75*
G02*
X105793000Y-27005000I150000J0D01*
G01*
X107443000Y-27005000D01*
G75*
G02*
X107593000Y-27155000I0J-150000D01*
G01*
X107593000Y-27455000D01*
G75*
G02*
X107443000Y-27605000I-150000J0D01*
G01*
X105793000Y-27605000D01*
G75*
G02*
X105643000Y-27455000I0J150000D01*
G01*
G37*
G36*
G01*
X110357499Y-22348500D02*
X111257501Y-22348500D01*
G75*
G02*
X111507500Y-22598499I0J-249999D01*
G01*
X111507500Y-23248501D01*
G75*
G02*
X111257501Y-23498500I-249999J0D01*
G01*
X110357499Y-23498500D01*
G75*
G02*
X110107500Y-23248501I0J249999D01*
G01*
X110107500Y-22598499D01*
G75*
G02*
X110357499Y-22348500I249999J0D01*
G01*
G37*
G36*
G01*
X110357499Y-20298500D02*
X111257501Y-20298500D01*
G75*
G02*
X111507500Y-20548499I0J-249999D01*
G01*
X111507500Y-21198501D01*
G75*
G02*
X111257501Y-21448500I-249999J0D01*
G01*
X110357499Y-21448500D01*
G75*
G02*
X110107500Y-21198501I0J249999D01*
G01*
X110107500Y-20548499D01*
G75*
G02*
X110357499Y-20298500I249999J0D01*
G01*
G37*
G36*
G01*
X107817499Y-22357500D02*
X108717501Y-22357500D01*
G75*
G02*
X108967500Y-22607499I0J-249999D01*
G01*
X108967500Y-23257501D01*
G75*
G02*
X108717501Y-23507500I-249999J0D01*
G01*
X107817499Y-23507500D01*
G75*
G02*
X107567500Y-23257501I0J249999D01*
G01*
X107567500Y-22607499D01*
G75*
G02*
X107817499Y-22357500I249999J0D01*
G01*
G37*
G36*
G01*
X107817499Y-20307500D02*
X108717501Y-20307500D01*
G75*
G02*
X108967500Y-20557499I0J-249999D01*
G01*
X108967500Y-21207501D01*
G75*
G02*
X108717501Y-21457500I-249999J0D01*
G01*
X107817499Y-21457500D01*
G75*
G02*
X107567500Y-21207501I0J249999D01*
G01*
X107567500Y-20557499D01*
G75*
G02*
X107817499Y-20307500I249999J0D01*
G01*
G37*
G36*
G01*
X105277499Y-22357500D02*
X106177501Y-22357500D01*
G75*
G02*
X106427500Y-22607499I0J-249999D01*
G01*
X106427500Y-23257501D01*
G75*
G02*
X106177501Y-23507500I-249999J0D01*
G01*
X105277499Y-23507500D01*
G75*
G02*
X105027500Y-23257501I0J249999D01*
G01*
X105027500Y-22607499D01*
G75*
G02*
X105277499Y-22357500I249999J0D01*
G01*
G37*
G36*
G01*
X105277499Y-20307500D02*
X106177501Y-20307500D01*
G75*
G02*
X106427500Y-20557499I0J-249999D01*
G01*
X106427500Y-21207501D01*
G75*
G02*
X106177501Y-21457500I-249999J0D01*
G01*
X105277499Y-21457500D01*
G75*
G02*
X105027500Y-21207501I0J249999D01*
G01*
X105027500Y-20557499D01*
G75*
G02*
X105277499Y-20307500I249999J0D01*
G01*
G37*
G36*
G01*
X100018000Y-28898001D02*
X100018000Y-27997999D01*
G75*
G02*
X100267999Y-27748000I249999J0D01*
G01*
X100918001Y-27748000D01*
G75*
G02*
X101168000Y-27997999I0J-249999D01*
G01*
X101168000Y-28898001D01*
G75*
G02*
X100918001Y-29148000I-249999J0D01*
G01*
X100267999Y-29148000D01*
G75*
G02*
X100018000Y-28898001I0J249999D01*
G01*
G37*
G36*
G01*
X97968000Y-28898001D02*
X97968000Y-27997999D01*
G75*
G02*
X98217999Y-27748000I249999J0D01*
G01*
X98868001Y-27748000D01*
G75*
G02*
X99118000Y-27997999I0J-249999D01*
G01*
X99118000Y-28898001D01*
G75*
G02*
X98868001Y-29148000I-249999J0D01*
G01*
X98217999Y-29148000D01*
G75*
G02*
X97968000Y-28898001I0J249999D01*
G01*
G37*
G36*
G01*
X99127000Y-29966499D02*
X99127000Y-30866501D01*
G75*
G02*
X98877001Y-31116500I-249999J0D01*
G01*
X98226999Y-31116500D01*
G75*
G02*
X97977000Y-30866501I0J249999D01*
G01*
X97977000Y-29966499D01*
G75*
G02*
X98226999Y-29716500I249999J0D01*
G01*
X98877001Y-29716500D01*
G75*
G02*
X99127000Y-29966499I0J-249999D01*
G01*
G37*
G36*
G01*
X101177000Y-29966499D02*
X101177000Y-30866501D01*
G75*
G02*
X100927001Y-31116500I-249999J0D01*
G01*
X100276999Y-31116500D01*
G75*
G02*
X100027000Y-30866501I0J249999D01*
G01*
X100027000Y-29966499D01*
G75*
G02*
X100276999Y-29716500I249999J0D01*
G01*
X100927001Y-29716500D01*
G75*
G02*
X101177000Y-29966499I0J-249999D01*
G01*
G37*
G36*
G01*
X100018000Y-26929501D02*
X100018000Y-26029499D01*
G75*
G02*
X100267999Y-25779500I249999J0D01*
G01*
X100918001Y-25779500D01*
G75*
G02*
X101168000Y-26029499I0J-249999D01*
G01*
X101168000Y-26929501D01*
G75*
G02*
X100918001Y-27179500I-249999J0D01*
G01*
X100267999Y-27179500D01*
G75*
G02*
X100018000Y-26929501I0J249999D01*
G01*
G37*
G36*
G01*
X97968000Y-26929501D02*
X97968000Y-26029499D01*
G75*
G02*
X98217999Y-25779500I249999J0D01*
G01*
X98868001Y-25779500D01*
G75*
G02*
X99118000Y-26029499I0J-249999D01*
G01*
X99118000Y-26929501D01*
G75*
G02*
X98868001Y-27179500I-249999J0D01*
G01*
X98217999Y-27179500D01*
G75*
G02*
X97968000Y-26929501I0J249999D01*
G01*
G37*
G36*
G01*
X85635000Y-48440500D02*
X85635000Y-47190500D01*
G75*
G02*
X85885000Y-46940500I250000J0D01*
G01*
X86685000Y-46940500D01*
G75*
G02*
X86935000Y-47190500I0J-250000D01*
G01*
X86935000Y-48440500D01*
G75*
G02*
X86685000Y-48690500I-250000J0D01*
G01*
X85885000Y-48690500D01*
G75*
G02*
X85635000Y-48440500I0J250000D01*
G01*
G37*
G36*
G01*
X82535000Y-48440500D02*
X82535000Y-47190500D01*
G75*
G02*
X82785000Y-46940500I250000J0D01*
G01*
X83585000Y-46940500D01*
G75*
G02*
X83835000Y-47190500I0J-250000D01*
G01*
X83835000Y-48440500D01*
G75*
G02*
X83585000Y-48690500I-250000J0D01*
G01*
X82785000Y-48690500D01*
G75*
G02*
X82535000Y-48440500I0J250000D01*
G01*
G37*
G36*
G01*
X85672500Y-60632500D02*
X85672500Y-59382500D01*
G75*
G02*
X85922500Y-59132500I250000J0D01*
G01*
X86722500Y-59132500D01*
G75*
G02*
X86972500Y-59382500I0J-250000D01*
G01*
X86972500Y-60632500D01*
G75*
G02*
X86722500Y-60882500I-250000J0D01*
G01*
X85922500Y-60882500D01*
G75*
G02*
X85672500Y-60632500I0J250000D01*
G01*
G37*
G36*
G01*
X82572500Y-60632500D02*
X82572500Y-59382500D01*
G75*
G02*
X82822500Y-59132500I250000J0D01*
G01*
X83622500Y-59132500D01*
G75*
G02*
X83872500Y-59382500I0J-250000D01*
G01*
X83872500Y-60632500D01*
G75*
G02*
X83622500Y-60882500I-250000J0D01*
G01*
X82822500Y-60882500D01*
G75*
G02*
X82572500Y-60632500I0J250000D01*
G01*
G37*
G36*
G01*
X86023000Y-31225500D02*
X86023000Y-30750500D01*
G75*
G02*
X86260500Y-30513000I237500J0D01*
G01*
X86760500Y-30513000D01*
G75*
G02*
X86998000Y-30750500I0J-237500D01*
G01*
X86998000Y-31225500D01*
G75*
G02*
X86760500Y-31463000I-237500J0D01*
G01*
X86260500Y-31463000D01*
G75*
G02*
X86023000Y-31225500I0J237500D01*
G01*
G37*
G36*
G01*
X84198000Y-31225500D02*
X84198000Y-30750500D01*
G75*
G02*
X84435500Y-30513000I237500J0D01*
G01*
X84935500Y-30513000D01*
G75*
G02*
X85173000Y-30750500I0J-237500D01*
G01*
X85173000Y-31225500D01*
G75*
G02*
X84935500Y-31463000I-237500J0D01*
G01*
X84435500Y-31463000D01*
G75*
G02*
X84198000Y-31225500I0J237500D01*
G01*
G37*
G36*
G01*
X86023000Y-29701500D02*
X86023000Y-29226500D01*
G75*
G02*
X86260500Y-28989000I237500J0D01*
G01*
X86760500Y-28989000D01*
G75*
G02*
X86998000Y-29226500I0J-237500D01*
G01*
X86998000Y-29701500D01*
G75*
G02*
X86760500Y-29939000I-237500J0D01*
G01*
X86260500Y-29939000D01*
G75*
G02*
X86023000Y-29701500I0J237500D01*
G01*
G37*
G36*
G01*
X84198000Y-29701500D02*
X84198000Y-29226500D01*
G75*
G02*
X84435500Y-28989000I237500J0D01*
G01*
X84935500Y-28989000D01*
G75*
G02*
X85173000Y-29226500I0J-237500D01*
G01*
X85173000Y-29701500D01*
G75*
G02*
X84935500Y-29939000I-237500J0D01*
G01*
X84435500Y-29939000D01*
G75*
G02*
X84198000Y-29701500I0J237500D01*
G01*
G37*
G36*
G01*
X85769000Y-41639500D02*
X85769000Y-41164500D01*
G75*
G02*
X86006500Y-40927000I237500J0D01*
G01*
X86506500Y-40927000D01*
G75*
G02*
X86744000Y-41164500I0J-237500D01*
G01*
X86744000Y-41639500D01*
G75*
G02*
X86506500Y-41877000I-237500J0D01*
G01*
X86006500Y-41877000D01*
G75*
G02*
X85769000Y-41639500I0J237500D01*
G01*
G37*
G36*
G01*
X83944000Y-41639500D02*
X83944000Y-41164500D01*
G75*
G02*
X84181500Y-40927000I237500J0D01*
G01*
X84681500Y-40927000D01*
G75*
G02*
X84919000Y-41164500I0J-237500D01*
G01*
X84919000Y-41639500D01*
G75*
G02*
X84681500Y-41877000I-237500J0D01*
G01*
X84181500Y-41877000D01*
G75*
G02*
X83944000Y-41639500I0J237500D01*
G01*
G37*
G36*
G01*
X85769000Y-40115500D02*
X85769000Y-39640500D01*
G75*
G02*
X86006500Y-39403000I237500J0D01*
G01*
X86506500Y-39403000D01*
G75*
G02*
X86744000Y-39640500I0J-237500D01*
G01*
X86744000Y-40115500D01*
G75*
G02*
X86506500Y-40353000I-237500J0D01*
G01*
X86006500Y-40353000D01*
G75*
G02*
X85769000Y-40115500I0J237500D01*
G01*
G37*
G36*
G01*
X83944000Y-40115500D02*
X83944000Y-39640500D01*
G75*
G02*
X84181500Y-39403000I237500J0D01*
G01*
X84681500Y-39403000D01*
G75*
G02*
X84919000Y-39640500I0J-237500D01*
G01*
X84919000Y-40115500D01*
G75*
G02*
X84681500Y-40353000I-237500J0D01*
G01*
X84181500Y-40353000D01*
G75*
G02*
X83944000Y-40115500I0J237500D01*
G01*
G37*
G36*
G01*
X85769000Y-54847500D02*
X85769000Y-54372500D01*
G75*
G02*
X86006500Y-54135000I237500J0D01*
G01*
X86506500Y-54135000D01*
G75*
G02*
X86744000Y-54372500I0J-237500D01*
G01*
X86744000Y-54847500D01*
G75*
G02*
X86506500Y-55085000I-237500J0D01*
G01*
X86006500Y-55085000D01*
G75*
G02*
X85769000Y-54847500I0J237500D01*
G01*
G37*
G36*
G01*
X83944000Y-54847500D02*
X83944000Y-54372500D01*
G75*
G02*
X84181500Y-54135000I237500J0D01*
G01*
X84681500Y-54135000D01*
G75*
G02*
X84919000Y-54372500I0J-237500D01*
G01*
X84919000Y-54847500D01*
G75*
G02*
X84681500Y-55085000I-237500J0D01*
G01*
X84181500Y-55085000D01*
G75*
G02*
X83944000Y-54847500I0J237500D01*
G01*
G37*
G36*
G01*
X85769000Y-53323500D02*
X85769000Y-52848500D01*
G75*
G02*
X86006500Y-52611000I237500J0D01*
G01*
X86506500Y-52611000D01*
G75*
G02*
X86744000Y-52848500I0J-237500D01*
G01*
X86744000Y-53323500D01*
G75*
G02*
X86506500Y-53561000I-237500J0D01*
G01*
X86006500Y-53561000D01*
G75*
G02*
X85769000Y-53323500I0J237500D01*
G01*
G37*
G36*
G01*
X83944000Y-53323500D02*
X83944000Y-52848500D01*
G75*
G02*
X84181500Y-52611000I237500J0D01*
G01*
X84681500Y-52611000D01*
G75*
G02*
X84919000Y-52848500I0J-237500D01*
G01*
X84919000Y-53323500D01*
G75*
G02*
X84681500Y-53561000I-237500J0D01*
G01*
X84181500Y-53561000D01*
G75*
G02*
X83944000Y-53323500I0J237500D01*
G01*
G37*
G36*
G01*
X94504500Y-45994500D02*
X94979500Y-45994500D01*
G75*
G02*
X95217000Y-46232000I0J-237500D01*
G01*
X95217000Y-46732000D01*
G75*
G02*
X94979500Y-46969500I-237500J0D01*
G01*
X94504500Y-46969500D01*
G75*
G02*
X94267000Y-46732000I0J237500D01*
G01*
X94267000Y-46232000D01*
G75*
G02*
X94504500Y-45994500I237500J0D01*
G01*
G37*
G36*
G01*
X94504500Y-44169500D02*
X94979500Y-44169500D01*
G75*
G02*
X95217000Y-44407000I0J-237500D01*
G01*
X95217000Y-44907000D01*
G75*
G02*
X94979500Y-45144500I-237500J0D01*
G01*
X94504500Y-45144500D01*
G75*
G02*
X94267000Y-44907000I0J237500D01*
G01*
X94267000Y-44407000D01*
G75*
G02*
X94504500Y-44169500I237500J0D01*
G01*
G37*
G36*
G01*
X115295500Y-58182500D02*
X115295500Y-58657500D01*
G75*
G02*
X115058000Y-58895000I-237500J0D01*
G01*
X114558000Y-58895000D01*
G75*
G02*
X114320500Y-58657500I0J237500D01*
G01*
X114320500Y-58182500D01*
G75*
G02*
X114558000Y-57945000I237500J0D01*
G01*
X115058000Y-57945000D01*
G75*
G02*
X115295500Y-58182500I0J-237500D01*
G01*
G37*
G36*
G01*
X117120500Y-58182500D02*
X117120500Y-58657500D01*
G75*
G02*
X116883000Y-58895000I-237500J0D01*
G01*
X116383000Y-58895000D01*
G75*
G02*
X116145500Y-58657500I0J237500D01*
G01*
X116145500Y-58182500D01*
G75*
G02*
X116383000Y-57945000I237500J0D01*
G01*
X116883000Y-57945000D01*
G75*
G02*
X117120500Y-58182500I0J-237500D01*
G01*
G37*
G36*
G01*
X116145500Y-57133500D02*
X116145500Y-56658500D01*
G75*
G02*
X116383000Y-56421000I237500J0D01*
G01*
X116883000Y-56421000D01*
G75*
G02*
X117120500Y-56658500I0J-237500D01*
G01*
X117120500Y-57133500D01*
G75*
G02*
X116883000Y-57371000I-237500J0D01*
G01*
X116383000Y-57371000D01*
G75*
G02*
X116145500Y-57133500I0J237500D01*
G01*
G37*
G36*
G01*
X114320500Y-57133500D02*
X114320500Y-56658500D01*
G75*
G02*
X114558000Y-56421000I237500J0D01*
G01*
X115058000Y-56421000D01*
G75*
G02*
X115295500Y-56658500I0J-237500D01*
G01*
X115295500Y-57133500D01*
G75*
G02*
X115058000Y-57371000I-237500J0D01*
G01*
X114558000Y-57371000D01*
G75*
G02*
X114320500Y-57133500I0J237500D01*
G01*
G37*
G36*
G01*
X112983000Y-62845500D02*
X113458000Y-62845500D01*
G75*
G02*
X113695500Y-63083000I0J-237500D01*
G01*
X113695500Y-63583000D01*
G75*
G02*
X113458000Y-63820500I-237500J0D01*
G01*
X112983000Y-63820500D01*
G75*
G02*
X112745500Y-63583000I0J237500D01*
G01*
X112745500Y-63083000D01*
G75*
G02*
X112983000Y-62845500I237500J0D01*
G01*
G37*
G36*
G01*
X112983000Y-61020500D02*
X113458000Y-61020500D01*
G75*
G02*
X113695500Y-61258000I0J-237500D01*
G01*
X113695500Y-61758000D01*
G75*
G02*
X113458000Y-61995500I-237500J0D01*
G01*
X112983000Y-61995500D01*
G75*
G02*
X112745500Y-61758000I0J237500D01*
G01*
X112745500Y-61258000D01*
G75*
G02*
X112983000Y-61020500I237500J0D01*
G01*
G37*
G36*
G01*
X109808000Y-62845500D02*
X110283000Y-62845500D01*
G75*
G02*
X110520500Y-63083000I0J-237500D01*
G01*
X110520500Y-63583000D01*
G75*
G02*
X110283000Y-63820500I-237500J0D01*
G01*
X109808000Y-63820500D01*
G75*
G02*
X109570500Y-63583000I0J237500D01*
G01*
X109570500Y-63083000D01*
G75*
G02*
X109808000Y-62845500I237500J0D01*
G01*
G37*
G36*
G01*
X109808000Y-61020500D02*
X110283000Y-61020500D01*
G75*
G02*
X110520500Y-61258000I0J-237500D01*
G01*
X110520500Y-61758000D01*
G75*
G02*
X110283000Y-61995500I-237500J0D01*
G01*
X109808000Y-61995500D01*
G75*
G02*
X109570500Y-61758000I0J237500D01*
G01*
X109570500Y-61258000D01*
G75*
G02*
X109808000Y-61020500I237500J0D01*
G01*
G37*
D10*
X79152500Y-32639000D03*
X79152500Y-34819000D03*
D11*
X77152500Y-32639000D03*
X77152500Y-34819000D03*
D12*
X75502500Y-35639000D03*
X75502500Y-34369000D03*
X75502500Y-33089000D03*
X75502500Y-31819000D03*
X81302500Y-31819000D03*
X81302500Y-33089000D03*
X81302500Y-34369000D03*
X81302500Y-35639000D03*
D10*
X77672500Y-28712500D03*
X77672500Y-26532500D03*
D11*
X79672500Y-28712500D03*
X79672500Y-26532500D03*
D12*
X81322500Y-25712500D03*
X81322500Y-26982500D03*
X81322500Y-28262500D03*
X81322500Y-29532500D03*
X75522500Y-29532500D03*
X75522500Y-28262500D03*
X75522500Y-26982500D03*
X75522500Y-25712500D03*
D10*
X79172500Y-44820500D03*
X79172500Y-47000500D03*
D11*
X77172500Y-44820500D03*
X77172500Y-47000500D03*
D12*
X75522500Y-47820500D03*
X75522500Y-46550500D03*
X75522500Y-45270500D03*
X75522500Y-44000500D03*
X81322500Y-44000500D03*
X81322500Y-45270500D03*
X81322500Y-46550500D03*
X81322500Y-47820500D03*
D10*
X77660500Y-40915000D03*
X77660500Y-38735000D03*
D11*
X79660500Y-40915000D03*
X79660500Y-38735000D03*
D12*
X81310500Y-37915000D03*
X81310500Y-39185000D03*
X81310500Y-40465000D03*
X81310500Y-41735000D03*
X75510500Y-41735000D03*
X75510500Y-40465000D03*
X75510500Y-39185000D03*
X75510500Y-37915000D03*
D10*
X79172500Y-57012500D03*
X79172500Y-59192500D03*
D11*
X77172500Y-57012500D03*
X77172500Y-59192500D03*
D12*
X75522500Y-60012500D03*
X75522500Y-58742500D03*
X75522500Y-57462500D03*
X75522500Y-56192500D03*
X81322500Y-56192500D03*
X81322500Y-57462500D03*
X81322500Y-58742500D03*
X81322500Y-60012500D03*
D10*
X77672500Y-53096500D03*
X77672500Y-50916500D03*
D11*
X79672500Y-53096500D03*
X79672500Y-50916500D03*
D12*
X81322500Y-50096500D03*
X81322500Y-51366500D03*
X81322500Y-52646500D03*
X81322500Y-53916500D03*
X75522500Y-53916500D03*
X75522500Y-52646500D03*
X75522500Y-51366500D03*
X75522500Y-50096500D03*
D13*
X65414000Y-41140500D03*
X65414000Y-50680500D03*
D14*
X70344000Y-43410500D03*
X70344000Y-45910500D03*
X70344000Y-48410500D03*
D15*
X86694000Y-43500000D03*
X86694000Y-45400000D03*
X83994000Y-45400000D03*
X83994000Y-44450000D03*
X83994000Y-43500000D03*
X83392000Y-64328000D03*
X83392000Y-66228000D03*
X80692000Y-66228000D03*
X80692000Y-65278000D03*
X80692000Y-64328000D03*
D16*
G36*
X94304104Y-41111803D02*
G01*
X94275408Y-41103098D01*
X94248963Y-41088963D01*
X94225783Y-41069939D01*
X94099061Y-40943217D01*
X94080037Y-40920037D01*
X94065902Y-40893592D01*
X94057197Y-40864896D01*
X94054258Y-40835054D01*
X94054258Y-40485946D01*
X94057197Y-40456104D01*
X94065902Y-40427408D01*
X94080037Y-40400963D01*
X94099061Y-40377783D01*
X94225783Y-40251061D01*
X94248963Y-40232037D01*
X94275408Y-40217902D01*
X94304104Y-40209197D01*
X94333946Y-40206258D01*
X94683054Y-40206258D01*
X94712896Y-40209197D01*
X94741592Y-40217902D01*
X94768037Y-40232037D01*
X94791217Y-40251061D01*
X94917939Y-40377783D01*
X94936963Y-40400963D01*
X94951098Y-40427408D01*
X94959803Y-40456104D01*
X94962742Y-40485946D01*
X94962742Y-40835054D01*
X94959803Y-40864896D01*
X94951098Y-40893592D01*
X94936963Y-40920037D01*
X94917939Y-40943217D01*
X94791217Y-41069939D01*
X94768037Y-41088963D01*
X94741592Y-41103098D01*
X94712896Y-41111803D01*
X94683054Y-41114742D01*
X94333946Y-41114742D01*
X94304104Y-41111803D01*
G37*
G36*
X94304104Y-42086803D02*
G01*
X94275408Y-42078098D01*
X94248963Y-42063963D01*
X94225783Y-42044939D01*
X94099061Y-41918217D01*
X94080037Y-41895037D01*
X94065902Y-41868592D01*
X94057197Y-41839896D01*
X94054258Y-41810054D01*
X94054258Y-41460946D01*
X94057197Y-41431104D01*
X94065902Y-41402408D01*
X94080037Y-41375963D01*
X94099061Y-41352783D01*
X94225783Y-41226061D01*
X94248963Y-41207037D01*
X94275408Y-41192902D01*
X94304104Y-41184197D01*
X94333946Y-41181258D01*
X94683054Y-41181258D01*
X94712896Y-41184197D01*
X94741592Y-41192902D01*
X94768037Y-41207037D01*
X94791217Y-41226061D01*
X94917939Y-41352783D01*
X94936963Y-41375963D01*
X94951098Y-41402408D01*
X94959803Y-41431104D01*
X94962742Y-41460946D01*
X94962742Y-41810054D01*
X94959803Y-41839896D01*
X94951098Y-41868592D01*
X94936963Y-41895037D01*
X94917939Y-41918217D01*
X94791217Y-42044939D01*
X94768037Y-42063963D01*
X94741592Y-42078098D01*
X94712896Y-42086803D01*
X94683054Y-42089742D01*
X94333946Y-42089742D01*
X94304104Y-42086803D01*
G37*
G36*
X95279104Y-41111803D02*
G01*
X95250408Y-41103098D01*
X95223963Y-41088963D01*
X95200783Y-41069939D01*
X95074061Y-40943217D01*
X95055037Y-40920037D01*
X95040902Y-40893592D01*
X95032197Y-40864896D01*
X95029258Y-40835054D01*
X95029258Y-40485946D01*
X95032197Y-40456104D01*
X95040902Y-40427408D01*
X95055037Y-40400963D01*
X95074061Y-40377783D01*
X95200783Y-40251061D01*
X95223963Y-40232037D01*
X95250408Y-40217902D01*
X95279104Y-40209197D01*
X95308946Y-40206258D01*
X95658054Y-40206258D01*
X95687896Y-40209197D01*
X95716592Y-40217902D01*
X95743037Y-40232037D01*
X95766217Y-40251061D01*
X95892939Y-40377783D01*
X95911963Y-40400963D01*
X95926098Y-40427408D01*
X95934803Y-40456104D01*
X95937742Y-40485946D01*
X95937742Y-40835054D01*
X95934803Y-40864896D01*
X95926098Y-40893592D01*
X95911963Y-40920037D01*
X95892939Y-40943217D01*
X95766217Y-41069939D01*
X95743037Y-41088963D01*
X95716592Y-41103098D01*
X95687896Y-41111803D01*
X95658054Y-41114742D01*
X95308946Y-41114742D01*
X95279104Y-41111803D01*
G37*
G36*
X95279104Y-42086803D02*
G01*
X95250408Y-42078098D01*
X95223963Y-42063963D01*
X95200783Y-42044939D01*
X95074061Y-41918217D01*
X95055037Y-41895037D01*
X95040902Y-41868592D01*
X95032197Y-41839896D01*
X95029258Y-41810054D01*
X95029258Y-41460946D01*
X95032197Y-41431104D01*
X95040902Y-41402408D01*
X95055037Y-41375963D01*
X95074061Y-41352783D01*
X95200783Y-41226061D01*
X95223963Y-41207037D01*
X95250408Y-41192902D01*
X95279104Y-41184197D01*
X95308946Y-41181258D01*
X95658054Y-41181258D01*
X95687896Y-41184197D01*
X95716592Y-41192902D01*
X95743037Y-41207037D01*
X95766217Y-41226061D01*
X95892939Y-41352783D01*
X95911963Y-41375963D01*
X95926098Y-41402408D01*
X95934803Y-41431104D01*
X95937742Y-41460946D01*
X95937742Y-41810054D01*
X95934803Y-41839896D01*
X95926098Y-41868592D01*
X95911963Y-41895037D01*
X95892939Y-41918217D01*
X95766217Y-42044939D01*
X95743037Y-42063963D01*
X95716592Y-42078098D01*
X95687896Y-42086803D01*
X95658054Y-42089742D01*
X95308946Y-42089742D01*
X95279104Y-42086803D01*
G37*
G36*
G01*
X96371000Y-42810500D02*
X96371000Y-43460500D01*
G75*
G02*
X96308500Y-43523000I-62500J0D01*
G01*
X96183500Y-43523000D01*
G75*
G02*
X96121000Y-43460500I0J62500D01*
G01*
X96121000Y-42810500D01*
G75*
G02*
X96183500Y-42748000I62500J0D01*
G01*
X96308500Y-42748000D01*
G75*
G02*
X96371000Y-42810500I0J-62500D01*
G01*
G37*
G36*
G01*
X95871000Y-42810500D02*
X95871000Y-43460500D01*
G75*
G02*
X95808500Y-43523000I-62500J0D01*
G01*
X95683500Y-43523000D01*
G75*
G02*
X95621000Y-43460500I0J62500D01*
G01*
X95621000Y-42810500D01*
G75*
G02*
X95683500Y-42748000I62500J0D01*
G01*
X95808500Y-42748000D01*
G75*
G02*
X95871000Y-42810500I0J-62500D01*
G01*
G37*
G36*
G01*
X95371000Y-42810500D02*
X95371000Y-43460500D01*
G75*
G02*
X95308500Y-43523000I-62500J0D01*
G01*
X95183500Y-43523000D01*
G75*
G02*
X95121000Y-43460500I0J62500D01*
G01*
X95121000Y-42810500D01*
G75*
G02*
X95183500Y-42748000I62500J0D01*
G01*
X95308500Y-42748000D01*
G75*
G02*
X95371000Y-42810500I0J-62500D01*
G01*
G37*
G36*
G01*
X94871000Y-42810500D02*
X94871000Y-43460500D01*
G75*
G02*
X94808500Y-43523000I-62500J0D01*
G01*
X94683500Y-43523000D01*
G75*
G02*
X94621000Y-43460500I0J62500D01*
G01*
X94621000Y-42810500D01*
G75*
G02*
X94683500Y-42748000I62500J0D01*
G01*
X94808500Y-42748000D01*
G75*
G02*
X94871000Y-42810500I0J-62500D01*
G01*
G37*
G36*
G01*
X94371000Y-42810500D02*
X94371000Y-43460500D01*
G75*
G02*
X94308500Y-43523000I-62500J0D01*
G01*
X94183500Y-43523000D01*
G75*
G02*
X94121000Y-43460500I0J62500D01*
G01*
X94121000Y-42810500D01*
G75*
G02*
X94183500Y-42748000I62500J0D01*
G01*
X94308500Y-42748000D01*
G75*
G02*
X94371000Y-42810500I0J-62500D01*
G01*
G37*
G36*
G01*
X93871000Y-42810500D02*
X93871000Y-43460500D01*
G75*
G02*
X93808500Y-43523000I-62500J0D01*
G01*
X93683500Y-43523000D01*
G75*
G02*
X93621000Y-43460500I0J62500D01*
G01*
X93621000Y-42810500D01*
G75*
G02*
X93683500Y-42748000I62500J0D01*
G01*
X93808500Y-42748000D01*
G75*
G02*
X93871000Y-42810500I0J-62500D01*
G01*
G37*
G36*
G01*
X93396000Y-42335500D02*
X93396000Y-42460500D01*
G75*
G02*
X93333500Y-42523000I-62500J0D01*
G01*
X92683500Y-42523000D01*
G75*
G02*
X92621000Y-42460500I0J62500D01*
G01*
X92621000Y-42335500D01*
G75*
G02*
X92683500Y-42273000I62500J0D01*
G01*
X93333500Y-42273000D01*
G75*
G02*
X93396000Y-42335500I0J-62500D01*
G01*
G37*
G36*
G01*
X93396000Y-41835500D02*
X93396000Y-41960500D01*
G75*
G02*
X93333500Y-42023000I-62500J0D01*
G01*
X92683500Y-42023000D01*
G75*
G02*
X92621000Y-41960500I0J62500D01*
G01*
X92621000Y-41835500D01*
G75*
G02*
X92683500Y-41773000I62500J0D01*
G01*
X93333500Y-41773000D01*
G75*
G02*
X93396000Y-41835500I0J-62500D01*
G01*
G37*
G36*
G01*
X93396000Y-41335500D02*
X93396000Y-41460500D01*
G75*
G02*
X93333500Y-41523000I-62500J0D01*
G01*
X92683500Y-41523000D01*
G75*
G02*
X92621000Y-41460500I0J62500D01*
G01*
X92621000Y-41335500D01*
G75*
G02*
X92683500Y-41273000I62500J0D01*
G01*
X93333500Y-41273000D01*
G75*
G02*
X93396000Y-41335500I0J-62500D01*
G01*
G37*
G36*
G01*
X93396000Y-40835500D02*
X93396000Y-40960500D01*
G75*
G02*
X93333500Y-41023000I-62500J0D01*
G01*
X92683500Y-41023000D01*
G75*
G02*
X92621000Y-40960500I0J62500D01*
G01*
X92621000Y-40835500D01*
G75*
G02*
X92683500Y-40773000I62500J0D01*
G01*
X93333500Y-40773000D01*
G75*
G02*
X93396000Y-40835500I0J-62500D01*
G01*
G37*
G36*
G01*
X93396000Y-40335500D02*
X93396000Y-40460500D01*
G75*
G02*
X93333500Y-40523000I-62500J0D01*
G01*
X92683500Y-40523000D01*
G75*
G02*
X92621000Y-40460500I0J62500D01*
G01*
X92621000Y-40335500D01*
G75*
G02*
X92683500Y-40273000I62500J0D01*
G01*
X93333500Y-40273000D01*
G75*
G02*
X93396000Y-40335500I0J-62500D01*
G01*
G37*
G36*
G01*
X93396000Y-39835500D02*
X93396000Y-39960500D01*
G75*
G02*
X93333500Y-40023000I-62500J0D01*
G01*
X92683500Y-40023000D01*
G75*
G02*
X92621000Y-39960500I0J62500D01*
G01*
X92621000Y-39835500D01*
G75*
G02*
X92683500Y-39773000I62500J0D01*
G01*
X93333500Y-39773000D01*
G75*
G02*
X93396000Y-39835500I0J-62500D01*
G01*
G37*
G36*
G01*
X93871000Y-38835500D02*
X93871000Y-39485500D01*
G75*
G02*
X93808500Y-39548000I-62500J0D01*
G01*
X93683500Y-39548000D01*
G75*
G02*
X93621000Y-39485500I0J62500D01*
G01*
X93621000Y-38835500D01*
G75*
G02*
X93683500Y-38773000I62500J0D01*
G01*
X93808500Y-38773000D01*
G75*
G02*
X93871000Y-38835500I0J-62500D01*
G01*
G37*
G36*
G01*
X94371000Y-38835500D02*
X94371000Y-39485500D01*
G75*
G02*
X94308500Y-39548000I-62500J0D01*
G01*
X94183500Y-39548000D01*
G75*
G02*
X94121000Y-39485500I0J62500D01*
G01*
X94121000Y-38835500D01*
G75*
G02*
X94183500Y-38773000I62500J0D01*
G01*
X94308500Y-38773000D01*
G75*
G02*
X94371000Y-38835500I0J-62500D01*
G01*
G37*
G36*
G01*
X94871000Y-38835500D02*
X94871000Y-39485500D01*
G75*
G02*
X94808500Y-39548000I-62500J0D01*
G01*
X94683500Y-39548000D01*
G75*
G02*
X94621000Y-39485500I0J62500D01*
G01*
X94621000Y-38835500D01*
G75*
G02*
X94683500Y-38773000I62500J0D01*
G01*
X94808500Y-38773000D01*
G75*
G02*
X94871000Y-38835500I0J-62500D01*
G01*
G37*
G36*
G01*
X95371000Y-38835500D02*
X95371000Y-39485500D01*
G75*
G02*
X95308500Y-39548000I-62500J0D01*
G01*
X95183500Y-39548000D01*
G75*
G02*
X95121000Y-39485500I0J62500D01*
G01*
X95121000Y-38835500D01*
G75*
G02*
X95183500Y-38773000I62500J0D01*
G01*
X95308500Y-38773000D01*
G75*
G02*
X95371000Y-38835500I0J-62500D01*
G01*
G37*
G36*
G01*
X95871000Y-38835500D02*
X95871000Y-39485500D01*
G75*
G02*
X95808500Y-39548000I-62500J0D01*
G01*
X95683500Y-39548000D01*
G75*
G02*
X95621000Y-39485500I0J62500D01*
G01*
X95621000Y-38835500D01*
G75*
G02*
X95683500Y-38773000I62500J0D01*
G01*
X95808500Y-38773000D01*
G75*
G02*
X95871000Y-38835500I0J-62500D01*
G01*
G37*
G36*
G01*
X96371000Y-38835500D02*
X96371000Y-39485500D01*
G75*
G02*
X96308500Y-39548000I-62500J0D01*
G01*
X96183500Y-39548000D01*
G75*
G02*
X96121000Y-39485500I0J62500D01*
G01*
X96121000Y-38835500D01*
G75*
G02*
X96183500Y-38773000I62500J0D01*
G01*
X96308500Y-38773000D01*
G75*
G02*
X96371000Y-38835500I0J-62500D01*
G01*
G37*
G36*
G01*
X97371000Y-39835500D02*
X97371000Y-39960500D01*
G75*
G02*
X97308500Y-40023000I-62500J0D01*
G01*
X96658500Y-40023000D01*
G75*
G02*
X96596000Y-39960500I0J62500D01*
G01*
X96596000Y-39835500D01*
G75*
G02*
X96658500Y-39773000I62500J0D01*
G01*
X97308500Y-39773000D01*
G75*
G02*
X97371000Y-39835500I0J-62500D01*
G01*
G37*
G36*
G01*
X97371000Y-40335500D02*
X97371000Y-40460500D01*
G75*
G02*
X97308500Y-40523000I-62500J0D01*
G01*
X96658500Y-40523000D01*
G75*
G02*
X96596000Y-40460500I0J62500D01*
G01*
X96596000Y-40335500D01*
G75*
G02*
X96658500Y-40273000I62500J0D01*
G01*
X97308500Y-40273000D01*
G75*
G02*
X97371000Y-40335500I0J-62500D01*
G01*
G37*
G36*
G01*
X97371000Y-40835500D02*
X97371000Y-40960500D01*
G75*
G02*
X97308500Y-41023000I-62500J0D01*
G01*
X96658500Y-41023000D01*
G75*
G02*
X96596000Y-40960500I0J62500D01*
G01*
X96596000Y-40835500D01*
G75*
G02*
X96658500Y-40773000I62500J0D01*
G01*
X97308500Y-40773000D01*
G75*
G02*
X97371000Y-40835500I0J-62500D01*
G01*
G37*
G36*
G01*
X97371000Y-41335500D02*
X97371000Y-41460500D01*
G75*
G02*
X97308500Y-41523000I-62500J0D01*
G01*
X96658500Y-41523000D01*
G75*
G02*
X96596000Y-41460500I0J62500D01*
G01*
X96596000Y-41335500D01*
G75*
G02*
X96658500Y-41273000I62500J0D01*
G01*
X97308500Y-41273000D01*
G75*
G02*
X97371000Y-41335500I0J-62500D01*
G01*
G37*
G36*
G01*
X97371000Y-41835500D02*
X97371000Y-41960500D01*
G75*
G02*
X97308500Y-42023000I-62500J0D01*
G01*
X96658500Y-42023000D01*
G75*
G02*
X96596000Y-41960500I0J62500D01*
G01*
X96596000Y-41835500D01*
G75*
G02*
X96658500Y-41773000I62500J0D01*
G01*
X97308500Y-41773000D01*
G75*
G02*
X97371000Y-41835500I0J-62500D01*
G01*
G37*
G36*
G01*
X97371000Y-42335500D02*
X97371000Y-42460500D01*
G75*
G02*
X97308500Y-42523000I-62500J0D01*
G01*
X96658500Y-42523000D01*
G75*
G02*
X96596000Y-42460500I0J62500D01*
G01*
X96596000Y-42335500D01*
G75*
G02*
X96658500Y-42273000I62500J0D01*
G01*
X97308500Y-42273000D01*
G75*
G02*
X97371000Y-42335500I0J-62500D01*
G01*
G37*
D17*
X90171500Y-37846000D03*
X88771500Y-37846000D03*
D18*
X96202500Y-47814000D03*
X96202500Y-49214000D03*
X94742000Y-47814000D03*
X94742000Y-49214000D03*
X116395500Y-62866500D03*
X116395500Y-61466500D03*
G36*
G01*
X102937000Y-29458499D02*
X102937000Y-30358501D01*
G75*
G02*
X102687001Y-30608500I-249999J0D01*
G01*
X102036999Y-30608500D01*
G75*
G02*
X101787000Y-30358501I0J249999D01*
G01*
X101787000Y-29458499D01*
G75*
G02*
X102036999Y-29208500I249999J0D01*
G01*
X102687001Y-29208500D01*
G75*
G02*
X102937000Y-29458499I0J-249999D01*
G01*
G37*
G36*
G01*
X104987000Y-29458499D02*
X104987000Y-30358501D01*
G75*
G02*
X104737001Y-30608500I-249999J0D01*
G01*
X104086999Y-30608500D01*
G75*
G02*
X103837000Y-30358501I0J249999D01*
G01*
X103837000Y-29458499D01*
G75*
G02*
X104086999Y-29208500I249999J0D01*
G01*
X104737001Y-29208500D01*
G75*
G02*
X104987000Y-29458499I0J-249999D01*
G01*
G37*
G36*
G01*
X88535500Y-44673000D02*
X89010500Y-44673000D01*
G75*
G02*
X89248000Y-44910500I0J-237500D01*
G01*
X89248000Y-45485500D01*
G75*
G02*
X89010500Y-45723000I-237500J0D01*
G01*
X88535500Y-45723000D01*
G75*
G02*
X88298000Y-45485500I0J237500D01*
G01*
X88298000Y-44910500D01*
G75*
G02*
X88535500Y-44673000I237500J0D01*
G01*
G37*
G36*
G01*
X88535500Y-42923000D02*
X89010500Y-42923000D01*
G75*
G02*
X89248000Y-43160500I0J-237500D01*
G01*
X89248000Y-43735500D01*
G75*
G02*
X89010500Y-43973000I-237500J0D01*
G01*
X88535500Y-43973000D01*
G75*
G02*
X88298000Y-43735500I0J237500D01*
G01*
X88298000Y-43160500D01*
G75*
G02*
X88535500Y-42923000I237500J0D01*
G01*
G37*
G36*
G01*
X91329500Y-38513500D02*
X91804500Y-38513500D01*
G75*
G02*
X92042000Y-38751000I0J-237500D01*
G01*
X92042000Y-39326000D01*
G75*
G02*
X91804500Y-39563500I-237500J0D01*
G01*
X91329500Y-39563500D01*
G75*
G02*
X91092000Y-39326000I0J237500D01*
G01*
X91092000Y-38751000D01*
G75*
G02*
X91329500Y-38513500I237500J0D01*
G01*
G37*
G36*
G01*
X91329500Y-36763500D02*
X91804500Y-36763500D01*
G75*
G02*
X92042000Y-37001000I0J-237500D01*
G01*
X92042000Y-37576000D01*
G75*
G02*
X91804500Y-37813500I-237500J0D01*
G01*
X91329500Y-37813500D01*
G75*
G02*
X91092000Y-37576000I0J237500D01*
G01*
X91092000Y-37001000D01*
G75*
G02*
X91329500Y-36763500I237500J0D01*
G01*
G37*
G36*
G01*
X91677500Y-42576000D02*
X91202500Y-42576000D01*
G75*
G02*
X90965000Y-42338500I0J237500D01*
G01*
X90965000Y-41763500D01*
G75*
G02*
X91202500Y-41526000I237500J0D01*
G01*
X91677500Y-41526000D01*
G75*
G02*
X91915000Y-41763500I0J-237500D01*
G01*
X91915000Y-42338500D01*
G75*
G02*
X91677500Y-42576000I-237500J0D01*
G01*
G37*
G36*
G01*
X91677500Y-44326000D02*
X91202500Y-44326000D01*
G75*
G02*
X90965000Y-44088500I0J237500D01*
G01*
X90965000Y-43513500D01*
G75*
G02*
X91202500Y-43276000I237500J0D01*
G01*
X91677500Y-43276000D01*
G75*
G02*
X91915000Y-43513500I0J-237500D01*
G01*
X91915000Y-44088500D01*
G75*
G02*
X91677500Y-44326000I-237500J0D01*
G01*
G37*
G36*
G01*
X93455500Y-47910000D02*
X92980500Y-47910000D01*
G75*
G02*
X92743000Y-47672500I0J237500D01*
G01*
X92743000Y-47097500D01*
G75*
G02*
X92980500Y-46860000I237500J0D01*
G01*
X93455500Y-46860000D01*
G75*
G02*
X93693000Y-47097500I0J-237500D01*
G01*
X93693000Y-47672500D01*
G75*
G02*
X93455500Y-47910000I-237500J0D01*
G01*
G37*
G36*
G01*
X93455500Y-49660000D02*
X92980500Y-49660000D01*
G75*
G02*
X92743000Y-49422500I0J237500D01*
G01*
X92743000Y-48847500D01*
G75*
G02*
X92980500Y-48610000I237500J0D01*
G01*
X93455500Y-48610000D01*
G75*
G02*
X93693000Y-48847500I0J-237500D01*
G01*
X93693000Y-49422500D01*
G75*
G02*
X93455500Y-49660000I-237500J0D01*
G01*
G37*
G36*
G01*
X99700501Y-39936000D02*
X98800499Y-39936000D01*
G75*
G02*
X98550500Y-39686001I0J249999D01*
G01*
X98550500Y-39035999D01*
G75*
G02*
X98800499Y-38786000I249999J0D01*
G01*
X99700501Y-38786000D01*
G75*
G02*
X99950500Y-39035999I0J-249999D01*
G01*
X99950500Y-39686001D01*
G75*
G02*
X99700501Y-39936000I-249999J0D01*
G01*
G37*
G36*
G01*
X99700501Y-41986000D02*
X98800499Y-41986000D01*
G75*
G02*
X98550500Y-41736001I0J249999D01*
G01*
X98550500Y-41085999D01*
G75*
G02*
X98800499Y-40836000I249999J0D01*
G01*
X99700501Y-40836000D01*
G75*
G02*
X99950500Y-41085999I0J-249999D01*
G01*
X99950500Y-41736001D01*
G75*
G02*
X99700501Y-41986000I-249999J0D01*
G01*
G37*
G36*
G01*
X115361000Y-59706500D02*
X115361000Y-60181500D01*
G75*
G02*
X115123500Y-60419000I-237500J0D01*
G01*
X114548500Y-60419000D01*
G75*
G02*
X114311000Y-60181500I0J237500D01*
G01*
X114311000Y-59706500D01*
G75*
G02*
X114548500Y-59469000I237500J0D01*
G01*
X115123500Y-59469000D01*
G75*
G02*
X115361000Y-59706500I0J-237500D01*
G01*
G37*
G36*
G01*
X117111000Y-59706500D02*
X117111000Y-60181500D01*
G75*
G02*
X116873500Y-60419000I-237500J0D01*
G01*
X116298500Y-60419000D01*
G75*
G02*
X116061000Y-60181500I0J237500D01*
G01*
X116061000Y-59706500D01*
G75*
G02*
X116298500Y-59469000I237500J0D01*
G01*
X116873500Y-59469000D01*
G75*
G02*
X117111000Y-59706500I0J-237500D01*
G01*
G37*
G36*
G01*
X106266500Y-63453000D02*
X106266500Y-63928000D01*
G75*
G02*
X106029000Y-64165500I-237500J0D01*
G01*
X105454000Y-64165500D01*
G75*
G02*
X105216500Y-63928000I0J237500D01*
G01*
X105216500Y-63453000D01*
G75*
G02*
X105454000Y-63215500I237500J0D01*
G01*
X106029000Y-63215500D01*
G75*
G02*
X106266500Y-63453000I0J-237500D01*
G01*
G37*
G36*
G01*
X108016500Y-63453000D02*
X108016500Y-63928000D01*
G75*
G02*
X107779000Y-64165500I-237500J0D01*
G01*
X107204000Y-64165500D01*
G75*
G02*
X106966500Y-63928000I0J237500D01*
G01*
X106966500Y-63453000D01*
G75*
G02*
X107204000Y-63215500I237500J0D01*
G01*
X107779000Y-63215500D01*
G75*
G02*
X108016500Y-63453000I0J-237500D01*
G01*
G37*
G36*
G01*
X115045500Y-62070500D02*
X114570500Y-62070500D01*
G75*
G02*
X114333000Y-61833000I0J237500D01*
G01*
X114333000Y-61258000D01*
G75*
G02*
X114570500Y-61020500I237500J0D01*
G01*
X115045500Y-61020500D01*
G75*
G02*
X115283000Y-61258000I0J-237500D01*
G01*
X115283000Y-61833000D01*
G75*
G02*
X115045500Y-62070500I-237500J0D01*
G01*
G37*
G36*
G01*
X115045500Y-63820500D02*
X114570500Y-63820500D01*
G75*
G02*
X114333000Y-63583000I0J237500D01*
G01*
X114333000Y-63008000D01*
G75*
G02*
X114570500Y-62770500I237500J0D01*
G01*
X115045500Y-62770500D01*
G75*
G02*
X115283000Y-63008000I0J-237500D01*
G01*
X115283000Y-63583000D01*
G75*
G02*
X115045500Y-63820500I-237500J0D01*
G01*
G37*
G36*
G01*
X102848500Y-57597000D02*
X101748500Y-57597000D01*
G75*
G02*
X101498500Y-57347000I0J250000D01*
G01*
X101498500Y-54347000D01*
G75*
G02*
X101748500Y-54097000I250000J0D01*
G01*
X102848500Y-54097000D01*
G75*
G02*
X103098500Y-54347000I0J-250000D01*
G01*
X103098500Y-57347000D01*
G75*
G02*
X102848500Y-57597000I-250000J0D01*
G01*
G37*
G36*
G01*
X102848500Y-62997000D02*
X101748500Y-62997000D01*
G75*
G02*
X101498500Y-62747000I0J250000D01*
G01*
X101498500Y-59747000D01*
G75*
G02*
X101748500Y-59497000I250000J0D01*
G01*
X102848500Y-59497000D01*
G75*
G02*
X103098500Y-59747000I0J-250000D01*
G01*
X103098500Y-62747000D01*
G75*
G02*
X102848500Y-62997000I-250000J0D01*
G01*
G37*
G36*
G01*
X111870500Y-62070500D02*
X111395500Y-62070500D01*
G75*
G02*
X111158000Y-61833000I0J237500D01*
G01*
X111158000Y-61258000D01*
G75*
G02*
X111395500Y-61020500I237500J0D01*
G01*
X111870500Y-61020500D01*
G75*
G02*
X112108000Y-61258000I0J-237500D01*
G01*
X112108000Y-61833000D01*
G75*
G02*
X111870500Y-62070500I-237500J0D01*
G01*
G37*
G36*
G01*
X111870500Y-63820500D02*
X111395500Y-63820500D01*
G75*
G02*
X111158000Y-63583000I0J237500D01*
G01*
X111158000Y-63008000D01*
G75*
G02*
X111395500Y-62770500I237500J0D01*
G01*
X111870500Y-62770500D01*
G75*
G02*
X112108000Y-63008000I0J-237500D01*
G01*
X112108000Y-63583000D01*
G75*
G02*
X111870500Y-63820500I-237500J0D01*
G01*
G37*
M02*
