G04 #@! TF.GenerationSoftware,KiCad,Pcbnew,(5.1.10)-1*
G04 #@! TF.CreationDate,2021-10-08T21:42:51+13:00*
G04 #@! TF.ProjectId,bldc_driver_fpga,626c6463-5f64-4726-9976-65725f667067,rev?*
G04 #@! TF.SameCoordinates,Original*
G04 #@! TF.FileFunction,Legend,Bot*
G04 #@! TF.FilePolarity,Positive*
%FSLAX46Y46*%
G04 Gerber Fmt 4.6, Leading zero omitted, Abs format (unit mm)*
G04 Created by KiCad (PCBNEW (5.1.10)-1) date 2021-10-08 21:42:51*
%MOMM*%
%LPD*%
G01*
G04 APERTURE LIST*
%ADD10C,0.120000*%
%ADD11C,0.150000*%
%ADD12C,3.200000*%
%ADD13O,1.750000X1.200000*%
%ADD14O,1.700000X1.700000*%
%ADD15R,1.700000X1.700000*%
%ADD16O,2.700000X3.300000*%
G04 APERTURE END LIST*
D10*
X119188776Y-43321500D02*
X119698224Y-43321500D01*
X119188776Y-42276500D02*
X119698224Y-42276500D01*
X119188776Y-45290000D02*
X119698224Y-45290000D01*
X119188776Y-44245000D02*
X119698224Y-44245000D01*
X119165276Y-47322000D02*
X119674724Y-47322000D01*
X119165276Y-46277000D02*
X119674724Y-46277000D01*
X82213267Y-64831500D02*
X81870733Y-64831500D01*
X82213267Y-65851500D02*
X81870733Y-65851500D01*
X85706000Y-24149000D02*
X85706000Y-26499000D01*
X85706000Y-30969000D02*
X85706000Y-28619000D01*
X79950437Y-30969000D02*
X85706000Y-30969000D01*
X79950437Y-24149000D02*
X85706000Y-24149000D01*
X78886000Y-25213437D02*
X78886000Y-26499000D01*
X78886000Y-29904563D02*
X78886000Y-28619000D01*
X78886000Y-29904563D02*
X79950437Y-30969000D01*
X78886000Y-25213437D02*
X79950437Y-24149000D01*
X77858500Y-29406500D02*
X78646000Y-29406500D01*
X78252250Y-29800250D02*
X78252250Y-29012750D01*
X85579000Y-36531500D02*
X85579000Y-38881500D01*
X85579000Y-43351500D02*
X85579000Y-41001500D01*
X79823437Y-43351500D02*
X85579000Y-43351500D01*
X79823437Y-36531500D02*
X85579000Y-36531500D01*
X78759000Y-37595937D02*
X78759000Y-38881500D01*
X78759000Y-42287063D02*
X78759000Y-41001500D01*
X78759000Y-42287063D02*
X79823437Y-43351500D01*
X78759000Y-37595937D02*
X79823437Y-36531500D01*
X77731500Y-41789000D02*
X78519000Y-41789000D01*
X78125250Y-42182750D02*
X78125250Y-41395250D01*
X85706000Y-48787000D02*
X85706000Y-51137000D01*
X85706000Y-55607000D02*
X85706000Y-53257000D01*
X79950437Y-55607000D02*
X85706000Y-55607000D01*
X79950437Y-48787000D02*
X85706000Y-48787000D01*
X78886000Y-49851437D02*
X78886000Y-51137000D01*
X78886000Y-54542563D02*
X78886000Y-53257000D01*
X78886000Y-54542563D02*
X79950437Y-55607000D01*
X78886000Y-49851437D02*
X79950437Y-48787000D01*
X77858500Y-54044500D02*
X78646000Y-54044500D01*
X78252250Y-54438250D02*
X78252250Y-53650750D01*
X96578267Y-63625000D02*
X96235733Y-63625000D01*
X96578267Y-64645000D02*
X96235733Y-64645000D01*
X98486500Y-62933733D02*
X98486500Y-63276267D01*
X99506500Y-62933733D02*
X99506500Y-63276267D01*
D11*
X119610166Y-41854380D02*
X119943500Y-41378190D01*
X120181595Y-41854380D02*
X120181595Y-40854380D01*
X119800642Y-40854380D01*
X119705404Y-40902000D01*
X119657785Y-40949619D01*
X119610166Y-41044857D01*
X119610166Y-41187714D01*
X119657785Y-41282952D01*
X119705404Y-41330571D01*
X119800642Y-41378190D01*
X120181595Y-41378190D01*
X119276833Y-40854380D02*
X118610166Y-40854380D01*
X119038738Y-41854380D01*
X116879666Y-45283380D02*
X117213000Y-44807190D01*
X117451095Y-45283380D02*
X117451095Y-44283380D01*
X117070142Y-44283380D01*
X116974904Y-44331000D01*
X116927285Y-44378619D01*
X116879666Y-44473857D01*
X116879666Y-44616714D01*
X116927285Y-44711952D01*
X116974904Y-44759571D01*
X117070142Y-44807190D01*
X117451095Y-44807190D01*
X116022523Y-44283380D02*
X116213000Y-44283380D01*
X116308238Y-44331000D01*
X116355857Y-44378619D01*
X116451095Y-44521476D01*
X116498714Y-44711952D01*
X116498714Y-45092904D01*
X116451095Y-45188142D01*
X116403476Y-45235761D01*
X116308238Y-45283380D01*
X116117761Y-45283380D01*
X116022523Y-45235761D01*
X115974904Y-45188142D01*
X115927285Y-45092904D01*
X115927285Y-44854809D01*
X115974904Y-44759571D01*
X116022523Y-44711952D01*
X116117761Y-44664333D01*
X116308238Y-44664333D01*
X116403476Y-44711952D01*
X116451095Y-44759571D01*
X116498714Y-44854809D01*
X116879666Y-47188380D02*
X117213000Y-46712190D01*
X117451095Y-47188380D02*
X117451095Y-46188380D01*
X117070142Y-46188380D01*
X116974904Y-46236000D01*
X116927285Y-46283619D01*
X116879666Y-46378857D01*
X116879666Y-46521714D01*
X116927285Y-46616952D01*
X116974904Y-46664571D01*
X117070142Y-46712190D01*
X117451095Y-46712190D01*
X115974904Y-46188380D02*
X116451095Y-46188380D01*
X116498714Y-46664571D01*
X116451095Y-46616952D01*
X116355857Y-46569333D01*
X116117761Y-46569333D01*
X116022523Y-46616952D01*
X115974904Y-46664571D01*
X115927285Y-46759809D01*
X115927285Y-46997904D01*
X115974904Y-47093142D01*
X116022523Y-47140761D01*
X116117761Y-47188380D01*
X116355857Y-47188380D01*
X116451095Y-47140761D01*
X116498714Y-47093142D01*
X85859857Y-65762142D02*
X85907476Y-65809761D01*
X86050333Y-65857380D01*
X86145571Y-65857380D01*
X86288428Y-65809761D01*
X86383666Y-65714523D01*
X86431285Y-65619285D01*
X86478904Y-65428809D01*
X86478904Y-65285952D01*
X86431285Y-65095476D01*
X86383666Y-65000238D01*
X86288428Y-64905000D01*
X86145571Y-64857380D01*
X86050333Y-64857380D01*
X85907476Y-64905000D01*
X85859857Y-64952619D01*
X84907476Y-65857380D02*
X85478904Y-65857380D01*
X85193190Y-65857380D02*
X85193190Y-64857380D01*
X85288428Y-65000238D01*
X85383666Y-65095476D01*
X85478904Y-65143095D01*
X84002714Y-64857380D02*
X84478904Y-64857380D01*
X84526523Y-65333571D01*
X84478904Y-65285952D01*
X84383666Y-65238333D01*
X84145571Y-65238333D01*
X84050333Y-65285952D01*
X84002714Y-65333571D01*
X83955095Y-65428809D01*
X83955095Y-65666904D01*
X84002714Y-65762142D01*
X84050333Y-65809761D01*
X84145571Y-65857380D01*
X84383666Y-65857380D01*
X84478904Y-65809761D01*
X84526523Y-65762142D01*
X82938857Y-32266142D02*
X82986476Y-32313761D01*
X83129333Y-32361380D01*
X83224571Y-32361380D01*
X83367428Y-32313761D01*
X83462666Y-32218523D01*
X83510285Y-32123285D01*
X83557904Y-31932809D01*
X83557904Y-31789952D01*
X83510285Y-31599476D01*
X83462666Y-31504238D01*
X83367428Y-31409000D01*
X83224571Y-31361380D01*
X83129333Y-31361380D01*
X82986476Y-31409000D01*
X82938857Y-31456619D01*
X81986476Y-32361380D02*
X82557904Y-32361380D01*
X82272190Y-32361380D02*
X82272190Y-31361380D01*
X82367428Y-31504238D01*
X82462666Y-31599476D01*
X82557904Y-31647095D01*
X81129333Y-31694714D02*
X81129333Y-32361380D01*
X81367428Y-31313761D02*
X81605523Y-32028047D01*
X80986476Y-32028047D01*
X82811857Y-44648642D02*
X82859476Y-44696261D01*
X83002333Y-44743880D01*
X83097571Y-44743880D01*
X83240428Y-44696261D01*
X83335666Y-44601023D01*
X83383285Y-44505785D01*
X83430904Y-44315309D01*
X83430904Y-44172452D01*
X83383285Y-43981976D01*
X83335666Y-43886738D01*
X83240428Y-43791500D01*
X83097571Y-43743880D01*
X83002333Y-43743880D01*
X82859476Y-43791500D01*
X82811857Y-43839119D01*
X81859476Y-44743880D02*
X82430904Y-44743880D01*
X82145190Y-44743880D02*
X82145190Y-43743880D01*
X82240428Y-43886738D01*
X82335666Y-43981976D01*
X82430904Y-44029595D01*
X81526142Y-43743880D02*
X80907095Y-43743880D01*
X81240428Y-44124833D01*
X81097571Y-44124833D01*
X81002333Y-44172452D01*
X80954714Y-44220071D01*
X80907095Y-44315309D01*
X80907095Y-44553404D01*
X80954714Y-44648642D01*
X81002333Y-44696261D01*
X81097571Y-44743880D01*
X81383285Y-44743880D01*
X81478523Y-44696261D01*
X81526142Y-44648642D01*
X82938857Y-56904142D02*
X82986476Y-56951761D01*
X83129333Y-56999380D01*
X83224571Y-56999380D01*
X83367428Y-56951761D01*
X83462666Y-56856523D01*
X83510285Y-56761285D01*
X83557904Y-56570809D01*
X83557904Y-56427952D01*
X83510285Y-56237476D01*
X83462666Y-56142238D01*
X83367428Y-56047000D01*
X83224571Y-55999380D01*
X83129333Y-55999380D01*
X82986476Y-56047000D01*
X82938857Y-56094619D01*
X81986476Y-56999380D02*
X82557904Y-56999380D01*
X82272190Y-56999380D02*
X82272190Y-55999380D01*
X82367428Y-56142238D01*
X82462666Y-56237476D01*
X82557904Y-56285095D01*
X81605523Y-56094619D02*
X81557904Y-56047000D01*
X81462666Y-55999380D01*
X81224571Y-55999380D01*
X81129333Y-56047000D01*
X81081714Y-56094619D01*
X81034095Y-56189857D01*
X81034095Y-56285095D01*
X81081714Y-56427952D01*
X81653142Y-56999380D01*
X81034095Y-56999380D01*
X93765666Y-64492142D02*
X93813285Y-64539761D01*
X93956142Y-64587380D01*
X94051380Y-64587380D01*
X94194238Y-64539761D01*
X94289476Y-64444523D01*
X94337095Y-64349285D01*
X94384714Y-64158809D01*
X94384714Y-64015952D01*
X94337095Y-63825476D01*
X94289476Y-63730238D01*
X94194238Y-63635000D01*
X94051380Y-63587380D01*
X93956142Y-63587380D01*
X93813285Y-63635000D01*
X93765666Y-63682619D01*
X92860904Y-63587380D02*
X93337095Y-63587380D01*
X93384714Y-64063571D01*
X93337095Y-64015952D01*
X93241857Y-63968333D01*
X93003761Y-63968333D01*
X92908523Y-64015952D01*
X92860904Y-64063571D01*
X92813285Y-64158809D01*
X92813285Y-64396904D01*
X92860904Y-64492142D01*
X92908523Y-64539761D01*
X93003761Y-64587380D01*
X93241857Y-64587380D01*
X93337095Y-64539761D01*
X93384714Y-64492142D01*
X100941142Y-62698333D02*
X100988761Y-62650714D01*
X101036380Y-62507857D01*
X101036380Y-62412619D01*
X100988761Y-62269761D01*
X100893523Y-62174523D01*
X100798285Y-62126904D01*
X100607809Y-62079285D01*
X100464952Y-62079285D01*
X100274476Y-62126904D01*
X100179238Y-62174523D01*
X100084000Y-62269761D01*
X100036380Y-62412619D01*
X100036380Y-62507857D01*
X100084000Y-62650714D01*
X100131619Y-62698333D01*
X100369714Y-63555476D02*
X101036380Y-63555476D01*
X99988761Y-63317380D02*
X100703047Y-63079285D01*
X100703047Y-63698333D01*
%LPC*%
D12*
X73970000Y-66360000D03*
X126040000Y-33340000D03*
X126040000Y-61280000D03*
X75240000Y-18100000D03*
G36*
G01*
X119868500Y-43036500D02*
X119868500Y-42561500D01*
G75*
G02*
X120106000Y-42324000I237500J0D01*
G01*
X120606000Y-42324000D01*
G75*
G02*
X120843500Y-42561500I0J-237500D01*
G01*
X120843500Y-43036500D01*
G75*
G02*
X120606000Y-43274000I-237500J0D01*
G01*
X120106000Y-43274000D01*
G75*
G02*
X119868500Y-43036500I0J237500D01*
G01*
G37*
G36*
G01*
X118043500Y-43036500D02*
X118043500Y-42561500D01*
G75*
G02*
X118281000Y-42324000I237500J0D01*
G01*
X118781000Y-42324000D01*
G75*
G02*
X119018500Y-42561500I0J-237500D01*
G01*
X119018500Y-43036500D01*
G75*
G02*
X118781000Y-43274000I-237500J0D01*
G01*
X118281000Y-43274000D01*
G75*
G02*
X118043500Y-43036500I0J237500D01*
G01*
G37*
G36*
G01*
X119868500Y-45005000D02*
X119868500Y-44530000D01*
G75*
G02*
X120106000Y-44292500I237500J0D01*
G01*
X120606000Y-44292500D01*
G75*
G02*
X120843500Y-44530000I0J-237500D01*
G01*
X120843500Y-45005000D01*
G75*
G02*
X120606000Y-45242500I-237500J0D01*
G01*
X120106000Y-45242500D01*
G75*
G02*
X119868500Y-45005000I0J237500D01*
G01*
G37*
G36*
G01*
X118043500Y-45005000D02*
X118043500Y-44530000D01*
G75*
G02*
X118281000Y-44292500I237500J0D01*
G01*
X118781000Y-44292500D01*
G75*
G02*
X119018500Y-44530000I0J-237500D01*
G01*
X119018500Y-45005000D01*
G75*
G02*
X118781000Y-45242500I-237500J0D01*
G01*
X118281000Y-45242500D01*
G75*
G02*
X118043500Y-45005000I0J237500D01*
G01*
G37*
G36*
G01*
X119845000Y-47037000D02*
X119845000Y-46562000D01*
G75*
G02*
X120082500Y-46324500I237500J0D01*
G01*
X120582500Y-46324500D01*
G75*
G02*
X120820000Y-46562000I0J-237500D01*
G01*
X120820000Y-47037000D01*
G75*
G02*
X120582500Y-47274500I-237500J0D01*
G01*
X120082500Y-47274500D01*
G75*
G02*
X119845000Y-47037000I0J237500D01*
G01*
G37*
G36*
G01*
X118020000Y-47037000D02*
X118020000Y-46562000D01*
G75*
G02*
X118257500Y-46324500I237500J0D01*
G01*
X118757500Y-46324500D01*
G75*
G02*
X118995000Y-46562000I0J-237500D01*
G01*
X118995000Y-47037000D01*
G75*
G02*
X118757500Y-47274500I-237500J0D01*
G01*
X118257500Y-47274500D01*
G75*
G02*
X118020000Y-47037000I0J237500D01*
G01*
G37*
D13*
X123634500Y-40768000D03*
X123634500Y-42768000D03*
X123634500Y-44768000D03*
X123634500Y-46768000D03*
G36*
G01*
X124259501Y-49368000D02*
X123009499Y-49368000D01*
G75*
G02*
X122759500Y-49118001I0J249999D01*
G01*
X122759500Y-48417999D01*
G75*
G02*
X123009499Y-48168000I249999J0D01*
G01*
X124259501Y-48168000D01*
G75*
G02*
X124509500Y-48417999I0J-249999D01*
G01*
X124509500Y-49118001D01*
G75*
G02*
X124259501Y-49368000I-249999J0D01*
G01*
G37*
D14*
X123507500Y-66357500D03*
X120967500Y-66357500D03*
X118427500Y-66357500D03*
X115887500Y-66357500D03*
X113347500Y-66357500D03*
D15*
X110807500Y-66357500D03*
D14*
X123500000Y-18100000D03*
X120960000Y-18100000D03*
X118420000Y-18100000D03*
X115880000Y-18100000D03*
X113340000Y-18100000D03*
X110800000Y-18100000D03*
X108260000Y-18100000D03*
D15*
X105720000Y-18100000D03*
D14*
X101656000Y-18100000D03*
X99116000Y-18100000D03*
X96576000Y-18100000D03*
X94036000Y-18100000D03*
X91496000Y-18100000D03*
X88956000Y-18100000D03*
X86416000Y-18100000D03*
X83876000Y-18100000D03*
X81336000Y-18100000D03*
D15*
X78796000Y-18100000D03*
D14*
X105727500Y-66357500D03*
X103187500Y-66357500D03*
X100647500Y-66357500D03*
X98107500Y-66357500D03*
X95567500Y-66357500D03*
X93027500Y-66357500D03*
X90487500Y-66357500D03*
D15*
X87947500Y-66357500D03*
D16*
X95195500Y-60808500D03*
X90995500Y-60808500D03*
X95195500Y-55308500D03*
G36*
G01*
X89645500Y-56708499D02*
X89645500Y-53908501D01*
G75*
G02*
X89895501Y-53658500I250001J0D01*
G01*
X92095499Y-53658500D01*
G75*
G02*
X92345500Y-53908501I0J-250001D01*
G01*
X92345500Y-56708499D01*
G75*
G02*
X92095499Y-56958500I-250001J0D01*
G01*
X89895501Y-56958500D01*
G75*
G02*
X89645500Y-56708499I0J250001D01*
G01*
G37*
G36*
G01*
X81692000Y-65104000D02*
X81692000Y-65579000D01*
G75*
G02*
X81454500Y-65816500I-237500J0D01*
G01*
X80879500Y-65816500D01*
G75*
G02*
X80642000Y-65579000I0J237500D01*
G01*
X80642000Y-65104000D01*
G75*
G02*
X80879500Y-64866500I237500J0D01*
G01*
X81454500Y-64866500D01*
G75*
G02*
X81692000Y-65104000I0J-237500D01*
G01*
G37*
G36*
G01*
X83442000Y-65104000D02*
X83442000Y-65579000D01*
G75*
G02*
X83204500Y-65816500I-237500J0D01*
G01*
X82629500Y-65816500D01*
G75*
G02*
X82392000Y-65579000I0J237500D01*
G01*
X82392000Y-65104000D01*
G75*
G02*
X82629500Y-64866500I237500J0D01*
G01*
X83204500Y-64866500D01*
G75*
G02*
X83442000Y-65104000I0J-237500D01*
G01*
G37*
G36*
G01*
X83246000Y-28109000D02*
X83246000Y-27009000D01*
G75*
G02*
X83496000Y-26759000I250000J0D01*
G01*
X86496000Y-26759000D01*
G75*
G02*
X86746000Y-27009000I0J-250000D01*
G01*
X86746000Y-28109000D01*
G75*
G02*
X86496000Y-28359000I-250000J0D01*
G01*
X83496000Y-28359000D01*
G75*
G02*
X83246000Y-28109000I0J250000D01*
G01*
G37*
G36*
G01*
X77846000Y-28109000D02*
X77846000Y-27009000D01*
G75*
G02*
X78096000Y-26759000I250000J0D01*
G01*
X81096000Y-26759000D01*
G75*
G02*
X81346000Y-27009000I0J-250000D01*
G01*
X81346000Y-28109000D01*
G75*
G02*
X81096000Y-28359000I-250000J0D01*
G01*
X78096000Y-28359000D01*
G75*
G02*
X77846000Y-28109000I0J250000D01*
G01*
G37*
G36*
G01*
X83119000Y-40491500D02*
X83119000Y-39391500D01*
G75*
G02*
X83369000Y-39141500I250000J0D01*
G01*
X86369000Y-39141500D01*
G75*
G02*
X86619000Y-39391500I0J-250000D01*
G01*
X86619000Y-40491500D01*
G75*
G02*
X86369000Y-40741500I-250000J0D01*
G01*
X83369000Y-40741500D01*
G75*
G02*
X83119000Y-40491500I0J250000D01*
G01*
G37*
G36*
G01*
X77719000Y-40491500D02*
X77719000Y-39391500D01*
G75*
G02*
X77969000Y-39141500I250000J0D01*
G01*
X80969000Y-39141500D01*
G75*
G02*
X81219000Y-39391500I0J-250000D01*
G01*
X81219000Y-40491500D01*
G75*
G02*
X80969000Y-40741500I-250000J0D01*
G01*
X77969000Y-40741500D01*
G75*
G02*
X77719000Y-40491500I0J250000D01*
G01*
G37*
G36*
G01*
X83246000Y-52747000D02*
X83246000Y-51647000D01*
G75*
G02*
X83496000Y-51397000I250000J0D01*
G01*
X86496000Y-51397000D01*
G75*
G02*
X86746000Y-51647000I0J-250000D01*
G01*
X86746000Y-52747000D01*
G75*
G02*
X86496000Y-52997000I-250000J0D01*
G01*
X83496000Y-52997000D01*
G75*
G02*
X83246000Y-52747000I0J250000D01*
G01*
G37*
G36*
G01*
X77846000Y-52747000D02*
X77846000Y-51647000D01*
G75*
G02*
X78096000Y-51397000I250000J0D01*
G01*
X81096000Y-51397000D01*
G75*
G02*
X81346000Y-51647000I0J-250000D01*
G01*
X81346000Y-52747000D01*
G75*
G02*
X81096000Y-52997000I-250000J0D01*
G01*
X78096000Y-52997000D01*
G75*
G02*
X77846000Y-52747000I0J250000D01*
G01*
G37*
G36*
G01*
X96057000Y-63897500D02*
X96057000Y-64372500D01*
G75*
G02*
X95819500Y-64610000I-237500J0D01*
G01*
X95244500Y-64610000D01*
G75*
G02*
X95007000Y-64372500I0J237500D01*
G01*
X95007000Y-63897500D01*
G75*
G02*
X95244500Y-63660000I237500J0D01*
G01*
X95819500Y-63660000D01*
G75*
G02*
X96057000Y-63897500I0J-237500D01*
G01*
G37*
G36*
G01*
X97807000Y-63897500D02*
X97807000Y-64372500D01*
G75*
G02*
X97569500Y-64610000I-237500J0D01*
G01*
X96994500Y-64610000D01*
G75*
G02*
X96757000Y-64372500I0J237500D01*
G01*
X96757000Y-63897500D01*
G75*
G02*
X96994500Y-63660000I237500J0D01*
G01*
X97569500Y-63660000D01*
G75*
G02*
X97807000Y-63897500I0J-237500D01*
G01*
G37*
G36*
G01*
X98759000Y-63455000D02*
X99234000Y-63455000D01*
G75*
G02*
X99471500Y-63692500I0J-237500D01*
G01*
X99471500Y-64267500D01*
G75*
G02*
X99234000Y-64505000I-237500J0D01*
G01*
X98759000Y-64505000D01*
G75*
G02*
X98521500Y-64267500I0J237500D01*
G01*
X98521500Y-63692500D01*
G75*
G02*
X98759000Y-63455000I237500J0D01*
G01*
G37*
G36*
G01*
X98759000Y-61705000D02*
X99234000Y-61705000D01*
G75*
G02*
X99471500Y-61942500I0J-237500D01*
G01*
X99471500Y-62517500D01*
G75*
G02*
X99234000Y-62755000I-237500J0D01*
G01*
X98759000Y-62755000D01*
G75*
G02*
X98521500Y-62517500I0J237500D01*
G01*
X98521500Y-61942500D01*
G75*
G02*
X98759000Y-61705000I237500J0D01*
G01*
G37*
M02*
