M48
; DRILL file {KiCad (6.0.0)} date Sat Jul 16 19:13:54 2022
; FORMAT={-:-/ absolute / metric / decimal}
; #@! TF.CreationDate,2022-07-16T19:13:54+12:00
; #@! TF.GenerationSoftware,Kicad,Pcbnew,(6.0.0)
; #@! TF.FileFunction,Plated,1,4,PTH
FMAT,2
METRIC
; #@! TA.AperFunction,Plated,PTH,ViaDrill
T1C0.305
; #@! TA.AperFunction,Plated,PTH,ComponentDrill
T2C0.305
; #@! TA.AperFunction,Plated,PTH,ComponentDrill
T3C0.350
; #@! TA.AperFunction,Plated,PTH,ComponentDrill
T4C0.750
; #@! TA.AperFunction,Plated,PTH,ComponentDrill
T5C1.000
%
G90
G05
T1
X67.5Y-49.0
X67.5Y-57.8
X68.8Y-43.7
X69.0Y-49.0
X69.0Y-57.8
X70.5Y-49.0
X70.5Y-57.8
X71.8Y-52.9
X71.8Y-54.6
X72.2Y-40.0
X73.5Y-54.1
X74.4Y-32.7
X74.4Y-39.4
X75.4Y-32.7
X75.5Y-36.5
X75.5Y-39.5
X76.0Y-24.4
X77.5Y-25.0
X77.7Y-42.4
X79.0Y-25.533
X79.6Y-32.4
X80.284Y-32.787
X80.3Y-36.7
X80.3Y-38.3
X80.3Y-39.9
X80.5Y-25.9
X80.866Y-33.278
X81.7Y-43.7
X82.0Y-26.1
X82.0Y-52.0
X83.5Y-26.2
X85.463Y-38.9
X85.463Y-39.748
X85.9Y-44.1
X86.6Y-48.5
X86.6Y-50.0
X86.6Y-51.5
X86.7Y-42.7
X86.9Y-38.7
X86.9Y-44.5
X87.5Y-30.1
X87.9Y-45.3
X89.0Y-34.5
X89.75Y-34.5
X90.8Y-48.5
X90.8Y-50.0
X90.8Y-51.5
X90.877Y-27.7
X91.638Y-27.7
X92.0Y-37.25
X92.4Y-27.7
X92.5Y-44.3
X93.177Y-27.7
X93.5Y-34.25
X93.75Y-46.25
X93.938Y-27.7
X94.25Y-35.0
X94.5Y-56.0
X94.5Y-57.05
X94.5Y-58.0
X94.5Y-61.5
X94.5Y-62.5
X94.5Y-63.5
X94.7Y-27.7
X95.1Y-46.7
X97.498Y-44.748
X97.6Y-32.6
X97.75Y-38.5
X98.283Y-41.237
X98.75Y-43.0
X98.75Y-45.25
X100.5Y-27.0
X111.5Y-32.5
X111.5Y-42.75
X111.5Y-52.75
X111.7Y-55.2
X112.4Y-61.3
X112.5Y-32.5
X112.5Y-42.75
X112.5Y-52.75
X112.9Y-62.8
X113.5Y-32.5
X113.5Y-42.75
X113.5Y-52.75
X114.0Y-56.4
X114.5Y-32.5
X114.5Y-42.75
X114.5Y-52.75
X115.1Y-55.2
X116.75Y-47.75
X116.75Y-48.5
X116.75Y-49.25
X116.9Y-52.3
X117.25Y-26.25
X117.25Y-27.0
X117.25Y-27.75
X117.25Y-35.25
X117.25Y-36.0
X117.25Y-36.75
X117.5Y-47.75
X117.5Y-48.5
X117.5Y-49.25
X118.0Y-26.25
X118.0Y-27.0
X118.0Y-27.75
X118.0Y-35.25
X118.0Y-36.0
X118.0Y-36.75
X118.3Y-50.8
X118.8Y-49.6
X118.9Y-42.3
X118.9Y-44.6
X118.9Y-47.3
X119.2Y-30.7
X119.4Y-40.2
X119.4Y-41.1
X119.962Y-30.7
X120.2Y-20.3
X121.0Y-21.1
X121.1Y-52.4
X121.2Y-20.0
X121.9Y-40.0
X121.9Y-41.6
X121.9Y-43.6
X121.9Y-45.4
X121.9Y-46.8
X121.9Y-49.5
X121.9Y-51.0
X121.9Y-54.0
X121.9Y-55.8
X123.1Y-53.7
T2
X89.025Y-40.025
X89.025Y-41.0
X89.025Y-41.975
X90.0Y-40.025
X90.0Y-41.0
X90.0Y-41.975
X90.975Y-40.025
X90.975Y-41.0
X90.975Y-41.975
T3
X105.7Y-27.3
X105.7Y-28.5
X105.7Y-29.7
X105.7Y-30.8
X105.7Y-37.3
X105.7Y-38.5
X105.7Y-39.7
X105.7Y-40.8
X105.7Y-47.3
X105.7Y-48.5
X105.7Y-49.7
X105.7Y-50.8
X106.9Y-27.3
X106.9Y-28.5
X106.9Y-29.7
X106.9Y-30.8
X106.9Y-37.3
X106.9Y-38.5
X106.9Y-39.7
X106.9Y-40.8
X106.9Y-47.3
X106.9Y-48.5
X106.9Y-49.7
X106.9Y-50.8
X108.1Y-27.3
X108.1Y-28.5
X108.1Y-29.7
X108.1Y-30.8
X108.1Y-37.3
X108.1Y-38.5
X108.1Y-39.7
X108.1Y-40.8
X108.1Y-47.3
X108.1Y-48.5
X108.1Y-49.7
X108.1Y-50.8
X109.3Y-27.3
X109.3Y-28.5
X109.3Y-29.7
X109.3Y-30.8
X109.3Y-37.3
X109.3Y-38.5
X109.3Y-39.7
X109.3Y-40.8
X109.3Y-47.3
X109.3Y-48.5
X109.3Y-49.7
X109.3Y-50.8
T4
X63.6Y-40.2
X63.6Y-42.2
X63.6Y-44.2
X63.6Y-46.2
X63.6Y-48.2
X88.0Y-59.5
X88.0Y-61.5
X125.55Y-44.0
X125.55Y-46.0
X125.55Y-48.0
T5
X78.796Y-18.1
X81.336Y-18.1
X83.876Y-18.1
X86.416Y-18.1
X87.947Y-66.358
X88.956Y-18.1
X90.487Y-66.358
X91.496Y-18.1
X93.027Y-66.358
X94.036Y-18.1
X95.567Y-66.358
X96.576Y-18.1
X98.108Y-66.358
X99.116Y-18.1
X100.647Y-66.358
X101.656Y-18.1
X103.188Y-66.358
X105.72Y-18.1
X105.727Y-66.358
X108.26Y-18.1
X110.8Y-18.1
X110.807Y-66.358
X113.34Y-18.1
X113.347Y-66.358
X115.88Y-18.1
X115.887Y-66.358
X118.42Y-18.1
X118.427Y-66.358
X120.96Y-18.1
X120.968Y-66.358
X123.5Y-18.1
X123.507Y-66.358
T0
M30
