%FSLAX45Y45*%
G04 Gerber Fmt 4.5, Leading zero omitted, Abs format (unit mm)*
G04 Created by KiCad (PCBNEW (6.0.0)) date 2022-07-16 19:13:55*
%MOMM*%
%LPD*%
G01*
G04 APERTURE LIST*
%TA.AperFunction,Profile*%
%ADD10C,0.150000*%
%TD*%
%ADD11C,0.200000*%
%ADD12C,0.030480*%
%ADD13C,0.035000*%
%ADD14C,0.075000*%
%ADD15C,0.100000*%
G04 APERTURE END LIST*
D10*
X12604000Y-6636000D02*
X12858000Y-6382000D01*
X12858000Y-6382000D02*
X12858000Y-3105400D01*
X6000000Y-6890000D02*
X12604000Y-6890000D01*
X12604000Y-6890000D02*
X12604000Y-6636000D01*
X6000000Y-1556000D02*
X6000000Y-6890000D01*
X12451600Y-1556000D02*
X6000000Y-1556000D01*
X12858000Y-3105400D02*
X12604000Y-2851400D01*
X12604000Y-1708400D02*
X12451600Y-1556000D01*
X12604000Y-2851400D02*
X12604000Y-1708400D01*
D11*
D12*
X6734760Y-4884760D02*
X6765240Y-4915240D01*
X6765240Y-4884760D02*
X6734760Y-4915240D01*
X6734760Y-5764760D02*
X6765240Y-5795240D01*
X6765240Y-5764760D02*
X6734760Y-5795240D01*
X6864760Y-4354760D02*
X6895240Y-4385240D01*
X6895240Y-4354760D02*
X6864760Y-4385240D01*
X6884760Y-4884760D02*
X6915240Y-4915240D01*
X6915240Y-4884760D02*
X6884760Y-4915240D01*
X6884760Y-5764760D02*
X6915240Y-5795240D01*
X6915240Y-5764760D02*
X6884760Y-5795240D01*
X7034760Y-4884760D02*
X7065240Y-4915240D01*
X7065240Y-4884760D02*
X7034760Y-4915240D01*
X7034760Y-5764760D02*
X7065240Y-5795240D01*
X7065240Y-5764760D02*
X7034760Y-5795240D01*
X7164760Y-5274760D02*
X7195240Y-5305240D01*
X7195240Y-5274760D02*
X7164760Y-5305240D01*
X7164760Y-5444760D02*
X7195240Y-5475240D01*
X7195240Y-5444760D02*
X7164760Y-5475240D01*
X7204760Y-3984760D02*
X7235240Y-4015240D01*
X7235240Y-3984760D02*
X7204760Y-4015240D01*
X7334760Y-5394760D02*
X7365240Y-5425240D01*
X7365240Y-5394760D02*
X7334760Y-5425240D01*
X7424760Y-3254760D02*
X7455240Y-3285240D01*
X7455240Y-3254760D02*
X7424760Y-3285240D01*
X7424760Y-3924760D02*
X7455240Y-3955240D01*
X7455240Y-3924760D02*
X7424760Y-3955240D01*
X7524760Y-3254760D02*
X7555240Y-3285240D01*
X7555240Y-3254760D02*
X7524760Y-3285240D01*
X7534760Y-3634760D02*
X7565240Y-3665240D01*
X7565240Y-3634760D02*
X7534760Y-3665240D01*
X7534760Y-3934760D02*
X7565240Y-3965240D01*
X7565240Y-3934760D02*
X7534760Y-3965240D01*
X7584760Y-2424760D02*
X7615240Y-2455240D01*
X7615240Y-2424760D02*
X7584760Y-2455240D01*
X7734760Y-2484760D02*
X7765240Y-2515240D01*
X7765240Y-2484760D02*
X7734760Y-2515240D01*
X7754760Y-4224760D02*
X7785240Y-4255240D01*
X7785240Y-4224760D02*
X7754760Y-4255240D01*
X7884760Y-2538050D02*
X7915240Y-2568530D01*
X7915240Y-2538050D02*
X7884760Y-2568530D01*
X7944760Y-3224760D02*
X7975240Y-3255240D01*
X7975240Y-3224760D02*
X7944760Y-3255240D01*
X8013183Y-3263430D02*
X8043663Y-3293910D01*
X8043663Y-3263430D02*
X8013183Y-3293910D01*
X8014760Y-3654760D02*
X8045240Y-3685240D01*
X8045240Y-3654760D02*
X8014760Y-3685240D01*
X8014760Y-3814760D02*
X8045240Y-3845240D01*
X8045240Y-3814760D02*
X8014760Y-3845240D01*
X8014760Y-3974760D02*
X8045240Y-4005240D01*
X8045240Y-3974760D02*
X8014760Y-4005240D01*
X8034760Y-2574760D02*
X8065240Y-2605240D01*
X8065240Y-2574760D02*
X8034760Y-2605240D01*
X8071399Y-3312519D02*
X8101879Y-3342999D01*
X8101879Y-3312519D02*
X8071399Y-3342999D01*
X8154760Y-4354760D02*
X8185240Y-4385240D01*
X8185240Y-4354760D02*
X8154760Y-4385240D01*
X8184760Y-2594760D02*
X8215240Y-2625240D01*
X8215240Y-2594760D02*
X8184760Y-2625240D01*
X8184760Y-5184760D02*
X8215240Y-5215240D01*
X8215240Y-5184760D02*
X8184760Y-5215240D01*
X8334760Y-2604760D02*
X8365240Y-2635240D01*
X8365240Y-2604760D02*
X8334760Y-2635240D01*
X8531038Y-3874760D02*
X8561518Y-3905240D01*
X8561518Y-3874760D02*
X8531038Y-3905240D01*
X8531038Y-3959530D02*
X8561518Y-3990010D01*
X8561518Y-3959530D02*
X8531038Y-3990010D01*
X8574760Y-4394760D02*
X8605240Y-4425240D01*
X8605240Y-4394760D02*
X8574760Y-4425240D01*
X8644760Y-4834760D02*
X8675240Y-4865240D01*
X8675240Y-4834760D02*
X8644760Y-4865240D01*
X8644760Y-4984760D02*
X8675240Y-5015240D01*
X8675240Y-4984760D02*
X8644760Y-5015240D01*
X8644760Y-5134760D02*
X8675240Y-5165240D01*
X8675240Y-5134760D02*
X8644760Y-5165240D01*
X8654760Y-4254760D02*
X8685240Y-4285240D01*
X8685240Y-4254760D02*
X8654760Y-4285240D01*
X8674760Y-3854760D02*
X8705240Y-3885240D01*
X8705240Y-3854760D02*
X8674760Y-3885240D01*
X8674760Y-4434760D02*
X8705240Y-4465240D01*
X8705240Y-4434760D02*
X8674760Y-4465240D01*
X8734760Y-2994760D02*
X8765240Y-3025240D01*
X8765240Y-2994760D02*
X8734760Y-3025240D01*
X8774760Y-4514760D02*
X8805240Y-4545240D01*
X8805240Y-4514760D02*
X8774760Y-4545240D01*
X8884760Y-3434760D02*
X8915240Y-3465240D01*
X8915240Y-3434760D02*
X8884760Y-3465240D01*
X8959760Y-3434760D02*
X8990240Y-3465240D01*
X8990240Y-3434760D02*
X8959760Y-3465240D01*
X9064760Y-4834760D02*
X9095240Y-4865240D01*
X9095240Y-4834760D02*
X9064760Y-4865240D01*
X9064760Y-4984760D02*
X9095240Y-5015240D01*
X9095240Y-4984760D02*
X9064760Y-5015240D01*
X9064760Y-5134760D02*
X9095240Y-5165240D01*
X9095240Y-5134760D02*
X9064760Y-5165240D01*
X9072459Y-2754760D02*
X9102939Y-2785240D01*
X9102939Y-2754760D02*
X9072459Y-2785240D01*
X9148610Y-2754760D02*
X9179090Y-2785240D01*
X9179090Y-2754760D02*
X9148610Y-2785240D01*
X9184760Y-3709760D02*
X9215240Y-3740240D01*
X9215240Y-3709760D02*
X9184760Y-3740240D01*
X9224760Y-2754760D02*
X9255240Y-2785240D01*
X9255240Y-2754760D02*
X9224760Y-2785240D01*
X9234760Y-4414760D02*
X9265240Y-4445240D01*
X9265240Y-4414760D02*
X9234760Y-4445240D01*
X9302459Y-2754760D02*
X9332939Y-2785240D01*
X9332939Y-2754760D02*
X9302459Y-2785240D01*
X9334760Y-3409760D02*
X9365240Y-3440240D01*
X9365240Y-3409760D02*
X9334760Y-3440240D01*
X9359760Y-4609760D02*
X9390240Y-4640240D01*
X9390240Y-4609760D02*
X9359760Y-4640240D01*
X9378610Y-2754760D02*
X9409090Y-2785240D01*
X9409090Y-2754760D02*
X9378610Y-2785240D01*
X9409760Y-3484760D02*
X9440240Y-3515240D01*
X9440240Y-3484760D02*
X9409760Y-3515240D01*
X9434760Y-5584760D02*
X9465240Y-5615240D01*
X9465240Y-5584760D02*
X9434760Y-5615240D01*
X9434760Y-5689760D02*
X9465240Y-5720240D01*
X9465240Y-5689760D02*
X9434760Y-5720240D01*
X9434760Y-5784760D02*
X9465240Y-5815240D01*
X9465240Y-5784760D02*
X9434760Y-5815240D01*
X9434760Y-6134760D02*
X9465240Y-6165240D01*
X9465240Y-6134760D02*
X9434760Y-6165240D01*
X9434760Y-6234760D02*
X9465240Y-6265240D01*
X9465240Y-6234760D02*
X9434760Y-6265240D01*
X9434760Y-6334760D02*
X9465240Y-6365240D01*
X9465240Y-6334760D02*
X9434760Y-6365240D01*
X9454760Y-2754760D02*
X9485240Y-2785240D01*
X9485240Y-2754760D02*
X9454760Y-2785240D01*
X9494760Y-4654760D02*
X9525240Y-4685240D01*
X9525240Y-4654760D02*
X9494760Y-4685240D01*
X9734578Y-4459578D02*
X9765058Y-4490058D01*
X9765058Y-4459578D02*
X9734578Y-4490058D01*
X9744760Y-3244760D02*
X9775240Y-3275240D01*
X9775240Y-3244760D02*
X9744760Y-3275240D01*
X9759760Y-3834760D02*
X9790240Y-3865240D01*
X9790240Y-3834760D02*
X9759760Y-3865240D01*
X9813050Y-4108436D02*
X9843530Y-4138916D01*
X9843530Y-4108436D02*
X9813050Y-4138916D01*
X9859760Y-4284760D02*
X9890240Y-4315240D01*
X9890240Y-4284760D02*
X9859760Y-4315240D01*
X9859760Y-4509760D02*
X9890240Y-4540240D01*
X9890240Y-4509760D02*
X9859760Y-4540240D01*
X10034760Y-2684760D02*
X10065240Y-2715240D01*
X10065240Y-2684760D02*
X10034760Y-2715240D01*
X11134760Y-3234760D02*
X11165240Y-3265240D01*
X11165240Y-3234760D02*
X11134760Y-3265240D01*
X11134760Y-4259760D02*
X11165240Y-4290240D01*
X11165240Y-4259760D02*
X11134760Y-4290240D01*
X11134760Y-5259760D02*
X11165240Y-5290240D01*
X11165240Y-5259760D02*
X11134760Y-5290240D01*
X11154760Y-5504760D02*
X11185240Y-5535240D01*
X11185240Y-5504760D02*
X11154760Y-5535240D01*
X11224760Y-6114760D02*
X11255240Y-6145240D01*
X11255240Y-6114760D02*
X11224760Y-6145240D01*
X11234760Y-3234760D02*
X11265240Y-3265240D01*
X11265240Y-3234760D02*
X11234760Y-3265240D01*
X11234760Y-4259760D02*
X11265240Y-4290240D01*
X11265240Y-4259760D02*
X11234760Y-4290240D01*
X11234760Y-5259760D02*
X11265240Y-5290240D01*
X11265240Y-5259760D02*
X11234760Y-5290240D01*
X11274760Y-6264760D02*
X11305240Y-6295240D01*
X11305240Y-6264760D02*
X11274760Y-6295240D01*
X11334760Y-3234760D02*
X11365240Y-3265240D01*
X11365240Y-3234760D02*
X11334760Y-3265240D01*
X11334760Y-4259760D02*
X11365240Y-4290240D01*
X11365240Y-4259760D02*
X11334760Y-4290240D01*
X11334760Y-5259760D02*
X11365240Y-5290240D01*
X11365240Y-5259760D02*
X11334760Y-5290240D01*
X11384760Y-5624760D02*
X11415240Y-5655240D01*
X11415240Y-5624760D02*
X11384760Y-5655240D01*
X11434760Y-3234760D02*
X11465240Y-3265240D01*
X11465240Y-3234760D02*
X11434760Y-3265240D01*
X11434760Y-4259760D02*
X11465240Y-4290240D01*
X11465240Y-4259760D02*
X11434760Y-4290240D01*
X11434760Y-5259760D02*
X11465240Y-5290240D01*
X11465240Y-5259760D02*
X11434760Y-5290240D01*
X11494760Y-5504760D02*
X11525240Y-5535240D01*
X11525240Y-5504760D02*
X11494760Y-5535240D01*
X11659760Y-4759760D02*
X11690240Y-4790240D01*
X11690240Y-4759760D02*
X11659760Y-4790240D01*
X11659760Y-4834760D02*
X11690240Y-4865240D01*
X11690240Y-4834760D02*
X11659760Y-4865240D01*
X11659760Y-4909760D02*
X11690240Y-4940240D01*
X11690240Y-4909760D02*
X11659760Y-4940240D01*
X11674760Y-5214760D02*
X11705240Y-5245240D01*
X11705240Y-5214760D02*
X11674760Y-5245240D01*
X11709760Y-2609760D02*
X11740240Y-2640240D01*
X11740240Y-2609760D02*
X11709760Y-2640240D01*
X11709760Y-2684760D02*
X11740240Y-2715240D01*
X11740240Y-2684760D02*
X11709760Y-2715240D01*
X11709760Y-2759760D02*
X11740240Y-2790240D01*
X11740240Y-2759760D02*
X11709760Y-2790240D01*
X11709760Y-3509760D02*
X11740240Y-3540240D01*
X11740240Y-3509760D02*
X11709760Y-3540240D01*
X11709760Y-3584760D02*
X11740240Y-3615240D01*
X11740240Y-3584760D02*
X11709760Y-3615240D01*
X11709760Y-3659760D02*
X11740240Y-3690240D01*
X11740240Y-3659760D02*
X11709760Y-3690240D01*
X11734760Y-4759760D02*
X11765240Y-4790240D01*
X11765240Y-4759760D02*
X11734760Y-4790240D01*
X11734760Y-4834760D02*
X11765240Y-4865240D01*
X11765240Y-4834760D02*
X11734760Y-4865240D01*
X11734760Y-4909760D02*
X11765240Y-4940240D01*
X11765240Y-4909760D02*
X11734760Y-4940240D01*
X11784760Y-2609760D02*
X11815240Y-2640240D01*
X11815240Y-2609760D02*
X11784760Y-2640240D01*
X11784760Y-2684760D02*
X11815240Y-2715240D01*
X11815240Y-2684760D02*
X11784760Y-2715240D01*
X11784760Y-2759760D02*
X11815240Y-2790240D01*
X11815240Y-2759760D02*
X11784760Y-2790240D01*
X11784760Y-3509760D02*
X11815240Y-3540240D01*
X11815240Y-3509760D02*
X11784760Y-3540240D01*
X11784760Y-3584760D02*
X11815240Y-3615240D01*
X11815240Y-3584760D02*
X11784760Y-3615240D01*
X11784760Y-3659760D02*
X11815240Y-3690240D01*
X11815240Y-3659760D02*
X11784760Y-3690240D01*
X11814760Y-5064760D02*
X11845240Y-5095240D01*
X11845240Y-5064760D02*
X11814760Y-5095240D01*
X11864760Y-4944760D02*
X11895240Y-4975240D01*
X11895240Y-4944760D02*
X11864760Y-4975240D01*
X11874760Y-4214760D02*
X11905240Y-4245240D01*
X11905240Y-4214760D02*
X11874760Y-4245240D01*
X11874760Y-4444760D02*
X11905240Y-4475240D01*
X11905240Y-4444760D02*
X11874760Y-4475240D01*
X11874760Y-4714760D02*
X11905240Y-4745240D01*
X11905240Y-4714760D02*
X11874760Y-4745240D01*
X11904760Y-3054760D02*
X11935240Y-3085240D01*
X11935240Y-3054760D02*
X11904760Y-3085240D01*
X11924760Y-4004760D02*
X11955240Y-4035240D01*
X11955240Y-4004760D02*
X11924760Y-4035240D01*
X11924760Y-4094760D02*
X11955240Y-4125240D01*
X11955240Y-4094760D02*
X11924760Y-4125240D01*
X11980910Y-3054760D02*
X12011390Y-3085240D01*
X12011390Y-3054760D02*
X11980910Y-3085240D01*
X12004760Y-2014760D02*
X12035240Y-2045240D01*
X12035240Y-2014760D02*
X12004760Y-2045240D01*
X12084760Y-2094760D02*
X12115240Y-2125240D01*
X12115240Y-2094760D02*
X12084760Y-2125240D01*
X12094760Y-5224760D02*
X12125240Y-5255240D01*
X12125240Y-5224760D02*
X12094760Y-5255240D01*
X12104760Y-1984760D02*
X12135240Y-2015240D01*
X12135240Y-1984760D02*
X12104760Y-2015240D01*
X12174760Y-3984760D02*
X12205240Y-4015240D01*
X12205240Y-3984760D02*
X12174760Y-4015240D01*
X12174760Y-4144760D02*
X12205240Y-4175240D01*
X12205240Y-4144760D02*
X12174760Y-4175240D01*
X12174760Y-4344760D02*
X12205240Y-4375240D01*
X12205240Y-4344760D02*
X12174760Y-4375240D01*
X12174760Y-4524760D02*
X12205240Y-4555240D01*
X12205240Y-4524760D02*
X12174760Y-4555240D01*
X12174760Y-4664760D02*
X12205240Y-4695240D01*
X12205240Y-4664760D02*
X12174760Y-4695240D01*
X12174760Y-4934760D02*
X12205240Y-4965240D01*
X12205240Y-4934760D02*
X12174760Y-4965240D01*
X12174760Y-5084760D02*
X12205240Y-5115240D01*
X12205240Y-5084760D02*
X12174760Y-5115240D01*
X12174760Y-5384760D02*
X12205240Y-5415240D01*
X12205240Y-5384760D02*
X12174760Y-5415240D01*
X12174760Y-5564760D02*
X12205240Y-5595240D01*
X12205240Y-5564760D02*
X12174760Y-5595240D01*
X12294760Y-5354760D02*
X12325240Y-5385240D01*
X12325240Y-5354760D02*
X12294760Y-5385240D01*
X8917740Y-4002500D02*
G75*
G03*
X8917740Y-4002500I-15240J0D01*
G01*
X8917740Y-4100000D02*
G75*
G03*
X8917740Y-4100000I-15240J0D01*
G01*
X8917740Y-4197500D02*
G75*
G03*
X8917740Y-4197500I-15240J0D01*
G01*
X9015240Y-4002500D02*
G75*
G03*
X9015240Y-4002500I-15240J0D01*
G01*
X9015240Y-4100000D02*
G75*
G03*
X9015240Y-4100000I-15240J0D01*
G01*
X9015240Y-4197500D02*
G75*
G03*
X9015240Y-4197500I-15240J0D01*
G01*
X9112740Y-4002500D02*
G75*
G03*
X9112740Y-4002500I-15240J0D01*
G01*
X9112740Y-4100000D02*
G75*
G03*
X9112740Y-4100000I-15240J0D01*
G01*
X9112740Y-4197500D02*
G75*
G03*
X9112740Y-4197500I-15240J0D01*
G01*
D13*
X10569999Y-2712499D02*
X10569999Y-2747499D01*
X10552499Y-2729999D02*
X10587499Y-2729999D01*
X10569999Y-2832499D02*
X10569999Y-2867499D01*
X10552499Y-2849999D02*
X10587499Y-2849999D01*
X10569999Y-2952499D02*
X10569999Y-2987499D01*
X10552499Y-2969999D02*
X10587499Y-2969999D01*
X10569999Y-3062499D02*
X10569999Y-3097499D01*
X10552499Y-3079999D02*
X10587499Y-3079999D01*
X10570000Y-3712500D02*
X10570000Y-3747500D01*
X10552500Y-3730000D02*
X10587500Y-3730000D01*
X10570000Y-3832500D02*
X10570000Y-3867500D01*
X10552500Y-3850000D02*
X10587500Y-3850000D01*
X10570000Y-3952500D02*
X10570000Y-3987500D01*
X10552500Y-3970000D02*
X10587500Y-3970000D01*
X10570000Y-4062500D02*
X10570000Y-4097500D01*
X10552500Y-4080000D02*
X10587500Y-4080000D01*
X10570000Y-4712500D02*
X10570000Y-4747500D01*
X10552500Y-4730000D02*
X10587500Y-4730000D01*
X10570000Y-4832500D02*
X10570000Y-4867500D01*
X10552500Y-4850000D02*
X10587500Y-4850000D01*
X10570000Y-4952500D02*
X10570000Y-4987500D01*
X10552500Y-4970000D02*
X10587500Y-4970000D01*
X10570000Y-5062500D02*
X10570000Y-5097500D01*
X10552500Y-5080000D02*
X10587500Y-5080000D01*
X10689999Y-2712499D02*
X10689999Y-2747499D01*
X10672499Y-2729999D02*
X10707499Y-2729999D01*
X10689999Y-2832499D02*
X10689999Y-2867499D01*
X10672499Y-2849999D02*
X10707499Y-2849999D01*
X10689999Y-2952499D02*
X10689999Y-2987499D01*
X10672499Y-2969999D02*
X10707499Y-2969999D01*
X10689999Y-3062499D02*
X10689999Y-3097499D01*
X10672499Y-3079999D02*
X10707499Y-3079999D01*
X10690000Y-3712500D02*
X10690000Y-3747500D01*
X10672500Y-3730000D02*
X10707500Y-3730000D01*
X10690000Y-3832500D02*
X10690000Y-3867500D01*
X10672500Y-3850000D02*
X10707500Y-3850000D01*
X10690000Y-3952500D02*
X10690000Y-3987500D01*
X10672500Y-3970000D02*
X10707500Y-3970000D01*
X10690000Y-4062500D02*
X10690000Y-4097500D01*
X10672500Y-4080000D02*
X10707500Y-4080000D01*
X10690000Y-4712500D02*
X10690000Y-4747500D01*
X10672500Y-4730000D02*
X10707500Y-4730000D01*
X10690000Y-4832500D02*
X10690000Y-4867500D01*
X10672500Y-4850000D02*
X10707500Y-4850000D01*
X10690000Y-4952500D02*
X10690000Y-4987500D01*
X10672500Y-4970000D02*
X10707500Y-4970000D01*
X10690000Y-5062500D02*
X10690000Y-5097500D01*
X10672500Y-5080000D02*
X10707500Y-5080000D01*
X10809999Y-2712499D02*
X10809999Y-2747499D01*
X10792499Y-2729999D02*
X10827499Y-2729999D01*
X10809999Y-2832499D02*
X10809999Y-2867499D01*
X10792499Y-2849999D02*
X10827499Y-2849999D01*
X10809999Y-2952499D02*
X10809999Y-2987499D01*
X10792499Y-2969999D02*
X10827499Y-2969999D01*
X10809999Y-3062499D02*
X10809999Y-3097499D01*
X10792499Y-3079999D02*
X10827499Y-3079999D01*
X10810000Y-3712500D02*
X10810000Y-3747500D01*
X10792500Y-3730000D02*
X10827500Y-3730000D01*
X10810000Y-3832500D02*
X10810000Y-3867500D01*
X10792500Y-3850000D02*
X10827500Y-3850000D01*
X10810000Y-3952500D02*
X10810000Y-3987500D01*
X10792500Y-3970000D02*
X10827500Y-3970000D01*
X10810000Y-4062500D02*
X10810000Y-4097500D01*
X10792500Y-4080000D02*
X10827500Y-4080000D01*
X10810000Y-4712500D02*
X10810000Y-4747500D01*
X10792500Y-4730000D02*
X10827500Y-4730000D01*
X10810000Y-4832500D02*
X10810000Y-4867500D01*
X10792500Y-4850000D02*
X10827500Y-4850000D01*
X10810000Y-4952500D02*
X10810000Y-4987500D01*
X10792500Y-4970000D02*
X10827500Y-4970000D01*
X10810000Y-5062500D02*
X10810000Y-5097500D01*
X10792500Y-5080000D02*
X10827500Y-5080000D01*
X10929999Y-2712499D02*
X10929999Y-2747499D01*
X10912499Y-2729999D02*
X10947499Y-2729999D01*
X10929999Y-2832499D02*
X10929999Y-2867499D01*
X10912499Y-2849999D02*
X10947499Y-2849999D01*
X10929999Y-2952499D02*
X10929999Y-2987499D01*
X10912499Y-2969999D02*
X10947499Y-2969999D01*
X10929999Y-3062499D02*
X10929999Y-3097499D01*
X10912499Y-3079999D02*
X10947499Y-3079999D01*
X10930000Y-3712500D02*
X10930000Y-3747500D01*
X10912500Y-3730000D02*
X10947500Y-3730000D01*
X10930000Y-3832500D02*
X10930000Y-3867500D01*
X10912500Y-3850000D02*
X10947500Y-3850000D01*
X10930000Y-3952500D02*
X10930000Y-3987500D01*
X10912500Y-3970000D02*
X10947500Y-3970000D01*
X10930000Y-4062500D02*
X10930000Y-4097500D01*
X10912500Y-4080000D02*
X10947500Y-4080000D01*
X10930000Y-4712500D02*
X10930000Y-4747500D01*
X10912500Y-4730000D02*
X10947500Y-4730000D01*
X10930000Y-4832500D02*
X10930000Y-4867500D01*
X10912500Y-4850000D02*
X10947500Y-4850000D01*
X10930000Y-4952500D02*
X10930000Y-4987500D01*
X10912500Y-4970000D02*
X10947500Y-4970000D01*
X10930000Y-5062500D02*
X10930000Y-5097500D01*
X10912500Y-5080000D02*
X10947500Y-5080000D01*
D14*
X6386517Y-4046517D02*
X6386517Y-3993483D01*
X6333483Y-3993483D01*
X6333483Y-4046517D01*
X6386517Y-4046517D01*
X6386517Y-4246517D02*
X6386517Y-4193483D01*
X6333483Y-4193483D01*
X6333483Y-4246517D01*
X6386517Y-4246517D01*
X6386517Y-4446517D02*
X6386517Y-4393483D01*
X6333483Y-4393483D01*
X6333483Y-4446517D01*
X6386517Y-4446517D01*
X6386517Y-4646517D02*
X6386517Y-4593483D01*
X6333483Y-4593483D01*
X6333483Y-4646517D01*
X6386517Y-4646517D01*
X6386517Y-4846517D02*
X6386517Y-4793483D01*
X6333483Y-4793483D01*
X6333483Y-4846517D01*
X6386517Y-4846517D01*
X8826517Y-5976517D02*
X8826517Y-5923483D01*
X8773483Y-5923483D01*
X8773483Y-5976517D01*
X8826517Y-5976517D01*
X8826517Y-6176517D02*
X8826517Y-6123483D01*
X8773483Y-6123483D01*
X8773483Y-6176517D01*
X8826517Y-6176517D01*
X12581517Y-4426517D02*
X12581517Y-4373483D01*
X12528483Y-4373483D01*
X12528483Y-4426517D01*
X12581517Y-4426517D01*
X12581517Y-4626517D02*
X12581517Y-4573483D01*
X12528483Y-4573483D01*
X12528483Y-4626517D01*
X12581517Y-4626517D01*
X12581517Y-4826517D02*
X12581517Y-4773483D01*
X12528483Y-4773483D01*
X12528483Y-4826517D01*
X12581517Y-4826517D01*
D15*
X7879600Y-1860000D02*
X7929600Y-1810000D01*
X7879600Y-1760000D01*
X7829600Y-1810000D01*
X7879600Y-1860000D01*
X8133600Y-1860000D02*
X8183600Y-1810000D01*
X8133600Y-1760000D01*
X8083600Y-1810000D01*
X8133600Y-1860000D01*
X8387600Y-1860000D02*
X8437600Y-1810000D01*
X8387600Y-1760000D01*
X8337600Y-1810000D01*
X8387600Y-1860000D01*
X8641600Y-1860000D02*
X8691600Y-1810000D01*
X8641600Y-1760000D01*
X8591600Y-1810000D01*
X8641600Y-1860000D01*
X8794750Y-6685750D02*
X8844750Y-6635750D01*
X8794750Y-6585750D01*
X8744750Y-6635750D01*
X8794750Y-6685750D01*
X8895600Y-1860000D02*
X8945600Y-1810000D01*
X8895600Y-1760000D01*
X8845600Y-1810000D01*
X8895600Y-1860000D01*
X9048750Y-6685750D02*
X9098750Y-6635750D01*
X9048750Y-6585750D01*
X8998750Y-6635750D01*
X9048750Y-6685750D01*
X9149600Y-1860000D02*
X9199600Y-1810000D01*
X9149600Y-1760000D01*
X9099600Y-1810000D01*
X9149600Y-1860000D01*
X9302750Y-6685750D02*
X9352750Y-6635750D01*
X9302750Y-6585750D01*
X9252750Y-6635750D01*
X9302750Y-6685750D01*
X9403600Y-1860000D02*
X9453600Y-1810000D01*
X9403600Y-1760000D01*
X9353600Y-1810000D01*
X9403600Y-1860000D01*
X9556750Y-6685750D02*
X9606750Y-6635750D01*
X9556750Y-6585750D01*
X9506750Y-6635750D01*
X9556750Y-6685750D01*
X9657600Y-1860000D02*
X9707600Y-1810000D01*
X9657600Y-1760000D01*
X9607600Y-1810000D01*
X9657600Y-1860000D01*
X9810750Y-6685750D02*
X9860750Y-6635750D01*
X9810750Y-6585750D01*
X9760750Y-6635750D01*
X9810750Y-6685750D01*
X9911600Y-1860000D02*
X9961600Y-1810000D01*
X9911600Y-1760000D01*
X9861600Y-1810000D01*
X9911600Y-1860000D01*
X10064750Y-6685750D02*
X10114750Y-6635750D01*
X10064750Y-6585750D01*
X10014750Y-6635750D01*
X10064750Y-6685750D01*
X10165600Y-1860000D02*
X10215600Y-1810000D01*
X10165600Y-1760000D01*
X10115600Y-1810000D01*
X10165600Y-1860000D01*
X10318750Y-6685750D02*
X10368750Y-6635750D01*
X10318750Y-6585750D01*
X10268750Y-6635750D01*
X10318750Y-6685750D01*
X10572000Y-1860000D02*
X10622000Y-1810000D01*
X10572000Y-1760000D01*
X10522000Y-1810000D01*
X10572000Y-1860000D01*
X10572750Y-6685750D02*
X10622750Y-6635750D01*
X10572750Y-6585750D01*
X10522750Y-6635750D01*
X10572750Y-6685750D01*
X10826000Y-1860000D02*
X10876000Y-1810000D01*
X10826000Y-1760000D01*
X10776000Y-1810000D01*
X10826000Y-1860000D01*
X11080000Y-1860000D02*
X11130000Y-1810000D01*
X11080000Y-1760000D01*
X11030000Y-1810000D01*
X11080000Y-1860000D01*
X11080750Y-6685750D02*
X11130750Y-6635750D01*
X11080750Y-6585750D01*
X11030750Y-6635750D01*
X11080750Y-6685750D01*
X11334000Y-1860000D02*
X11384000Y-1810000D01*
X11334000Y-1760000D01*
X11284000Y-1810000D01*
X11334000Y-1860000D01*
X11334750Y-6685750D02*
X11384750Y-6635750D01*
X11334750Y-6585750D01*
X11284750Y-6635750D01*
X11334750Y-6685750D01*
X11588000Y-1860000D02*
X11638000Y-1810000D01*
X11588000Y-1760000D01*
X11538000Y-1810000D01*
X11588000Y-1860000D01*
X11588750Y-6685750D02*
X11638750Y-6635750D01*
X11588750Y-6585750D01*
X11538750Y-6635750D01*
X11588750Y-6685750D01*
X11842000Y-1860000D02*
X11892000Y-1810000D01*
X11842000Y-1760000D01*
X11792000Y-1810000D01*
X11842000Y-1860000D01*
X11842750Y-6685750D02*
X11892750Y-6635750D01*
X11842750Y-6585750D01*
X11792750Y-6635750D01*
X11842750Y-6685750D01*
X12096000Y-1860000D02*
X12146000Y-1810000D01*
X12096000Y-1760000D01*
X12046000Y-1810000D01*
X12096000Y-1860000D01*
X12096750Y-6685750D02*
X12146750Y-6635750D01*
X12096750Y-6585750D01*
X12046750Y-6635750D01*
X12096750Y-6685750D01*
X12350000Y-1860000D02*
X12400000Y-1810000D01*
X12350000Y-1760000D01*
X12300000Y-1810000D01*
X12350000Y-1860000D01*
X12350750Y-6685750D02*
X12400750Y-6635750D01*
X12350750Y-6585750D01*
X12300750Y-6635750D01*
X12350750Y-6685750D01*
D11*
X6250119Y-7207976D02*
X6250119Y-7007976D01*
X6297738Y-7007976D01*
X6326309Y-7017500D01*
X6345357Y-7036548D01*
X6354881Y-7055595D01*
X6364405Y-7093690D01*
X6364405Y-7122262D01*
X6354881Y-7160357D01*
X6345357Y-7179405D01*
X6326309Y-7198452D01*
X6297738Y-7207976D01*
X6250119Y-7207976D01*
X6450119Y-7207976D02*
X6450119Y-7074643D01*
X6450119Y-7112738D02*
X6459643Y-7093690D01*
X6469167Y-7084167D01*
X6488214Y-7074643D01*
X6507262Y-7074643D01*
X6573928Y-7207976D02*
X6573928Y-7074643D01*
X6573928Y-7007976D02*
X6564405Y-7017500D01*
X6573928Y-7027024D01*
X6583452Y-7017500D01*
X6573928Y-7007976D01*
X6573928Y-7027024D01*
X6697738Y-7207976D02*
X6678690Y-7198452D01*
X6669167Y-7179405D01*
X6669167Y-7007976D01*
X6802500Y-7207976D02*
X6783452Y-7198452D01*
X6773928Y-7179405D01*
X6773928Y-7007976D01*
X7031071Y-7207976D02*
X7031071Y-7007976D01*
X7097738Y-7150833D01*
X7164405Y-7007976D01*
X7164405Y-7207976D01*
X7345357Y-7207976D02*
X7345357Y-7103214D01*
X7335833Y-7084167D01*
X7316786Y-7074643D01*
X7278690Y-7074643D01*
X7259643Y-7084167D01*
X7345357Y-7198452D02*
X7326309Y-7207976D01*
X7278690Y-7207976D01*
X7259643Y-7198452D01*
X7250119Y-7179405D01*
X7250119Y-7160357D01*
X7259643Y-7141309D01*
X7278690Y-7131786D01*
X7326309Y-7131786D01*
X7345357Y-7122262D01*
X7440595Y-7074643D02*
X7440595Y-7274643D01*
X7440595Y-7084167D02*
X7459643Y-7074643D01*
X7497738Y-7074643D01*
X7516786Y-7084167D01*
X7526309Y-7093690D01*
X7535833Y-7112738D01*
X7535833Y-7169881D01*
X7526309Y-7188928D01*
X7516786Y-7198452D01*
X7497738Y-7207976D01*
X7459643Y-7207976D01*
X7440595Y-7198452D01*
X7621548Y-7188928D02*
X7631071Y-7198452D01*
X7621548Y-7207976D01*
X7612024Y-7198452D01*
X7621548Y-7188928D01*
X7621548Y-7207976D01*
X7621548Y-7084167D02*
X7631071Y-7093690D01*
X7621548Y-7103214D01*
X7612024Y-7093690D01*
X7621548Y-7084167D01*
X7621548Y-7103214D01*
D12*
X5962020Y-7522260D02*
X5992500Y-7552740D01*
X5992500Y-7522260D02*
X5962020Y-7552740D01*
D11*
X6288214Y-7427976D02*
X6307262Y-7427976D01*
X6326309Y-7437500D01*
X6335833Y-7447024D01*
X6345357Y-7466071D01*
X6354881Y-7504167D01*
X6354881Y-7551786D01*
X6345357Y-7589881D01*
X6335833Y-7608928D01*
X6326309Y-7618452D01*
X6307262Y-7627976D01*
X6288214Y-7627976D01*
X6269167Y-7618452D01*
X6259643Y-7608928D01*
X6250119Y-7589881D01*
X6240595Y-7551786D01*
X6240595Y-7504167D01*
X6250119Y-7466071D01*
X6259643Y-7447024D01*
X6269167Y-7437500D01*
X6288214Y-7427976D01*
X6440595Y-7608928D02*
X6450119Y-7618452D01*
X6440595Y-7627976D01*
X6431071Y-7618452D01*
X6440595Y-7608928D01*
X6440595Y-7627976D01*
X6516786Y-7427976D02*
X6640595Y-7427976D01*
X6573928Y-7504167D01*
X6602500Y-7504167D01*
X6621548Y-7513690D01*
X6631071Y-7523214D01*
X6640595Y-7542262D01*
X6640595Y-7589881D01*
X6631071Y-7608928D01*
X6621548Y-7618452D01*
X6602500Y-7627976D01*
X6545357Y-7627976D01*
X6526309Y-7618452D01*
X6516786Y-7608928D01*
X6764405Y-7427976D02*
X6783452Y-7427976D01*
X6802500Y-7437500D01*
X6812024Y-7447024D01*
X6821548Y-7466071D01*
X6831071Y-7504167D01*
X6831071Y-7551786D01*
X6821548Y-7589881D01*
X6812024Y-7608928D01*
X6802500Y-7618452D01*
X6783452Y-7627976D01*
X6764405Y-7627976D01*
X6745357Y-7618452D01*
X6735833Y-7608928D01*
X6726309Y-7589881D01*
X6716786Y-7551786D01*
X6716786Y-7504167D01*
X6726309Y-7466071D01*
X6735833Y-7447024D01*
X6745357Y-7437500D01*
X6764405Y-7427976D01*
X7012024Y-7427976D02*
X6916786Y-7427976D01*
X6907262Y-7523214D01*
X6916786Y-7513690D01*
X6935833Y-7504167D01*
X6983452Y-7504167D01*
X7002500Y-7513690D01*
X7012024Y-7523214D01*
X7021548Y-7542262D01*
X7021548Y-7589881D01*
X7012024Y-7608928D01*
X7002500Y-7618452D01*
X6983452Y-7627976D01*
X6935833Y-7627976D01*
X6916786Y-7618452D01*
X6907262Y-7608928D01*
X7107262Y-7627976D02*
X7107262Y-7494643D01*
X7107262Y-7513690D02*
X7116786Y-7504167D01*
X7135833Y-7494643D01*
X7164405Y-7494643D01*
X7183452Y-7504167D01*
X7192976Y-7523214D01*
X7192976Y-7627976D01*
X7192976Y-7523214D02*
X7202500Y-7504167D01*
X7221548Y-7494643D01*
X7250119Y-7494643D01*
X7269167Y-7504167D01*
X7278690Y-7523214D01*
X7278690Y-7627976D01*
X7373928Y-7627976D02*
X7373928Y-7494643D01*
X7373928Y-7513690D02*
X7383452Y-7504167D01*
X7402500Y-7494643D01*
X7431071Y-7494643D01*
X7450119Y-7504167D01*
X7459643Y-7523214D01*
X7459643Y-7627976D01*
X7459643Y-7523214D02*
X7469167Y-7504167D01*
X7488214Y-7494643D01*
X7516786Y-7494643D01*
X7535833Y-7504167D01*
X7545357Y-7523214D01*
X7545357Y-7627976D01*
X7935833Y-7418452D02*
X7764405Y-7675595D01*
X8192976Y-7427976D02*
X8212024Y-7427976D01*
X8231071Y-7437500D01*
X8240595Y-7447024D01*
X8250119Y-7466071D01*
X8259643Y-7504167D01*
X8259643Y-7551786D01*
X8250119Y-7589881D01*
X8240595Y-7608928D01*
X8231071Y-7618452D01*
X8212024Y-7627976D01*
X8192976Y-7627976D01*
X8173928Y-7618452D01*
X8164405Y-7608928D01*
X8154881Y-7589881D01*
X8145357Y-7551786D01*
X8145357Y-7504167D01*
X8154881Y-7466071D01*
X8164405Y-7447024D01*
X8173928Y-7437500D01*
X8192976Y-7427976D01*
X8345357Y-7608928D02*
X8354881Y-7618452D01*
X8345357Y-7627976D01*
X8335833Y-7618452D01*
X8345357Y-7608928D01*
X8345357Y-7627976D01*
X8478690Y-7427976D02*
X8497738Y-7427976D01*
X8516786Y-7437500D01*
X8526310Y-7447024D01*
X8535833Y-7466071D01*
X8545357Y-7504167D01*
X8545357Y-7551786D01*
X8535833Y-7589881D01*
X8526310Y-7608928D01*
X8516786Y-7618452D01*
X8497738Y-7627976D01*
X8478690Y-7627976D01*
X8459643Y-7618452D01*
X8450119Y-7608928D01*
X8440595Y-7589881D01*
X8431071Y-7551786D01*
X8431071Y-7504167D01*
X8440595Y-7466071D01*
X8450119Y-7447024D01*
X8459643Y-7437500D01*
X8478690Y-7427976D01*
X8735833Y-7627976D02*
X8621548Y-7627976D01*
X8678690Y-7627976D02*
X8678690Y-7427976D01*
X8659643Y-7456548D01*
X8640595Y-7475595D01*
X8621548Y-7485119D01*
X8812024Y-7447024D02*
X8821548Y-7437500D01*
X8840595Y-7427976D01*
X8888214Y-7427976D01*
X8907262Y-7437500D01*
X8916786Y-7447024D01*
X8926310Y-7466071D01*
X8926310Y-7485119D01*
X8916786Y-7513690D01*
X8802500Y-7627976D01*
X8926310Y-7627976D01*
X9050119Y-7427976D02*
X9069167Y-7427976D01*
X9088214Y-7437500D01*
X9097738Y-7447024D01*
X9107262Y-7466071D01*
X9116786Y-7504167D01*
X9116786Y-7551786D01*
X9107262Y-7589881D01*
X9097738Y-7608928D01*
X9088214Y-7618452D01*
X9069167Y-7627976D01*
X9050119Y-7627976D01*
X9031071Y-7618452D01*
X9021548Y-7608928D01*
X9012024Y-7589881D01*
X9002500Y-7551786D01*
X9002500Y-7504167D01*
X9012024Y-7466071D01*
X9021548Y-7447024D01*
X9031071Y-7437500D01*
X9050119Y-7427976D01*
X9192976Y-7427976D02*
X9192976Y-7466071D01*
X9269167Y-7427976D02*
X9269167Y-7466071D01*
X9564405Y-7704167D02*
X9554881Y-7694643D01*
X9535833Y-7666071D01*
X9526310Y-7647024D01*
X9516786Y-7618452D01*
X9507262Y-7570833D01*
X9507262Y-7532738D01*
X9516786Y-7485119D01*
X9526310Y-7456548D01*
X9535833Y-7437500D01*
X9554881Y-7408928D01*
X9564405Y-7399405D01*
X9745357Y-7627976D02*
X9631071Y-7627976D01*
X9688214Y-7627976D02*
X9688214Y-7427976D01*
X9669167Y-7456548D01*
X9650119Y-7475595D01*
X9631071Y-7485119D01*
X9812024Y-7427976D02*
X9935833Y-7427976D01*
X9869167Y-7504167D01*
X9897738Y-7504167D01*
X9916786Y-7513690D01*
X9926310Y-7523214D01*
X9935833Y-7542262D01*
X9935833Y-7589881D01*
X9926310Y-7608928D01*
X9916786Y-7618452D01*
X9897738Y-7627976D01*
X9840595Y-7627976D01*
X9821548Y-7618452D01*
X9812024Y-7608928D01*
X10126310Y-7627976D02*
X10012024Y-7627976D01*
X10069167Y-7627976D02*
X10069167Y-7427976D01*
X10050119Y-7456548D01*
X10031071Y-7475595D01*
X10012024Y-7485119D01*
X10364405Y-7627976D02*
X10364405Y-7427976D01*
X10450119Y-7627976D02*
X10450119Y-7523214D01*
X10440595Y-7504167D01*
X10421548Y-7494643D01*
X10392976Y-7494643D01*
X10373929Y-7504167D01*
X10364405Y-7513690D01*
X10573929Y-7627976D02*
X10554881Y-7618452D01*
X10545357Y-7608928D01*
X10535833Y-7589881D01*
X10535833Y-7532738D01*
X10545357Y-7513690D01*
X10554881Y-7504167D01*
X10573929Y-7494643D01*
X10602500Y-7494643D01*
X10621548Y-7504167D01*
X10631071Y-7513690D01*
X10640595Y-7532738D01*
X10640595Y-7589881D01*
X10631071Y-7608928D01*
X10621548Y-7618452D01*
X10602500Y-7627976D01*
X10573929Y-7627976D01*
X10754881Y-7627976D02*
X10735833Y-7618452D01*
X10726310Y-7599405D01*
X10726310Y-7427976D01*
X10907262Y-7618452D02*
X10888214Y-7627976D01*
X10850119Y-7627976D01*
X10831071Y-7618452D01*
X10821548Y-7599405D01*
X10821548Y-7523214D01*
X10831071Y-7504167D01*
X10850119Y-7494643D01*
X10888214Y-7494643D01*
X10907262Y-7504167D01*
X10916786Y-7523214D01*
X10916786Y-7542262D01*
X10821548Y-7561309D01*
X10992976Y-7618452D02*
X11012024Y-7627976D01*
X11050119Y-7627976D01*
X11069167Y-7618452D01*
X11078690Y-7599405D01*
X11078690Y-7589881D01*
X11069167Y-7570833D01*
X11050119Y-7561309D01*
X11021548Y-7561309D01*
X11002500Y-7551786D01*
X10992976Y-7532738D01*
X10992976Y-7523214D01*
X11002500Y-7504167D01*
X11021548Y-7494643D01*
X11050119Y-7494643D01*
X11069167Y-7504167D01*
X11145357Y-7704167D02*
X11154881Y-7694643D01*
X11173929Y-7666071D01*
X11183452Y-7647024D01*
X11192976Y-7618452D01*
X11202500Y-7570833D01*
X11202500Y-7532738D01*
X11192976Y-7485119D01*
X11183452Y-7456548D01*
X11173929Y-7437500D01*
X11154881Y-7408928D01*
X11145357Y-7399405D01*
D12*
X5992500Y-7801500D02*
G75*
G03*
X5992500Y-7801500I-15240J0D01*
G01*
D11*
X6288214Y-7691976D02*
X6307262Y-7691976D01*
X6326309Y-7701500D01*
X6335833Y-7711024D01*
X6345357Y-7730071D01*
X6354881Y-7768167D01*
X6354881Y-7815786D01*
X6345357Y-7853881D01*
X6335833Y-7872928D01*
X6326309Y-7882452D01*
X6307262Y-7891976D01*
X6288214Y-7891976D01*
X6269167Y-7882452D01*
X6259643Y-7872928D01*
X6250119Y-7853881D01*
X6240595Y-7815786D01*
X6240595Y-7768167D01*
X6250119Y-7730071D01*
X6259643Y-7711024D01*
X6269167Y-7701500D01*
X6288214Y-7691976D01*
X6440595Y-7872928D02*
X6450119Y-7882452D01*
X6440595Y-7891976D01*
X6431071Y-7882452D01*
X6440595Y-7872928D01*
X6440595Y-7891976D01*
X6516786Y-7691976D02*
X6640595Y-7691976D01*
X6573928Y-7768167D01*
X6602500Y-7768167D01*
X6621548Y-7777690D01*
X6631071Y-7787214D01*
X6640595Y-7806262D01*
X6640595Y-7853881D01*
X6631071Y-7872928D01*
X6621548Y-7882452D01*
X6602500Y-7891976D01*
X6545357Y-7891976D01*
X6526309Y-7882452D01*
X6516786Y-7872928D01*
X6764405Y-7691976D02*
X6783452Y-7691976D01*
X6802500Y-7701500D01*
X6812024Y-7711024D01*
X6821548Y-7730071D01*
X6831071Y-7768167D01*
X6831071Y-7815786D01*
X6821548Y-7853881D01*
X6812024Y-7872928D01*
X6802500Y-7882452D01*
X6783452Y-7891976D01*
X6764405Y-7891976D01*
X6745357Y-7882452D01*
X6735833Y-7872928D01*
X6726309Y-7853881D01*
X6716786Y-7815786D01*
X6716786Y-7768167D01*
X6726309Y-7730071D01*
X6735833Y-7711024D01*
X6745357Y-7701500D01*
X6764405Y-7691976D01*
X7012024Y-7691976D02*
X6916786Y-7691976D01*
X6907262Y-7787214D01*
X6916786Y-7777690D01*
X6935833Y-7768167D01*
X6983452Y-7768167D01*
X7002500Y-7777690D01*
X7012024Y-7787214D01*
X7021548Y-7806262D01*
X7021548Y-7853881D01*
X7012024Y-7872928D01*
X7002500Y-7882452D01*
X6983452Y-7891976D01*
X6935833Y-7891976D01*
X6916786Y-7882452D01*
X6907262Y-7872928D01*
X7107262Y-7891976D02*
X7107262Y-7758643D01*
X7107262Y-7777690D02*
X7116786Y-7768167D01*
X7135833Y-7758643D01*
X7164405Y-7758643D01*
X7183452Y-7768167D01*
X7192976Y-7787214D01*
X7192976Y-7891976D01*
X7192976Y-7787214D02*
X7202500Y-7768167D01*
X7221548Y-7758643D01*
X7250119Y-7758643D01*
X7269167Y-7768167D01*
X7278690Y-7787214D01*
X7278690Y-7891976D01*
X7373928Y-7891976D02*
X7373928Y-7758643D01*
X7373928Y-7777690D02*
X7383452Y-7768167D01*
X7402500Y-7758643D01*
X7431071Y-7758643D01*
X7450119Y-7768167D01*
X7459643Y-7787214D01*
X7459643Y-7891976D01*
X7459643Y-7787214D02*
X7469167Y-7768167D01*
X7488214Y-7758643D01*
X7516786Y-7758643D01*
X7535833Y-7768167D01*
X7545357Y-7787214D01*
X7545357Y-7891976D01*
X7935833Y-7682452D02*
X7764405Y-7939595D01*
X8192976Y-7691976D02*
X8212024Y-7691976D01*
X8231071Y-7701500D01*
X8240595Y-7711024D01*
X8250119Y-7730071D01*
X8259643Y-7768167D01*
X8259643Y-7815786D01*
X8250119Y-7853881D01*
X8240595Y-7872928D01*
X8231071Y-7882452D01*
X8212024Y-7891976D01*
X8192976Y-7891976D01*
X8173928Y-7882452D01*
X8164405Y-7872928D01*
X8154881Y-7853881D01*
X8145357Y-7815786D01*
X8145357Y-7768167D01*
X8154881Y-7730071D01*
X8164405Y-7711024D01*
X8173928Y-7701500D01*
X8192976Y-7691976D01*
X8345357Y-7872928D02*
X8354881Y-7882452D01*
X8345357Y-7891976D01*
X8335833Y-7882452D01*
X8345357Y-7872928D01*
X8345357Y-7891976D01*
X8478690Y-7691976D02*
X8497738Y-7691976D01*
X8516786Y-7701500D01*
X8526310Y-7711024D01*
X8535833Y-7730071D01*
X8545357Y-7768167D01*
X8545357Y-7815786D01*
X8535833Y-7853881D01*
X8526310Y-7872928D01*
X8516786Y-7882452D01*
X8497738Y-7891976D01*
X8478690Y-7891976D01*
X8459643Y-7882452D01*
X8450119Y-7872928D01*
X8440595Y-7853881D01*
X8431071Y-7815786D01*
X8431071Y-7768167D01*
X8440595Y-7730071D01*
X8450119Y-7711024D01*
X8459643Y-7701500D01*
X8478690Y-7691976D01*
X8735833Y-7891976D02*
X8621548Y-7891976D01*
X8678690Y-7891976D02*
X8678690Y-7691976D01*
X8659643Y-7720548D01*
X8640595Y-7739595D01*
X8621548Y-7749119D01*
X8812024Y-7711024D02*
X8821548Y-7701500D01*
X8840595Y-7691976D01*
X8888214Y-7691976D01*
X8907262Y-7701500D01*
X8916786Y-7711024D01*
X8926310Y-7730071D01*
X8926310Y-7749119D01*
X8916786Y-7777690D01*
X8802500Y-7891976D01*
X8926310Y-7891976D01*
X9050119Y-7691976D02*
X9069167Y-7691976D01*
X9088214Y-7701500D01*
X9097738Y-7711024D01*
X9107262Y-7730071D01*
X9116786Y-7768167D01*
X9116786Y-7815786D01*
X9107262Y-7853881D01*
X9097738Y-7872928D01*
X9088214Y-7882452D01*
X9069167Y-7891976D01*
X9050119Y-7891976D01*
X9031071Y-7882452D01*
X9021548Y-7872928D01*
X9012024Y-7853881D01*
X9002500Y-7815786D01*
X9002500Y-7768167D01*
X9012024Y-7730071D01*
X9021548Y-7711024D01*
X9031071Y-7701500D01*
X9050119Y-7691976D01*
X9192976Y-7691976D02*
X9192976Y-7730071D01*
X9269167Y-7691976D02*
X9269167Y-7730071D01*
X9564405Y-7968167D02*
X9554881Y-7958643D01*
X9535833Y-7930071D01*
X9526310Y-7911024D01*
X9516786Y-7882452D01*
X9507262Y-7834833D01*
X9507262Y-7796738D01*
X9516786Y-7749119D01*
X9526310Y-7720548D01*
X9535833Y-7701500D01*
X9554881Y-7672928D01*
X9564405Y-7663405D01*
X9650119Y-7891976D02*
X9688214Y-7891976D01*
X9707262Y-7882452D01*
X9716786Y-7872928D01*
X9735833Y-7844357D01*
X9745357Y-7806262D01*
X9745357Y-7730071D01*
X9735833Y-7711024D01*
X9726310Y-7701500D01*
X9707262Y-7691976D01*
X9669167Y-7691976D01*
X9650119Y-7701500D01*
X9640595Y-7711024D01*
X9631071Y-7730071D01*
X9631071Y-7777690D01*
X9640595Y-7796738D01*
X9650119Y-7806262D01*
X9669167Y-7815786D01*
X9707262Y-7815786D01*
X9726310Y-7806262D01*
X9735833Y-7796738D01*
X9745357Y-7777690D01*
X9983452Y-7891976D02*
X9983452Y-7691976D01*
X10069167Y-7891976D02*
X10069167Y-7787214D01*
X10059643Y-7768167D01*
X10040595Y-7758643D01*
X10012024Y-7758643D01*
X9992976Y-7768167D01*
X9983452Y-7777690D01*
X10192976Y-7891976D02*
X10173929Y-7882452D01*
X10164405Y-7872928D01*
X10154881Y-7853881D01*
X10154881Y-7796738D01*
X10164405Y-7777690D01*
X10173929Y-7768167D01*
X10192976Y-7758643D01*
X10221548Y-7758643D01*
X10240595Y-7768167D01*
X10250119Y-7777690D01*
X10259643Y-7796738D01*
X10259643Y-7853881D01*
X10250119Y-7872928D01*
X10240595Y-7882452D01*
X10221548Y-7891976D01*
X10192976Y-7891976D01*
X10373929Y-7891976D02*
X10354881Y-7882452D01*
X10345357Y-7863405D01*
X10345357Y-7691976D01*
X10526310Y-7882452D02*
X10507262Y-7891976D01*
X10469167Y-7891976D01*
X10450119Y-7882452D01*
X10440595Y-7863405D01*
X10440595Y-7787214D01*
X10450119Y-7768167D01*
X10469167Y-7758643D01*
X10507262Y-7758643D01*
X10526310Y-7768167D01*
X10535833Y-7787214D01*
X10535833Y-7806262D01*
X10440595Y-7825309D01*
X10612024Y-7882452D02*
X10631071Y-7891976D01*
X10669167Y-7891976D01*
X10688214Y-7882452D01*
X10697738Y-7863405D01*
X10697738Y-7853881D01*
X10688214Y-7834833D01*
X10669167Y-7825309D01*
X10640595Y-7825309D01*
X10621548Y-7815786D01*
X10612024Y-7796738D01*
X10612024Y-7787214D01*
X10621548Y-7768167D01*
X10640595Y-7758643D01*
X10669167Y-7758643D01*
X10688214Y-7768167D01*
X10764405Y-7968167D02*
X10773929Y-7958643D01*
X10792976Y-7930071D01*
X10802500Y-7911024D01*
X10812024Y-7882452D01*
X10821548Y-7834833D01*
X10821548Y-7796738D01*
X10812024Y-7749119D01*
X10802500Y-7720548D01*
X10792976Y-7701500D01*
X10773929Y-7672928D01*
X10764405Y-7663405D01*
D13*
X5975000Y-8048000D02*
X5975000Y-8083000D01*
X5957500Y-8065500D02*
X5992500Y-8065500D01*
D11*
X6288214Y-7955976D02*
X6307262Y-7955976D01*
X6326309Y-7965500D01*
X6335833Y-7975024D01*
X6345357Y-7994071D01*
X6354881Y-8032167D01*
X6354881Y-8079786D01*
X6345357Y-8117881D01*
X6335833Y-8136928D01*
X6326309Y-8146452D01*
X6307262Y-8155976D01*
X6288214Y-8155976D01*
X6269167Y-8146452D01*
X6259643Y-8136928D01*
X6250119Y-8117881D01*
X6240595Y-8079786D01*
X6240595Y-8032167D01*
X6250119Y-7994071D01*
X6259643Y-7975024D01*
X6269167Y-7965500D01*
X6288214Y-7955976D01*
X6440595Y-8136928D02*
X6450119Y-8146452D01*
X6440595Y-8155976D01*
X6431071Y-8146452D01*
X6440595Y-8136928D01*
X6440595Y-8155976D01*
X6516786Y-7955976D02*
X6640595Y-7955976D01*
X6573928Y-8032167D01*
X6602500Y-8032167D01*
X6621548Y-8041690D01*
X6631071Y-8051214D01*
X6640595Y-8070262D01*
X6640595Y-8117881D01*
X6631071Y-8136928D01*
X6621548Y-8146452D01*
X6602500Y-8155976D01*
X6545357Y-8155976D01*
X6526309Y-8146452D01*
X6516786Y-8136928D01*
X6821548Y-7955976D02*
X6726309Y-7955976D01*
X6716786Y-8051214D01*
X6726309Y-8041690D01*
X6745357Y-8032167D01*
X6792976Y-8032167D01*
X6812024Y-8041690D01*
X6821548Y-8051214D01*
X6831071Y-8070262D01*
X6831071Y-8117881D01*
X6821548Y-8136928D01*
X6812024Y-8146452D01*
X6792976Y-8155976D01*
X6745357Y-8155976D01*
X6726309Y-8146452D01*
X6716786Y-8136928D01*
X6954881Y-7955976D02*
X6973928Y-7955976D01*
X6992976Y-7965500D01*
X7002500Y-7975024D01*
X7012024Y-7994071D01*
X7021548Y-8032167D01*
X7021548Y-8079786D01*
X7012024Y-8117881D01*
X7002500Y-8136928D01*
X6992976Y-8146452D01*
X6973928Y-8155976D01*
X6954881Y-8155976D01*
X6935833Y-8146452D01*
X6926309Y-8136928D01*
X6916786Y-8117881D01*
X6907262Y-8079786D01*
X6907262Y-8032167D01*
X6916786Y-7994071D01*
X6926309Y-7975024D01*
X6935833Y-7965500D01*
X6954881Y-7955976D01*
X7107262Y-8155976D02*
X7107262Y-8022643D01*
X7107262Y-8041690D02*
X7116786Y-8032167D01*
X7135833Y-8022643D01*
X7164405Y-8022643D01*
X7183452Y-8032167D01*
X7192976Y-8051214D01*
X7192976Y-8155976D01*
X7192976Y-8051214D02*
X7202500Y-8032167D01*
X7221548Y-8022643D01*
X7250119Y-8022643D01*
X7269167Y-8032167D01*
X7278690Y-8051214D01*
X7278690Y-8155976D01*
X7373928Y-8155976D02*
X7373928Y-8022643D01*
X7373928Y-8041690D02*
X7383452Y-8032167D01*
X7402500Y-8022643D01*
X7431071Y-8022643D01*
X7450119Y-8032167D01*
X7459643Y-8051214D01*
X7459643Y-8155976D01*
X7459643Y-8051214D02*
X7469167Y-8032167D01*
X7488214Y-8022643D01*
X7516786Y-8022643D01*
X7535833Y-8032167D01*
X7545357Y-8051214D01*
X7545357Y-8155976D01*
X7935833Y-7946452D02*
X7764405Y-8203595D01*
X8192976Y-7955976D02*
X8212024Y-7955976D01*
X8231071Y-7965500D01*
X8240595Y-7975024D01*
X8250119Y-7994071D01*
X8259643Y-8032167D01*
X8259643Y-8079786D01*
X8250119Y-8117881D01*
X8240595Y-8136928D01*
X8231071Y-8146452D01*
X8212024Y-8155976D01*
X8192976Y-8155976D01*
X8173928Y-8146452D01*
X8164405Y-8136928D01*
X8154881Y-8117881D01*
X8145357Y-8079786D01*
X8145357Y-8032167D01*
X8154881Y-7994071D01*
X8164405Y-7975024D01*
X8173928Y-7965500D01*
X8192976Y-7955976D01*
X8345357Y-8136928D02*
X8354881Y-8146452D01*
X8345357Y-8155976D01*
X8335833Y-8146452D01*
X8345357Y-8136928D01*
X8345357Y-8155976D01*
X8478690Y-7955976D02*
X8497738Y-7955976D01*
X8516786Y-7965500D01*
X8526310Y-7975024D01*
X8535833Y-7994071D01*
X8545357Y-8032167D01*
X8545357Y-8079786D01*
X8535833Y-8117881D01*
X8526310Y-8136928D01*
X8516786Y-8146452D01*
X8497738Y-8155976D01*
X8478690Y-8155976D01*
X8459643Y-8146452D01*
X8450119Y-8136928D01*
X8440595Y-8117881D01*
X8431071Y-8079786D01*
X8431071Y-8032167D01*
X8440595Y-7994071D01*
X8450119Y-7975024D01*
X8459643Y-7965500D01*
X8478690Y-7955976D01*
X8735833Y-8155976D02*
X8621548Y-8155976D01*
X8678690Y-8155976D02*
X8678690Y-7955976D01*
X8659643Y-7984548D01*
X8640595Y-8003595D01*
X8621548Y-8013119D01*
X8802500Y-7955976D02*
X8926310Y-7955976D01*
X8859643Y-8032167D01*
X8888214Y-8032167D01*
X8907262Y-8041690D01*
X8916786Y-8051214D01*
X8926310Y-8070262D01*
X8926310Y-8117881D01*
X8916786Y-8136928D01*
X8907262Y-8146452D01*
X8888214Y-8155976D01*
X8831071Y-8155976D01*
X8812024Y-8146452D01*
X8802500Y-8136928D01*
X9040595Y-8041690D02*
X9021548Y-8032167D01*
X9012024Y-8022643D01*
X9002500Y-8003595D01*
X9002500Y-7994071D01*
X9012024Y-7975024D01*
X9021548Y-7965500D01*
X9040595Y-7955976D01*
X9078690Y-7955976D01*
X9097738Y-7965500D01*
X9107262Y-7975024D01*
X9116786Y-7994071D01*
X9116786Y-8003595D01*
X9107262Y-8022643D01*
X9097738Y-8032167D01*
X9078690Y-8041690D01*
X9040595Y-8041690D01*
X9021548Y-8051214D01*
X9012024Y-8060738D01*
X9002500Y-8079786D01*
X9002500Y-8117881D01*
X9012024Y-8136928D01*
X9021548Y-8146452D01*
X9040595Y-8155976D01*
X9078690Y-8155976D01*
X9097738Y-8146452D01*
X9107262Y-8136928D01*
X9116786Y-8117881D01*
X9116786Y-8079786D01*
X9107262Y-8060738D01*
X9097738Y-8051214D01*
X9078690Y-8041690D01*
X9192976Y-7955976D02*
X9192976Y-7994071D01*
X9269167Y-7955976D02*
X9269167Y-7994071D01*
X9564405Y-8232167D02*
X9554881Y-8222643D01*
X9535833Y-8194071D01*
X9526310Y-8175024D01*
X9516786Y-8146452D01*
X9507262Y-8098833D01*
X9507262Y-8060738D01*
X9516786Y-8013119D01*
X9526310Y-7984548D01*
X9535833Y-7965500D01*
X9554881Y-7936928D01*
X9564405Y-7927405D01*
X9726310Y-8022643D02*
X9726310Y-8155976D01*
X9678690Y-7946452D02*
X9631071Y-8089309D01*
X9754881Y-8089309D01*
X9859643Y-8041690D02*
X9840595Y-8032167D01*
X9831071Y-8022643D01*
X9821548Y-8003595D01*
X9821548Y-7994071D01*
X9831071Y-7975024D01*
X9840595Y-7965500D01*
X9859643Y-7955976D01*
X9897738Y-7955976D01*
X9916786Y-7965500D01*
X9926310Y-7975024D01*
X9935833Y-7994071D01*
X9935833Y-8003595D01*
X9926310Y-8022643D01*
X9916786Y-8032167D01*
X9897738Y-8041690D01*
X9859643Y-8041690D01*
X9840595Y-8051214D01*
X9831071Y-8060738D01*
X9821548Y-8079786D01*
X9821548Y-8117881D01*
X9831071Y-8136928D01*
X9840595Y-8146452D01*
X9859643Y-8155976D01*
X9897738Y-8155976D01*
X9916786Y-8146452D01*
X9926310Y-8136928D01*
X9935833Y-8117881D01*
X9935833Y-8079786D01*
X9926310Y-8060738D01*
X9916786Y-8051214D01*
X9897738Y-8041690D01*
X10173929Y-8155976D02*
X10173929Y-7955976D01*
X10259643Y-8155976D02*
X10259643Y-8051214D01*
X10250119Y-8032167D01*
X10231071Y-8022643D01*
X10202500Y-8022643D01*
X10183452Y-8032167D01*
X10173929Y-8041690D01*
X10383452Y-8155976D02*
X10364405Y-8146452D01*
X10354881Y-8136928D01*
X10345357Y-8117881D01*
X10345357Y-8060738D01*
X10354881Y-8041690D01*
X10364405Y-8032167D01*
X10383452Y-8022643D01*
X10412024Y-8022643D01*
X10431071Y-8032167D01*
X10440595Y-8041690D01*
X10450119Y-8060738D01*
X10450119Y-8117881D01*
X10440595Y-8136928D01*
X10431071Y-8146452D01*
X10412024Y-8155976D01*
X10383452Y-8155976D01*
X10564405Y-8155976D02*
X10545357Y-8146452D01*
X10535833Y-8127405D01*
X10535833Y-7955976D01*
X10716786Y-8146452D02*
X10697738Y-8155976D01*
X10659643Y-8155976D01*
X10640595Y-8146452D01*
X10631071Y-8127405D01*
X10631071Y-8051214D01*
X10640595Y-8032167D01*
X10659643Y-8022643D01*
X10697738Y-8022643D01*
X10716786Y-8032167D01*
X10726310Y-8051214D01*
X10726310Y-8070262D01*
X10631071Y-8089309D01*
X10802500Y-8146452D02*
X10821548Y-8155976D01*
X10859643Y-8155976D01*
X10878690Y-8146452D01*
X10888214Y-8127405D01*
X10888214Y-8117881D01*
X10878690Y-8098833D01*
X10859643Y-8089309D01*
X10831071Y-8089309D01*
X10812024Y-8079786D01*
X10802500Y-8060738D01*
X10802500Y-8051214D01*
X10812024Y-8032167D01*
X10831071Y-8022643D01*
X10859643Y-8022643D01*
X10878690Y-8032167D01*
X10954881Y-8232167D02*
X10964405Y-8222643D01*
X10983452Y-8194071D01*
X10992976Y-8175024D01*
X11002500Y-8146452D01*
X11012024Y-8098833D01*
X11012024Y-8060738D01*
X11002500Y-8013119D01*
X10992976Y-7984548D01*
X10983452Y-7965500D01*
X10964405Y-7936928D01*
X10954881Y-7927405D01*
D14*
X5981517Y-8356017D02*
X5981517Y-8302983D01*
X5928483Y-8302983D01*
X5928483Y-8356017D01*
X5981517Y-8356017D01*
D11*
X6288214Y-8219976D02*
X6307262Y-8219976D01*
X6326309Y-8229500D01*
X6335833Y-8239024D01*
X6345357Y-8258071D01*
X6354881Y-8296167D01*
X6354881Y-8343786D01*
X6345357Y-8381881D01*
X6335833Y-8400929D01*
X6326309Y-8410452D01*
X6307262Y-8419976D01*
X6288214Y-8419976D01*
X6269167Y-8410452D01*
X6259643Y-8400929D01*
X6250119Y-8381881D01*
X6240595Y-8343786D01*
X6240595Y-8296167D01*
X6250119Y-8258071D01*
X6259643Y-8239024D01*
X6269167Y-8229500D01*
X6288214Y-8219976D01*
X6440595Y-8400929D02*
X6450119Y-8410452D01*
X6440595Y-8419976D01*
X6431071Y-8410452D01*
X6440595Y-8400929D01*
X6440595Y-8419976D01*
X6516786Y-8219976D02*
X6650119Y-8219976D01*
X6564405Y-8419976D01*
X6821548Y-8219976D02*
X6726309Y-8219976D01*
X6716786Y-8315214D01*
X6726309Y-8305690D01*
X6745357Y-8296167D01*
X6792976Y-8296167D01*
X6812024Y-8305690D01*
X6821548Y-8315214D01*
X6831071Y-8334262D01*
X6831071Y-8381881D01*
X6821548Y-8400929D01*
X6812024Y-8410452D01*
X6792976Y-8419976D01*
X6745357Y-8419976D01*
X6726309Y-8410452D01*
X6716786Y-8400929D01*
X6954881Y-8219976D02*
X6973928Y-8219976D01*
X6992976Y-8229500D01*
X7002500Y-8239024D01*
X7012024Y-8258071D01*
X7021548Y-8296167D01*
X7021548Y-8343786D01*
X7012024Y-8381881D01*
X7002500Y-8400929D01*
X6992976Y-8410452D01*
X6973928Y-8419976D01*
X6954881Y-8419976D01*
X6935833Y-8410452D01*
X6926309Y-8400929D01*
X6916786Y-8381881D01*
X6907262Y-8343786D01*
X6907262Y-8296167D01*
X6916786Y-8258071D01*
X6926309Y-8239024D01*
X6935833Y-8229500D01*
X6954881Y-8219976D01*
X7107262Y-8419976D02*
X7107262Y-8286643D01*
X7107262Y-8305690D02*
X7116786Y-8296167D01*
X7135833Y-8286643D01*
X7164405Y-8286643D01*
X7183452Y-8296167D01*
X7192976Y-8315214D01*
X7192976Y-8419976D01*
X7192976Y-8315214D02*
X7202500Y-8296167D01*
X7221548Y-8286643D01*
X7250119Y-8286643D01*
X7269167Y-8296167D01*
X7278690Y-8315214D01*
X7278690Y-8419976D01*
X7373928Y-8419976D02*
X7373928Y-8286643D01*
X7373928Y-8305690D02*
X7383452Y-8296167D01*
X7402500Y-8286643D01*
X7431071Y-8286643D01*
X7450119Y-8296167D01*
X7459643Y-8315214D01*
X7459643Y-8419976D01*
X7459643Y-8315214D02*
X7469167Y-8296167D01*
X7488214Y-8286643D01*
X7516786Y-8286643D01*
X7535833Y-8296167D01*
X7545357Y-8315214D01*
X7545357Y-8419976D01*
X7935833Y-8210452D02*
X7764405Y-8467595D01*
X8192976Y-8219976D02*
X8212024Y-8219976D01*
X8231071Y-8229500D01*
X8240595Y-8239024D01*
X8250119Y-8258071D01*
X8259643Y-8296167D01*
X8259643Y-8343786D01*
X8250119Y-8381881D01*
X8240595Y-8400929D01*
X8231071Y-8410452D01*
X8212024Y-8419976D01*
X8192976Y-8419976D01*
X8173928Y-8410452D01*
X8164405Y-8400929D01*
X8154881Y-8381881D01*
X8145357Y-8343786D01*
X8145357Y-8296167D01*
X8154881Y-8258071D01*
X8164405Y-8239024D01*
X8173928Y-8229500D01*
X8192976Y-8219976D01*
X8345357Y-8400929D02*
X8354881Y-8410452D01*
X8345357Y-8419976D01*
X8335833Y-8410452D01*
X8345357Y-8400929D01*
X8345357Y-8419976D01*
X8478690Y-8219976D02*
X8497738Y-8219976D01*
X8516786Y-8229500D01*
X8526310Y-8239024D01*
X8535833Y-8258071D01*
X8545357Y-8296167D01*
X8545357Y-8343786D01*
X8535833Y-8381881D01*
X8526310Y-8400929D01*
X8516786Y-8410452D01*
X8497738Y-8419976D01*
X8478690Y-8419976D01*
X8459643Y-8410452D01*
X8450119Y-8400929D01*
X8440595Y-8381881D01*
X8431071Y-8343786D01*
X8431071Y-8296167D01*
X8440595Y-8258071D01*
X8450119Y-8239024D01*
X8459643Y-8229500D01*
X8478690Y-8219976D01*
X8621548Y-8239024D02*
X8631071Y-8229500D01*
X8650119Y-8219976D01*
X8697738Y-8219976D01*
X8716786Y-8229500D01*
X8726310Y-8239024D01*
X8735833Y-8258071D01*
X8735833Y-8277119D01*
X8726310Y-8305690D01*
X8612024Y-8419976D01*
X8735833Y-8419976D01*
X8831071Y-8419976D02*
X8869167Y-8419976D01*
X8888214Y-8410452D01*
X8897738Y-8400929D01*
X8916786Y-8372357D01*
X8926310Y-8334262D01*
X8926310Y-8258071D01*
X8916786Y-8239024D01*
X8907262Y-8229500D01*
X8888214Y-8219976D01*
X8850119Y-8219976D01*
X8831071Y-8229500D01*
X8821548Y-8239024D01*
X8812024Y-8258071D01*
X8812024Y-8305690D01*
X8821548Y-8324738D01*
X8831071Y-8334262D01*
X8850119Y-8343786D01*
X8888214Y-8343786D01*
X8907262Y-8334262D01*
X8916786Y-8324738D01*
X8926310Y-8305690D01*
X9107262Y-8219976D02*
X9012024Y-8219976D01*
X9002500Y-8315214D01*
X9012024Y-8305690D01*
X9031071Y-8296167D01*
X9078690Y-8296167D01*
X9097738Y-8305690D01*
X9107262Y-8315214D01*
X9116786Y-8334262D01*
X9116786Y-8381881D01*
X9107262Y-8400929D01*
X9097738Y-8410452D01*
X9078690Y-8419976D01*
X9031071Y-8419976D01*
X9012024Y-8410452D01*
X9002500Y-8400929D01*
X9192976Y-8219976D02*
X9192976Y-8258071D01*
X9269167Y-8219976D02*
X9269167Y-8258071D01*
X9564405Y-8496167D02*
X9554881Y-8486643D01*
X9535833Y-8458071D01*
X9526310Y-8439024D01*
X9516786Y-8410452D01*
X9507262Y-8362833D01*
X9507262Y-8324738D01*
X9516786Y-8277119D01*
X9526310Y-8248548D01*
X9535833Y-8229500D01*
X9554881Y-8200928D01*
X9564405Y-8191405D01*
X9745357Y-8419976D02*
X9631071Y-8419976D01*
X9688214Y-8419976D02*
X9688214Y-8219976D01*
X9669167Y-8248548D01*
X9650119Y-8267595D01*
X9631071Y-8277119D01*
X9869167Y-8219976D02*
X9888214Y-8219976D01*
X9907262Y-8229500D01*
X9916786Y-8239024D01*
X9926310Y-8258071D01*
X9935833Y-8296167D01*
X9935833Y-8343786D01*
X9926310Y-8381881D01*
X9916786Y-8400929D01*
X9907262Y-8410452D01*
X9888214Y-8419976D01*
X9869167Y-8419976D01*
X9850119Y-8410452D01*
X9840595Y-8400929D01*
X9831071Y-8381881D01*
X9821548Y-8343786D01*
X9821548Y-8296167D01*
X9831071Y-8258071D01*
X9840595Y-8239024D01*
X9850119Y-8229500D01*
X9869167Y-8219976D01*
X10173929Y-8419976D02*
X10173929Y-8219976D01*
X10259643Y-8419976D02*
X10259643Y-8315214D01*
X10250119Y-8296167D01*
X10231071Y-8286643D01*
X10202500Y-8286643D01*
X10183452Y-8296167D01*
X10173929Y-8305690D01*
X10383452Y-8419976D02*
X10364405Y-8410452D01*
X10354881Y-8400929D01*
X10345357Y-8381881D01*
X10345357Y-8324738D01*
X10354881Y-8305690D01*
X10364405Y-8296167D01*
X10383452Y-8286643D01*
X10412024Y-8286643D01*
X10431071Y-8296167D01*
X10440595Y-8305690D01*
X10450119Y-8324738D01*
X10450119Y-8381881D01*
X10440595Y-8400929D01*
X10431071Y-8410452D01*
X10412024Y-8419976D01*
X10383452Y-8419976D01*
X10564405Y-8419976D02*
X10545357Y-8410452D01*
X10535833Y-8391405D01*
X10535833Y-8219976D01*
X10716786Y-8410452D02*
X10697738Y-8419976D01*
X10659643Y-8419976D01*
X10640595Y-8410452D01*
X10631071Y-8391405D01*
X10631071Y-8315214D01*
X10640595Y-8296167D01*
X10659643Y-8286643D01*
X10697738Y-8286643D01*
X10716786Y-8296167D01*
X10726310Y-8315214D01*
X10726310Y-8334262D01*
X10631071Y-8353309D01*
X10802500Y-8410452D02*
X10821548Y-8419976D01*
X10859643Y-8419976D01*
X10878690Y-8410452D01*
X10888214Y-8391405D01*
X10888214Y-8381881D01*
X10878690Y-8362833D01*
X10859643Y-8353309D01*
X10831071Y-8353309D01*
X10812024Y-8343786D01*
X10802500Y-8324738D01*
X10802500Y-8315214D01*
X10812024Y-8296167D01*
X10831071Y-8286643D01*
X10859643Y-8286643D01*
X10878690Y-8296167D01*
X10954881Y-8496167D02*
X10964405Y-8486643D01*
X10983452Y-8458071D01*
X10992976Y-8439024D01*
X11002500Y-8410452D01*
X11012024Y-8362833D01*
X11012024Y-8324738D01*
X11002500Y-8277119D01*
X10992976Y-8248548D01*
X10983452Y-8229500D01*
X10964405Y-8200928D01*
X10954881Y-8191405D01*
D15*
X5942500Y-8643500D02*
X5992500Y-8593500D01*
X5942500Y-8543500D01*
X5892500Y-8593500D01*
X5942500Y-8643500D01*
D11*
X6354881Y-8683976D02*
X6240595Y-8683976D01*
X6297738Y-8683976D02*
X6297738Y-8483976D01*
X6278690Y-8512548D01*
X6259643Y-8531595D01*
X6240595Y-8541119D01*
X6440595Y-8664929D02*
X6450119Y-8674452D01*
X6440595Y-8683976D01*
X6431071Y-8674452D01*
X6440595Y-8664929D01*
X6440595Y-8683976D01*
X6573928Y-8483976D02*
X6592976Y-8483976D01*
X6612024Y-8493500D01*
X6621548Y-8503024D01*
X6631071Y-8522071D01*
X6640595Y-8560167D01*
X6640595Y-8607786D01*
X6631071Y-8645881D01*
X6621548Y-8664929D01*
X6612024Y-8674452D01*
X6592976Y-8683976D01*
X6573928Y-8683976D01*
X6554881Y-8674452D01*
X6545357Y-8664929D01*
X6535833Y-8645881D01*
X6526309Y-8607786D01*
X6526309Y-8560167D01*
X6535833Y-8522071D01*
X6545357Y-8503024D01*
X6554881Y-8493500D01*
X6573928Y-8483976D01*
X6764405Y-8483976D02*
X6783452Y-8483976D01*
X6802500Y-8493500D01*
X6812024Y-8503024D01*
X6821548Y-8522071D01*
X6831071Y-8560167D01*
X6831071Y-8607786D01*
X6821548Y-8645881D01*
X6812024Y-8664929D01*
X6802500Y-8674452D01*
X6783452Y-8683976D01*
X6764405Y-8683976D01*
X6745357Y-8674452D01*
X6735833Y-8664929D01*
X6726309Y-8645881D01*
X6716786Y-8607786D01*
X6716786Y-8560167D01*
X6726309Y-8522071D01*
X6735833Y-8503024D01*
X6745357Y-8493500D01*
X6764405Y-8483976D01*
X6954881Y-8483976D02*
X6973928Y-8483976D01*
X6992976Y-8493500D01*
X7002500Y-8503024D01*
X7012024Y-8522071D01*
X7021548Y-8560167D01*
X7021548Y-8607786D01*
X7012024Y-8645881D01*
X7002500Y-8664929D01*
X6992976Y-8674452D01*
X6973928Y-8683976D01*
X6954881Y-8683976D01*
X6935833Y-8674452D01*
X6926309Y-8664929D01*
X6916786Y-8645881D01*
X6907262Y-8607786D01*
X6907262Y-8560167D01*
X6916786Y-8522071D01*
X6926309Y-8503024D01*
X6935833Y-8493500D01*
X6954881Y-8483976D01*
X7107262Y-8683976D02*
X7107262Y-8550643D01*
X7107262Y-8569690D02*
X7116786Y-8560167D01*
X7135833Y-8550643D01*
X7164405Y-8550643D01*
X7183452Y-8560167D01*
X7192976Y-8579214D01*
X7192976Y-8683976D01*
X7192976Y-8579214D02*
X7202500Y-8560167D01*
X7221548Y-8550643D01*
X7250119Y-8550643D01*
X7269167Y-8560167D01*
X7278690Y-8579214D01*
X7278690Y-8683976D01*
X7373928Y-8683976D02*
X7373928Y-8550643D01*
X7373928Y-8569690D02*
X7383452Y-8560167D01*
X7402500Y-8550643D01*
X7431071Y-8550643D01*
X7450119Y-8560167D01*
X7459643Y-8579214D01*
X7459643Y-8683976D01*
X7459643Y-8579214D02*
X7469167Y-8560167D01*
X7488214Y-8550643D01*
X7516786Y-8550643D01*
X7535833Y-8560167D01*
X7545357Y-8579214D01*
X7545357Y-8683976D01*
X7935833Y-8474452D02*
X7764405Y-8731595D01*
X8192976Y-8483976D02*
X8212024Y-8483976D01*
X8231071Y-8493500D01*
X8240595Y-8503024D01*
X8250119Y-8522071D01*
X8259643Y-8560167D01*
X8259643Y-8607786D01*
X8250119Y-8645881D01*
X8240595Y-8664929D01*
X8231071Y-8674452D01*
X8212024Y-8683976D01*
X8192976Y-8683976D01*
X8173928Y-8674452D01*
X8164405Y-8664929D01*
X8154881Y-8645881D01*
X8145357Y-8607786D01*
X8145357Y-8560167D01*
X8154881Y-8522071D01*
X8164405Y-8503024D01*
X8173928Y-8493500D01*
X8192976Y-8483976D01*
X8345357Y-8664929D02*
X8354881Y-8674452D01*
X8345357Y-8683976D01*
X8335833Y-8674452D01*
X8345357Y-8664929D01*
X8345357Y-8683976D01*
X8478690Y-8483976D02*
X8497738Y-8483976D01*
X8516786Y-8493500D01*
X8526310Y-8503024D01*
X8535833Y-8522071D01*
X8545357Y-8560167D01*
X8545357Y-8607786D01*
X8535833Y-8645881D01*
X8526310Y-8664929D01*
X8516786Y-8674452D01*
X8497738Y-8683976D01*
X8478690Y-8683976D01*
X8459643Y-8674452D01*
X8450119Y-8664929D01*
X8440595Y-8645881D01*
X8431071Y-8607786D01*
X8431071Y-8560167D01*
X8440595Y-8522071D01*
X8450119Y-8503024D01*
X8459643Y-8493500D01*
X8478690Y-8483976D01*
X8612024Y-8483976D02*
X8735833Y-8483976D01*
X8669167Y-8560167D01*
X8697738Y-8560167D01*
X8716786Y-8569690D01*
X8726310Y-8579214D01*
X8735833Y-8598262D01*
X8735833Y-8645881D01*
X8726310Y-8664929D01*
X8716786Y-8674452D01*
X8697738Y-8683976D01*
X8640595Y-8683976D01*
X8621548Y-8674452D01*
X8612024Y-8664929D01*
X8831071Y-8683976D02*
X8869167Y-8683976D01*
X8888214Y-8674452D01*
X8897738Y-8664929D01*
X8916786Y-8636357D01*
X8926310Y-8598262D01*
X8926310Y-8522071D01*
X8916786Y-8503024D01*
X8907262Y-8493500D01*
X8888214Y-8483976D01*
X8850119Y-8483976D01*
X8831071Y-8493500D01*
X8821548Y-8503024D01*
X8812024Y-8522071D01*
X8812024Y-8569690D01*
X8821548Y-8588738D01*
X8831071Y-8598262D01*
X8850119Y-8607786D01*
X8888214Y-8607786D01*
X8907262Y-8598262D01*
X8916786Y-8588738D01*
X8926310Y-8569690D01*
X9097738Y-8550643D02*
X9097738Y-8683976D01*
X9050119Y-8474452D02*
X9002500Y-8617310D01*
X9126310Y-8617310D01*
X9192976Y-8483976D02*
X9192976Y-8522071D01*
X9269167Y-8483976D02*
X9269167Y-8522071D01*
X9564405Y-8760167D02*
X9554881Y-8750643D01*
X9535833Y-8722071D01*
X9526310Y-8703024D01*
X9516786Y-8674452D01*
X9507262Y-8626833D01*
X9507262Y-8588738D01*
X9516786Y-8541119D01*
X9526310Y-8512548D01*
X9535833Y-8493500D01*
X9554881Y-8464929D01*
X9564405Y-8455405D01*
X9621548Y-8483976D02*
X9745357Y-8483976D01*
X9678690Y-8560167D01*
X9707262Y-8560167D01*
X9726310Y-8569690D01*
X9735833Y-8579214D01*
X9745357Y-8598262D01*
X9745357Y-8645881D01*
X9735833Y-8664929D01*
X9726310Y-8674452D01*
X9707262Y-8683976D01*
X9650119Y-8683976D01*
X9631071Y-8674452D01*
X9621548Y-8664929D01*
X9821548Y-8503024D02*
X9831071Y-8493500D01*
X9850119Y-8483976D01*
X9897738Y-8483976D01*
X9916786Y-8493500D01*
X9926310Y-8503024D01*
X9935833Y-8522071D01*
X9935833Y-8541119D01*
X9926310Y-8569690D01*
X9812024Y-8683976D01*
X9935833Y-8683976D01*
X10173929Y-8683976D02*
X10173929Y-8483976D01*
X10259643Y-8683976D02*
X10259643Y-8579214D01*
X10250119Y-8560167D01*
X10231071Y-8550643D01*
X10202500Y-8550643D01*
X10183452Y-8560167D01*
X10173929Y-8569690D01*
X10383452Y-8683976D02*
X10364405Y-8674452D01*
X10354881Y-8664929D01*
X10345357Y-8645881D01*
X10345357Y-8588738D01*
X10354881Y-8569690D01*
X10364405Y-8560167D01*
X10383452Y-8550643D01*
X10412024Y-8550643D01*
X10431071Y-8560167D01*
X10440595Y-8569690D01*
X10450119Y-8588738D01*
X10450119Y-8645881D01*
X10440595Y-8664929D01*
X10431071Y-8674452D01*
X10412024Y-8683976D01*
X10383452Y-8683976D01*
X10564405Y-8683976D02*
X10545357Y-8674452D01*
X10535833Y-8655405D01*
X10535833Y-8483976D01*
X10716786Y-8674452D02*
X10697738Y-8683976D01*
X10659643Y-8683976D01*
X10640595Y-8674452D01*
X10631071Y-8655405D01*
X10631071Y-8579214D01*
X10640595Y-8560167D01*
X10659643Y-8550643D01*
X10697738Y-8550643D01*
X10716786Y-8560167D01*
X10726310Y-8579214D01*
X10726310Y-8598262D01*
X10631071Y-8617310D01*
X10802500Y-8674452D02*
X10821548Y-8683976D01*
X10859643Y-8683976D01*
X10878690Y-8674452D01*
X10888214Y-8655405D01*
X10888214Y-8645881D01*
X10878690Y-8626833D01*
X10859643Y-8617310D01*
X10831071Y-8617310D01*
X10812024Y-8607786D01*
X10802500Y-8588738D01*
X10802500Y-8579214D01*
X10812024Y-8560167D01*
X10831071Y-8550643D01*
X10859643Y-8550643D01*
X10878690Y-8560167D01*
X10954881Y-8760167D02*
X10964405Y-8750643D01*
X10983452Y-8722071D01*
X10992976Y-8703024D01*
X11002500Y-8674452D01*
X11012024Y-8626833D01*
X11012024Y-8588738D01*
X11002500Y-8541119D01*
X10992976Y-8512548D01*
X10983452Y-8493500D01*
X10964405Y-8464929D01*
X10954881Y-8455405D01*
M02*
