G04 #@! TF.GenerationSoftware,KiCad,Pcbnew,(5.1.10)-1*
G04 #@! TF.CreationDate,2021-10-08T21:42:51+13:00*
G04 #@! TF.ProjectId,bldc_driver_fpga,626c6463-5f64-4726-9976-65725f667067,rev?*
G04 #@! TF.SameCoordinates,Original*
G04 #@! TF.FileFunction,Copper,L2,Bot*
G04 #@! TF.FilePolarity,Positive*
%FSLAX46Y46*%
G04 Gerber Fmt 4.6, Leading zero omitted, Abs format (unit mm)*
G04 Created by KiCad (PCBNEW (5.1.10)-1) date 2021-10-08 21:42:51*
%MOMM*%
%LPD*%
G01*
G04 APERTURE LIST*
G04 #@! TA.AperFunction,ComponentPad*
%ADD10O,1.750000X1.200000*%
G04 #@! TD*
G04 #@! TA.AperFunction,ComponentPad*
%ADD11O,1.700000X1.700000*%
G04 #@! TD*
G04 #@! TA.AperFunction,ComponentPad*
%ADD12R,1.700000X1.700000*%
G04 #@! TD*
G04 #@! TA.AperFunction,ComponentPad*
%ADD13O,2.700000X3.300000*%
G04 #@! TD*
G04 #@! TA.AperFunction,SMDPad,CuDef*
%ADD14R,2.450000X2.450000*%
G04 #@! TD*
G04 #@! TA.AperFunction,ComponentPad*
%ADD15C,0.500000*%
G04 #@! TD*
G04 #@! TA.AperFunction,ViaPad*
%ADD16C,0.609600*%
G04 #@! TD*
G04 #@! TA.AperFunction,Conductor*
%ADD17C,0.508000*%
G04 #@! TD*
G04 #@! TA.AperFunction,Conductor*
%ADD18C,0.254000*%
G04 #@! TD*
G04 #@! TA.AperFunction,Conductor*
%ADD19C,0.152400*%
G04 #@! TD*
G04 #@! TA.AperFunction,Conductor*
%ADD20C,0.127000*%
G04 #@! TD*
G04 APERTURE END LIST*
G04 #@! TA.AperFunction,SMDPad,CuDef*
G36*
G01*
X119868500Y-43036500D02*
X119868500Y-42561500D01*
G75*
G02*
X120106000Y-42324000I237500J0D01*
G01*
X120606000Y-42324000D01*
G75*
G02*
X120843500Y-42561500I0J-237500D01*
G01*
X120843500Y-43036500D01*
G75*
G02*
X120606000Y-43274000I-237500J0D01*
G01*
X120106000Y-43274000D01*
G75*
G02*
X119868500Y-43036500I0J237500D01*
G01*
G37*
G04 #@! TD.AperFunction*
G04 #@! TA.AperFunction,SMDPad,CuDef*
G36*
G01*
X118043500Y-43036500D02*
X118043500Y-42561500D01*
G75*
G02*
X118281000Y-42324000I237500J0D01*
G01*
X118781000Y-42324000D01*
G75*
G02*
X119018500Y-42561500I0J-237500D01*
G01*
X119018500Y-43036500D01*
G75*
G02*
X118781000Y-43274000I-237500J0D01*
G01*
X118281000Y-43274000D01*
G75*
G02*
X118043500Y-43036500I0J237500D01*
G01*
G37*
G04 #@! TD.AperFunction*
G04 #@! TA.AperFunction,SMDPad,CuDef*
G36*
G01*
X119868500Y-45005000D02*
X119868500Y-44530000D01*
G75*
G02*
X120106000Y-44292500I237500J0D01*
G01*
X120606000Y-44292500D01*
G75*
G02*
X120843500Y-44530000I0J-237500D01*
G01*
X120843500Y-45005000D01*
G75*
G02*
X120606000Y-45242500I-237500J0D01*
G01*
X120106000Y-45242500D01*
G75*
G02*
X119868500Y-45005000I0J237500D01*
G01*
G37*
G04 #@! TD.AperFunction*
G04 #@! TA.AperFunction,SMDPad,CuDef*
G36*
G01*
X118043500Y-45005000D02*
X118043500Y-44530000D01*
G75*
G02*
X118281000Y-44292500I237500J0D01*
G01*
X118781000Y-44292500D01*
G75*
G02*
X119018500Y-44530000I0J-237500D01*
G01*
X119018500Y-45005000D01*
G75*
G02*
X118781000Y-45242500I-237500J0D01*
G01*
X118281000Y-45242500D01*
G75*
G02*
X118043500Y-45005000I0J237500D01*
G01*
G37*
G04 #@! TD.AperFunction*
G04 #@! TA.AperFunction,SMDPad,CuDef*
G36*
G01*
X119845000Y-47037000D02*
X119845000Y-46562000D01*
G75*
G02*
X120082500Y-46324500I237500J0D01*
G01*
X120582500Y-46324500D01*
G75*
G02*
X120820000Y-46562000I0J-237500D01*
G01*
X120820000Y-47037000D01*
G75*
G02*
X120582500Y-47274500I-237500J0D01*
G01*
X120082500Y-47274500D01*
G75*
G02*
X119845000Y-47037000I0J237500D01*
G01*
G37*
G04 #@! TD.AperFunction*
G04 #@! TA.AperFunction,SMDPad,CuDef*
G36*
G01*
X118020000Y-47037000D02*
X118020000Y-46562000D01*
G75*
G02*
X118257500Y-46324500I237500J0D01*
G01*
X118757500Y-46324500D01*
G75*
G02*
X118995000Y-46562000I0J-237500D01*
G01*
X118995000Y-47037000D01*
G75*
G02*
X118757500Y-47274500I-237500J0D01*
G01*
X118257500Y-47274500D01*
G75*
G02*
X118020000Y-47037000I0J237500D01*
G01*
G37*
G04 #@! TD.AperFunction*
D10*
X123634500Y-40768000D03*
X123634500Y-42768000D03*
X123634500Y-44768000D03*
X123634500Y-46768000D03*
G04 #@! TA.AperFunction,ComponentPad*
G36*
G01*
X124259501Y-49368000D02*
X123009499Y-49368000D01*
G75*
G02*
X122759500Y-49118001I0J249999D01*
G01*
X122759500Y-48417999D01*
G75*
G02*
X123009499Y-48168000I249999J0D01*
G01*
X124259501Y-48168000D01*
G75*
G02*
X124509500Y-48417999I0J-249999D01*
G01*
X124509500Y-49118001D01*
G75*
G02*
X124259501Y-49368000I-249999J0D01*
G01*
G37*
G04 #@! TD.AperFunction*
D11*
X123507500Y-66357500D03*
X120967500Y-66357500D03*
X118427500Y-66357500D03*
X115887500Y-66357500D03*
X113347500Y-66357500D03*
D12*
X110807500Y-66357500D03*
D11*
X123500000Y-18100000D03*
X120960000Y-18100000D03*
X118420000Y-18100000D03*
X115880000Y-18100000D03*
X113340000Y-18100000D03*
X110800000Y-18100000D03*
X108260000Y-18100000D03*
D12*
X105720000Y-18100000D03*
D11*
X101656000Y-18100000D03*
X99116000Y-18100000D03*
X96576000Y-18100000D03*
X94036000Y-18100000D03*
X91496000Y-18100000D03*
X88956000Y-18100000D03*
X86416000Y-18100000D03*
X83876000Y-18100000D03*
X81336000Y-18100000D03*
D12*
X78796000Y-18100000D03*
D11*
X105727500Y-66357500D03*
X103187500Y-66357500D03*
X100647500Y-66357500D03*
X98107500Y-66357500D03*
X95567500Y-66357500D03*
X93027500Y-66357500D03*
X90487500Y-66357500D03*
D12*
X87947500Y-66357500D03*
D13*
X95195500Y-60808500D03*
X90995500Y-60808500D03*
X95195500Y-55308500D03*
G04 #@! TA.AperFunction,ComponentPad*
G36*
G01*
X89645500Y-56708499D02*
X89645500Y-53908501D01*
G75*
G02*
X89895501Y-53658500I250001J0D01*
G01*
X92095499Y-53658500D01*
G75*
G02*
X92345500Y-53908501I0J-250001D01*
G01*
X92345500Y-56708499D01*
G75*
G02*
X92095499Y-56958500I-250001J0D01*
G01*
X89895501Y-56958500D01*
G75*
G02*
X89645500Y-56708499I0J250001D01*
G01*
G37*
G04 #@! TD.AperFunction*
D14*
X94996000Y-41148000D03*
D15*
X94021000Y-40173000D03*
X94996000Y-40173000D03*
X95971000Y-40173000D03*
X94021000Y-41148000D03*
X94996000Y-41148000D03*
X95971000Y-41148000D03*
X94021000Y-42123000D03*
X94996000Y-42123000D03*
X95971000Y-42123000D03*
G04 #@! TA.AperFunction,SMDPad,CuDef*
G36*
G01*
X81692000Y-65104000D02*
X81692000Y-65579000D01*
G75*
G02*
X81454500Y-65816500I-237500J0D01*
G01*
X80879500Y-65816500D01*
G75*
G02*
X80642000Y-65579000I0J237500D01*
G01*
X80642000Y-65104000D01*
G75*
G02*
X80879500Y-64866500I237500J0D01*
G01*
X81454500Y-64866500D01*
G75*
G02*
X81692000Y-65104000I0J-237500D01*
G01*
G37*
G04 #@! TD.AperFunction*
G04 #@! TA.AperFunction,SMDPad,CuDef*
G36*
G01*
X83442000Y-65104000D02*
X83442000Y-65579000D01*
G75*
G02*
X83204500Y-65816500I-237500J0D01*
G01*
X82629500Y-65816500D01*
G75*
G02*
X82392000Y-65579000I0J237500D01*
G01*
X82392000Y-65104000D01*
G75*
G02*
X82629500Y-64866500I237500J0D01*
G01*
X83204500Y-64866500D01*
G75*
G02*
X83442000Y-65104000I0J-237500D01*
G01*
G37*
G04 #@! TD.AperFunction*
G04 #@! TA.AperFunction,SMDPad,CuDef*
G36*
G01*
X83246000Y-28109000D02*
X83246000Y-27009000D01*
G75*
G02*
X83496000Y-26759000I250000J0D01*
G01*
X86496000Y-26759000D01*
G75*
G02*
X86746000Y-27009000I0J-250000D01*
G01*
X86746000Y-28109000D01*
G75*
G02*
X86496000Y-28359000I-250000J0D01*
G01*
X83496000Y-28359000D01*
G75*
G02*
X83246000Y-28109000I0J250000D01*
G01*
G37*
G04 #@! TD.AperFunction*
G04 #@! TA.AperFunction,SMDPad,CuDef*
G36*
G01*
X77846000Y-28109000D02*
X77846000Y-27009000D01*
G75*
G02*
X78096000Y-26759000I250000J0D01*
G01*
X81096000Y-26759000D01*
G75*
G02*
X81346000Y-27009000I0J-250000D01*
G01*
X81346000Y-28109000D01*
G75*
G02*
X81096000Y-28359000I-250000J0D01*
G01*
X78096000Y-28359000D01*
G75*
G02*
X77846000Y-28109000I0J250000D01*
G01*
G37*
G04 #@! TD.AperFunction*
G04 #@! TA.AperFunction,SMDPad,CuDef*
G36*
G01*
X83119000Y-40491500D02*
X83119000Y-39391500D01*
G75*
G02*
X83369000Y-39141500I250000J0D01*
G01*
X86369000Y-39141500D01*
G75*
G02*
X86619000Y-39391500I0J-250000D01*
G01*
X86619000Y-40491500D01*
G75*
G02*
X86369000Y-40741500I-250000J0D01*
G01*
X83369000Y-40741500D01*
G75*
G02*
X83119000Y-40491500I0J250000D01*
G01*
G37*
G04 #@! TD.AperFunction*
G04 #@! TA.AperFunction,SMDPad,CuDef*
G36*
G01*
X77719000Y-40491500D02*
X77719000Y-39391500D01*
G75*
G02*
X77969000Y-39141500I250000J0D01*
G01*
X80969000Y-39141500D01*
G75*
G02*
X81219000Y-39391500I0J-250000D01*
G01*
X81219000Y-40491500D01*
G75*
G02*
X80969000Y-40741500I-250000J0D01*
G01*
X77969000Y-40741500D01*
G75*
G02*
X77719000Y-40491500I0J250000D01*
G01*
G37*
G04 #@! TD.AperFunction*
G04 #@! TA.AperFunction,SMDPad,CuDef*
G36*
G01*
X83246000Y-52747000D02*
X83246000Y-51647000D01*
G75*
G02*
X83496000Y-51397000I250000J0D01*
G01*
X86496000Y-51397000D01*
G75*
G02*
X86746000Y-51647000I0J-250000D01*
G01*
X86746000Y-52747000D01*
G75*
G02*
X86496000Y-52997000I-250000J0D01*
G01*
X83496000Y-52997000D01*
G75*
G02*
X83246000Y-52747000I0J250000D01*
G01*
G37*
G04 #@! TD.AperFunction*
G04 #@! TA.AperFunction,SMDPad,CuDef*
G36*
G01*
X77846000Y-52747000D02*
X77846000Y-51647000D01*
G75*
G02*
X78096000Y-51397000I250000J0D01*
G01*
X81096000Y-51397000D01*
G75*
G02*
X81346000Y-51647000I0J-250000D01*
G01*
X81346000Y-52747000D01*
G75*
G02*
X81096000Y-52997000I-250000J0D01*
G01*
X78096000Y-52997000D01*
G75*
G02*
X77846000Y-52747000I0J250000D01*
G01*
G37*
G04 #@! TD.AperFunction*
G04 #@! TA.AperFunction,SMDPad,CuDef*
G36*
G01*
X96057000Y-63897500D02*
X96057000Y-64372500D01*
G75*
G02*
X95819500Y-64610000I-237500J0D01*
G01*
X95244500Y-64610000D01*
G75*
G02*
X95007000Y-64372500I0J237500D01*
G01*
X95007000Y-63897500D01*
G75*
G02*
X95244500Y-63660000I237500J0D01*
G01*
X95819500Y-63660000D01*
G75*
G02*
X96057000Y-63897500I0J-237500D01*
G01*
G37*
G04 #@! TD.AperFunction*
G04 #@! TA.AperFunction,SMDPad,CuDef*
G36*
G01*
X97807000Y-63897500D02*
X97807000Y-64372500D01*
G75*
G02*
X97569500Y-64610000I-237500J0D01*
G01*
X96994500Y-64610000D01*
G75*
G02*
X96757000Y-64372500I0J237500D01*
G01*
X96757000Y-63897500D01*
G75*
G02*
X96994500Y-63660000I237500J0D01*
G01*
X97569500Y-63660000D01*
G75*
G02*
X97807000Y-63897500I0J-237500D01*
G01*
G37*
G04 #@! TD.AperFunction*
G04 #@! TA.AperFunction,SMDPad,CuDef*
G36*
G01*
X98759000Y-63455000D02*
X99234000Y-63455000D01*
G75*
G02*
X99471500Y-63692500I0J-237500D01*
G01*
X99471500Y-64267500D01*
G75*
G02*
X99234000Y-64505000I-237500J0D01*
G01*
X98759000Y-64505000D01*
G75*
G02*
X98521500Y-64267500I0J237500D01*
G01*
X98521500Y-63692500D01*
G75*
G02*
X98759000Y-63455000I237500J0D01*
G01*
G37*
G04 #@! TD.AperFunction*
G04 #@! TA.AperFunction,SMDPad,CuDef*
G36*
G01*
X98759000Y-61705000D02*
X99234000Y-61705000D01*
G75*
G02*
X99471500Y-61942500I0J-237500D01*
G01*
X99471500Y-62517500D01*
G75*
G02*
X99234000Y-62755000I-237500J0D01*
G01*
X98759000Y-62755000D01*
G75*
G02*
X98521500Y-62517500I0J237500D01*
G01*
X98521500Y-61942500D01*
G75*
G02*
X98759000Y-61705000I237500J0D01*
G01*
G37*
G04 #@! TD.AperFunction*
D16*
X88900000Y-46228000D03*
X99060000Y-45212000D03*
X111252000Y-68072000D03*
X107442000Y-62865000D03*
X111887000Y-58547000D03*
X110236000Y-51562000D03*
X81788000Y-67818000D03*
X101981000Y-64287400D03*
X103124000Y-25400000D03*
X102108000Y-46228000D03*
X102108000Y-47244000D03*
X97028000Y-46228000D03*
X84582000Y-51308000D03*
X84582000Y-49276000D03*
X83566000Y-50292000D03*
X85598000Y-50292000D03*
X84582000Y-50292000D03*
X85598000Y-51308000D03*
X83566000Y-49276000D03*
X85598000Y-49276000D03*
X83566000Y-51308000D03*
X83820000Y-58166000D03*
X85852000Y-58166000D03*
X84836000Y-58166000D03*
X85852000Y-56134000D03*
X85852000Y-57150000D03*
X84836000Y-56134000D03*
X83820000Y-57150000D03*
X83820000Y-56134000D03*
X84836000Y-57150000D03*
X83058000Y-35560000D03*
X85090000Y-35560000D03*
X84074000Y-35560000D03*
X85090000Y-33528000D03*
X85090000Y-34544000D03*
X84074000Y-33528000D03*
X83058000Y-34544000D03*
X83058000Y-33528000D03*
X84074000Y-34544000D03*
X78232000Y-28702000D03*
X80264000Y-28702000D03*
X79248000Y-28702000D03*
X80264000Y-26670000D03*
X80264000Y-27686000D03*
X79248000Y-26670000D03*
X78232000Y-27686000D03*
X78232000Y-26670000D03*
X79248000Y-27686000D03*
X78232000Y-40894000D03*
X80264000Y-40894000D03*
X79248000Y-40894000D03*
X80264000Y-38862000D03*
X80264000Y-39878000D03*
X79248000Y-38862000D03*
X78232000Y-39878000D03*
X78232000Y-38862000D03*
X79248000Y-39878000D03*
X78232000Y-53086000D03*
X80264000Y-53086000D03*
X79248000Y-53086000D03*
X80264000Y-51054000D03*
X80264000Y-52070000D03*
X79248000Y-51054000D03*
X78232000Y-52070000D03*
X78232000Y-51054000D03*
X79248000Y-52070000D03*
X108712000Y-63119000D03*
X108712000Y-61722000D03*
X109093000Y-29845000D03*
X102616000Y-36576000D03*
X100266500Y-64305210D03*
X110871000Y-59055000D03*
X112598200Y-57429400D03*
X105727500Y-24638000D03*
X108267500Y-24638000D03*
X110807500Y-24638000D03*
X91042176Y-41085538D03*
X95885000Y-36576000D03*
X117411500Y-42799000D03*
X113728500Y-36512500D03*
X110617000Y-56197500D03*
X83439000Y-63500000D03*
X65238000Y-48410500D03*
X62674500Y-38798500D03*
X96710500Y-26479500D03*
X101854000Y-32385000D03*
X90297000Y-48704500D03*
X93008500Y-43135500D03*
X91567000Y-46863000D03*
X89890600Y-45212000D03*
X90424000Y-42672000D03*
X89154000Y-38862000D03*
X65214500Y-45910500D03*
X63881000Y-38798500D03*
X89408000Y-36830000D03*
X92964000Y-36830000D03*
X65238000Y-43410500D03*
X65238000Y-38822000D03*
X98552000Y-33083500D03*
X109664500Y-31686500D03*
X97663000Y-43497500D03*
X97663000Y-44386500D03*
X97663000Y-45275500D03*
X92964000Y-45720000D03*
X90678000Y-35814000D03*
X90424000Y-40640000D03*
X94712600Y-36322000D03*
X100457000Y-42545000D03*
X101092000Y-43370500D03*
X95783401Y-24612599D03*
X101028500Y-44259500D03*
X95250000Y-25463500D03*
X89662000Y-22479000D03*
X88011000Y-49657000D03*
X107632500Y-58293000D03*
X87884000Y-44196000D03*
X87884000Y-46482000D03*
X93980000Y-24638000D03*
D17*
X111252000Y-68072000D02*
X110109000Y-68072000D01*
X107442000Y-65405000D02*
X107442000Y-62865000D01*
X108331000Y-66294000D02*
X108331000Y-66167000D01*
X110109000Y-68072000D02*
X108331000Y-66294000D01*
X108331000Y-66294000D02*
X107442000Y-65405000D01*
X108331000Y-66167000D02*
X111887000Y-62611000D01*
X111887000Y-62611000D02*
X111887000Y-58547000D01*
X111887000Y-58547000D02*
X111887000Y-53213000D01*
X111887000Y-53213000D02*
X110236000Y-51562000D01*
D18*
X81788000Y-67818000D02*
X81788000Y-67056000D01*
X81167000Y-66435000D02*
X81167000Y-65341500D01*
X81788000Y-67056000D02*
X81167000Y-66435000D01*
X97282000Y-64135000D02*
X97409000Y-64135000D01*
X98996500Y-62547500D02*
X98996500Y-62230000D01*
X97409000Y-64135000D02*
X98996500Y-62547500D01*
X98996500Y-62230000D02*
X99949000Y-62230000D01*
X101981000Y-64262000D02*
X101981000Y-64287400D01*
X99949000Y-62230000D02*
X101981000Y-64262000D01*
X110236000Y-51562000D02*
X110236000Y-47752000D01*
X117220000Y-40768000D02*
X123634500Y-40768000D01*
X110236000Y-47752000D02*
X117220000Y-40768000D01*
D17*
X108712000Y-63119000D02*
X108712000Y-61722000D01*
D18*
X110248701Y-31000701D02*
X110248701Y-32499299D01*
X109093000Y-29845000D02*
X110248701Y-31000701D01*
X110248701Y-32499299D02*
X106172000Y-36576000D01*
X106172000Y-36576000D02*
X102616000Y-36576000D01*
X99471500Y-63980000D02*
X99753500Y-64262000D01*
X98996500Y-63980000D02*
X99471500Y-63980000D01*
X100223290Y-64262000D02*
X100266500Y-64305210D01*
X99753500Y-64262000D02*
X100223290Y-64262000D01*
X98107500Y-66357500D02*
X99695000Y-67945000D01*
X104598099Y-66618415D02*
X104598099Y-64569151D01*
X103271514Y-67945000D02*
X104598099Y-66618415D01*
X99695000Y-67945000D02*
X103271514Y-67945000D01*
X104598099Y-64569151D02*
X107126125Y-62041125D01*
X107126125Y-62041125D02*
X110047125Y-59120125D01*
X110047125Y-59120125D02*
X110112250Y-59055000D01*
X110112250Y-59055000D02*
X110871000Y-59055000D01*
X121259600Y-48768000D02*
X123634500Y-48768000D01*
X112598200Y-57429400D02*
X121259600Y-48768000D01*
D19*
X105727500Y-24638000D02*
X110807500Y-24638000D01*
D18*
X91059000Y-41211500D02*
X91249500Y-41211500D01*
X91249500Y-41211500D02*
X95885000Y-36576000D01*
X117411500Y-42799000D02*
X118531000Y-42799000D01*
X118531000Y-46776000D02*
X118507500Y-46799500D01*
X118531000Y-42799000D02*
X118531000Y-46776000D01*
X113728500Y-36512500D02*
X113728500Y-26162000D01*
X112204500Y-24638000D02*
X110807500Y-24638000D01*
X113728500Y-26162000D02*
X112204500Y-24638000D01*
X95567500Y-64170500D02*
X95532000Y-64135000D01*
X96591090Y-64889410D02*
X96329500Y-65151000D01*
X103703090Y-64889410D02*
X96591090Y-64889410D01*
X110617000Y-57975500D02*
X103703090Y-64889410D01*
X96329500Y-65151000D02*
X95567500Y-65151000D01*
X110617000Y-56197500D02*
X110617000Y-57975500D01*
X95567500Y-65151000D02*
X95567500Y-64170500D01*
X95567500Y-66357500D02*
X95567500Y-65151000D01*
X82917000Y-65341500D02*
X82917000Y-64022000D01*
X82917000Y-64022000D02*
X83439000Y-63500000D01*
X94897000Y-63500000D02*
X95532000Y-64135000D01*
X83439000Y-63500000D02*
X94897000Y-63500000D01*
D19*
X65238000Y-48410500D02*
X64222000Y-48410500D01*
X62674500Y-46863000D02*
X62674500Y-38798500D01*
X64222000Y-48410500D02*
X62674500Y-46863000D01*
X96710500Y-26479500D02*
X96710500Y-28702000D01*
X96710500Y-28702000D02*
X96710500Y-29210000D01*
X99885500Y-32385000D02*
X101854000Y-32385000D01*
X96710500Y-29210000D02*
X99885500Y-32385000D01*
D18*
X90297000Y-48704500D02*
X91884500Y-48704500D01*
X93548201Y-47040799D02*
X93548201Y-44145201D01*
X91884500Y-48704500D02*
X93548201Y-47040799D01*
X93548201Y-44145201D02*
X93027500Y-43624500D01*
X93027500Y-43154500D02*
X93008500Y-43135500D01*
X93027500Y-43624500D02*
X93027500Y-43154500D01*
D19*
X91567000Y-46863000D02*
X89916000Y-45212000D01*
X89916000Y-45212000D02*
X89890600Y-45212000D01*
X90424000Y-42672000D02*
X89154000Y-41402000D01*
X89154000Y-41402000D02*
X89154000Y-38862000D01*
X65214500Y-45910500D02*
X64325500Y-45910500D01*
X64325500Y-45910500D02*
X63881000Y-45466000D01*
X63881000Y-45466000D02*
X63881000Y-38798500D01*
X89408000Y-36830000D02*
X92964000Y-36830000D01*
X65238000Y-43410500D02*
X65238000Y-38822000D01*
X98552000Y-33083500D02*
X108267500Y-33083500D01*
X108267500Y-33083500D02*
X109664500Y-31686500D01*
X99116000Y-19629000D02*
X99116000Y-18100000D01*
X94633316Y-24111684D02*
X99116000Y-19629000D01*
X97256618Y-43091118D02*
X97256618Y-35942486D01*
X94633316Y-33319184D02*
X94633316Y-24111684D01*
X97256618Y-35942486D02*
X94633316Y-33319184D01*
X97663000Y-43497500D02*
X97256618Y-43091118D01*
X94036000Y-19438500D02*
X94036000Y-18100000D01*
X89260810Y-24213690D02*
X94036000Y-19438500D01*
X89260810Y-28377744D02*
X89260810Y-24213690D01*
X96951809Y-36068743D02*
X89260810Y-28377744D01*
X96951810Y-44183310D02*
X96951809Y-36068743D01*
X97155000Y-44386500D02*
X96951810Y-44183310D01*
X97663000Y-44386500D02*
X97155000Y-44386500D01*
X97155000Y-45275500D02*
X97663000Y-45275500D01*
X96647000Y-44767500D02*
X97155000Y-45275500D01*
X96647000Y-36195000D02*
X96647000Y-44767500D01*
X88956000Y-28504000D02*
X96647000Y-36195000D01*
X88956000Y-18100000D02*
X88956000Y-28504000D01*
X92964000Y-45720000D02*
X92456000Y-45720000D01*
X88620599Y-36827967D02*
X89634566Y-35814000D01*
X88620599Y-41884599D02*
X88620599Y-36827967D01*
X92456000Y-45720000D02*
X88620599Y-41884599D01*
X89634566Y-35814000D02*
X90678000Y-35814000D01*
X90424000Y-40640000D02*
X93980000Y-37084000D01*
X93980000Y-37084000D02*
X94742000Y-36322000D01*
X94742000Y-36322000D02*
X94712600Y-36322000D01*
X96710500Y-24193500D02*
X101656000Y-19248000D01*
X95872310Y-26288256D02*
X96710500Y-25450066D01*
X101656000Y-19248000D02*
X101656000Y-18100000D01*
X95871219Y-27493665D02*
X95872310Y-27492574D01*
X95871219Y-33263889D02*
X95871219Y-27493665D01*
X96710500Y-25450066D02*
X96710500Y-24193500D01*
X98171045Y-35563715D02*
X95871219Y-33263889D01*
X95872310Y-27492574D02*
X95872310Y-26288256D01*
X98171046Y-41847986D02*
X98171045Y-35563715D01*
X98868060Y-42545000D02*
X98171046Y-41847986D01*
X100457000Y-42545000D02*
X98868060Y-42545000D01*
X101092000Y-43370500D02*
X99262494Y-43370500D01*
X99262494Y-43370500D02*
X97866236Y-41974242D01*
X97866236Y-41974242D02*
X97866236Y-37515764D01*
X97866236Y-37515764D02*
X97866236Y-36753764D01*
X97866236Y-36753764D02*
X97866236Y-35689972D01*
X97866236Y-35689972D02*
X95921632Y-33745368D01*
X95921632Y-33745368D02*
X95699382Y-33523118D01*
X95699382Y-33523118D02*
X95566409Y-33390145D01*
X95566409Y-33390145D02*
X95566409Y-27813000D01*
X95566409Y-27367409D02*
X95567500Y-27366318D01*
X95566409Y-27813000D02*
X95566409Y-27367409D01*
X95567500Y-27366318D02*
X95567500Y-26162000D01*
X95783401Y-25946099D02*
X95783401Y-24612599D01*
X95567500Y-26162000D02*
X95783401Y-25946099D01*
X101028500Y-44259500D02*
X99720428Y-44259500D01*
X99720428Y-44259500D02*
X97561428Y-42100500D01*
X97561428Y-42100500D02*
X97561427Y-35816229D01*
X97561427Y-35816229D02*
X95261599Y-33516401D01*
X95261599Y-27547401D02*
X95250000Y-27535802D01*
X95261599Y-33516401D02*
X95261599Y-27547401D01*
X95250000Y-27535802D02*
X95250000Y-25463500D01*
X89662000Y-22479000D02*
X89662000Y-21590000D01*
X91496000Y-19756000D02*
X91496000Y-18100000D01*
X89662000Y-21590000D02*
X91496000Y-19756000D01*
X88011000Y-49657000D02*
X95059500Y-49657000D01*
X95059500Y-49657000D02*
X103695500Y-58293000D01*
X103695500Y-58293000D02*
X107632500Y-58293000D01*
X87884000Y-44196000D02*
X87884000Y-46482000D01*
X123603500Y-42799000D02*
X123634500Y-42768000D01*
X120356000Y-42799000D02*
X123603500Y-42799000D01*
X123634000Y-44767500D02*
X123634500Y-44768000D01*
X120356000Y-44767500D02*
X123634000Y-44767500D01*
X123603000Y-46799500D02*
X123634500Y-46768000D01*
X120332500Y-46799500D02*
X123603000Y-46799500D01*
X93980000Y-24638000D02*
X93980000Y-24333934D01*
X96576000Y-21737934D02*
X96576000Y-18100000D01*
X93980000Y-24333934D02*
X96576000Y-21737934D01*
X82109471Y-24983114D02*
X82166668Y-25021332D01*
X82204886Y-25078529D01*
X82219800Y-25153506D01*
X82219800Y-58674000D01*
X82221264Y-58688866D01*
X82240599Y-58786068D01*
X82244935Y-58800363D01*
X82251977Y-58813536D01*
X82307037Y-58895939D01*
X82316513Y-58907487D01*
X82328061Y-58916963D01*
X82410464Y-58972023D01*
X82423637Y-58979065D01*
X82437932Y-58983401D01*
X82535134Y-59002736D01*
X82550000Y-59004200D01*
X97782494Y-59004200D01*
X97857471Y-59019114D01*
X97914668Y-59057332D01*
X97952886Y-59114529D01*
X97967800Y-59189506D01*
X97967800Y-62730494D01*
X97952886Y-62805471D01*
X97914668Y-62862668D01*
X97857471Y-62900886D01*
X97782494Y-62915800D01*
X77477506Y-62915800D01*
X77402529Y-62900886D01*
X77345332Y-62862668D01*
X77307114Y-62805471D01*
X77292200Y-62730494D01*
X77292200Y-25153506D01*
X77307114Y-25078529D01*
X77345332Y-25021332D01*
X77402529Y-24983114D01*
X77477506Y-24968200D01*
X82034494Y-24968200D01*
X82109471Y-24983114D01*
G04 #@! TA.AperFunction,Conductor*
D20*
G36*
X82109471Y-24983114D02*
G01*
X82166668Y-25021332D01*
X82204886Y-25078529D01*
X82219800Y-25153506D01*
X82219800Y-58674000D01*
X82221264Y-58688866D01*
X82240599Y-58786068D01*
X82244935Y-58800363D01*
X82251977Y-58813536D01*
X82307037Y-58895939D01*
X82316513Y-58907487D01*
X82328061Y-58916963D01*
X82410464Y-58972023D01*
X82423637Y-58979065D01*
X82437932Y-58983401D01*
X82535134Y-59002736D01*
X82550000Y-59004200D01*
X97782494Y-59004200D01*
X97857471Y-59019114D01*
X97914668Y-59057332D01*
X97952886Y-59114529D01*
X97967800Y-59189506D01*
X97967800Y-62730494D01*
X97952886Y-62805471D01*
X97914668Y-62862668D01*
X97857471Y-62900886D01*
X97782494Y-62915800D01*
X77477506Y-62915800D01*
X77402529Y-62900886D01*
X77345332Y-62862668D01*
X77307114Y-62805471D01*
X77292200Y-62730494D01*
X77292200Y-25153506D01*
X77307114Y-25078529D01*
X77345332Y-25021332D01*
X77402529Y-24983114D01*
X77477506Y-24968200D01*
X82034494Y-24968200D01*
X82109471Y-24983114D01*
G37*
G04 #@! TD.AperFunction*
D19*
X87189471Y-24983114D02*
X87246668Y-25021332D01*
X87284886Y-25078529D01*
X87299800Y-25153506D01*
X87299800Y-53086000D01*
X87301264Y-53100866D01*
X87320599Y-53198068D01*
X87324935Y-53212363D01*
X87331977Y-53225536D01*
X87387037Y-53307939D01*
X87396513Y-53319487D01*
X87408061Y-53328963D01*
X87490464Y-53384023D01*
X87503637Y-53391065D01*
X87517932Y-53395401D01*
X87615134Y-53414736D01*
X87630000Y-53416200D01*
X97782494Y-53416200D01*
X97857471Y-53431114D01*
X97914668Y-53469332D01*
X97952886Y-53526529D01*
X97967800Y-53601506D01*
X97967800Y-58666494D01*
X97955127Y-58730204D01*
X97931800Y-58723128D01*
X97834598Y-58703793D01*
X97790000Y-58699400D01*
X82572513Y-58699400D01*
X82541994Y-58693329D01*
X82535206Y-58688794D01*
X82530671Y-58682006D01*
X82524600Y-58651487D01*
X82524600Y-25146000D01*
X82520207Y-25101402D01*
X82500872Y-25004200D01*
X82493796Y-24980873D01*
X82557506Y-24968200D01*
X87114494Y-24968200D01*
X87189471Y-24983114D01*
G04 #@! TA.AperFunction,Conductor*
D20*
G36*
X87189471Y-24983114D02*
G01*
X87246668Y-25021332D01*
X87284886Y-25078529D01*
X87299800Y-25153506D01*
X87299800Y-53086000D01*
X87301264Y-53100866D01*
X87320599Y-53198068D01*
X87324935Y-53212363D01*
X87331977Y-53225536D01*
X87387037Y-53307939D01*
X87396513Y-53319487D01*
X87408061Y-53328963D01*
X87490464Y-53384023D01*
X87503637Y-53391065D01*
X87517932Y-53395401D01*
X87615134Y-53414736D01*
X87630000Y-53416200D01*
X97782494Y-53416200D01*
X97857471Y-53431114D01*
X97914668Y-53469332D01*
X97952886Y-53526529D01*
X97967800Y-53601506D01*
X97967800Y-58666494D01*
X97955127Y-58730204D01*
X97931800Y-58723128D01*
X97834598Y-58703793D01*
X97790000Y-58699400D01*
X82572513Y-58699400D01*
X82541994Y-58693329D01*
X82535206Y-58688794D01*
X82530671Y-58682006D01*
X82524600Y-58651487D01*
X82524600Y-25146000D01*
X82520207Y-25101402D01*
X82500872Y-25004200D01*
X82493796Y-24980873D01*
X82557506Y-24968200D01*
X87114494Y-24968200D01*
X87189471Y-24983114D01*
G37*
G04 #@! TD.AperFunction*
D19*
X105313181Y-24978023D02*
X105387477Y-25052319D01*
X105474840Y-25110693D01*
X105571913Y-25150902D01*
X105674965Y-25171400D01*
X105780035Y-25171400D01*
X105883087Y-25150902D01*
X105980160Y-25110693D01*
X106067523Y-25052319D01*
X106141819Y-24978023D01*
X106148382Y-24968200D01*
X107846618Y-24968200D01*
X107853181Y-24978023D01*
X107927477Y-25052319D01*
X108014840Y-25110693D01*
X108111913Y-25150902D01*
X108214965Y-25171400D01*
X108320035Y-25171400D01*
X108423087Y-25150902D01*
X108520160Y-25110693D01*
X108607523Y-25052319D01*
X108681819Y-24978023D01*
X108688382Y-24968200D01*
X110386618Y-24968200D01*
X110393181Y-24978023D01*
X110467477Y-25052319D01*
X110554840Y-25110693D01*
X110651913Y-25150902D01*
X110754965Y-25171400D01*
X110860035Y-25171400D01*
X110963087Y-25150902D01*
X111060160Y-25110693D01*
X111147523Y-25052319D01*
X111206242Y-24993600D01*
X112057207Y-24993600D01*
X113372901Y-26309296D01*
X113372900Y-36113758D01*
X113314181Y-36172477D01*
X113255807Y-36259840D01*
X113215598Y-36356913D01*
X113195100Y-36459965D01*
X113195100Y-36565035D01*
X113215598Y-36668087D01*
X113255807Y-36765160D01*
X113314181Y-36852523D01*
X113388477Y-36926819D01*
X113475840Y-36985193D01*
X113572913Y-37025402D01*
X113675965Y-37045900D01*
X113781035Y-37045900D01*
X113884087Y-37025402D01*
X113981160Y-36985193D01*
X114068523Y-36926819D01*
X114142819Y-36852523D01*
X114201193Y-36765160D01*
X114241402Y-36668087D01*
X114261900Y-36565035D01*
X114261900Y-36459965D01*
X114241402Y-36356913D01*
X114201193Y-36259840D01*
X114142819Y-36172477D01*
X114084100Y-36113758D01*
X114084100Y-26179452D01*
X114085819Y-26161999D01*
X114084100Y-26144546D01*
X114084100Y-26144537D01*
X114078954Y-26092290D01*
X114058621Y-26025260D01*
X114025601Y-25963484D01*
X114010786Y-25945432D01*
X113992295Y-25922900D01*
X113992290Y-25922895D01*
X113981163Y-25909337D01*
X113967605Y-25898210D01*
X113037594Y-24968200D01*
X115178970Y-24968200D01*
X115213054Y-24977333D01*
X115230667Y-24994946D01*
X115239800Y-25029030D01*
X115239800Y-37454970D01*
X115230667Y-37489054D01*
X115213054Y-37506667D01*
X115178970Y-37515800D01*
X104267000Y-37515800D01*
X104247278Y-37518397D01*
X104183778Y-37535412D01*
X104169797Y-37540673D01*
X104157112Y-37548562D01*
X104149618Y-37555133D01*
X104103133Y-37601618D01*
X104093657Y-37613166D01*
X104086615Y-37626340D01*
X104083412Y-37635778D01*
X104066397Y-37699278D01*
X104063800Y-37719000D01*
X104063800Y-50154970D01*
X104054667Y-50189054D01*
X104037054Y-50206667D01*
X104002970Y-50215800D01*
X96049351Y-50215800D01*
X95285612Y-49452061D01*
X95276068Y-49440432D01*
X95229657Y-49402342D01*
X95176706Y-49374040D01*
X95119251Y-49356611D01*
X95074466Y-49352200D01*
X95074458Y-49352200D01*
X95059500Y-49350727D01*
X95044542Y-49352200D01*
X88448854Y-49352200D01*
X88425319Y-49316977D01*
X88351023Y-49242681D01*
X88263660Y-49184307D01*
X88166587Y-49144098D01*
X88063535Y-49123600D01*
X87960200Y-49123600D01*
X87960200Y-47010693D01*
X88039587Y-46994902D01*
X88136660Y-46954693D01*
X88224023Y-46896319D01*
X88298319Y-46822023D01*
X88356693Y-46734660D01*
X88396902Y-46637587D01*
X88417400Y-46534535D01*
X88417400Y-46429465D01*
X88396902Y-46326413D01*
X88356693Y-46229340D01*
X88298319Y-46141977D01*
X88224023Y-46067681D01*
X88188800Y-46044146D01*
X88188800Y-45159465D01*
X89357200Y-45159465D01*
X89357200Y-45264535D01*
X89377698Y-45367587D01*
X89417907Y-45464660D01*
X89476281Y-45552023D01*
X89550577Y-45626319D01*
X89637940Y-45684693D01*
X89735013Y-45724902D01*
X89838065Y-45745400D01*
X89943135Y-45745400D01*
X90005870Y-45732921D01*
X91041864Y-46768916D01*
X91033600Y-46810465D01*
X91033600Y-46915535D01*
X91054098Y-47018587D01*
X91094307Y-47115660D01*
X91152681Y-47203023D01*
X91226977Y-47277319D01*
X91314340Y-47335693D01*
X91411413Y-47375902D01*
X91514465Y-47396400D01*
X91619535Y-47396400D01*
X91722587Y-47375902D01*
X91819660Y-47335693D01*
X91907023Y-47277319D01*
X91981319Y-47203023D01*
X92039693Y-47115660D01*
X92079902Y-47018587D01*
X92100400Y-46915535D01*
X92100400Y-46810465D01*
X92079902Y-46707413D01*
X92039693Y-46610340D01*
X91981319Y-46522977D01*
X91907023Y-46448681D01*
X91819660Y-46390307D01*
X91722587Y-46350098D01*
X91619535Y-46329600D01*
X91514465Y-46329600D01*
X91472916Y-46337864D01*
X90419950Y-45284898D01*
X90424000Y-45264535D01*
X90424000Y-45159465D01*
X90403502Y-45056413D01*
X90363293Y-44959340D01*
X90304919Y-44871977D01*
X90230623Y-44797681D01*
X90143260Y-44739307D01*
X90046187Y-44699098D01*
X89943135Y-44678600D01*
X89838065Y-44678600D01*
X89735013Y-44699098D01*
X89637940Y-44739307D01*
X89550577Y-44797681D01*
X89476281Y-44871977D01*
X89417907Y-44959340D01*
X89377698Y-45056413D01*
X89357200Y-45159465D01*
X88188800Y-45159465D01*
X88188800Y-44633854D01*
X88224023Y-44610319D01*
X88298319Y-44536023D01*
X88356693Y-44448660D01*
X88396902Y-44351587D01*
X88417400Y-44248535D01*
X88417400Y-44143465D01*
X88396902Y-44040413D01*
X88356693Y-43943340D01*
X88298319Y-43855977D01*
X88224023Y-43781681D01*
X88136660Y-43723307D01*
X88039587Y-43683098D01*
X87960200Y-43667307D01*
X87960200Y-36827967D01*
X88314326Y-36827967D01*
X88315800Y-36842935D01*
X88315799Y-41869641D01*
X88314326Y-41884599D01*
X88315799Y-41899557D01*
X88315799Y-41899564D01*
X88320210Y-41944349D01*
X88337639Y-42001804D01*
X88365941Y-42054755D01*
X88404031Y-42101167D01*
X88415660Y-42110711D01*
X92229892Y-45924944D01*
X92239432Y-45936568D01*
X92285843Y-45974658D01*
X92338794Y-46002960D01*
X92396248Y-46020389D01*
X92401889Y-46020945D01*
X92441034Y-46024800D01*
X92441041Y-46024800D01*
X92455999Y-46026273D01*
X92470957Y-46024800D01*
X92526146Y-46024800D01*
X92549681Y-46060023D01*
X92623977Y-46134319D01*
X92711340Y-46192693D01*
X92808413Y-46232902D01*
X92911465Y-46253400D01*
X93016535Y-46253400D01*
X93119587Y-46232902D01*
X93192601Y-46202658D01*
X93192601Y-46893505D01*
X91737207Y-48348900D01*
X90695742Y-48348900D01*
X90637023Y-48290181D01*
X90549660Y-48231807D01*
X90452587Y-48191598D01*
X90349535Y-48171100D01*
X90244465Y-48171100D01*
X90141413Y-48191598D01*
X90044340Y-48231807D01*
X89956977Y-48290181D01*
X89882681Y-48364477D01*
X89824307Y-48451840D01*
X89784098Y-48548913D01*
X89763600Y-48651965D01*
X89763600Y-48757035D01*
X89784098Y-48860087D01*
X89824307Y-48957160D01*
X89882681Y-49044523D01*
X89956977Y-49118819D01*
X90044340Y-49177193D01*
X90141413Y-49217402D01*
X90244465Y-49237900D01*
X90349535Y-49237900D01*
X90452587Y-49217402D01*
X90549660Y-49177193D01*
X90637023Y-49118819D01*
X90695742Y-49060100D01*
X91867045Y-49060100D01*
X91884500Y-49061819D01*
X91901955Y-49060100D01*
X91901963Y-49060100D01*
X91954210Y-49054954D01*
X92021240Y-49034621D01*
X92083016Y-49001601D01*
X92137163Y-48957163D01*
X92148299Y-48943594D01*
X93787305Y-47304589D01*
X93800863Y-47293462D01*
X93811991Y-47279903D01*
X93811996Y-47279898D01*
X93845302Y-47239315D01*
X93845303Y-47239314D01*
X93878322Y-47177539D01*
X93898655Y-47110509D01*
X93903801Y-47058262D01*
X93903801Y-47058254D01*
X93905520Y-47040799D01*
X93903801Y-47023344D01*
X93903801Y-44162653D01*
X93905520Y-44145200D01*
X93903801Y-44127747D01*
X93903801Y-44127738D01*
X93898655Y-44075491D01*
X93878322Y-44008461D01*
X93845302Y-43946685D01*
X93840045Y-43940279D01*
X93811996Y-43906101D01*
X93811991Y-43906096D01*
X93800864Y-43892538D01*
X93787306Y-43881411D01*
X93402118Y-43496224D01*
X93422819Y-43475523D01*
X93481193Y-43388160D01*
X93521402Y-43291087D01*
X93541900Y-43188035D01*
X93541900Y-43082965D01*
X93521402Y-42979913D01*
X93481193Y-42882840D01*
X93422819Y-42795477D01*
X93348523Y-42721181D01*
X93261160Y-42662807D01*
X93164087Y-42622598D01*
X93061035Y-42602100D01*
X92955965Y-42602100D01*
X92852913Y-42622598D01*
X92755840Y-42662807D01*
X92668477Y-42721181D01*
X92594181Y-42795477D01*
X92535807Y-42882840D01*
X92495598Y-42979913D01*
X92475100Y-43082965D01*
X92475100Y-43188035D01*
X92495598Y-43291087D01*
X92535807Y-43388160D01*
X92594181Y-43475523D01*
X92668477Y-43549819D01*
X92671900Y-43552106D01*
X92671900Y-43607044D01*
X92670181Y-43624500D01*
X92671900Y-43641955D01*
X92671900Y-43641962D01*
X92677046Y-43694209D01*
X92697379Y-43761239D01*
X92730399Y-43823015D01*
X92774837Y-43877162D01*
X92788401Y-43888294D01*
X93192602Y-44292497D01*
X93192602Y-45237342D01*
X93119587Y-45207098D01*
X93016535Y-45186600D01*
X92911465Y-45186600D01*
X92808413Y-45207098D01*
X92711340Y-45247307D01*
X92623977Y-45305681D01*
X92549681Y-45379977D01*
X92548619Y-45381567D01*
X90372451Y-43205400D01*
X90476535Y-43205400D01*
X90579587Y-43184902D01*
X90676660Y-43144693D01*
X90764023Y-43086319D01*
X90838319Y-43012023D01*
X90896693Y-42924660D01*
X90936902Y-42827587D01*
X90957400Y-42724535D01*
X90957400Y-42619465D01*
X90936902Y-42516413D01*
X90896693Y-42419340D01*
X90838319Y-42331977D01*
X90764023Y-42257681D01*
X90676660Y-42199307D01*
X90579587Y-42159098D01*
X90476535Y-42138600D01*
X90371465Y-42138600D01*
X90329916Y-42146864D01*
X89458800Y-41275749D01*
X89458800Y-39299854D01*
X89494023Y-39276319D01*
X89568319Y-39202023D01*
X89626693Y-39114660D01*
X89666902Y-39017587D01*
X89687400Y-38914535D01*
X89687400Y-38809465D01*
X89666902Y-38706413D01*
X89626693Y-38609340D01*
X89568319Y-38521977D01*
X89494023Y-38447681D01*
X89406660Y-38389307D01*
X89309587Y-38349098D01*
X89206535Y-38328600D01*
X89101465Y-38328600D01*
X88998413Y-38349098D01*
X88925399Y-38379341D01*
X88925399Y-37058740D01*
X88935307Y-37082660D01*
X88993681Y-37170023D01*
X89067977Y-37244319D01*
X89155340Y-37302693D01*
X89252413Y-37342902D01*
X89355465Y-37363400D01*
X89460535Y-37363400D01*
X89563587Y-37342902D01*
X89660660Y-37302693D01*
X89748023Y-37244319D01*
X89822319Y-37170023D01*
X89845854Y-37134800D01*
X92526146Y-37134800D01*
X92549681Y-37170023D01*
X92623977Y-37244319D01*
X92711340Y-37302693D01*
X92808413Y-37342902D01*
X92911465Y-37363400D01*
X93016535Y-37363400D01*
X93119587Y-37342902D01*
X93216660Y-37302693D01*
X93304023Y-37244319D01*
X93378319Y-37170023D01*
X93436693Y-37082660D01*
X93476902Y-36985587D01*
X93497400Y-36882535D01*
X93497400Y-36777465D01*
X93476902Y-36674413D01*
X93436693Y-36577340D01*
X93378319Y-36489977D01*
X93304023Y-36415681D01*
X93216660Y-36357307D01*
X93119587Y-36317098D01*
X93016535Y-36296600D01*
X92911465Y-36296600D01*
X92808413Y-36317098D01*
X92711340Y-36357307D01*
X92623977Y-36415681D01*
X92549681Y-36489977D01*
X92526146Y-36525200D01*
X89845854Y-36525200D01*
X89822319Y-36489977D01*
X89748023Y-36415681D01*
X89660660Y-36357307D01*
X89563587Y-36317098D01*
X89562697Y-36316921D01*
X89760818Y-36118800D01*
X90240146Y-36118800D01*
X90263681Y-36154023D01*
X90337977Y-36228319D01*
X90425340Y-36286693D01*
X90522413Y-36326902D01*
X90625465Y-36347400D01*
X90730535Y-36347400D01*
X90833587Y-36326902D01*
X90930660Y-36286693D01*
X91018023Y-36228319D01*
X91092319Y-36154023D01*
X91150693Y-36066660D01*
X91190902Y-35969587D01*
X91211400Y-35866535D01*
X91211400Y-35761465D01*
X91190902Y-35658413D01*
X91150693Y-35561340D01*
X91092319Y-35473977D01*
X91018023Y-35399681D01*
X90930660Y-35341307D01*
X90833587Y-35301098D01*
X90730535Y-35280600D01*
X90625465Y-35280600D01*
X90522413Y-35301098D01*
X90425340Y-35341307D01*
X90337977Y-35399681D01*
X90263681Y-35473977D01*
X90240146Y-35509200D01*
X89649524Y-35509200D01*
X89634566Y-35507727D01*
X89619608Y-35509200D01*
X89619600Y-35509200D01*
X89579969Y-35513103D01*
X89574814Y-35513611D01*
X89554363Y-35519815D01*
X89517360Y-35531040D01*
X89464409Y-35559342D01*
X89417998Y-35597432D01*
X89408458Y-35609056D01*
X88415656Y-36601859D01*
X88404032Y-36611399D01*
X88365942Y-36657810D01*
X88360449Y-36668087D01*
X88337639Y-36710762D01*
X88320210Y-36768216D01*
X88314326Y-36827967D01*
X87960200Y-36827967D01*
X87960200Y-34173030D01*
X87969333Y-34138946D01*
X87986946Y-34121333D01*
X88021030Y-34112200D01*
X94133148Y-34112200D01*
X96114775Y-36093828D01*
X96040587Y-36063098D01*
X95937535Y-36042600D01*
X95832465Y-36042600D01*
X95729413Y-36063098D01*
X95632340Y-36103307D01*
X95544977Y-36161681D01*
X95470681Y-36235977D01*
X95412307Y-36323340D01*
X95372098Y-36420413D01*
X95351600Y-36523465D01*
X95351600Y-36606506D01*
X91325064Y-40633043D01*
X91294836Y-40612845D01*
X91197763Y-40572636D01*
X91094711Y-40552138D01*
X90989641Y-40552138D01*
X90951868Y-40559651D01*
X90949135Y-40545916D01*
X94206108Y-37288944D01*
X94206112Y-37288939D01*
X94643038Y-36852013D01*
X94660065Y-36855400D01*
X94765135Y-36855400D01*
X94868187Y-36834902D01*
X94965260Y-36794693D01*
X95052623Y-36736319D01*
X95126919Y-36662023D01*
X95185293Y-36574660D01*
X95225502Y-36477587D01*
X95246000Y-36374535D01*
X95246000Y-36269465D01*
X95225502Y-36166413D01*
X95185293Y-36069340D01*
X95126919Y-35981977D01*
X95052623Y-35907681D01*
X94965260Y-35849307D01*
X94868187Y-35809098D01*
X94765135Y-35788600D01*
X94660065Y-35788600D01*
X94557013Y-35809098D01*
X94459940Y-35849307D01*
X94372577Y-35907681D01*
X94298281Y-35981977D01*
X94239907Y-36069340D01*
X94199698Y-36166413D01*
X94179200Y-36269465D01*
X94179200Y-36374535D01*
X94192342Y-36440606D01*
X93775061Y-36857888D01*
X93775056Y-36857892D01*
X90518084Y-40114865D01*
X90476535Y-40106600D01*
X90371465Y-40106600D01*
X90268413Y-40127098D01*
X90171340Y-40167307D01*
X90083977Y-40225681D01*
X90009681Y-40299977D01*
X89951307Y-40387340D01*
X89911098Y-40484413D01*
X89890600Y-40587465D01*
X89890600Y-40692535D01*
X89911098Y-40795587D01*
X89951307Y-40892660D01*
X90009681Y-40980023D01*
X90083977Y-41054319D01*
X90171340Y-41112693D01*
X90268413Y-41152902D01*
X90371465Y-41173400D01*
X90476535Y-41173400D01*
X90514308Y-41165887D01*
X90529274Y-41241125D01*
X90569483Y-41338198D01*
X90627857Y-41425561D01*
X90702153Y-41499857D01*
X90789516Y-41558231D01*
X90886589Y-41598440D01*
X90989641Y-41618938D01*
X91094711Y-41618938D01*
X91197763Y-41598440D01*
X91275440Y-41566265D01*
X91319210Y-41561954D01*
X91386240Y-41541621D01*
X91448016Y-41508601D01*
X91502163Y-41464163D01*
X91513299Y-41450594D01*
X95854494Y-37109400D01*
X95937535Y-37109400D01*
X96040587Y-37088902D01*
X96137660Y-37048693D01*
X96225023Y-36990319D01*
X96299319Y-36916023D01*
X96342200Y-36851847D01*
X96342201Y-44752532D01*
X96340727Y-44767500D01*
X96346611Y-44827251D01*
X96364040Y-44884705D01*
X96364041Y-44884706D01*
X96392343Y-44937657D01*
X96430433Y-44984068D01*
X96442056Y-44993607D01*
X96928892Y-45480444D01*
X96938432Y-45492068D01*
X96950056Y-45501608D01*
X96958767Y-45508757D01*
X96984843Y-45530158D01*
X97037794Y-45558460D01*
X97077819Y-45570602D01*
X97095248Y-45575889D01*
X97100889Y-45576445D01*
X97140034Y-45580300D01*
X97140041Y-45580300D01*
X97154999Y-45581773D01*
X97169957Y-45580300D01*
X97225146Y-45580300D01*
X97248681Y-45615523D01*
X97322977Y-45689819D01*
X97410340Y-45748193D01*
X97507413Y-45788402D01*
X97610465Y-45808900D01*
X97715535Y-45808900D01*
X97818587Y-45788402D01*
X97915660Y-45748193D01*
X98003023Y-45689819D01*
X98077319Y-45615523D01*
X98135693Y-45528160D01*
X98175902Y-45431087D01*
X98196400Y-45328035D01*
X98196400Y-45222965D01*
X98175902Y-45119913D01*
X98135693Y-45022840D01*
X98077319Y-44935477D01*
X98003023Y-44861181D01*
X97957854Y-44831000D01*
X98003023Y-44800819D01*
X98077319Y-44726523D01*
X98135693Y-44639160D01*
X98175902Y-44542087D01*
X98196400Y-44439035D01*
X98196400Y-44333965D01*
X98175902Y-44230913D01*
X98135693Y-44133840D01*
X98077319Y-44046477D01*
X98003023Y-43972181D01*
X97957854Y-43942000D01*
X98003023Y-43911819D01*
X98077319Y-43837523D01*
X98135693Y-43750160D01*
X98175902Y-43653087D01*
X98196400Y-43550035D01*
X98196400Y-43444965D01*
X98175902Y-43341913D01*
X98135693Y-43244840D01*
X98077319Y-43157477D01*
X98003023Y-43083181D01*
X97915660Y-43024807D01*
X97818587Y-42984598D01*
X97715535Y-42964100D01*
X97610465Y-42964100D01*
X97568916Y-42972365D01*
X97561418Y-42964867D01*
X97561418Y-42531541D01*
X99494320Y-44464444D01*
X99503860Y-44476068D01*
X99550271Y-44514158D01*
X99591179Y-44536023D01*
X99603222Y-44542460D01*
X99660676Y-44559889D01*
X99666317Y-44560445D01*
X99705462Y-44564300D01*
X99705469Y-44564300D01*
X99720427Y-44565773D01*
X99735385Y-44564300D01*
X100590646Y-44564300D01*
X100614181Y-44599523D01*
X100688477Y-44673819D01*
X100775840Y-44732193D01*
X100872913Y-44772402D01*
X100975965Y-44792900D01*
X101081035Y-44792900D01*
X101184087Y-44772402D01*
X101281160Y-44732193D01*
X101368523Y-44673819D01*
X101442819Y-44599523D01*
X101501193Y-44512160D01*
X101541402Y-44415087D01*
X101561900Y-44312035D01*
X101561900Y-44206965D01*
X101541402Y-44103913D01*
X101501193Y-44006840D01*
X101442819Y-43919477D01*
X101368523Y-43845181D01*
X101355104Y-43836215D01*
X101432023Y-43784819D01*
X101506319Y-43710523D01*
X101564693Y-43623160D01*
X101604902Y-43526087D01*
X101625400Y-43423035D01*
X101625400Y-43317965D01*
X101604902Y-43214913D01*
X101564693Y-43117840D01*
X101506319Y-43030477D01*
X101432023Y-42956181D01*
X101344660Y-42897807D01*
X101247587Y-42857598D01*
X101144535Y-42837100D01*
X101039465Y-42837100D01*
X100936413Y-42857598D01*
X100871746Y-42884384D01*
X100929693Y-42797660D01*
X100969902Y-42700587D01*
X100990400Y-42597535D01*
X100990400Y-42492465D01*
X100969902Y-42389413D01*
X100929693Y-42292340D01*
X100871319Y-42204977D01*
X100797023Y-42130681D01*
X100709660Y-42072307D01*
X100612587Y-42032098D01*
X100509535Y-42011600D01*
X100404465Y-42011600D01*
X100301413Y-42032098D01*
X100204340Y-42072307D01*
X100116977Y-42130681D01*
X100042681Y-42204977D01*
X100019146Y-42240200D01*
X98994312Y-42240200D01*
X98475846Y-41721735D01*
X98475844Y-35578682D01*
X98477318Y-35563714D01*
X98471434Y-35503963D01*
X98454005Y-35446509D01*
X98425702Y-35393558D01*
X98397153Y-35358771D01*
X98397147Y-35358765D01*
X98387612Y-35347147D01*
X98375994Y-35337612D01*
X97064815Y-34026434D01*
X97064867Y-34026382D01*
X97074343Y-34014834D01*
X97081385Y-34001660D01*
X97084588Y-33992222D01*
X97101603Y-33928722D01*
X97104200Y-33909000D01*
X97104200Y-30034751D01*
X99659392Y-32589944D01*
X99668932Y-32601568D01*
X99715343Y-32639658D01*
X99768294Y-32667960D01*
X99825748Y-32685389D01*
X99831389Y-32685945D01*
X99870534Y-32689800D01*
X99870541Y-32689800D01*
X99885499Y-32691273D01*
X99900457Y-32689800D01*
X101416146Y-32689800D01*
X101439681Y-32725023D01*
X101493358Y-32778700D01*
X98989854Y-32778700D01*
X98966319Y-32743477D01*
X98892023Y-32669181D01*
X98804660Y-32610807D01*
X98707587Y-32570598D01*
X98604535Y-32550100D01*
X98499465Y-32550100D01*
X98396413Y-32570598D01*
X98299340Y-32610807D01*
X98211977Y-32669181D01*
X98137681Y-32743477D01*
X98079307Y-32830840D01*
X98039098Y-32927913D01*
X98018600Y-33030965D01*
X98018600Y-33136035D01*
X98039098Y-33239087D01*
X98079307Y-33336160D01*
X98137681Y-33423523D01*
X98211977Y-33497819D01*
X98299340Y-33556193D01*
X98396413Y-33596402D01*
X98499465Y-33616900D01*
X98604535Y-33616900D01*
X98707587Y-33596402D01*
X98804660Y-33556193D01*
X98892023Y-33497819D01*
X98966319Y-33423523D01*
X98989854Y-33388300D01*
X108252542Y-33388300D01*
X108267500Y-33389773D01*
X108282458Y-33388300D01*
X108282466Y-33388300D01*
X108327251Y-33383889D01*
X108384706Y-33366460D01*
X108437657Y-33338158D01*
X108484068Y-33300068D01*
X108493612Y-33288439D01*
X109570416Y-32211636D01*
X109611965Y-32219900D01*
X109717035Y-32219900D01*
X109820087Y-32199402D01*
X109893102Y-32169158D01*
X109893102Y-32352004D01*
X106024707Y-36220400D01*
X103014742Y-36220400D01*
X102956023Y-36161681D01*
X102868660Y-36103307D01*
X102771587Y-36063098D01*
X102668535Y-36042600D01*
X102563465Y-36042600D01*
X102460413Y-36063098D01*
X102363340Y-36103307D01*
X102275977Y-36161681D01*
X102201681Y-36235977D01*
X102143307Y-36323340D01*
X102103098Y-36420413D01*
X102082600Y-36523465D01*
X102082600Y-36628535D01*
X102103098Y-36731587D01*
X102143307Y-36828660D01*
X102201681Y-36916023D01*
X102275977Y-36990319D01*
X102363340Y-37048693D01*
X102460413Y-37088902D01*
X102563465Y-37109400D01*
X102668535Y-37109400D01*
X102771587Y-37088902D01*
X102868660Y-37048693D01*
X102956023Y-36990319D01*
X103014742Y-36931600D01*
X106154545Y-36931600D01*
X106172000Y-36933319D01*
X106189455Y-36931600D01*
X106189463Y-36931600D01*
X106241710Y-36926454D01*
X106308740Y-36906121D01*
X106370516Y-36873101D01*
X106424663Y-36828663D01*
X106435799Y-36815094D01*
X110487801Y-32763093D01*
X110501364Y-32751962D01*
X110545802Y-32697815D01*
X110578822Y-32636039D01*
X110599155Y-32569009D01*
X110604301Y-32516762D01*
X110604301Y-32516755D01*
X110606020Y-32499299D01*
X110604301Y-32481844D01*
X110604301Y-31018156D01*
X110606020Y-31000700D01*
X110604301Y-30983245D01*
X110604301Y-30983238D01*
X110599155Y-30930991D01*
X110578822Y-30863961D01*
X110545802Y-30802185D01*
X110540194Y-30795352D01*
X110512496Y-30761602D01*
X110512491Y-30761597D01*
X110501363Y-30748038D01*
X110487805Y-30736911D01*
X109626400Y-29875507D01*
X109626400Y-29792465D01*
X109605902Y-29689413D01*
X109565693Y-29592340D01*
X109507319Y-29504977D01*
X109433023Y-29430681D01*
X109345660Y-29372307D01*
X109248587Y-29332098D01*
X109145535Y-29311600D01*
X109040465Y-29311600D01*
X108937413Y-29332098D01*
X108840340Y-29372307D01*
X108752977Y-29430681D01*
X108678681Y-29504977D01*
X108620307Y-29592340D01*
X108580098Y-29689413D01*
X108559600Y-29792465D01*
X108559600Y-29897535D01*
X108580098Y-30000587D01*
X108620307Y-30097660D01*
X108678681Y-30185023D01*
X108752977Y-30259319D01*
X108840340Y-30317693D01*
X108937413Y-30357902D01*
X109040465Y-30378400D01*
X109123507Y-30378400D01*
X109893101Y-31147995D01*
X109893101Y-31203841D01*
X109820087Y-31173598D01*
X109717035Y-31153100D01*
X109611965Y-31153100D01*
X109508913Y-31173598D01*
X109411840Y-31213807D01*
X109324477Y-31272181D01*
X109250181Y-31346477D01*
X109191807Y-31433840D01*
X109151598Y-31530913D01*
X109131100Y-31633965D01*
X109131100Y-31739035D01*
X109139364Y-31780584D01*
X108141249Y-32778700D01*
X102214642Y-32778700D01*
X102268319Y-32725023D01*
X102326693Y-32637660D01*
X102366902Y-32540587D01*
X102387400Y-32437535D01*
X102387400Y-32332465D01*
X102366902Y-32229413D01*
X102326693Y-32132340D01*
X102268319Y-32044977D01*
X102194023Y-31970681D01*
X102106660Y-31912307D01*
X102009587Y-31872098D01*
X101906535Y-31851600D01*
X101801465Y-31851600D01*
X101698413Y-31872098D01*
X101601340Y-31912307D01*
X101513977Y-31970681D01*
X101439681Y-32044977D01*
X101416146Y-32080200D01*
X100011752Y-32080200D01*
X97104200Y-29172649D01*
X97104200Y-26840142D01*
X97124819Y-26819523D01*
X97183193Y-26732160D01*
X97223402Y-26635087D01*
X97243900Y-26532035D01*
X97243900Y-26426965D01*
X97223402Y-26323913D01*
X97183193Y-26226840D01*
X97124819Y-26139477D01*
X97104200Y-26118858D01*
X97104200Y-25029030D01*
X97113333Y-24994946D01*
X97130946Y-24977333D01*
X97165030Y-24968200D01*
X105306617Y-24968200D01*
X105313181Y-24978023D01*
G04 #@! TA.AperFunction,Conductor*
D20*
G36*
X105313181Y-24978023D02*
G01*
X105387477Y-25052319D01*
X105474840Y-25110693D01*
X105571913Y-25150902D01*
X105674965Y-25171400D01*
X105780035Y-25171400D01*
X105883087Y-25150902D01*
X105980160Y-25110693D01*
X106067523Y-25052319D01*
X106141819Y-24978023D01*
X106148382Y-24968200D01*
X107846618Y-24968200D01*
X107853181Y-24978023D01*
X107927477Y-25052319D01*
X108014840Y-25110693D01*
X108111913Y-25150902D01*
X108214965Y-25171400D01*
X108320035Y-25171400D01*
X108423087Y-25150902D01*
X108520160Y-25110693D01*
X108607523Y-25052319D01*
X108681819Y-24978023D01*
X108688382Y-24968200D01*
X110386618Y-24968200D01*
X110393181Y-24978023D01*
X110467477Y-25052319D01*
X110554840Y-25110693D01*
X110651913Y-25150902D01*
X110754965Y-25171400D01*
X110860035Y-25171400D01*
X110963087Y-25150902D01*
X111060160Y-25110693D01*
X111147523Y-25052319D01*
X111206242Y-24993600D01*
X112057207Y-24993600D01*
X113372901Y-26309296D01*
X113372900Y-36113758D01*
X113314181Y-36172477D01*
X113255807Y-36259840D01*
X113215598Y-36356913D01*
X113195100Y-36459965D01*
X113195100Y-36565035D01*
X113215598Y-36668087D01*
X113255807Y-36765160D01*
X113314181Y-36852523D01*
X113388477Y-36926819D01*
X113475840Y-36985193D01*
X113572913Y-37025402D01*
X113675965Y-37045900D01*
X113781035Y-37045900D01*
X113884087Y-37025402D01*
X113981160Y-36985193D01*
X114068523Y-36926819D01*
X114142819Y-36852523D01*
X114201193Y-36765160D01*
X114241402Y-36668087D01*
X114261900Y-36565035D01*
X114261900Y-36459965D01*
X114241402Y-36356913D01*
X114201193Y-36259840D01*
X114142819Y-36172477D01*
X114084100Y-36113758D01*
X114084100Y-26179452D01*
X114085819Y-26161999D01*
X114084100Y-26144546D01*
X114084100Y-26144537D01*
X114078954Y-26092290D01*
X114058621Y-26025260D01*
X114025601Y-25963484D01*
X114010786Y-25945432D01*
X113992295Y-25922900D01*
X113992290Y-25922895D01*
X113981163Y-25909337D01*
X113967605Y-25898210D01*
X113037594Y-24968200D01*
X115178970Y-24968200D01*
X115213054Y-24977333D01*
X115230667Y-24994946D01*
X115239800Y-25029030D01*
X115239800Y-37454970D01*
X115230667Y-37489054D01*
X115213054Y-37506667D01*
X115178970Y-37515800D01*
X104267000Y-37515800D01*
X104247278Y-37518397D01*
X104183778Y-37535412D01*
X104169797Y-37540673D01*
X104157112Y-37548562D01*
X104149618Y-37555133D01*
X104103133Y-37601618D01*
X104093657Y-37613166D01*
X104086615Y-37626340D01*
X104083412Y-37635778D01*
X104066397Y-37699278D01*
X104063800Y-37719000D01*
X104063800Y-50154970D01*
X104054667Y-50189054D01*
X104037054Y-50206667D01*
X104002970Y-50215800D01*
X96049351Y-50215800D01*
X95285612Y-49452061D01*
X95276068Y-49440432D01*
X95229657Y-49402342D01*
X95176706Y-49374040D01*
X95119251Y-49356611D01*
X95074466Y-49352200D01*
X95074458Y-49352200D01*
X95059500Y-49350727D01*
X95044542Y-49352200D01*
X88448854Y-49352200D01*
X88425319Y-49316977D01*
X88351023Y-49242681D01*
X88263660Y-49184307D01*
X88166587Y-49144098D01*
X88063535Y-49123600D01*
X87960200Y-49123600D01*
X87960200Y-47010693D01*
X88039587Y-46994902D01*
X88136660Y-46954693D01*
X88224023Y-46896319D01*
X88298319Y-46822023D01*
X88356693Y-46734660D01*
X88396902Y-46637587D01*
X88417400Y-46534535D01*
X88417400Y-46429465D01*
X88396902Y-46326413D01*
X88356693Y-46229340D01*
X88298319Y-46141977D01*
X88224023Y-46067681D01*
X88188800Y-46044146D01*
X88188800Y-45159465D01*
X89357200Y-45159465D01*
X89357200Y-45264535D01*
X89377698Y-45367587D01*
X89417907Y-45464660D01*
X89476281Y-45552023D01*
X89550577Y-45626319D01*
X89637940Y-45684693D01*
X89735013Y-45724902D01*
X89838065Y-45745400D01*
X89943135Y-45745400D01*
X90005870Y-45732921D01*
X91041864Y-46768916D01*
X91033600Y-46810465D01*
X91033600Y-46915535D01*
X91054098Y-47018587D01*
X91094307Y-47115660D01*
X91152681Y-47203023D01*
X91226977Y-47277319D01*
X91314340Y-47335693D01*
X91411413Y-47375902D01*
X91514465Y-47396400D01*
X91619535Y-47396400D01*
X91722587Y-47375902D01*
X91819660Y-47335693D01*
X91907023Y-47277319D01*
X91981319Y-47203023D01*
X92039693Y-47115660D01*
X92079902Y-47018587D01*
X92100400Y-46915535D01*
X92100400Y-46810465D01*
X92079902Y-46707413D01*
X92039693Y-46610340D01*
X91981319Y-46522977D01*
X91907023Y-46448681D01*
X91819660Y-46390307D01*
X91722587Y-46350098D01*
X91619535Y-46329600D01*
X91514465Y-46329600D01*
X91472916Y-46337864D01*
X90419950Y-45284898D01*
X90424000Y-45264535D01*
X90424000Y-45159465D01*
X90403502Y-45056413D01*
X90363293Y-44959340D01*
X90304919Y-44871977D01*
X90230623Y-44797681D01*
X90143260Y-44739307D01*
X90046187Y-44699098D01*
X89943135Y-44678600D01*
X89838065Y-44678600D01*
X89735013Y-44699098D01*
X89637940Y-44739307D01*
X89550577Y-44797681D01*
X89476281Y-44871977D01*
X89417907Y-44959340D01*
X89377698Y-45056413D01*
X89357200Y-45159465D01*
X88188800Y-45159465D01*
X88188800Y-44633854D01*
X88224023Y-44610319D01*
X88298319Y-44536023D01*
X88356693Y-44448660D01*
X88396902Y-44351587D01*
X88417400Y-44248535D01*
X88417400Y-44143465D01*
X88396902Y-44040413D01*
X88356693Y-43943340D01*
X88298319Y-43855977D01*
X88224023Y-43781681D01*
X88136660Y-43723307D01*
X88039587Y-43683098D01*
X87960200Y-43667307D01*
X87960200Y-36827967D01*
X88314326Y-36827967D01*
X88315800Y-36842935D01*
X88315799Y-41869641D01*
X88314326Y-41884599D01*
X88315799Y-41899557D01*
X88315799Y-41899564D01*
X88320210Y-41944349D01*
X88337639Y-42001804D01*
X88365941Y-42054755D01*
X88404031Y-42101167D01*
X88415660Y-42110711D01*
X92229892Y-45924944D01*
X92239432Y-45936568D01*
X92285843Y-45974658D01*
X92338794Y-46002960D01*
X92396248Y-46020389D01*
X92401889Y-46020945D01*
X92441034Y-46024800D01*
X92441041Y-46024800D01*
X92455999Y-46026273D01*
X92470957Y-46024800D01*
X92526146Y-46024800D01*
X92549681Y-46060023D01*
X92623977Y-46134319D01*
X92711340Y-46192693D01*
X92808413Y-46232902D01*
X92911465Y-46253400D01*
X93016535Y-46253400D01*
X93119587Y-46232902D01*
X93192601Y-46202658D01*
X93192601Y-46893505D01*
X91737207Y-48348900D01*
X90695742Y-48348900D01*
X90637023Y-48290181D01*
X90549660Y-48231807D01*
X90452587Y-48191598D01*
X90349535Y-48171100D01*
X90244465Y-48171100D01*
X90141413Y-48191598D01*
X90044340Y-48231807D01*
X89956977Y-48290181D01*
X89882681Y-48364477D01*
X89824307Y-48451840D01*
X89784098Y-48548913D01*
X89763600Y-48651965D01*
X89763600Y-48757035D01*
X89784098Y-48860087D01*
X89824307Y-48957160D01*
X89882681Y-49044523D01*
X89956977Y-49118819D01*
X90044340Y-49177193D01*
X90141413Y-49217402D01*
X90244465Y-49237900D01*
X90349535Y-49237900D01*
X90452587Y-49217402D01*
X90549660Y-49177193D01*
X90637023Y-49118819D01*
X90695742Y-49060100D01*
X91867045Y-49060100D01*
X91884500Y-49061819D01*
X91901955Y-49060100D01*
X91901963Y-49060100D01*
X91954210Y-49054954D01*
X92021240Y-49034621D01*
X92083016Y-49001601D01*
X92137163Y-48957163D01*
X92148299Y-48943594D01*
X93787305Y-47304589D01*
X93800863Y-47293462D01*
X93811991Y-47279903D01*
X93811996Y-47279898D01*
X93845302Y-47239315D01*
X93845303Y-47239314D01*
X93878322Y-47177539D01*
X93898655Y-47110509D01*
X93903801Y-47058262D01*
X93903801Y-47058254D01*
X93905520Y-47040799D01*
X93903801Y-47023344D01*
X93903801Y-44162653D01*
X93905520Y-44145200D01*
X93903801Y-44127747D01*
X93903801Y-44127738D01*
X93898655Y-44075491D01*
X93878322Y-44008461D01*
X93845302Y-43946685D01*
X93840045Y-43940279D01*
X93811996Y-43906101D01*
X93811991Y-43906096D01*
X93800864Y-43892538D01*
X93787306Y-43881411D01*
X93402118Y-43496224D01*
X93422819Y-43475523D01*
X93481193Y-43388160D01*
X93521402Y-43291087D01*
X93541900Y-43188035D01*
X93541900Y-43082965D01*
X93521402Y-42979913D01*
X93481193Y-42882840D01*
X93422819Y-42795477D01*
X93348523Y-42721181D01*
X93261160Y-42662807D01*
X93164087Y-42622598D01*
X93061035Y-42602100D01*
X92955965Y-42602100D01*
X92852913Y-42622598D01*
X92755840Y-42662807D01*
X92668477Y-42721181D01*
X92594181Y-42795477D01*
X92535807Y-42882840D01*
X92495598Y-42979913D01*
X92475100Y-43082965D01*
X92475100Y-43188035D01*
X92495598Y-43291087D01*
X92535807Y-43388160D01*
X92594181Y-43475523D01*
X92668477Y-43549819D01*
X92671900Y-43552106D01*
X92671900Y-43607044D01*
X92670181Y-43624500D01*
X92671900Y-43641955D01*
X92671900Y-43641962D01*
X92677046Y-43694209D01*
X92697379Y-43761239D01*
X92730399Y-43823015D01*
X92774837Y-43877162D01*
X92788401Y-43888294D01*
X93192602Y-44292497D01*
X93192602Y-45237342D01*
X93119587Y-45207098D01*
X93016535Y-45186600D01*
X92911465Y-45186600D01*
X92808413Y-45207098D01*
X92711340Y-45247307D01*
X92623977Y-45305681D01*
X92549681Y-45379977D01*
X92548619Y-45381567D01*
X90372451Y-43205400D01*
X90476535Y-43205400D01*
X90579587Y-43184902D01*
X90676660Y-43144693D01*
X90764023Y-43086319D01*
X90838319Y-43012023D01*
X90896693Y-42924660D01*
X90936902Y-42827587D01*
X90957400Y-42724535D01*
X90957400Y-42619465D01*
X90936902Y-42516413D01*
X90896693Y-42419340D01*
X90838319Y-42331977D01*
X90764023Y-42257681D01*
X90676660Y-42199307D01*
X90579587Y-42159098D01*
X90476535Y-42138600D01*
X90371465Y-42138600D01*
X90329916Y-42146864D01*
X89458800Y-41275749D01*
X89458800Y-39299854D01*
X89494023Y-39276319D01*
X89568319Y-39202023D01*
X89626693Y-39114660D01*
X89666902Y-39017587D01*
X89687400Y-38914535D01*
X89687400Y-38809465D01*
X89666902Y-38706413D01*
X89626693Y-38609340D01*
X89568319Y-38521977D01*
X89494023Y-38447681D01*
X89406660Y-38389307D01*
X89309587Y-38349098D01*
X89206535Y-38328600D01*
X89101465Y-38328600D01*
X88998413Y-38349098D01*
X88925399Y-38379341D01*
X88925399Y-37058740D01*
X88935307Y-37082660D01*
X88993681Y-37170023D01*
X89067977Y-37244319D01*
X89155340Y-37302693D01*
X89252413Y-37342902D01*
X89355465Y-37363400D01*
X89460535Y-37363400D01*
X89563587Y-37342902D01*
X89660660Y-37302693D01*
X89748023Y-37244319D01*
X89822319Y-37170023D01*
X89845854Y-37134800D01*
X92526146Y-37134800D01*
X92549681Y-37170023D01*
X92623977Y-37244319D01*
X92711340Y-37302693D01*
X92808413Y-37342902D01*
X92911465Y-37363400D01*
X93016535Y-37363400D01*
X93119587Y-37342902D01*
X93216660Y-37302693D01*
X93304023Y-37244319D01*
X93378319Y-37170023D01*
X93436693Y-37082660D01*
X93476902Y-36985587D01*
X93497400Y-36882535D01*
X93497400Y-36777465D01*
X93476902Y-36674413D01*
X93436693Y-36577340D01*
X93378319Y-36489977D01*
X93304023Y-36415681D01*
X93216660Y-36357307D01*
X93119587Y-36317098D01*
X93016535Y-36296600D01*
X92911465Y-36296600D01*
X92808413Y-36317098D01*
X92711340Y-36357307D01*
X92623977Y-36415681D01*
X92549681Y-36489977D01*
X92526146Y-36525200D01*
X89845854Y-36525200D01*
X89822319Y-36489977D01*
X89748023Y-36415681D01*
X89660660Y-36357307D01*
X89563587Y-36317098D01*
X89562697Y-36316921D01*
X89760818Y-36118800D01*
X90240146Y-36118800D01*
X90263681Y-36154023D01*
X90337977Y-36228319D01*
X90425340Y-36286693D01*
X90522413Y-36326902D01*
X90625465Y-36347400D01*
X90730535Y-36347400D01*
X90833587Y-36326902D01*
X90930660Y-36286693D01*
X91018023Y-36228319D01*
X91092319Y-36154023D01*
X91150693Y-36066660D01*
X91190902Y-35969587D01*
X91211400Y-35866535D01*
X91211400Y-35761465D01*
X91190902Y-35658413D01*
X91150693Y-35561340D01*
X91092319Y-35473977D01*
X91018023Y-35399681D01*
X90930660Y-35341307D01*
X90833587Y-35301098D01*
X90730535Y-35280600D01*
X90625465Y-35280600D01*
X90522413Y-35301098D01*
X90425340Y-35341307D01*
X90337977Y-35399681D01*
X90263681Y-35473977D01*
X90240146Y-35509200D01*
X89649524Y-35509200D01*
X89634566Y-35507727D01*
X89619608Y-35509200D01*
X89619600Y-35509200D01*
X89579969Y-35513103D01*
X89574814Y-35513611D01*
X89554363Y-35519815D01*
X89517360Y-35531040D01*
X89464409Y-35559342D01*
X89417998Y-35597432D01*
X89408458Y-35609056D01*
X88415656Y-36601859D01*
X88404032Y-36611399D01*
X88365942Y-36657810D01*
X88360449Y-36668087D01*
X88337639Y-36710762D01*
X88320210Y-36768216D01*
X88314326Y-36827967D01*
X87960200Y-36827967D01*
X87960200Y-34173030D01*
X87969333Y-34138946D01*
X87986946Y-34121333D01*
X88021030Y-34112200D01*
X94133148Y-34112200D01*
X96114775Y-36093828D01*
X96040587Y-36063098D01*
X95937535Y-36042600D01*
X95832465Y-36042600D01*
X95729413Y-36063098D01*
X95632340Y-36103307D01*
X95544977Y-36161681D01*
X95470681Y-36235977D01*
X95412307Y-36323340D01*
X95372098Y-36420413D01*
X95351600Y-36523465D01*
X95351600Y-36606506D01*
X91325064Y-40633043D01*
X91294836Y-40612845D01*
X91197763Y-40572636D01*
X91094711Y-40552138D01*
X90989641Y-40552138D01*
X90951868Y-40559651D01*
X90949135Y-40545916D01*
X94206108Y-37288944D01*
X94206112Y-37288939D01*
X94643038Y-36852013D01*
X94660065Y-36855400D01*
X94765135Y-36855400D01*
X94868187Y-36834902D01*
X94965260Y-36794693D01*
X95052623Y-36736319D01*
X95126919Y-36662023D01*
X95185293Y-36574660D01*
X95225502Y-36477587D01*
X95246000Y-36374535D01*
X95246000Y-36269465D01*
X95225502Y-36166413D01*
X95185293Y-36069340D01*
X95126919Y-35981977D01*
X95052623Y-35907681D01*
X94965260Y-35849307D01*
X94868187Y-35809098D01*
X94765135Y-35788600D01*
X94660065Y-35788600D01*
X94557013Y-35809098D01*
X94459940Y-35849307D01*
X94372577Y-35907681D01*
X94298281Y-35981977D01*
X94239907Y-36069340D01*
X94199698Y-36166413D01*
X94179200Y-36269465D01*
X94179200Y-36374535D01*
X94192342Y-36440606D01*
X93775061Y-36857888D01*
X93775056Y-36857892D01*
X90518084Y-40114865D01*
X90476535Y-40106600D01*
X90371465Y-40106600D01*
X90268413Y-40127098D01*
X90171340Y-40167307D01*
X90083977Y-40225681D01*
X90009681Y-40299977D01*
X89951307Y-40387340D01*
X89911098Y-40484413D01*
X89890600Y-40587465D01*
X89890600Y-40692535D01*
X89911098Y-40795587D01*
X89951307Y-40892660D01*
X90009681Y-40980023D01*
X90083977Y-41054319D01*
X90171340Y-41112693D01*
X90268413Y-41152902D01*
X90371465Y-41173400D01*
X90476535Y-41173400D01*
X90514308Y-41165887D01*
X90529274Y-41241125D01*
X90569483Y-41338198D01*
X90627857Y-41425561D01*
X90702153Y-41499857D01*
X90789516Y-41558231D01*
X90886589Y-41598440D01*
X90989641Y-41618938D01*
X91094711Y-41618938D01*
X91197763Y-41598440D01*
X91275440Y-41566265D01*
X91319210Y-41561954D01*
X91386240Y-41541621D01*
X91448016Y-41508601D01*
X91502163Y-41464163D01*
X91513299Y-41450594D01*
X95854494Y-37109400D01*
X95937535Y-37109400D01*
X96040587Y-37088902D01*
X96137660Y-37048693D01*
X96225023Y-36990319D01*
X96299319Y-36916023D01*
X96342200Y-36851847D01*
X96342201Y-44752532D01*
X96340727Y-44767500D01*
X96346611Y-44827251D01*
X96364040Y-44884705D01*
X96364041Y-44884706D01*
X96392343Y-44937657D01*
X96430433Y-44984068D01*
X96442056Y-44993607D01*
X96928892Y-45480444D01*
X96938432Y-45492068D01*
X96950056Y-45501608D01*
X96958767Y-45508757D01*
X96984843Y-45530158D01*
X97037794Y-45558460D01*
X97077819Y-45570602D01*
X97095248Y-45575889D01*
X97100889Y-45576445D01*
X97140034Y-45580300D01*
X97140041Y-45580300D01*
X97154999Y-45581773D01*
X97169957Y-45580300D01*
X97225146Y-45580300D01*
X97248681Y-45615523D01*
X97322977Y-45689819D01*
X97410340Y-45748193D01*
X97507413Y-45788402D01*
X97610465Y-45808900D01*
X97715535Y-45808900D01*
X97818587Y-45788402D01*
X97915660Y-45748193D01*
X98003023Y-45689819D01*
X98077319Y-45615523D01*
X98135693Y-45528160D01*
X98175902Y-45431087D01*
X98196400Y-45328035D01*
X98196400Y-45222965D01*
X98175902Y-45119913D01*
X98135693Y-45022840D01*
X98077319Y-44935477D01*
X98003023Y-44861181D01*
X97957854Y-44831000D01*
X98003023Y-44800819D01*
X98077319Y-44726523D01*
X98135693Y-44639160D01*
X98175902Y-44542087D01*
X98196400Y-44439035D01*
X98196400Y-44333965D01*
X98175902Y-44230913D01*
X98135693Y-44133840D01*
X98077319Y-44046477D01*
X98003023Y-43972181D01*
X97957854Y-43942000D01*
X98003023Y-43911819D01*
X98077319Y-43837523D01*
X98135693Y-43750160D01*
X98175902Y-43653087D01*
X98196400Y-43550035D01*
X98196400Y-43444965D01*
X98175902Y-43341913D01*
X98135693Y-43244840D01*
X98077319Y-43157477D01*
X98003023Y-43083181D01*
X97915660Y-43024807D01*
X97818587Y-42984598D01*
X97715535Y-42964100D01*
X97610465Y-42964100D01*
X97568916Y-42972365D01*
X97561418Y-42964867D01*
X97561418Y-42531541D01*
X99494320Y-44464444D01*
X99503860Y-44476068D01*
X99550271Y-44514158D01*
X99591179Y-44536023D01*
X99603222Y-44542460D01*
X99660676Y-44559889D01*
X99666317Y-44560445D01*
X99705462Y-44564300D01*
X99705469Y-44564300D01*
X99720427Y-44565773D01*
X99735385Y-44564300D01*
X100590646Y-44564300D01*
X100614181Y-44599523D01*
X100688477Y-44673819D01*
X100775840Y-44732193D01*
X100872913Y-44772402D01*
X100975965Y-44792900D01*
X101081035Y-44792900D01*
X101184087Y-44772402D01*
X101281160Y-44732193D01*
X101368523Y-44673819D01*
X101442819Y-44599523D01*
X101501193Y-44512160D01*
X101541402Y-44415087D01*
X101561900Y-44312035D01*
X101561900Y-44206965D01*
X101541402Y-44103913D01*
X101501193Y-44006840D01*
X101442819Y-43919477D01*
X101368523Y-43845181D01*
X101355104Y-43836215D01*
X101432023Y-43784819D01*
X101506319Y-43710523D01*
X101564693Y-43623160D01*
X101604902Y-43526087D01*
X101625400Y-43423035D01*
X101625400Y-43317965D01*
X101604902Y-43214913D01*
X101564693Y-43117840D01*
X101506319Y-43030477D01*
X101432023Y-42956181D01*
X101344660Y-42897807D01*
X101247587Y-42857598D01*
X101144535Y-42837100D01*
X101039465Y-42837100D01*
X100936413Y-42857598D01*
X100871746Y-42884384D01*
X100929693Y-42797660D01*
X100969902Y-42700587D01*
X100990400Y-42597535D01*
X100990400Y-42492465D01*
X100969902Y-42389413D01*
X100929693Y-42292340D01*
X100871319Y-42204977D01*
X100797023Y-42130681D01*
X100709660Y-42072307D01*
X100612587Y-42032098D01*
X100509535Y-42011600D01*
X100404465Y-42011600D01*
X100301413Y-42032098D01*
X100204340Y-42072307D01*
X100116977Y-42130681D01*
X100042681Y-42204977D01*
X100019146Y-42240200D01*
X98994312Y-42240200D01*
X98475846Y-41721735D01*
X98475844Y-35578682D01*
X98477318Y-35563714D01*
X98471434Y-35503963D01*
X98454005Y-35446509D01*
X98425702Y-35393558D01*
X98397153Y-35358771D01*
X98397147Y-35358765D01*
X98387612Y-35347147D01*
X98375994Y-35337612D01*
X97064815Y-34026434D01*
X97064867Y-34026382D01*
X97074343Y-34014834D01*
X97081385Y-34001660D01*
X97084588Y-33992222D01*
X97101603Y-33928722D01*
X97104200Y-33909000D01*
X97104200Y-30034751D01*
X99659392Y-32589944D01*
X99668932Y-32601568D01*
X99715343Y-32639658D01*
X99768294Y-32667960D01*
X99825748Y-32685389D01*
X99831389Y-32685945D01*
X99870534Y-32689800D01*
X99870541Y-32689800D01*
X99885499Y-32691273D01*
X99900457Y-32689800D01*
X101416146Y-32689800D01*
X101439681Y-32725023D01*
X101493358Y-32778700D01*
X98989854Y-32778700D01*
X98966319Y-32743477D01*
X98892023Y-32669181D01*
X98804660Y-32610807D01*
X98707587Y-32570598D01*
X98604535Y-32550100D01*
X98499465Y-32550100D01*
X98396413Y-32570598D01*
X98299340Y-32610807D01*
X98211977Y-32669181D01*
X98137681Y-32743477D01*
X98079307Y-32830840D01*
X98039098Y-32927913D01*
X98018600Y-33030965D01*
X98018600Y-33136035D01*
X98039098Y-33239087D01*
X98079307Y-33336160D01*
X98137681Y-33423523D01*
X98211977Y-33497819D01*
X98299340Y-33556193D01*
X98396413Y-33596402D01*
X98499465Y-33616900D01*
X98604535Y-33616900D01*
X98707587Y-33596402D01*
X98804660Y-33556193D01*
X98892023Y-33497819D01*
X98966319Y-33423523D01*
X98989854Y-33388300D01*
X108252542Y-33388300D01*
X108267500Y-33389773D01*
X108282458Y-33388300D01*
X108282466Y-33388300D01*
X108327251Y-33383889D01*
X108384706Y-33366460D01*
X108437657Y-33338158D01*
X108484068Y-33300068D01*
X108493612Y-33288439D01*
X109570416Y-32211636D01*
X109611965Y-32219900D01*
X109717035Y-32219900D01*
X109820087Y-32199402D01*
X109893102Y-32169158D01*
X109893102Y-32352004D01*
X106024707Y-36220400D01*
X103014742Y-36220400D01*
X102956023Y-36161681D01*
X102868660Y-36103307D01*
X102771587Y-36063098D01*
X102668535Y-36042600D01*
X102563465Y-36042600D01*
X102460413Y-36063098D01*
X102363340Y-36103307D01*
X102275977Y-36161681D01*
X102201681Y-36235977D01*
X102143307Y-36323340D01*
X102103098Y-36420413D01*
X102082600Y-36523465D01*
X102082600Y-36628535D01*
X102103098Y-36731587D01*
X102143307Y-36828660D01*
X102201681Y-36916023D01*
X102275977Y-36990319D01*
X102363340Y-37048693D01*
X102460413Y-37088902D01*
X102563465Y-37109400D01*
X102668535Y-37109400D01*
X102771587Y-37088902D01*
X102868660Y-37048693D01*
X102956023Y-36990319D01*
X103014742Y-36931600D01*
X106154545Y-36931600D01*
X106172000Y-36933319D01*
X106189455Y-36931600D01*
X106189463Y-36931600D01*
X106241710Y-36926454D01*
X106308740Y-36906121D01*
X106370516Y-36873101D01*
X106424663Y-36828663D01*
X106435799Y-36815094D01*
X110487801Y-32763093D01*
X110501364Y-32751962D01*
X110545802Y-32697815D01*
X110578822Y-32636039D01*
X110599155Y-32569009D01*
X110604301Y-32516762D01*
X110604301Y-32516755D01*
X110606020Y-32499299D01*
X110604301Y-32481844D01*
X110604301Y-31018156D01*
X110606020Y-31000700D01*
X110604301Y-30983245D01*
X110604301Y-30983238D01*
X110599155Y-30930991D01*
X110578822Y-30863961D01*
X110545802Y-30802185D01*
X110540194Y-30795352D01*
X110512496Y-30761602D01*
X110512491Y-30761597D01*
X110501363Y-30748038D01*
X110487805Y-30736911D01*
X109626400Y-29875507D01*
X109626400Y-29792465D01*
X109605902Y-29689413D01*
X109565693Y-29592340D01*
X109507319Y-29504977D01*
X109433023Y-29430681D01*
X109345660Y-29372307D01*
X109248587Y-29332098D01*
X109145535Y-29311600D01*
X109040465Y-29311600D01*
X108937413Y-29332098D01*
X108840340Y-29372307D01*
X108752977Y-29430681D01*
X108678681Y-29504977D01*
X108620307Y-29592340D01*
X108580098Y-29689413D01*
X108559600Y-29792465D01*
X108559600Y-29897535D01*
X108580098Y-30000587D01*
X108620307Y-30097660D01*
X108678681Y-30185023D01*
X108752977Y-30259319D01*
X108840340Y-30317693D01*
X108937413Y-30357902D01*
X109040465Y-30378400D01*
X109123507Y-30378400D01*
X109893101Y-31147995D01*
X109893101Y-31203841D01*
X109820087Y-31173598D01*
X109717035Y-31153100D01*
X109611965Y-31153100D01*
X109508913Y-31173598D01*
X109411840Y-31213807D01*
X109324477Y-31272181D01*
X109250181Y-31346477D01*
X109191807Y-31433840D01*
X109151598Y-31530913D01*
X109131100Y-31633965D01*
X109131100Y-31739035D01*
X109139364Y-31780584D01*
X108141249Y-32778700D01*
X102214642Y-32778700D01*
X102268319Y-32725023D01*
X102326693Y-32637660D01*
X102366902Y-32540587D01*
X102387400Y-32437535D01*
X102387400Y-32332465D01*
X102366902Y-32229413D01*
X102326693Y-32132340D01*
X102268319Y-32044977D01*
X102194023Y-31970681D01*
X102106660Y-31912307D01*
X102009587Y-31872098D01*
X101906535Y-31851600D01*
X101801465Y-31851600D01*
X101698413Y-31872098D01*
X101601340Y-31912307D01*
X101513977Y-31970681D01*
X101439681Y-32044977D01*
X101416146Y-32080200D01*
X100011752Y-32080200D01*
X97104200Y-29172649D01*
X97104200Y-26840142D01*
X97124819Y-26819523D01*
X97183193Y-26732160D01*
X97223402Y-26635087D01*
X97243900Y-26532035D01*
X97243900Y-26426965D01*
X97223402Y-26323913D01*
X97183193Y-26226840D01*
X97124819Y-26139477D01*
X97104200Y-26118858D01*
X97104200Y-25029030D01*
X97113333Y-24994946D01*
X97130946Y-24977333D01*
X97165030Y-24968200D01*
X105306617Y-24968200D01*
X105313181Y-24978023D01*
G37*
G04 #@! TD.AperFunction*
M02*
