M48
; DRILL file {KiCad (5.1.10)-1} date 10/08/21 21:44:04
; FORMAT={-:-/ absolute / metric / decimal}
; #@! TF.CreationDate,2021-10-08T21:44:04+13:00
; #@! TF.GenerationSoftware,Kicad,Pcbnew,(5.1.10)-1
; #@! TF.FileFunction,Plated,1,2,PTH
FMAT,2
METRIC
T1C0.200
T2C0.305
T3C0.750
T4C1.000
T5C1.400
%
G90
G05
T1
X94.021Y-40.173
X94.021Y-41.148
X94.021Y-42.123
X94.996Y-40.173
X94.996Y-41.148
X94.996Y-42.123
X95.971Y-40.173
X95.971Y-41.148
X95.971Y-42.123
T2
X62.674Y-38.798
X63.881Y-38.798
X65.215Y-45.91
X65.238Y-38.822
X65.238Y-43.41
X65.238Y-48.41
X78.232Y-26.67
X78.232Y-27.686
X78.232Y-28.702
X78.232Y-38.862
X78.232Y-39.878
X78.232Y-40.894
X78.232Y-51.054
X78.232Y-52.07
X78.232Y-53.086
X79.248Y-26.67
X79.248Y-27.686
X79.248Y-28.702
X79.248Y-38.862
X79.248Y-39.878
X79.248Y-40.894
X79.248Y-51.054
X79.248Y-52.07
X79.248Y-53.086
X80.264Y-26.67
X80.264Y-27.686
X80.264Y-28.702
X80.264Y-38.862
X80.264Y-39.878
X80.264Y-40.894
X80.264Y-51.054
X80.264Y-52.07
X80.264Y-53.086
X81.788Y-67.818
X83.058Y-33.528
X83.058Y-34.544
X83.058Y-35.56
X83.439Y-63.5
X83.566Y-49.276
X83.566Y-50.292
X83.566Y-51.308
X83.82Y-56.134
X83.82Y-57.15
X83.82Y-58.166
X84.074Y-33.528
X84.074Y-34.544
X84.074Y-35.56
X84.582Y-49.276
X84.582Y-50.292
X84.582Y-51.308
X84.836Y-56.134
X84.836Y-57.15
X84.836Y-58.166
X85.09Y-33.528
X85.09Y-34.544
X85.09Y-35.56
X85.598Y-49.276
X85.598Y-50.292
X85.598Y-51.308
X85.852Y-56.134
X85.852Y-57.15
X85.852Y-58.166
X87.884Y-44.196
X87.884Y-46.482
X88.011Y-49.657
X88.9Y-46.228
X89.154Y-38.862
X89.408Y-36.83
X89.662Y-22.479
X89.891Y-45.212
X90.297Y-48.704
X90.424Y-40.64
X90.424Y-42.672
X90.678Y-35.814
X91.042Y-41.086
X91.567Y-46.863
X92.964Y-36.83
X92.964Y-45.72
X93.008Y-43.136
X93.98Y-24.638
X94.713Y-36.322
X95.25Y-25.463
X95.783Y-24.613
X95.885Y-36.576
X96.71Y-26.479
X97.028Y-46.228
X97.663Y-43.497
X97.663Y-44.386
X97.663Y-45.276
X98.552Y-33.084
X99.06Y-45.212
X100.266Y-64.305
X100.457Y-42.545
X101.028Y-44.259
X101.092Y-43.37
X101.854Y-32.385
X101.981Y-64.287
X102.108Y-46.228
X102.108Y-47.244
X102.616Y-36.576
X103.124Y-25.4
X105.727Y-24.638
X107.442Y-62.865
X107.632Y-58.293
X108.267Y-24.638
X108.712Y-61.722
X108.712Y-63.119
X109.093Y-29.845
X109.664Y-31.686
X110.236Y-51.562
X110.617Y-56.197
X110.807Y-24.638
X110.871Y-59.055
X111.252Y-68.072
X111.887Y-58.547
X112.598Y-57.429
X113.728Y-36.512
X117.411Y-42.799
T3
X123.634Y-40.768
X123.634Y-42.768
X123.634Y-44.768
X123.634Y-46.768
X123.634Y-48.768
T4
X78.796Y-18.1
X81.336Y-18.1
X83.876Y-18.1
X86.416Y-18.1
X87.947Y-66.358
X88.956Y-18.1
X90.487Y-66.358
X91.496Y-18.1
X93.027Y-66.358
X94.036Y-18.1
X95.567Y-66.358
X96.576Y-18.1
X98.108Y-66.358
X99.116Y-18.1
X100.647Y-66.358
X101.656Y-18.1
X103.188Y-66.358
X105.72Y-18.1
X105.727Y-66.358
X108.26Y-18.1
X110.8Y-18.1
X110.807Y-66.358
X113.34Y-18.1
X113.347Y-66.358
X115.88Y-18.1
X115.887Y-66.358
X118.42Y-18.1
X118.427Y-66.358
X120.96Y-18.1
X120.968Y-66.358
X123.5Y-18.1
X123.507Y-66.358
T5
X90.995Y-55.308
X90.995Y-60.808
X95.195Y-55.308
X95.195Y-60.808
T0
M30
